<svg xmlns="http://www.w3.org/2000/svg" width="184" height="72" fill="none" viewBox="0 0 184 72"><path fill="#fff" d="M58.583 29.835C57.9602 29.6239 57.3323 29.4278 56.7 29.247C56.8054 28.8257 56.902 28.4023 56.99 27.977C58.419 21.135 57.484 15.621 54.298 13.805C51.661 12.305 47.575 13.453 43.262 16.587L43.374 19.637C47.494 16.251 51.284 14.94 53.048 15.947C55.008 17.064 55.772 21.567 54.539 27.479C54.459 27.863 54.371 28.247 54.277 28.628C51.847 28.074 49.211 27.663 46.448 27.407C45.5208 26.0999 44.5444 24.8283 43.521 23.595L43.577 25.151C44.0099 25.6387 44.2884 26.2437 44.3774 26.8897C44.4664 27.5356 44.3619 28.1935 44.077 28.78C44.2 29.081 44.287 29.396 44.344 29.717C44.585 29.731 44.824 29.749 45.062 29.766C46.0555 31.2159 46.9967 32.7008 47.884 34.218C48.7759 35.7373 49.6177 37.2855 50.408 38.86C49.6264 40.4515 48.7868 42.0139 47.891 43.544C47.0037 45.0673 46.0672 46.5614 45.083 48.024C44.8565 48.0405 44.6298 48.0552 44.403 48.068L44.54 53.025C45.191 52.185 45.835 51.306 46.476 50.393C49.309 50.143 51.98 49.739 54.406 49.186C54.526 49.663 54.63 50.13 54.725 50.586C55.31 53.509 55.394 56.156 55.005 58.221C54.655 60.078 53.955 61.317 53.086 61.811C51.486 62.728 48.304 61.815 44.708 59.193L44.792 62.243C48.535 64.579 51.994 65.288 54.34 63.946C57.48 62.15 58.503 56.713 57.176 50.099C57.0704 49.5809 56.9538 49.0651 56.826 48.552C57.196 48.445 57.561 48.332 57.915 48.217C64.627 46.02 68.996 42.467 68.996 38.832C68.993 35.356 64.906 31.987 58.583 29.835ZM50.148 32.987C49.5756 32.0096 48.9812 31.0454 48.365 30.095C50.235 30.327 52.025 30.638 53.705 31.018C53.1651 32.7092 52.54 34.372 51.832 36C51.2919 34.9839 50.7304 33.9794 50.148 32.987ZM48.358 47.73C49.6076 45.7774 50.7737 43.7726 51.853 41.721C52.5971 43.3815 53.2537 45.0798 53.82 46.809C52.126 47.193 50.291 47.502 48.358 47.73ZM57.231 45.882C56.912 45.986 56.583 46.09 56.247 46.187C55.504 43.869 54.507 41.403 53.281 38.857C54.451 36.37 55.41 33.938 56.131 31.634C56.73 31.807 57.311 31.987 57.871 32.177C63.291 34.021 66.596 36.743 66.596 38.843C66.596 41.081 63.026 43.982 57.231 45.882ZM33.283 59.344L33.203 62.364C29.453 64.602 25.954 65.268 23.623 63.941C20.573 62.201 19.617 57.134 20.843 50.753C20.977 50.06 21.131 49.371 21.303 48.685C20.7709 48.536 20.2427 48.3733 19.719 48.197C13.255 46.01 9 42.408 9 38.817C9 35.342 12.96 31.992 19.168 29.855C19.862 29.615 20.588 29.391 21.338 29.179C21.1773 28.543 21.0322 27.9031 20.903 27.26C19.617 20.765 20.521 15.576 23.578 13.827C26.234 12.306 30.363 13.417 34.734 16.522L34.622 19.552C30.462 16.21 26.638 14.935 24.832 15.967C22.989 17.02 22.26 21.219 23.36 26.782C23.48 27.378 23.613 27.974 23.763 28.566C26.189 28.022 28.828 27.617 31.587 27.364C32.5005 26.0844 33.4625 24.8401 34.471 23.634L34.415 25.137C33.9942 25.6263 33.7254 26.2277 33.6413 26.8675C33.5573 27.5073 33.6618 28.1577 33.942 28.739C33.819 29.041 33.732 29.356 33.676 29.682C33.437 29.695 33.203 29.712 32.968 29.73C30.9598 32.6372 29.1763 35.6934 27.633 38.872C28.407 40.4603 29.242 42.0181 30.136 43.542C31.0324 45.0755 31.9874 46.5739 32.999 48.034C33.196 48.044 33.392 48.058 33.592 48.069L33.458 52.846C32.83 52.0501 32.2198 51.2402 31.628 50.417C28.786 50.192 26.129 49.815 23.728 49.288C23.5683 49.925 23.4259 50.5662 23.301 51.211C22.253 56.666 23.021 60.737 24.871 61.79C25.741 62.285 27.177 62.268 28.982 61.637C30.325 61.17 31.783 60.394 33.283 59.344ZM27.866 44.79C27.2889 43.804 26.7347 42.8047 26.204 41.793C25.4877 43.4653 24.8536 45.1717 24.304 46.906C25.976 47.266 27.785 47.554 29.706 47.766C29.0688 46.789 28.4553 45.7967 27.866 44.79ZM29.653 30.057C27.796 30.286 26.012 30.587 24.34 30.961C24.8767 32.6617 25.4974 34.3348 26.2 35.974C26.73 34.962 27.28 33.964 27.855 32.977C28.4328 31.9906 29.0323 31.017 29.653 30.057ZM21.872 46.304C22.612 43.917 23.589 41.412 24.764 38.884C23.604 36.389 22.64 33.927 21.907 31.568C21.227 31.758 20.554 31.966 19.888 32.194C14.581 34.024 11.398 36.715 11.398 38.824C11.398 39.815 12.131 41.038 13.586 42.268C15.206 43.636 17.564 44.89 20.424 45.857C20.904 46.016 21.384 46.165 21.872 46.304ZM37.618 44.563C36.8837 44.2589 36.2561 43.7438 35.8146 43.0828C35.3731 42.4219 35.1377 41.6448 35.138 40.85C35.1375 40.0055 35.4032 39.1824 35.8975 38.4976C36.3917 37.8129 37.0893 37.3014 37.891 37.036L37.908 36.559H37.243C37.1276 36.5585 37.0171 36.5123 36.9356 36.4307C36.8541 36.349 36.8083 36.2384 36.808 36.123V35.643C36.808 35.403 37.004 35.206 37.243 35.206H37.493V31.896C37.493 31.368 37.743 30.898 38.127 30.594L38.181 29.211H37.888C37.7839 29.211 37.6841 29.1696 37.6105 29.096C37.5369 29.0224 37.4955 28.9226 37.4955 28.8185C37.4955 28.7144 37.5369 28.6146 37.6105 28.541C37.6841 28.4674 37.7839 28.426 37.888 28.426H38.208L39.141 2L40.054 28.43H40.398C40.502 28.43 40.6017 28.4713 40.6752 28.5448C40.7487 28.6183 40.79 28.718 40.79 28.822C40.79 28.926 40.7487 29.0257 40.6752 29.0992C40.6017 29.1727 40.502 29.214 40.398 29.214H40.081L40.131 30.574C40.3357 30.7283 40.5016 30.928 40.6158 31.1574C40.73 31.3869 40.7893 31.6397 40.789 31.896V35.21H41.039C41.279 35.21 41.474 35.406 41.474 35.646V36.126C41.474 36.366 41.278 36.562 41.039 36.562H40.351L40.367 37.029C41.1743 37.2904 41.878 37.8009 42.3769 38.4872C42.8759 39.1736 43.1444 40.0004 43.144 40.849C43.145 41.6484 42.9074 42.4299 42.4614 43.0934C42.0155 43.7569 41.3816 44.2721 40.641 44.573L40.674 45.486H41.039C41.279 45.486 41.474 45.682 41.474 45.922V46.402C41.474 46.642 41.278 46.839 41.039 46.839H40.725L41.127 62.047C40.4721 61.925 39.8072 61.8647 39.141 61.867C38.419 61.867 37.734 61.932 37.123 62.047L37.533 46.839H37.243C37.1274 46.8385 37.0168 46.7922 36.9353 46.7103C36.8538 46.6284 36.808 46.5176 36.808 46.402V45.922C36.808 45.682 37.004 45.486 37.243 45.486H37.584L37.618 44.563Z"/><path fill="#fff" d="M85.1378 34V20.9091H90.3026C91.2912 20.9091 92.1349 21.0859 92.8338 21.4396C93.5369 21.7891 94.0717 22.2855 94.4382 22.929C94.8089 23.5682 94.9943 24.3203 94.9943 25.1854C94.9943 26.0547 94.8068 26.8026 94.4318 27.429C94.0568 28.0511 93.5135 28.5284 92.8018 28.8608C92.0945 29.1932 91.2379 29.3594 90.2322 29.3594H86.7741V27.1349H89.7848C90.3132 27.1349 90.7521 27.0625 91.1016 26.9176C91.451 26.7727 91.7109 26.5554 91.8814 26.2656C92.0561 25.9759 92.1435 25.6158 92.1435 25.1854C92.1435 24.7507 92.0561 24.3842 91.8814 24.0859C91.7109 23.7876 91.4489 23.5618 91.0952 23.4084C90.7457 23.2507 90.3047 23.1719 89.772 23.1719H87.9055V34H85.1378ZM92.2074 28.0426L95.4609 34H92.4055L89.2223 28.0426H92.2074ZM101.215 34.1918C100.205 34.1918 99.3361 33.9872 98.6074 33.5781C97.883 33.1648 97.3248 32.581 96.9327 31.8267C96.5407 31.0682 96.3446 30.1712 96.3446 29.1357C96.3446 28.1257 96.5407 27.2393 96.9327 26.4766C97.3248 25.7138 97.8766 25.1193 98.5882 24.6932C99.3042 24.267 100.144 24.054 101.107 24.054C101.754 24.054 102.357 24.1584 102.916 24.3672C103.478 24.5717 103.968 24.8807 104.386 25.294C104.808 25.7074 105.136 26.2273 105.37 26.8537C105.605 27.4759 105.722 28.2045 105.722 29.0398V29.7876H97.4313V28.1001H103.159C103.159 27.7081 103.073 27.3608 102.903 27.0582C102.732 26.7557 102.496 26.5192 102.193 26.3487C101.895 26.174 101.548 26.0866 101.151 26.0866C100.738 26.0866 100.372 26.1825 100.052 26.3743C99.7367 26.5618 99.4895 26.8153 99.3105 27.1349C99.1316 27.4503 99.04 27.8018 99.0357 28.1896V29.794C99.0357 30.2798 99.1252 30.6996 99.3042 31.0533C99.4874 31.407 99.7452 31.6797 100.078 31.8714C100.41 32.0632 100.804 32.1591 101.26 32.1591C101.563 32.1591 101.84 32.1165 102.091 32.0312C102.343 31.946 102.558 31.8182 102.737 31.6477C102.916 31.4773 103.052 31.2685 103.146 31.0213L105.664 31.1875C105.536 31.7926 105.274 32.321 104.878 32.7727C104.486 33.2202 103.979 33.5696 103.357 33.821C102.739 34.0682 102.025 34.1918 101.215 34.1918ZM110.298 34.1854C109.672 34.1854 109.114 34.0767 108.624 33.8594C108.134 33.6378 107.746 33.3118 107.46 32.8814C107.179 32.4467 107.039 31.9055 107.039 31.2578C107.039 30.7124 107.139 30.2543 107.339 29.8835C107.539 29.5128 107.812 29.2145 108.157 28.9886C108.502 28.7628 108.894 28.5923 109.333 28.4773C109.776 28.3622 110.241 28.2812 110.727 28.2344C111.298 28.1747 111.758 28.1193 112.107 28.0682C112.457 28.0128 112.71 27.9318 112.868 27.8253C113.026 27.7187 113.105 27.5611 113.105 27.3523V27.3139C113.105 26.9091 112.977 26.5959 112.721 26.3743C112.47 26.1527 112.112 26.0419 111.647 26.0419C111.157 26.0419 110.767 26.1506 110.477 26.3679C110.188 26.581 109.996 26.8494 109.902 27.1733L107.384 26.9688C107.512 26.3722 107.763 25.8565 108.138 25.4219C108.513 24.983 108.997 24.6463 109.589 24.4119C110.186 24.1733 110.876 24.054 111.66 24.054C112.205 24.054 112.727 24.1179 113.226 24.2457C113.729 24.3736 114.174 24.5717 114.562 24.8402C114.954 25.1087 115.263 25.4538 115.489 25.8757C115.715 26.2933 115.828 26.794 115.828 27.3778V34H113.245V32.6385H113.169C113.011 32.9453 112.8 33.2159 112.536 33.4503C112.271 33.6804 111.954 33.8615 111.583 33.9936C111.213 34.1214 110.784 34.1854 110.298 34.1854ZM111.078 32.3061C111.479 32.3061 111.833 32.2273 112.139 32.0696C112.446 31.9077 112.687 31.6903 112.862 31.4176C113.036 31.1449 113.124 30.8359 113.124 30.4908V29.4489C113.039 29.5043 112.921 29.5554 112.772 29.6023C112.627 29.6449 112.463 29.6854 112.28 29.7237C112.097 29.7578 111.914 29.7898 111.73 29.8196C111.547 29.8452 111.381 29.8686 111.232 29.8899C110.912 29.9368 110.633 30.0114 110.394 30.1136C110.156 30.2159 109.97 30.3544 109.838 30.5291C109.706 30.6996 109.64 30.9126 109.64 31.1683C109.64 31.5391 109.774 31.8224 110.043 32.0185C110.316 32.2102 110.661 32.3061 111.078 32.3061ZM122.376 34.1918C121.371 34.1918 120.506 33.9787 119.781 33.5526C119.061 33.1222 118.507 32.5256 118.119 31.7628C117.736 31 117.544 30.1222 117.544 29.1293C117.544 28.1236 117.738 27.2415 118.126 26.483C118.518 25.7202 119.074 25.1257 119.794 24.6996C120.514 24.2692 121.371 24.054 122.363 24.054C123.22 24.054 123.97 24.2095 124.613 24.5206C125.257 24.8317 125.766 25.2685 126.141 25.831C126.516 26.3935 126.723 27.054 126.761 27.8125H124.192C124.119 27.3224 123.927 26.9283 123.616 26.63C123.309 26.3274 122.907 26.1761 122.408 26.1761C121.986 26.1761 121.618 26.2912 121.302 26.5213C120.991 26.7472 120.748 27.0774 120.574 27.5121C120.399 27.9467 120.312 28.473 120.312 29.0909C120.312 29.7173 120.397 30.25 120.567 30.6889C120.742 31.1278 120.987 31.4624 121.302 31.6925C121.618 31.9226 121.986 32.0376 122.408 32.0376C122.719 32.0376 122.998 31.9737 123.246 31.8459C123.497 31.718 123.704 31.5327 123.866 31.2898C124.032 31.0426 124.14 30.7464 124.192 30.4013H126.761C126.719 31.1513 126.514 31.8118 126.148 32.3828C125.785 32.9496 125.285 33.3928 124.645 33.7124C124.006 34.032 123.25 34.1918 122.376 34.1918ZM133.727 24.1818V26.2273H127.814V24.1818H133.727ZM129.157 21.8295H131.88V30.983C131.88 31.2344 131.918 31.4304 131.995 31.571C132.071 31.7074 132.178 31.8033 132.314 31.8587C132.455 31.9141 132.617 31.9418 132.8 31.9418C132.928 31.9418 133.056 31.9311 133.184 31.9098C133.311 31.8842 133.409 31.8651 133.478 31.8523L133.906 33.8786C133.77 33.9212 133.578 33.9702 133.331 34.0256C133.083 34.0852 132.783 34.1214 132.429 34.1342C131.773 34.1598 131.198 34.0724 130.703 33.8722C130.213 33.6719 129.832 33.3608 129.559 32.9389C129.287 32.517 129.152 31.9844 129.157 31.3409V21.8295ZM144.358 34H139.718V20.9091H144.397C145.714 20.9091 146.847 21.1712 147.797 21.6953C148.748 22.2152 149.479 22.9631 149.99 23.9389C150.506 24.9148 150.763 26.0824 150.763 27.4418C150.763 28.8054 150.506 29.9773 149.99 30.9574C149.479 31.9375 148.743 32.6896 147.785 33.2138C146.83 33.7379 145.688 34 144.358 34ZM142.486 31.6286H144.243C145.062 31.6286 145.75 31.4837 146.308 31.1939C146.871 30.8999 147.292 30.446 147.574 29.8324C147.859 29.2145 148.002 28.4176 148.002 27.4418C148.002 26.4744 147.859 25.6839 147.574 25.0703C147.292 24.4567 146.873 24.005 146.314 23.7152C145.756 23.4254 145.068 23.2805 144.25 23.2805H142.486V31.6286ZM155.562 34.1854C154.936 34.1854 154.377 34.0767 153.887 33.8594C153.397 33.6378 153.01 33.3118 152.724 32.8814C152.443 32.4467 152.302 31.9055 152.302 31.2578C152.302 30.7124 152.402 30.2543 152.603 29.8835C152.803 29.5128 153.076 29.2145 153.421 28.9886C153.766 28.7628 154.158 28.5923 154.597 28.4773C155.04 28.3622 155.505 28.2812 155.99 28.2344C156.561 28.1747 157.022 28.1193 157.371 28.0682C157.721 28.0128 157.974 27.9318 158.132 27.8253C158.289 27.7187 158.368 27.5611 158.368 27.3523V27.3139C158.368 26.9091 158.24 26.5959 157.985 26.3743C157.733 26.1527 157.375 26.0419 156.911 26.0419C156.421 26.0419 156.031 26.1506 155.741 26.3679C155.451 26.581 155.26 26.8494 155.166 27.1733L152.647 26.9688C152.775 26.3722 153.027 25.8565 153.402 25.4219C153.777 24.983 154.26 24.6463 154.853 24.4119C155.449 24.1733 156.14 24.054 156.924 24.054C157.469 24.054 157.991 24.1179 158.49 24.2457C158.993 24.3736 159.438 24.5717 159.826 24.8402C160.218 25.1087 160.527 25.4538 160.752 25.8757C160.978 26.2933 161.091 26.794 161.091 27.3778V34H158.509V32.6385H158.432C158.275 32.9453 158.064 33.2159 157.799 33.4503C157.535 33.6804 157.218 33.8615 156.847 33.9936C156.476 34.1214 156.048 34.1854 155.562 34.1854ZM156.342 32.3061C156.743 32.3061 157.096 32.2273 157.403 32.0696C157.71 31.9077 157.951 31.6903 158.125 31.4176C158.3 31.1449 158.387 30.8359 158.387 30.4908V29.4489C158.302 29.5043 158.185 29.5554 158.036 29.6023C157.891 29.6449 157.727 29.6854 157.544 29.7237C157.36 29.7578 157.177 29.7898 156.994 29.8196C156.811 29.8452 156.645 29.8686 156.495 29.8899C156.176 29.9368 155.897 30.0114 155.658 30.1136C155.419 30.2159 155.234 30.3544 155.102 30.5291C154.97 30.6996 154.904 30.9126 154.904 31.1683C154.904 31.5391 155.038 31.8224 155.306 32.0185C155.579 32.2102 155.924 32.3061 156.342 32.3061ZM164.533 37.6818C164.188 37.6818 163.864 37.6541 163.562 37.5987C163.263 37.5476 163.016 37.4815 162.82 37.4006L163.434 35.3679C163.754 35.4659 164.041 35.5192 164.297 35.5277C164.557 35.5362 164.781 35.4766 164.968 35.3487C165.16 35.2209 165.315 35.0036 165.435 34.6967L165.594 34.2812L162.072 24.1818H164.936L166.969 31.392H167.071L169.123 24.1818H172.006L168.19 35.0611C168.006 35.5895 167.757 36.0497 167.442 36.4418C167.131 36.8381 166.737 37.1428 166.259 37.3558C165.782 37.5732 165.207 37.6818 164.533 37.6818ZM85.1378 56V42.9091H90.3793C91.3423 42.9091 92.1456 43.0518 92.7891 43.3374C93.4325 43.6229 93.9162 44.0192 94.2401 44.5263C94.5639 45.0291 94.7259 45.6087 94.7259 46.2649C94.7259 46.7763 94.6236 47.2259 94.419 47.6136C94.2145 47.9972 93.9332 48.3125 93.5753 48.5597C93.2216 48.8026 92.8168 48.9751 92.3608 49.0774V49.2053C92.8594 49.2266 93.326 49.3672 93.7607 49.6271C94.1996 49.8871 94.5554 50.2514 94.8281 50.7202C95.1009 51.1847 95.2372 51.7386 95.2372 52.3821C95.2372 53.0767 95.0646 53.6967 94.7195 54.2422C94.3786 54.7834 93.8736 55.2116 93.2045 55.527C92.5355 55.8423 91.7109 56 90.7308 56H85.1378ZM87.9055 53.7372H90.1619C90.9332 53.7372 91.4957 53.5902 91.8494 53.2962C92.2031 52.9979 92.38 52.6016 92.38 52.1072C92.38 51.745 92.2926 51.4254 92.1179 51.1484C91.9432 50.8714 91.6939 50.6541 91.37 50.4964C91.0504 50.3388 90.669 50.2599 90.2259 50.2599H87.9055V53.7372ZM87.9055 48.3871H89.9574C90.3366 48.3871 90.6733 48.321 90.9673 48.1889C91.2656 48.0526 91.5 47.8608 91.6705 47.6136C91.8452 47.3665 91.9325 47.0703 91.9325 46.7251C91.9325 46.2521 91.7642 45.8707 91.4276 45.581C91.0952 45.2912 90.6222 45.1463 90.0085 45.1463H87.9055V48.3871ZM101.461 56.1918C100.452 56.1918 99.5822 55.9872 98.8535 55.5781C98.1291 55.1648 97.5708 54.581 97.1788 53.8267C96.7868 53.0682 96.5907 52.1712 96.5907 51.1357C96.5907 50.1257 96.7868 49.2393 97.1788 48.4766C97.5708 47.7138 98.1227 47.1193 98.8343 46.6932C99.5502 46.267 100.39 46.054 101.353 46.054C102.001 46.054 102.604 46.1584 103.162 46.3672C103.724 46.5717 104.214 46.8807 104.632 47.294C105.054 47.7074 105.382 48.2273 105.616 48.8537C105.851 49.4759 105.968 50.2045 105.968 51.0398V51.7876H97.6774V50.1001H103.405C103.405 49.7081 103.319 49.3608 103.149 49.0582C102.979 48.7557 102.742 48.5192 102.439 48.3487C102.141 48.174 101.794 48.0866 101.398 48.0866C100.984 48.0866 100.618 48.1825 100.298 48.3743C99.9828 48.5618 99.7356 48.8153 99.5566 49.1349C99.3777 49.4503 99.286 49.8018 99.2818 50.1896V51.794C99.2818 52.2798 99.3713 52.6996 99.5502 53.0533C99.7335 53.407 99.9913 53.6797 100.324 53.8714C100.656 54.0632 101.05 54.1591 101.506 54.1591C101.809 54.1591 102.086 54.1165 102.337 54.0312C102.589 53.946 102.804 53.8182 102.983 53.6477C103.162 53.4773 103.298 53.2685 103.392 53.0213L105.91 53.1875C105.782 53.7926 105.52 54.321 105.124 54.7727C104.732 55.2202 104.225 55.5696 103.603 55.821C102.985 56.0682 102.271 56.1918 101.461 56.1918ZM107.745 56V46.1818H110.385V47.8949H110.487C110.666 47.2855 110.966 46.8253 111.388 46.5142C111.81 46.1989 112.296 46.0412 112.846 46.0412C112.982 46.0412 113.129 46.0497 113.287 46.0668C113.444 46.0838 113.583 46.1072 113.702 46.1371V48.5533C113.574 48.5149 113.398 48.4808 113.172 48.451C112.946 48.4212 112.739 48.4062 112.552 48.4062C112.151 48.4062 111.793 48.4936 111.478 48.6683C111.167 48.8388 110.92 49.0774 110.736 49.3842C110.557 49.6911 110.468 50.0447 110.468 50.4453V56H107.745ZM117.833 42.9091V56H115.11V42.9091H117.833ZM120.014 56V46.1818H122.737V56H120.014ZM121.382 44.9162C120.977 44.9162 120.63 44.782 120.34 44.5135C120.055 44.2408 119.912 43.9148 119.912 43.5355C119.912 43.1605 120.055 42.8388 120.34 42.5703C120.63 42.2976 120.977 42.1612 121.382 42.1612C121.787 42.1612 122.132 42.2976 122.418 42.5703C122.708 42.8388 122.852 43.1605 122.852 43.5355C122.852 43.9148 122.708 44.2408 122.418 44.5135C122.132 44.782 121.787 44.9162 121.382 44.9162ZM127.642 50.3239V56H124.919V46.1818H127.514V47.9141H127.629C127.846 47.343 128.211 46.8913 128.722 46.5589C129.233 46.2223 129.853 46.054 130.582 46.054C131.264 46.054 131.858 46.2031 132.365 46.5014C132.873 46.7997 133.267 47.2259 133.548 47.7798C133.829 48.3295 133.97 48.9858 133.97 49.7486V56H131.247V50.2344C131.251 49.6335 131.098 49.1648 130.787 48.8281C130.475 48.4872 130.047 48.3168 129.502 48.3168C129.135 48.3168 128.811 48.3956 128.53 48.5533C128.253 48.7109 128.036 48.9411 127.878 49.2436C127.725 49.5419 127.646 49.902 127.642 50.3239Z"/></svg>