<svg width="258" height="48" viewBox="0 0 258 48" fill="none" xmlns="http://www.w3.org/2000/svg">
<g clip-path="url(#clip0_2080_488)">
<path d="M30.4709 0.623535H49.5091L24.7546 43.5355L0 0.623535H19.0383L24.7546 10.5307L30.4709 0.623535Z" fill="#007F62" style="fill:#007F62;fill:#007F62;fill-opacity:1;"/>
<path d="M65.8141 42.9312C77.6582 42.9312 87.2597 33.3207 87.2597 21.4656C87.2597 9.61048 77.6582 0 65.8141 0C53.97 0 44.3684 9.61048 44.3684 21.4656C44.3684 33.3207 53.97 42.9312 65.8141 42.9312Z" fill="#007F62" style="fill:#007F62;fill:#007F62;fill-opacity:1;"/>
<path d="M105.905 18.577L98.4429 0.567383H103.306L108.705 14.4874H108.974L114.287 0.567383H119.121L111.659 18.577H105.914H105.905Z" fill="#007F62" style="fill:#007F62;fill:#007F62;fill-opacity:1;"/>
<path d="M119.112 13.4983V5.10791H123.14V12.1543C123.14 14.3335 124.051 15.2455 126.602 15.2455C129.154 15.2455 130.17 14.2279 130.17 11.9431V5.11751H134.199V18.5863H130.439V14.4775H130.228C129.883 16.7335 128.243 18.8551 124.694 18.8551C120.905 18.8551 119.112 16.5127 119.112 13.5079V13.4983Z" fill="#007F62" style="fill:#007F62;fill:#007F62;fill-opacity:1;"/>
<path d="M135.935 11.8565C135.935 7.55567 138.965 4.83887 143.396 4.83887C147.828 4.83887 150.724 7.15247 150.724 11.3669C150.724 11.8469 150.666 12.2021 150.619 12.6533H139.665C139.771 14.7269 140.74 15.6101 143.348 15.6101C145.737 15.6101 146.571 14.9957 146.571 13.8341V13.5653H150.599V13.8629C150.599 16.7909 147.751 18.8357 143.483 18.8357C138.994 18.8357 135.935 16.6277 135.935 11.8469V11.8565ZM139.723 10.5413H146.868C146.763 8.76527 145.689 7.98767 143.32 7.98767C140.951 7.98767 139.905 8.79407 139.723 10.5413Z" fill="#007F62" style="fill:#007F62;fill:#007F62;fill-opacity:1;"/>
<path d="M156.574 18.577V0.567383H171.805V4.19618H160.603V8.25698H171.402V11.857H160.603V18.577H156.574Z" fill="#007F62" style="fill:#007F62;fill:#007F62;fill-opacity:1;"/>
<path d="M172.755 11.8565C172.755 7.55567 175.785 4.83887 180.216 4.83887C184.648 4.83887 187.544 7.15247 187.544 11.3669C187.544 11.8469 187.487 12.2021 187.439 12.6533H176.486C176.591 14.7269 177.56 15.6101 180.169 15.6101C182.557 15.6101 183.391 14.9957 183.391 13.8341V13.5653H187.419V13.8629C187.419 16.7909 184.571 18.8357 180.303 18.8357C175.814 18.8357 172.755 16.6277 172.755 11.8469V11.8565ZM176.543 10.5413H183.688C183.583 8.76527 182.509 7.98767 180.14 7.98767C177.771 7.98767 176.725 8.79407 176.543 10.5413Z" fill="#007F62" style="fill:#007F62;fill:#007F62;fill-opacity:1;"/>
<path d="M188.992 13.9494V13.8726H193.021V14.1126C193.021 15.3222 193.769 15.6486 196.051 15.6486C198.2 15.6486 198.708 15.303 198.708 14.4966C198.708 13.7478 198.305 13.527 196.723 13.3158L192.934 12.855C190.249 12.5574 188.743 11.3478 188.743 9.09183C188.743 6.83583 190.757 4.84863 195.38 4.84863C200.003 4.84863 202.286 6.51903 202.286 9.79263V9.86943H198.257V9.70623C198.257 8.60223 197.72 8.03583 195.246 8.03583C193.232 8.03583 192.723 8.38143 192.723 9.24543C192.723 9.94623 193.097 10.2438 194.872 10.455L197.749 10.8006C201.346 11.2038 202.688 12.4134 202.688 14.6406C202.688 17.1654 200.195 18.8358 196.032 18.8358C191.496 18.8358 188.992 17.0598 188.992 13.9398V13.9494Z" fill="#007F62" style="fill:#007F62;fill:#007F62;fill-opacity:1;"/>
<path d="M99.0569 35.4542V34.6766H103.325V35.4542C103.325 38.1134 103.862 39.1118 107.056 39.1118C110.25 39.1118 110.844 38.171 110.844 35.6462V24.7598H115.112V35.6462C115.112 40.2734 112.906 43.0382 107.056 43.0382C101.205 43.0382 99.0569 40.2158 99.0569 35.4542Z" fill="#007F62" style="fill:#007F62;fill:#007F62;fill-opacity:1;"/>
<path d="M116.656 39.428C116.656 37.4408 118.134 36.2025 121.011 35.9049L126.785 35.3096V34.8008C126.785 33.0536 126.008 32.5737 123.859 32.5737C121.711 32.5737 120.982 33.1112 120.982 34.6472V34.7529H116.925V34.676C116.925 31.3448 119.716 29.0312 124.147 29.0312C128.578 29.0312 130.755 31.3448 130.755 34.868V42.7688H126.996V39.6777H126.785C126.171 41.7705 124.291 43.0377 121.308 43.0377C118.325 43.0377 116.666 41.6937 116.666 39.4377L116.656 39.428ZM122.459 40.1865C125.202 40.1865 126.679 39.5433 126.785 37.6329L122.114 38.1704C121.145 38.2472 120.714 38.516 120.714 39.1688C120.714 39.8984 121.279 40.1865 122.459 40.1865Z" fill="#007F62" style="fill:#007F62;fill:#007F62;fill-opacity:1;"/>
<path d="M132.971 47.3287V29.2903H136.702V32.9767H136.97C137.45 30.3943 139.176 29.0215 142.341 29.0215C146.475 29.0215 148.786 31.7671 148.786 36.0391C148.786 40.3111 146.533 43.0279 142.476 43.0279C139.358 43.0279 137.642 41.4919 137.181 39.1303H136.989V47.3287H132.961H132.971ZM140.922 39.3511C143.502 39.3511 144.71 38.4871 144.71 36.0487C144.71 33.6103 143.502 32.7463 140.951 32.7463C138.399 32.7463 136.999 33.6295 136.999 36.0295V36.2407C136.999 38.5543 138.399 39.3607 140.922 39.3607V39.3511Z" fill="#007F62" style="fill:#007F62;fill:#007F62;fill-opacity:1;"/>
<path d="M149.88 39.428C149.88 37.4408 151.357 36.2025 154.234 35.9049L160.008 35.3096V34.8008C160.008 33.0536 159.231 32.5737 157.083 32.5737C154.934 32.5737 154.205 33.1112 154.205 34.6472V34.7529H150.148V34.676C150.148 31.3448 152.939 29.0312 157.37 29.0312C161.801 29.0312 163.979 31.3448 163.979 34.868V42.7688H160.219V39.6777H160.008C159.394 41.7705 157.514 43.0377 154.531 43.0377C151.548 43.0377 149.889 41.6937 149.889 39.4377L149.88 39.428ZM155.682 40.1865C158.425 40.1865 159.902 39.5433 160.008 37.6329L155.337 38.1704C154.368 38.2472 153.937 38.516 153.937 39.1688C153.937 39.8984 154.503 40.1865 155.682 40.1865Z" fill="#007F62" style="fill:#007F62;fill:#007F62;fill-opacity:1;"/>
<path d="M166.194 42.7591V29.2903H169.925V33.4279H170.165C170.51 31.1719 172.122 29.0215 175.642 29.0215C179.161 29.0215 181.07 31.3831 181.07 34.3687V42.7591H177.042V35.7127C177.042 33.5623 176.159 32.6503 173.685 32.6503C171.21 32.6503 170.223 33.6679 170.223 35.9527V42.7495H166.194V42.7591Z" fill="#007F62" style="fill:#007F62;fill:#007F62;fill-opacity:1;"/>
<path d="M186.786 42.7594V40.177C186.786 37.009 188.158 35.3674 191.946 34.1002L196.569 32.593C198.181 32.0266 198.775 31.489 198.775 30.3082C198.775 28.9354 198.027 28.1578 195.073 28.1578C191.774 28.1578 190.776 29.1562 190.776 31.1434V31.489H186.825V31.1434C186.825 27.649 189.213 24.481 195.207 24.481C200.636 24.481 202.832 26.9578 202.832 30.3658C202.832 33.5626 200.741 35.1466 197.538 36.0394L193.615 37.1146C191.87 37.6522 191.035 38.161 191.035 39.5914L195.735 39.1306H202.775V42.7594H186.796H186.786Z" fill="#007F62" style="fill:#007F62;fill:#007F62;fill-opacity:1;"/>
<path d="M204.098 33.7546C204.098 28.1674 207.292 24.481 213.095 24.481C218.897 24.481 222.091 28.1674 222.091 33.7546C222.091 39.3418 218.868 43.0282 213.095 43.0282C207.321 43.0282 204.098 39.3706 204.098 33.7546ZM217.765 33.7546C217.765 29.8858 216.499 28.4074 213.095 28.4074C209.69 28.4074 208.424 29.8858 208.424 33.7546C208.424 37.6234 209.661 39.1018 213.095 39.1018C216.528 39.1018 217.765 37.6234 217.765 33.7546Z" fill="#007F62" style="fill:#007F62;fill:#007F62;fill-opacity:1;"/>
<path d="M223.338 42.7594V40.177C223.338 37.009 224.709 35.3674 228.498 34.1002L233.121 32.593C234.732 32.0266 235.327 31.489 235.327 30.3082C235.327 28.9354 234.578 28.1578 231.624 28.1578C228.325 28.1578 227.328 29.1562 227.328 31.1434V31.489H223.376V31.1434C223.376 27.649 225.764 24.481 231.759 24.481C237.187 24.481 239.384 26.9578 239.384 30.3658C239.384 33.5626 237.293 35.1466 234.089 36.0394L230.166 37.1146C228.421 37.6522 227.586 38.161 227.586 39.5914L232.286 39.1306H239.326V42.7594H223.347H223.338Z" fill="#007F62" style="fill:#007F62;fill:#007F62;fill-opacity:1;"/>
<path d="M240.947 37.1726V36.9326H245.11V37.1726C245.11 38.7086 246.184 39.3518 249.598 39.3518C252.687 39.3518 253.627 38.6222 253.627 36.6638C253.627 34.7054 252.687 33.947 249.627 33.947C247.153 33.947 245.81 34.2446 245.167 35.1854L244.87 35.1566V35.1854L241.082 35.0798L242.098 24.7598H256.926V28.3886H245.676L245.11 33.0926L245.35 33.1214C245.992 32.075 247.901 30.7598 251.258 30.7598C255.689 30.7598 257.895 32.9102 257.895 36.6158C257.895 40.5134 255.267 43.0382 249.541 43.0382C243.815 43.0382 240.947 41.1278 240.947 37.1822V37.1726Z" fill="#007F62" style="fill:#007F62;fill:#007F62;fill-opacity:1;"/>
</g>
<defs>
<clipPath id="clip0_2080_488">
<rect width="258" height="48" fill="white" style="fill:white;fill-opacity:1;"/>
</clipPath>
</defs>
</svg>
