<svg width="163" height="32" viewBox="0 0 163 32" fill="none" xmlns="http://www.w3.org/2000/svg">
<g clip-path="url(#clip0_6_112)">
<path d="M35.8076 26C35.238 26 34.9531 25.6948 34.9531 25.0845V9.41064C34.9531 8.80029 35.238 8.49512 35.8076 8.49512H40.0679C43.8114 8.49512 46.3423 9.25195 47.6606 10.7656C48.9871 12.2793 49.6504 14.4318 49.6504 17.2231C49.6504 20.0145 48.9871 22.1751 47.6606 23.7051C46.3423 25.235 43.8114 26 40.0679 26H35.8076ZM38.5176 22.9727H39.8359C42.3587 22.9727 43.9904 22.5047 44.731 21.5688C45.4715 20.6248 45.8418 19.1763 45.8418 17.2231C45.8418 15.27 45.4715 13.8296 44.731 12.9019C43.9904 11.966 42.3587 11.498 39.8359 11.498H38.5176V22.9727ZM50.6768 19.5913C50.6768 17.5324 51.1895 15.9089 52.2148 14.7207C53.2484 13.5326 54.7051 12.9385 56.585 12.9385C58.766 12.9385 60.3854 13.5 61.4434 14.623C62.5013 15.7461 63.0303 17.5527 63.0303 20.043C63.0303 20.5312 62.8024 20.7754 62.3467 20.7754H54.29C54.4202 22.1263 54.7539 22.9767 55.291 23.3267C55.8281 23.6766 56.4507 23.8516 57.1587 23.8516C57.8341 23.8516 58.3509 23.762 58.709 23.583C59.0671 23.404 59.3682 23.1598 59.6123 22.8506C59.889 22.4925 60.2308 22.4355 60.6377 22.6797L61.8584 23.4243C62.3385 23.7173 62.4077 24.0672 62.0659 24.4741C61.5695 25.0682 60.9876 25.5117 60.3203 25.8047C59.653 26.0977 58.5991 26.2441 57.1587 26.2441C54.8231 26.2441 53.1589 25.6501 52.166 24.4619C51.1732 23.2738 50.6768 21.6502 50.6768 19.5913ZM54.3022 18.334H59.6123C59.6123 17.4551 59.3926 16.7389 58.9531 16.1855C58.5137 15.624 57.8138 15.3433 56.8535 15.3433C56.0885 15.3433 55.4823 15.6118 55.0347 16.1489C54.5871 16.6779 54.3429 17.4062 54.3022 18.334ZM63.8491 14.1348C63.6457 13.5 63.7799 13.1826 64.252 13.1826H66.437C66.8195 13.1826 67.0636 13.3901 67.1694 13.8052L69.0615 20.9585C69.1673 21.3573 69.2528 21.752 69.3179 22.1426C69.3911 22.5332 69.4359 22.8506 69.4521 23.0947H69.5254C69.5417 22.8506 69.5824 22.5332 69.6475 22.1426C69.7207 21.752 69.8102 21.3573 69.916 20.9585L71.8081 13.8052C71.9139 13.3901 72.158 13.1826 72.5405 13.1826H74.7256C75.1976 13.1826 75.3319 13.5 75.1284 14.1348L71.5884 25.1821C71.4175 25.7274 71.1204 26 70.6973 26H68.2803C67.8571 26 67.5601 25.7274 67.3892 25.1821L63.8491 14.1348ZM75.6665 11.6201C75.0562 11.6201 74.751 11.3556 74.751 10.8267V9.28857C74.751 8.7596 75.0562 8.49512 75.6665 8.49512H88.2153C88.8257 8.49512 89.1309 8.7596 89.1309 9.28857V10.8267C89.1309 11.3556 88.8257 11.6201 88.2153 11.6201H83.7231V25.3286C83.7231 25.7762 83.5197 26 83.1128 26H80.769C80.3621 26 80.1587 25.7762 80.1587 25.3286V11.6201H75.6665ZM86.3242 19.5913C86.3242 17.5161 86.8573 15.8885 87.9233 14.7085C88.9976 13.5285 90.5926 12.9385 92.7085 12.9385C94.8244 12.9385 96.4154 13.5285 97.4814 14.7085C98.5557 15.8885 99.0928 17.5161 99.0928 19.5913C99.0928 21.6665 98.5557 23.2941 97.4814 24.4741C96.4154 25.6541 94.8244 26.2441 92.7085 26.2441C90.5926 26.2441 88.9976 25.6541 87.9233 24.4741C86.8573 23.2941 86.3242 21.6665 86.3242 19.5913ZM89.9375 19.5913C89.9375 21.1375 90.1735 22.2362 90.6455 22.8872C91.1257 23.5301 91.8133 23.8516 92.7085 23.8516C93.6037 23.8516 94.2873 23.5301 94.7593 22.8872C95.2394 22.2362 95.4795 21.1375 95.4795 19.5913C95.4795 18.0451 95.2394 16.9505 94.7593 16.3076C94.2873 15.6566 93.6037 15.3311 92.7085 15.3311C91.8133 15.3311 91.1257 15.6566 90.6455 16.3076C90.1735 16.9505 89.9375 18.0451 89.9375 19.5913ZM100.046 19.5913C100.046 17.5161 100.579 15.8885 101.645 14.7085C102.719 13.5285 104.314 12.9385 106.43 12.9385C108.546 12.9385 110.137 13.5285 111.203 14.7085C112.277 15.8885 112.814 17.5161 112.814 19.5913C112.814 21.6665 112.277 23.2941 111.203 24.4741C110.137 25.6541 108.546 26.2441 106.43 26.2441C104.314 26.2441 102.719 25.6541 101.645 24.4741C100.579 23.2941 100.046 21.6665 100.046 19.5913ZM103.659 19.5913C103.659 21.1375 103.895 22.2362 104.367 22.8872C104.847 23.5301 105.535 23.8516 106.43 23.8516C107.325 23.8516 108.009 23.5301 108.481 22.8872C108.961 22.2362 109.201 21.1375 109.201 19.5913C109.201 18.0451 108.961 16.9505 108.481 16.3076C108.009 15.6566 107.325 15.3311 106.43 15.3311C105.535 15.3311 104.847 15.6566 104.367 16.3076C103.895 16.9505 103.659 18.0451 103.659 19.5913ZM115.184 26C114.695 26 114.451 25.7559 114.451 25.2676V10.8511C114.451 10.4849 114.537 10.1512 114.708 9.8501L115.647 8.20215C115.826 7.8929 116.038 7.73828 116.282 7.73828H117.137C117.625 7.73828 117.869 7.98242 117.869 8.4707V25.2676C117.869 25.7559 117.625 26 117.137 26H115.184ZM119.933 25.1455C119.534 24.8607 119.424 24.5555 119.604 24.23L120.226 23.0947C120.446 22.6878 120.788 22.639 121.251 22.9482C121.715 23.2575 122.261 23.4854 122.887 23.6318C123.522 23.7783 124.1 23.8516 124.621 23.8516C124.987 23.8516 125.329 23.8149 125.646 23.7417C125.963 23.6685 126.232 23.526 126.452 23.3145C126.671 23.1029 126.781 22.7936 126.781 22.3867C126.781 22.1426 126.716 21.9351 126.586 21.7642C126.456 21.5933 126.289 21.4631 126.085 21.3735C125.882 21.284 125.666 21.2108 125.438 21.1538C125.137 21.0806 124.702 20.9585 124.132 20.7876C123.571 20.6167 123.03 20.4173 122.509 20.1895C122.077 20.0023 121.654 19.7419 121.239 19.4082C120.832 19.0664 120.531 18.688 120.336 18.2729C120.149 17.8579 120.055 17.3452 120.055 16.7349C120.055 15.9129 120.291 15.1927 120.763 14.5742C121.243 13.9557 121.862 13.5285 122.619 13.2925C123.375 13.0565 124.319 12.9385 125.451 12.9385C126.216 12.9385 126.96 13.0483 127.685 13.2681C128.409 13.4878 128.926 13.6953 129.235 13.8906C129.723 14.1999 129.845 14.5295 129.601 14.8794L128.856 15.9658C128.629 16.2913 128.262 16.3158 127.758 16.0391C127.375 15.8275 126.997 15.6566 126.623 15.5264C126.256 15.3962 125.845 15.3311 125.39 15.3311C125.08 15.3311 124.783 15.3636 124.499 15.4287C124.214 15.4938 123.97 15.6159 123.766 15.7949C123.571 15.974 123.473 16.21 123.473 16.5029C123.473 16.8122 123.563 17.0563 123.742 17.2354C123.929 17.4062 124.14 17.5324 124.376 17.6138C124.621 17.6951 124.853 17.7725 125.072 17.8457C125.528 17.9922 125.988 18.1346 126.452 18.2729C126.916 18.4032 127.388 18.5618 127.868 18.749C128.283 18.9118 128.686 19.1437 129.076 19.4448C129.467 19.7459 129.752 20.1284 129.931 20.5923C130.11 21.0562 130.199 21.5851 130.199 22.1792C130.199 22.9686 129.963 23.701 129.491 24.3765C129.019 25.0519 128.397 25.5321 127.624 25.8169C126.85 26.1017 125.951 26.2441 124.926 26.2441C123.778 26.2441 122.802 26.1628 121.996 26C121.19 25.8372 120.503 25.5524 119.933 25.1455Z" fill="white"/>
<path d="M134.808 26C134.238 26 133.953 25.6948 133.953 25.0845V9.41064C133.953 8.80029 134.238 8.49512 134.808 8.49512H136.663C137.233 8.49512 137.518 8.80029 137.518 9.41064V14.269C137.518 14.7573 137.497 15.2456 137.457 15.7339H137.542L143.475 9.21533C143.914 8.73519 144.288 8.49512 144.598 8.49512H147.051C148.003 8.49512 148.158 8.84505 147.515 9.54492L141.961 15.624L147.906 24.9502C148.353 25.6501 148.199 26 147.442 26H145.159C144.736 26 144.37 25.7599 144.061 25.2798L139.568 18.2363L137.518 20.5435V25.0845C137.518 25.6948 137.233 26 136.663 26H134.808ZM150.019 26C149.53 26 149.286 25.7559 149.286 25.2676V13.915C149.286 13.4268 149.53 13.1826 150.019 13.1826H151.972C152.46 13.1826 152.704 13.4268 152.704 13.915V25.2676C152.704 25.7559 152.46 26 151.972 26H150.019ZM150.019 11.3027C149.53 11.3027 149.286 11.0586 149.286 10.5703V9.00781C149.286 8.51953 149.53 8.27539 150.019 8.27539H151.972C152.46 8.27539 152.704 8.51953 152.704 9.00781V10.5703C152.704 11.0586 152.46 11.3027 151.972 11.3027H150.019ZM154.597 15.624C154.117 15.624 153.877 15.4206 153.877 15.0137V13.793C153.877 13.3861 154.117 13.1826 154.597 13.1826H155.427V12.7554C155.427 12.3892 155.513 12.0555 155.684 11.7544L156.624 10.1064C156.803 9.7972 157.014 9.64258 157.258 9.64258H158.113C158.601 9.64258 158.845 9.88672 158.845 10.375V13.1826H160.823C161.303 13.1826 161.543 13.3861 161.543 13.793V15.0137C161.543 15.4206 161.303 15.624 160.823 15.624H158.845V21.6787C158.845 22.5088 158.902 23.1069 159.016 23.4731C159.138 23.8312 159.447 24.0103 159.944 24.0103C160.196 24.0103 160.481 23.9696 160.798 23.8882C161.116 23.7987 161.364 23.7132 161.543 23.6318C161.828 23.5016 162.015 23.5952 162.104 23.9126L162.471 25.3042C162.544 25.5809 162.438 25.7843 162.153 25.9146C161.885 26.0366 161.514 26.1465 161.042 26.2441C160.579 26.3499 160.111 26.4028 159.639 26.4028C158.475 26.4028 157.482 26.1628 156.66 25.6826C155.838 25.2025 155.427 24.2137 155.427 22.7163V15.624H154.597Z" fill="white" fill-opacity="0.5"/>
<path d="M7 30L15.016 11M25 30L16.984 11" stroke="white" stroke-opacity="0.75" stroke-width="2.66667" stroke-linecap="round" stroke-linejoin="round"/>
<path d="M16 10.6667C17.4728 10.6667 18.6667 9.47275 18.6667 7.99999C18.6667 6.52724 17.4728 5.33333 16 5.33333C14.5273 5.33333 13.3334 6.52724 13.3334 7.99999C13.3334 9.47275 14.5273 10.6667 16 10.6667Z" stroke="white" stroke-opacity="0.75" stroke-width="2.66667" stroke-linecap="round" stroke-linejoin="round"/>
<path d="M26 22.3333C23.022 24.0785 19.5483 25.0049 16 25C12.3132 25 8.87988 24.02 6 22.3333M16 5.16666V2.5" stroke="white" stroke-opacity="0.75" stroke-width="2.66667" stroke-linecap="round" stroke-linejoin="round"/>
</g>
<defs>
<clipPath id="clip0_6_112">
<rect width="163" height="32" fill="white"/>
</clipPath>
</defs>
</svg>
