<svg width="63" height="63" viewBox="0 0 63 63" fill="none" xmlns="http://www.w3.org/2000/svg">
  <path fill-rule="evenodd" clip-rule="evenodd"
    d="M21 11C11.6111 11 4 18.6111 4 28V36C4 45.3889 11.6111 53 21 53H47.5C54.4036 53 60 47.4036 60 40.5C60 40.3326 59.9967 40.1659 59.9902 40H60V28C60 18.6111 52.3889 11 43 11H21ZM47.5 28C49.0864 28 50.6037 28.2955 52 28.8345V28C52 23.0294 47.9706 19 43 19H21C16.0294 19 12 23.0294 12 28V37C12 41.9706 16.0294 46 21 46H31.2719C30.4574 44.3403 30 42.4736 30 40.5C30 33.5964 35.5964 28 42.5 28H47.5Z"
    fill="white" />
</svg>
