<svg width="100%" height="100%" viewBox="0 0 263 94" version="1.1" xmlns="http://www.w3.org/2000/svg" xmlns:xlink="http://www.w3.org/1999/xlink" xml:space="preserve" xmlns:serif="http://www.serif.com/" class="h-10 text-slate-900" style="fill-rule: evenodd; clip-rule: evenodd; stroke-linejoin: round; stroke-miterlimit: 2;"><g><path d="M113.979,8.356c-1.172,-0 -1.258,1.941 -1.258,2.527l0,71.997c0,0.586 0.086,2.526 1.258,2.526c0.512,0 1.172,-0.305 1.867,-0.854l43.14,-34.656c1.025,-0.83 1.599,-1.892 1.599,-3.015c0,-1.123 -0.574,-2.185 -1.599,-3.015l-43.14,-34.656c-0.695,-0.549 -1.355,-0.854 -1.867,-0.854m-0,79.553c-1.66,-0 -3.601,-1.318 -3.601,-5.029l-0,-71.997c-0,-3.711 1.941,-5.042 3.601,-5.042c1.05,0 2.148,0.464 3.271,1.367l43.152,34.656c1.624,1.306 2.527,3.088 2.527,5.017c-0,1.929 -0.903,3.711 -2.527,5.017l-43.152,34.656c-1.111,0.891 -2.234,1.355 -3.271,1.355" style="fill:#9c0;fill-rule:nonzero;stroke:#9c0;stroke-width:3.13px;"></path><path d="M188.466,8.295c0,0.061 -0.403,0.403 -0.818,1.721l-22.619,70.874c-0.403,1.257 -0.306,2.417 0.28,3.259c0.574,0.855 1.612,1.319 2.881,1.319l40.65,-0c1.269,-0 2.307,-0.464 2.88,-1.319c0.586,-0.842 0.684,-2.002 0.281,-3.259l-22.619,-70.874c-0.428,-1.318 -0.818,-1.66 -0.916,-1.721m20.374,79.614l-40.65,-0c-2.026,-0 -3.76,-0.842 -4.785,-2.332c-1.025,-1.477 -1.233,-3.466 -0.598,-5.468l22.619,-70.874c0.904,-2.808 2.173,-3.382 3.089,-3.382c0.915,0 2.197,0.574 3.088,3.382l22.62,70.874c0.635,2.002 0.415,3.991 -0.598,5.468c-1.013,1.49 -2.771,2.332 -4.785,2.332" style="fill:#7bd3f7;fill-rule:nonzero;stroke:#7bd3f7;stroke-width:3.13px;"></path><path d="M100.795,87.909c-0.244,-0 -0.488,-0.073 -0.708,-0.232l-48.144,-36.108c-1.636,-1.221 -2.527,-2.893 -2.527,-4.688c-0,-1.794 0.891,-3.467 2.527,-4.687l48.144,-36.109c0.525,-0.39 1.257,-0.293 1.648,0.232c0.378,0.513 0.281,1.257 -0.232,1.636l-48.157,36.108c-1.025,0.782 -1.587,1.783 -1.587,2.82c0,1.05 0.562,2.039 1.587,2.82l48.157,36.108c0.513,0.379 0.61,1.111 0.232,1.636c-0.232,0.305 -0.586,0.464 -0.94,0.464" style="fill:#39f;fill-rule:nonzero;stroke:#39f;stroke-width:3.13px;"></path><path d="M3.505,87.909c-0.647,-0 -1.172,-0.525 -1.172,-1.172l0,-73.462c0,-4.101 3.333,-7.422 7.422,-7.422l46.9,0c0.646,0 1.171,0.525 1.171,1.172c0,0.647 -0.525,1.172 -1.171,1.172l-46.9,0c-2.795,0 -5.078,2.271 -5.078,5.078l-0,73.462c-0,0.647 -0.525,1.172 -1.172,1.172" style="fill:#f69;fill-rule:nonzero;stroke:#f69;stroke-width:3.33px;"></path><path d="M92.824,48.053l-24.719,-0c-0.647,-0 -1.172,-0.525 -1.172,-1.172c-0,-0.647 0.525,-1.172 1.172,-1.172l24.719,0c0.647,0 1.172,0.525 1.172,1.172c-0,0.647 -0.525,1.172 -1.172,1.172" style="fill:#39f;fill-rule:nonzero;stroke:#39f;stroke-width:3.13px;"></path><path d="M37.843,48.053l-21.594,-0c-0.647,-0 -1.172,-0.525 -1.172,-1.172c0,-0.647 0.525,-1.172 1.172,-1.172l21.594,0c0.647,0 1.172,0.525 1.172,1.172c0,0.647 -0.525,1.172 -1.172,1.172" style="fill:#f69;fill-rule:nonzero;stroke:#f69;stroke-width:3.33px;"></path><path d="M214.662,8.197c-1.196,0 -2.05,0.33 -2.356,0.903c-0.305,0.586 -0.109,1.477 0.55,2.466l19.641,29.468c1.391,2.087 3.589,2.087 4.992,-0l19.629,-29.468c0.66,-0.989 0.867,-1.88 0.562,-2.466c-0.317,-0.573 -1.172,-0.903 -2.368,-0.903l-40.65,0Zm20.325,36.804c-1.697,0 -3.308,-0.976 -4.443,-2.673l-19.641,-29.456c-1.172,-1.757 -1.404,-3.491 -0.66,-4.882c0.733,-1.38 2.308,-2.137 4.419,-2.137l40.65,0c2.124,0 3.686,0.757 4.431,2.137c0.745,1.391 0.5,3.125 -0.671,4.882l-19.642,29.456c-1.135,1.697 -2.746,2.673 -4.443,2.673" style="fill:#fcf;fill-rule:nonzero;stroke:#fcf;stroke-width:3.13px;"></path><path d="M234.987,87.909c-0.647,-0 -1.172,-0.525 -1.172,-1.172l0,-34.094c0,-0.647 0.525,-1.172 1.172,-1.172c0.647,-0 1.172,0.525 1.172,1.172l-0,34.094c-0,0.647 -0.525,1.172 -1.172,1.172" style="fill:#fcf;fill-rule:nonzero;stroke:#fcf;stroke-width:3.13px;"></path></g></svg>
