<svg width="100" height="100" viewBox="0 0 100 100" fill="none" xmlns="http://www.w3.org/2000/svg">
<path d="M83.5757 66.6264C83.4933 66.1566 83.3742 65.7235 83.3218 65.3494C83.3151 65.2976 83.3092 65.2456 83.304 65.1936L83.2985 65.1524C83.3007 65.1613 83.2985 65.1357 83.2985 65.1301L83.2929 65.0633C83.2904 64.9705 83.2922 64.8776 83.2985 64.785C83.3096 64.589 83.3341 64.3753 83.3552 64.1392C83.3742 63.901 83.3886 63.6538 83.3608 63.3632C83.3324 63.1033 83.2745 62.8474 83.1882 62.6006C82.8464 61.632 82.253 60.9072 81.7331 60.237C81.2121 59.5603 80.6377 58.9267 80.0152 58.3421C79.3962 57.7598 78.7237 57.3189 78.1715 56.9103C78.0376 56.8107 77.9058 56.7082 77.7763 56.603L77.6004 56.4516L77.4267 56.289C77.2095 56.0792 77.0043 55.8573 76.8121 55.6244C76.2189 54.9116 75.7517 54.1029 75.4305 53.2329C75.2056 52.6095 75.1488 52.2443 75.1465 52.2454C75.1521 52.2454 75.0352 51.8379 75.013 51.1142C74.9793 50.1186 75.2404 49.1353 75.7633 48.2875L74.9384 47.5371C73.4309 48.6816 71.5883 50.1222 69.4362 51.3057C68.3618 51.8925 67.204 52.4057 65.9993 52.7575C64.8034 53.107 63.5634 53.2824 62.3175 53.2786C61.0962 53.2686 59.9127 53.0648 58.8706 52.6751C57.8977 52.3197 57.0039 51.7769 56.2398 51.0775C55.6296 50.5229 55.1511 49.839 54.8392 49.0757C54.6277 48.541 54.4972 47.9778 54.4517 47.4046C54.3638 46.318 54.5163 45.3171 54.7145 44.4019C54.9205 43.4845 55.1854 42.6428 55.4682 41.8267C56.036 40.1946 56.6896 38.6682 57.4244 36.83L57.057 37.4123L58.108 34.6635C58.2304 34.5054 58.3585 34.3551 58.4676 34.1814C58.6135 33.9405 58.7362 33.6863 58.8339 33.4221L59.1044 32.6862C59.1478 32.5704 59.1935 32.4546 59.2425 32.3455L59.4039 32.0082C59.8492 31.073 60.3235 30.0921 60.9013 28.8095L61.5794 27.2831C61.654 27.1128 61.7208 26.9614 61.802 26.7999C61.8833 26.6352 61.9735 26.4637 62.0703 26.2833C62.2652 25.9237 62.489 25.5318 62.7049 25.091C62.7562 24.9841 62.8163 24.8594 62.863 24.7503C62.9187 24.6234 62.9632 24.5109 63.01 24.3929C63.1002 24.1635 63.1803 23.9431 63.275 23.7505C63.3217 23.6547 63.3707 23.5612 63.4253 23.4755C63.4531 23.4332 63.4821 23.3909 63.511 23.3519L63.6235 23.2005C63.776 23.0023 63.9374 22.7741 64.0911 22.5548C64.7045 21.6763 65.2501 20.7834 65.9069 20.023C67.2118 18.4911 68.8539 17.3833 70.0864 16.6095C71.3378 15.8335 72.1583 15.3459 72.1561 15.3459L73.1236 14.7725C73.4443 14.5843 73.8183 14.3227 74.2058 14.0555C74.5977 13.7905 75.0263 13.5089 75.4839 13.3396L76.5093 12.9633L75.6197 12.3432C74.7457 11.7353 73.9831 10.6832 73.4164 9.46185C72.8442 8.24386 72.4088 6.85441 72.0169 5.56849C71.8405 4.95066 71.6875 4.32637 71.5582 3.69696C71.4988 3.40562 71.4432 3.11353 71.3913 2.82076C71.3423 2.54911 71.3089 2.27523 71.2543 1.98687C71.2058 1.69568 71.1252 1.41078 71.0138 1.13739C70.9224 0.921709 70.7981 0.721521 70.6453 0.543978C70.4024 0.264525 70.0683 0.0802912 69.7023 0.0240473C69.498 -0.00801577 69.2899 -0.00801577 69.0855 0.0240473C68.6346 0.0941879 68.2839 0.252282 67.9722 0.413717C67.6842 0.567626 67.4078 0.742133 67.145 0.935875C66.8978 1.11624 66.6729 1.29994 66.4647 1.47251C66.2766 1.62726 66.0316 1.80874 65.8268 2.02138C65.7107 2.13596 65.6091 2.26419 65.5239 2.40326C65.4708 2.48957 65.431 2.58341 65.4059 2.6816C65.3717 2.80799 65.3736 2.94146 65.4115 3.06681C65.4509 3.18048 65.5211 3.28096 65.6143 3.35705C65.7075 3.43313 65.82 3.48182 65.9392 3.49768C66.1107 3.52996 66.2565 3.51994 66.399 3.5077C66.9668 3.44646 67.4823 3.26053 68.049 3.08351C67.4545 3.08351 66.8989 3.10689 66.4113 3.02785C66.303 3.01363 66.1972 2.98401 66.0973 2.93989C66.0706 2.92765 66.0617 2.9154 66.0505 2.90315H66.0583C66.0917 2.90649 66.0728 2.90426 66.0851 2.89758L66.1429 2.83301C66.2008 2.77623 66.2821 2.70943 66.3723 2.64708C66.5616 2.51237 66.7653 2.40771 67.0225 2.24851L67.7261 1.81096C67.9673 1.66481 68.2151 1.52995 68.4687 1.40682C68.7259 1.28658 68.9998 1.18192 69.247 1.14741C69.434 1.12292 69.6166 1.13182 69.7457 1.24984C69.896 1.36897 70.0552 1.7141 70.1376 2.19952L70.2701 3.02339C70.3224 3.3162 70.3803 3.62014 70.4438 3.93188C70.5729 4.55869 70.7288 5.21334 70.9248 5.89248C71.1218 6.56382 71.3411 7.23517 71.5749 7.91876C71.8121 8.60124 72.0748 9.28817 72.3866 9.95284C72.7005 10.6153 73.0646 11.2532 73.4977 11.8244C73.7315 12.1361 73.9887 12.42 74.2603 12.6816C74.0054 12.8308 73.776 12.9845 73.5689 13.1236C73.1581 13.4064 72.833 13.6358 72.5413 13.8072L71.5772 14.3806C71.5761 14.3806 70.7533 14.8705 69.4852 15.6532C68.2204 16.4492 66.4792 17.6093 65.0419 19.2904L64.778 19.6089C64.6878 19.7224 64.6054 19.8304 64.5275 19.934C64.3639 20.1544 64.204 20.3775 64.0476 20.6031L63.1581 21.9101C63.0111 22.1194 62.872 22.3132 62.7139 22.5225L62.597 22.6817C62.4638 22.8632 62.3482 23.0571 62.2518 23.2606C62.1271 23.5178 62.0392 23.7627 61.9501 23.9832L61.8243 24.2938C61.7764 24.404 61.7341 24.492 61.6851 24.5955C61.4914 24.9908 61.2743 25.3715 61.0717 25.7467C60.9704 25.9338 60.8724 26.1186 60.7822 26.3034C60.692 26.4893 60.6074 26.6775 60.5395 26.8333L59.8693 28.3542C59.6895 28.7618 59.5173 29.1727 59.3527 29.5866C58.8583 28.5612 57.9521 27.2798 57.9532 26.5639C57.9543 25.5831 58.2015 24.7057 58.5166 23.7806C58.7092 23.2161 58.8572 22.6383 59.0309 22.0783C59.1812 21.5984 59.503 21.1776 59.6711 20.7155C59.8837 20.1366 60.1487 19.5777 60.3758 18.9921C60.5072 18.6547 60.78 18.1326 60.7599 17.7718C60.4783 18.0981 60.4003 18.4799 60.2177 18.8562C59.9806 19.3428 59.6087 19.7625 59.3438 20.2334C58.8929 21.0306 58.3206 21.9246 57.666 22.577C57.1026 23.1382 56.1273 23.559 55.3625 23.7538C54.9427 23.8596 54.3816 24.0522 54.0676 23.6714C53.7949 23.3397 53.826 22.6739 53.8806 22.2842C53.4931 22.5581 53.6691 23.0624 53.0523 23.1036C52.2785 24.2036 51.7675 25.2435 52.244 26.5862C52.7583 28.0346 53.7681 29.2415 54.0765 30.7768C54.3938 32.3644 53.9162 33.932 53.4319 35.4339C52.8574 37.2141 52.2763 38.9977 51.6038 40.7434C49.9572 45.0098 47.8207 49.3952 45.123 53.0971C42.5813 56.5852 39.0676 59.1203 36.1718 62.2822C33.0132 65.7324 29.5897 68.7006 25.3144 70.6668C27.8184 72.2021 28.0466 75.0377 29.809 77.4214C30.9758 79.0012 32.5846 81.8091 34.3281 83.9089C33.2611 83.1887 32.2834 82.3445 31.4156 81.3938C30.8344 80.7503 30.2777 80.0255 29.7277 79.3319L28.1034 77.2544L27.304 76.2557C27.0457 75.9329 26.7974 75.6055 26.5558 75.2793C25.5894 73.97 24.6954 72.6663 23.7101 71.5663C23.454 71.2824 23.228 71.0386 22.9608 70.7792C22.8039 70.6267 22.6324 70.5009 22.4654 70.365C22.7159 70.2448 22.9664 70.1234 23.2358 69.9754C24.0156 69.539 24.7795 69.0748 25.526 68.5837C28.8359 66.5051 33.1468 63.3677 37.2439 59.6146C39.3118 57.7341 41.2874 55.7545 43.1636 53.6827C45.0162 51.6197 46.6561 49.4498 47.9042 47.2899C48.2159 46.751 48.5065 46.2133 48.7703 45.6811C49.0376 45.1489 49.2736 44.6179 49.4951 44.1236L50.7376 41.3313C51.0752 40.5614 51.4029 39.7872 51.7207 39.0089C52.0091 38.303 52.205 37.6873 52.3486 37.193C52.9153 35.2101 53.1447 33.421 53.3039 31.7777L53.3306 31.4682C53.3406 31.3502 53.3451 31.2333 53.344 31.1153C53.3395 30.8839 53.3126 30.6534 53.2638 30.4272C53.1658 30.0096 53.0146 29.6062 52.814 29.227C52.4477 28.5145 52.0636 27.9188 51.8877 27.2753L51.8365 27.085L51.6829 27.0159L51.3622 26.8701C51.2631 26.6341 51.1574 26.4203 51.0616 26.2121C50.9421 25.9732 50.8491 25.722 50.7844 25.4628C50.7593 25.35 50.7514 25.234 50.761 25.1188C50.7673 25.0695 50.7774 25.0207 50.7911 24.9729C50.8016 24.9449 50.8135 24.9174 50.8267 24.8906L50.8735 24.8015C51.0026 24.5688 51.1763 24.3495 51.3722 24.1324C51.7708 23.6959 52.2039 23.2484 52.5735 22.7284C52.9554 22.2174 53.1758 21.6017 53.6557 21.133C53.1224 21.5461 52.8185 22.1495 52.3998 22.5926C51.989 23.0502 51.5281 23.4343 51.0772 23.8351C50.8393 24.042 50.6263 24.2759 50.4426 24.5321L50.3758 24.6345C50.3015 24.7541 50.248 24.8855 50.2177 25.023C50.1824 25.1975 50.1757 25.3764 50.1977 25.553C50.2812 26.2165 50.5862 26.7654 50.7232 27.2642L50.761 27.4011L50.9113 27.4835L51.1741 27.6272C51.3522 28.3586 51.7051 29.0088 51.9746 29.6256C52.1204 29.9596 52.2406 30.288 52.2941 30.6176C52.3365 30.8652 52.3425 31.1176 52.3119 31.3669L52.274 31.6664C52.0603 33.2707 51.8031 35.0042 51.2609 36.8768C51.124 37.3444 50.9369 37.9245 50.6697 38.578C50.3914 39.2627 50.0685 40.0242 49.6955 40.877L48.4553 43.6582C48.2293 44.1636 48.0044 44.6669 47.7505 45.1734C47.4967 45.6833 47.2184 46.1988 46.9166 46.7188C44.533 50.896 40.5038 55.0644 36.4757 58.7729C34.5301 60.5477 32.5039 62.2322 30.4035 63.8208C28.6253 65.165 26.7927 66.4357 24.9103 67.6296C24.0942 68.1551 23.3561 68.6182 22.6892 68.9812C22.2557 69.2193 21.8093 69.433 21.3521 69.6213C20.9121 69.3912 20.4518 69.2023 19.9771 69.0569L19.7767 68.9945L19.6776 68.9656C19.3019 68.8569 18.903 68.8572 18.5275 68.9667C18.2501 69.0501 17.9926 69.1892 17.7708 69.3755C17.5489 69.5617 17.3674 69.7912 17.2371 70.05L17 70.5287L17.4643 70.797C18.0109 71.1143 18.5576 71.2669 18.9261 71.2936C19.2946 71.3236 19.4828 71.2958 19.4828 71.3002C19.485 71.2969 19.662 71.2947 20.0071 71.2312C20.2999 71.1733 20.7375 71.0642 21.2541 70.8794C21.3276 70.9262 21.4033 70.9596 21.4756 71.0119C21.9499 71.3437 22.3964 71.8024 22.8606 72.3234C23.7814 73.3499 24.6531 74.6169 25.6395 75.9563C25.8867 76.2903 26.1428 76.6276 26.4122 76.9638L27.2105 77.9614L28.8304 80.0333C29.3904 80.7381 29.9326 81.4484 30.5716 82.1587C31.2063 82.8579 31.9054 83.5036 32.6491 84.0914C33.394 84.6777 34.1794 85.2104 34.9994 85.6858C35.408 85.9229 35.8211 86.1456 36.2397 86.356L37.4721 86.9683C37.8919 87.171 38.325 87.3636 38.787 87.5205C39.2479 87.672 39.7378 87.7933 40.27 87.8011C40.5338 87.8056 40.8066 87.7788 41.0771 87.7087C41.2085 87.6742 41.3521 87.623 41.4657 87.574C41.5748 87.5277 41.6828 87.4791 41.7897 87.4281C42.201 87.2274 42.5983 86.999 42.9787 86.7445C43.6879 86.2647 44.3315 85.7359 44.8926 85.0857C45.4715 85.7414 46.7218 87.162 47.7416 88.3555L49.1923 90.3729C49.1912 90.3729 49.877 91.3337 50.5706 92.4192C51.138 93.3009 51.6633 94.2089 52.1449 95.1403C52.4065 95.6513 53.9151 97.5406 55.0374 98.8232C55.2901 99.1739 55.5873 99.4912 55.9414 99.8007C56.0271 99.8842 56.1051 99.9577 56.1607 100C55.8646 98.8855 55.8479 98.1674 55.2244 96.9272C55.1309 96.749 54.9917 96.5163 54.8347 96.2402C54.759 96.1022 54.6777 95.9541 54.6087 95.8016C54.5745 95.7267 54.544 95.6502 54.5174 95.5722C54.4874 95.4887 54.4773 95.442 54.4484 95.3217C54.4072 95.1391 54.3727 94.9232 54.327 94.6804C54.2792 94.4295 54.2182 94.1813 54.1445 93.9367C54.0172 93.472 53.9029 93.0039 53.8015 92.5328L53.2683 89.9833L53.1669 89.5268L53.1068 89.1995L53.0578 88.9011C53.0512 88.9 53.0122 88.4736 52.8519 87.741C52.8053 87.5423 52.7488 87.3461 52.6826 87.1531L52.5858 86.8603L52.5 86.5709C52.3792 86.137 52.2796 85.6974 52.2017 85.2538C52.1137 84.7851 52.0736 84.3186 51.9868 83.7975L51.8242 82.8512C51.6829 81.4918 51.576 79.7427 51.7664 78.5526C52.4226 78.432 53.0915 78.3949 53.757 78.4423C54.3805 78.6349 54.9939 78.7986 55.5918 78.9155C56.1527 79.0248 56.7186 79.1066 57.2874 79.1605L57.4255 79.1727L57.4945 79.1794H57.5045L57.5067 79.1805H57.509L57.5324 79.1827L57.7962 79.2195C59.1957 79.4098 60.5094 79.5702 61.7942 79.7127C64.0443 79.9621 66.2398 80.1558 68.7059 80.345C68.636 81.0273 68.5952 81.7123 68.5834 82.3981C68.7281 81.6766 68.894 81.0142 69.0699 80.374L69.7647 80.4274L69.0922 80.2972C69.2147 79.8529 69.3416 79.4121 69.4774 78.9868C69.819 77.9278 70.2098 76.8853 70.6486 75.8627C70.9459 75.3161 71.2777 74.7583 71.7163 74.3419C72.1572 73.9199 72.6849 73.7229 73.3674 73.8531C73.4365 73.8643 73.4888 73.8776 73.5667 73.8955L73.8328 73.9712C74.0432 74.0235 74.2737 74.1126 74.6689 74.0959C74.8698 74.0798 75.0649 74.0209 75.2412 73.9233C75.4026 73.8364 75.5217 73.7452 75.6386 73.6572C75.8791 73.4702 76.0428 73.3321 76.2655 73.2041C76.6997 72.9491 77.2341 72.7899 77.8642 72.7587C78.1893 72.7376 78.4799 72.7587 78.8896 72.7821C79.0911 72.7899 79.3149 72.791 79.561 72.7554C79.9063 72.7057 80.232 72.5642 80.504 72.3457L80.5719 72.2878L80.6364 72.2277C80.7211 72.1486 80.8001 72.0651 80.8747 71.9827C81.0261 71.8168 81.1597 71.6454 81.2889 71.475C81.5438 71.1355 81.7743 70.7926 82.0103 70.5009C82.243 70.2159 82.5659 69.8963 82.8531 69.5289C83.1437 69.1615 83.4287 68.7106 83.5623 68.1773C83.5961 68.0465 83.6199 67.9132 83.6336 67.7787C83.6503 67.6318 83.6536 67.5104 83.6525 67.3757C83.6482 67.1242 83.6225 66.8736 83.5757 66.6264V66.6264ZM66.0316 2.89981L66.0205 2.90427H66.0294C66.0272 2.91095 66.0261 2.91874 66.0216 2.92542C66.0182 2.92999 66.0152 2.93483 66.0127 2.93989L65.9993 2.93433L65.9715 2.92431L65.9659 2.92208L65.9637 2.91985L65.9615 2.91874L66.0327 2.89758L66.0316 2.89981V2.89981ZM66.0405 2.89647C66.0405 2.89536 66.0394 2.89536 66.0405 2.89647L66.045 2.89425L66.0405 2.89647ZM19.407 70.1669C19.4082 70.1658 19.2734 70.1825 19.0363 70.1635C18.9367 70.1528 18.8381 70.1346 18.7413 70.109C18.7791 70.0912 18.807 70.0611 18.8481 70.0489C18.9951 70.0057 19.1506 70.0003 19.3002 70.0333L19.3592 70.0489L19.4505 70.0756L19.6331 70.1324C19.6381 70.1337 19.6429 70.1356 19.6475 70.1379C19.505 70.158 19.4048 70.1658 19.407 70.1669V70.1669ZM66.3155 53.8531C67.5894 53.4711 68.8182 52.9526 69.9806 52.3066C71.3378 51.5585 72.5369 50.7357 73.619 49.943C71.8355 51.5941 69.5821 53.0982 67.4033 53.784C66.0602 54.2127 64.6556 54.4174 63.246 54.3897C64.2792 54.3262 65.3146 54.1448 66.3155 53.8531ZM44.6621 85.1324C44.6677 85.1591 44.7534 85.1068 44.8536 85.0367L44.8603 85.0445C44.7467 85.1257 44.6165 85.2181 44.6621 85.1324ZM51.7508 87.9971C51.8866 88.6127 51.9367 89.0759 51.9423 89.0714L51.9913 89.3832L52.0603 89.7617L52.1605 90.2204L52.6893 92.7722C52.7962 93.2587 52.9109 93.753 53.0467 94.2396C53.0868 94.3798 53.118 94.4979 53.1469 94.6136C52.9331 94.1627 52.2451 92.898 51.5281 91.8002C50.8133 90.6869 50.1142 89.7172 50.1153 89.716C50.1175 89.716 49.4272 88.7397 48.6612 87.6842C48.2827 87.1587 47.8797 86.5942 47.529 86.13L46.7652 85.1012C46.6747 84.9798 46.5789 84.8624 46.478 84.7494C46.2887 84.4154 45.8846 83.488 45.8846 83.488C45.8846 83.488 46.2052 82.1642 47.6214 80.7314C48.4931 79.9053 49.3849 79.3508 50.2522 78.9957C50.3023 80.1235 50.4582 82.3891 50.9358 84.48C50.9792 84.7973 51.0226 85.1269 51.0828 85.4475C51.1718 85.9474 51.2809 86.4317 51.409 86.8804L51.5081 87.2144L51.606 87.5072C51.6751 87.6998 51.7129 87.8378 51.7508 87.9971V87.9971ZM82.5024 67.6429C82.4968 67.7064 82.4902 67.7376 82.4846 67.7721L82.459 67.8912C82.3799 68.2107 82.1996 68.5169 81.958 68.8208C81.7153 69.1326 81.4303 69.412 81.1319 69.7739C80.8402 70.1335 80.6108 70.4775 80.3782 70.787C80.2693 70.935 80.1534 71.0777 80.0308 71.2145C79.9707 71.2791 79.9139 71.3403 79.8538 71.3949L79.8103 71.4361L79.7658 71.475L79.7113 71.5118C79.5409 71.6253 79.2815 71.6554 78.9386 71.6387C78.6079 71.6198 78.1771 71.5897 77.803 71.6153C77.037 71.6521 76.2855 71.8647 75.6943 72.2154C75.4004 72.3835 75.1299 72.6095 74.9495 72.7498C74.8712 72.812 74.7886 72.8685 74.7023 72.919C74.6668 72.9407 74.6268 72.9541 74.5854 72.958C74.5119 72.968 74.316 72.9268 74.1445 72.8767L73.8673 72.7977C73.7705 72.7754 73.658 72.7465 73.5667 72.7331C73.0787 72.6382 72.5745 72.6689 72.1016 72.8222C71.634 72.9792 71.2499 73.2609 70.9548 73.5603C70.3692 74.1716 70.0497 74.8295 69.768 75.4397L69.7524 75.4719L69.7502 75.4797C69.3738 76.5747 69.0889 77.6989 68.8985 78.8409C68.8261 79.2989 68.7675 79.7589 68.7226 80.2204C66.2944 79.7505 64.1367 79.3308 61.9134 78.9177L57.9543 78.2019L57.6927 78.1562L57.6604 78.1518L57.598 78.1417L57.5335 78.1339L57.4043 78.1172L56.8811 78.0427C56.5228 77.9868 56.1664 77.92 55.8122 77.8423L55.1454 77.6975C47.2595 76.2513 44.5563 83.3511 44.5563 83.3511C44.4161 83.7196 44.278 84.0391 44.0988 84.264C43.6423 84.8196 43.0144 85.3395 42.3452 85.786C42.0079 86.0086 41.655 86.219 41.292 86.3927C41.202 86.4364 41.1107 86.4772 41.0181 86.5152C40.9428 86.5482 40.865 86.5753 40.7855 86.5965C40.6296 86.6366 40.4604 86.6544 40.2811 86.6521C39.7712 86.6432 39.2212 86.4751 38.6645 86.2458C40.683 85.3807 42.5946 81.8636 43.6167 80.3439C44.8948 78.449 45.9892 76.5797 47.9621 75.3161C50.7276 73.5447 53.0011 76.0386 56.0115 77.1965C60.3224 78.8509 63.531 78.7006 62.4077 77.1854C61.5126 75.9796 65.426 77.9258 66.7475 77.044C67.9176 76.2646 68.5645 74.9331 69.3215 73.7941C69.6645 73.2809 70.0419 72.8255 70.4605 72.418C71.4246 71.7946 72.43 71.2368 73.4376 70.6846C75.9292 69.8117 79.0911 69.2305 80.367 66.8413C81.0428 65.5732 80.4093 64.3831 79.5309 63.4156C78.3541 62.1241 76.9713 61.0597 75.9415 59.6313C74.8382 58.1016 74.483 56.0018 74.463 53.8686C74.9502 55.087 75.6897 56.1884 76.6329 57.1007L76.831 57.2855C76.9034 57.3512 76.9758 57.4113 77.047 57.4703C77.1906 57.5883 77.3387 57.7041 77.4879 57.8166C78.0891 58.2597 78.697 58.6616 79.2381 59.1726C79.7914 59.6847 80.3225 60.2837 80.8324 60.935C81.3523 61.5952 81.8622 62.2577 82.1049 62.9635C82.1651 63.1394 82.2063 63.3064 82.223 63.4879C82.2374 63.6382 82.2341 63.8353 82.2141 64.0379C82.1962 64.245 82.1684 64.4721 82.1539 64.7182C82.1467 64.8472 82.1455 64.9765 82.1506 65.1056L82.1562 65.2069L82.1651 65.3094L82.1862 65.4841C82.2564 65.9907 82.3777 66.4149 82.4467 66.8168C82.4813 67.0172 82.5057 67.2065 82.5069 67.3846C82.5147 67.4759 82.5113 67.5717 82.5024 67.6429V67.6429Z" fill="#992244"/>
<path d="M54.8824 15.5649C55.0772 15.9857 55.311 16.3131 55.5114 16.5558L55.5215 16.5758C55.7702 16.9913 56.1352 17.325 56.5713 17.5355C56.695 17.5932 56.834 17.6096 56.9677 17.5823C57.3474 17.6914 57.7281 17.717 58.1657 17.6925C57.855 17.3796 57.6212 17.1136 57.383 16.8653L57.3195 16.8007C57.2527 16.6716 57.1859 16.5814 57.079 16.5246C57.0547 16.5119 57.0309 16.4982 57.0078 16.4834C56.8744 16.3515 56.7415 16.219 56.6092 16.0859C56.5618 16.0375 56.5158 15.9878 56.4711 15.9368C56.3164 15.664 56.2585 15.3511 56.2574 15.3545C56.2104 15.1045 56.1877 14.8506 56.1895 14.5963C56.185 14.1821 56.2407 13.7101 56.2563 13.552C56.2841 13.2592 56.1182 13.0643 55.8043 12.7526C55.7263 12.7904 55.6617 12.825 55.5972 12.8617C55.6562 12.3863 55.7798 11.9443 55.9 11.6058C56.7061 11.6448 57.3073 11.9131 57.914 12.5823C58.5052 13.2358 58.8648 14.0931 59.456 14.7254C60.1697 15.4881 61.1394 14.0407 61.6115 12.8561C61.7462 12.7916 61.8764 12.7058 62.0033 12.5644C62.0969 12.4509 62.2928 12.2327 62.4676 11.8541C62.55 11.666 62.629 11.4266 62.629 11.1382C62.6271 10.8412 62.5312 10.5525 62.3552 10.3133C62.2076 10.1182 62.0239 9.95344 61.8141 9.82784C61.6252 9.70548 61.4115 9.62675 61.1884 9.59738C60.9786 9.5736 60.7665 9.61315 60.5794 9.71094C60.5683 9.71651 60.5649 9.72096 60.556 9.72653L60.5326 9.56398C60.5213 9.50315 60.5083 9.44263 60.4937 9.3825C60.4681 9.28782 60.4295 9.19715 60.379 9.11307C60.3168 9.01029 60.2416 8.91598 60.1552 8.83251C60.0648 8.74483 59.9581 8.67563 59.8412 8.62877C59.7203 8.5829 59.5901 8.56704 59.4618 8.58255C59.3334 8.59807 59.2107 8.64449 59.1042 8.71784C59.0086 8.78345 58.93 8.87083 58.8749 8.97279C58.8504 9.01733 58.8348 9.0652 58.817 9.11196C58.7101 9.22329 58.6065 9.35578 58.4952 9.47491C58.4529 9.40032 58.4251 9.32684 58.3661 9.25113C58.2339 9.07641 58.0601 8.93748 57.8606 8.84698C57.6475 8.75646 57.4123 8.73128 57.1848 8.77462C57.0172 8.8063 56.8554 8.86337 56.705 8.94385C56.4464 9.03058 56.2036 9.15839 55.9857 9.32238C55.6602 9.57215 55.4029 9.89991 55.2376 10.2754L55.183 10.3934C55.1886 10.3867 55.0227 10.7063 54.839 11.214C54.5977 11.8689 54.4595 12.5574 54.4293 13.2547C54.4148 13.6533 54.4449 14.0686 54.5273 14.466C54.6018 14.8657 54.731 15.2342 54.8824 15.5649V15.5649ZM61.0982 10.7352C61.1038 10.7363 61.1027 10.7352 61.1093 10.7386C61.1216 10.7419 61.1361 10.7519 61.1528 10.7597L61.2251 10.8042C61.3045 10.8514 61.3743 10.9129 61.4311 10.9857C61.4522 11.0147 61.4489 11.038 61.4567 11.0614C61.3278 11.0175 61.1931 10.9931 61.057 10.9891C61.057 10.8599 61.0815 10.7708 61.0982 10.7352ZM57.521 44.9783C57.9352 45.3446 58.1812 45.565 58.7179 45.5773C58.788 45.5795 58.8993 45.5784 59.0363 45.5762C59.181 45.5684 59.3425 45.5595 59.5184 45.5361C59.9078 45.488 60.2931 45.4103 60.6707 45.3034C61.4367 45.0941 62.0813 44.8035 62.0813 44.8057C62.0813 44.8046 62.4286 44.6643 62.8784 44.4406C63.3282 44.2201 63.876 43.9128 64.308 43.6434L64.9682 43.2281L64.3915 42.7405C64.1766 42.5568 64.004 42.5278 63.876 42.4978C63.7695 42.4778 63.6615 42.467 63.5531 42.4655C63.3728 42.4633 63.2436 42.4755 63.1601 42.4833C62.6012 42.5512 62.3585 42.8206 62.0323 43.2593C62.1525 43.325 62.2616 43.3807 62.3641 43.4285C61.9532 43.6334 61.6404 43.7636 61.6404 43.7636C61.6404 43.7625 61.0448 44.0242 60.3701 44.2068C59.692 44.4027 58.9751 44.4573 58.7201 44.4472C58.2592 44.4517 57.9408 44.6209 57.521 44.9783V44.9783ZM66.9232 5.80979C67.4209 6.06029 68.7034 6.55461 69.1176 6.06251C69.1855 6.04693 69.2289 6.07142 69.2512 6.13377C69.2378 5.51809 69.2479 4.90018 69.2512 4.28451C69.2523 3.81134 69.1076 3.4996 68.5843 3.57865C68.237 3.63097 67.9197 3.82692 67.5623 3.87034C67.2817 3.90263 67.0011 3.87257 66.7217 3.87146C66.1194 3.87146 65.6128 3.68441 65.4725 4.41254H65.831C65.1686 4.78106 66.7206 5.70959 66.9232 5.80979V5.80979ZM62.6001 42.2896L63.1367 41.93C62.2071 41.6461 61.3509 41.2386 60.4669 40.84C59.6063 40.4526 59.1532 40.5116 58.9561 41.5102C58.8158 42.215 58.739 43.3139 59.7377 43.168C60.7019 43.0266 61.6359 42.5 62.6001 42.2896V42.2896ZM75.3534 85.367C76.371 84.502 77.1292 83.6436 77.9308 82.5737L75.3724 82.8141L75.3534 85.367Z" fill="#992244"/>
</svg>
