<svg width="223" height="40" viewBox="0 0 223 40" fill="none" xmlns="http://www.w3.org/2000/svg" data-v-e2a0e9f9=""><g clip-path="url(#clip0_48_639)"><path d="M36.1018 20.172C41.672 20.172 46.1867 15.6573 46.1867 10.0872C46.1867 4.51706 41.672 0 36.1018 0C31.8619 0 28.2362 2.61648 26.7444 6.32296L23.0934 0L16.1653 11.9993L23.0934 23.9986L32.4 8.00647H41.6373L23.0934 39.9977L11.5467 19.9988L0 40H46.1867L34.6816 20.0727C35.1458 20.1374 35.6192 20.1744 36.1018 20.1744V20.172Z" fill="white"></path><path d="M86.1705 31.6611H82.4179V30.4002C81.7874 31.4209 80.9768 31.9313 78.9954 31.9313C75.9633 31.9313 73.4715 30.4302 73.4715 26.0171V16.6504H77.3142V25.4466C77.3142 27.8183 78.1548 28.6289 79.746 28.6289C81.5172 28.6289 82.3578 27.5481 82.3578 25.4767V16.6504H86.1705V31.6611Z" fill="white"></path><path d="M121.175 10.9463V14.5188H112.469V19.6525H120.275V23.195H112.469V31.661H108.266V10.9463H121.175Z" fill="white"></path><path d="M143.511 20.8833C142.851 20.1028 142.19 19.6825 140.569 19.6825C139.579 19.6825 138.678 19.9827 138.678 20.8533C138.678 21.7239 139.488 22.0842 141.08 22.3244C144.772 22.8948 146.634 24.3058 146.634 27.2779C146.634 30.25 144.622 31.9312 140.749 31.9312C137.687 31.9312 135.826 31.1807 134.535 29.4394L137.477 27.3379C138.077 28.1485 138.828 28.6288 140.689 28.6288C142.01 28.6288 142.821 28.1785 142.821 27.398C142.821 26.4673 142.16 26.1671 140.269 25.8669C137.147 25.3565 134.865 24.0356 134.865 21.0034C134.865 18.1514 136.907 16.3801 140.659 16.3801C143.121 16.3801 145.163 16.9505 146.333 18.8719L143.511 20.8833Z" fill="white"></path><path d="M155.998 26.8876C156.658 27.8183 157.679 28.3887 158.82 28.3887C160.831 28.3887 161.912 27.3079 161.912 23.7054V10.9463H166.115V23.7054C166.115 29.6796 163.443 31.9312 159.09 31.9312C156.118 31.9312 153.926 30.8505 152.515 28.839L155.998 26.8876Z" fill="white"></path><path d="M64.5275 24.8693L64.5251 24.8762L59.9919 10.9463H55.3987L62.6338 31.661H66.4465L66.5966 31.2338L64.5275 24.8693Z" fill="white"></path><path d="M67.3495 29.07L73.6516 10.9463H69.0584L65.2572 22.6292L67.3495 29.07Z" fill="white"></path><path d="M99.8903 23.4051C99.8903 18.8419 97.9389 16.3801 93.7059 16.3801C89.8031 16.3801 87.5215 18.5717 87.5215 23.1049V25.1464C87.5215 29.0191 89.6831 31.9312 94.1863 31.9312C96.8882 31.9312 98.6294 31.2107 99.6802 29.3794L96.8281 27.398C96.2577 28.2085 95.7474 28.6889 94.1562 28.6889C92.0247 28.6889 91.3643 27.1878 91.3342 25.1163V22.3844C91.4843 20.6732 92.2048 19.6224 93.7359 19.6224C95.177 19.6224 95.9575 20.433 96.0476 22.3844H92.7198V25.1163H99.8903V23.4051Z" fill="white"></path><path d="M134.025 23.4051C134.025 18.8419 132.073 16.3801 127.84 16.3801C123.937 16.3801 121.656 18.5717 121.656 23.1049V25.1464C121.656 29.0191 123.817 31.9312 128.321 31.9312C131.022 31.9312 132.764 31.2107 133.814 29.3794L130.962 27.398C130.392 28.2085 129.882 28.6889 128.291 28.6889C126.159 28.6889 125.499 27.1878 125.469 25.1163V22.3844C125.619 20.6732 126.339 19.6224 127.87 19.6224C129.311 19.6224 130.092 20.433 130.182 22.3844H126.852V25.1163H134.025V23.4051Z" fill="white"></path><path d="M173.951 16.3801C170.858 16.3801 169.177 17.0406 168.067 18.8719L170.768 20.7632C171.399 19.7725 172.119 19.5624 173.59 19.5624C175.752 19.5624 176.262 20.1028 176.262 21.784V22.6546V25.4766V26.047C176.262 28.0885 175.422 28.839 173.68 28.839C172.36 28.839 171.489 28.2986 171.489 27.1578C171.489 26.017 172.179 25.4766 173.741 25.4766H174.877V22.6546H173.29C170.138 22.6546 167.736 24.0356 167.736 27.2178C167.736 30.4001 169.898 31.9312 173.02 31.9312C174.761 31.9312 175.662 31.3608 176.262 30.3401V31.661H180.015V21.814C180.015 17.5209 177.823 16.3801 173.951 16.3801Z" fill="white"></path><path d="M213.729 17.9112V16.6503H209.886V31.6609H213.729V22.8347C213.729 22.8347 213.729 22.8231 213.729 22.8185V17.9112Z" fill="white"></path><path d="M217.091 16.3801C216.311 16.3801 215.653 16.551 215.115 16.805V19.9434C215.466 19.7725 215.884 19.6825 216.371 19.6825C217.932 19.6825 218.773 20.5231 218.773 22.8647V31.661H222.585V22.2643C222.585 17.8212 220.124 16.3801 217.091 16.3801Z" fill="white"></path><path d="M189.051 16.3801C187.52 16.3801 186.44 16.8304 185.719 17.641V16.6503H181.876V37.365H185.719V31.0606V24.92C185.719 24.92 185.719 24.9108 185.719 24.9039V23.0125C185.719 20.821 186.56 19.6201 188.391 19.6201C190.222 19.6201 191.033 20.9411 191.033 23.3428V24.9039C191.033 27.0654 190.462 28.6866 188.391 28.6866C187.871 28.6866 187.449 28.5896 187.105 28.4187V31.721C187.638 31.8573 188.269 31.9289 189.021 31.9289C192.894 31.9289 194.876 29.0468 194.876 25.144V23.1026C194.876 18.8095 192.534 16.3778 189.051 16.3778V16.3801Z" fill="white"></path><path d="M201.961 16.3801C198.868 16.3801 197.187 17.0406 196.076 18.8719L198.778 20.7632C199.409 19.7725 200.129 19.5624 201.6 19.5624C203.762 19.5624 204.272 20.1028 204.272 21.784V22.6546V25.4766V26.047C204.272 28.0885 203.432 28.839 201.69 28.839C200.369 28.839 199.499 28.2986 199.499 27.1578C199.499 26.017 200.189 25.4766 201.75 25.4766H202.887V22.6546H201.3C198.148 22.6546 195.746 24.0356 195.746 27.2178C195.746 30.4001 197.908 31.9312 201.03 31.9312C202.771 31.9312 203.672 31.3608 204.272 30.3401V31.661H208.025V21.814C208.025 17.5209 205.833 16.3801 201.961 16.3801Z" fill="white"></path></g><defs><clipPath id="clip0_48_639"><rect width="222.585" height="40" fill="white"></rect></clipPath></defs></svg>
