<svg xmlns="http://www.w3.org/2000/svg" width="164" height="40" viewBox="0 0 164 40"><mask id="logo-design-mask"><g fill="#fff"><circle cx="74" cy="37" r="1"/><circle cx="108" cy="27" r="1"/></g><g stroke="#fff" stroke-linecap="round" stroke-linejoin="round" stroke-width="2"><path d="M80 37a5 5 0 0 0 0-10h-3v10h3Zm15 0h-4c-1 0-2-1-2-2v-6c0-1 1-2 2-2h4m-4 5h3m10-2.5a2.5 2.5 0 1 0-2.5 2.5M99 34.5a2.5 2.5 0 1 0 2.5-2.5m6.5 5v-7"/><path d="M120.999 29c-.151-.18-.29-.361-.463-.535a5.001 5.001 0 1 0 .463 6.537V33H120m5 4V27l7 10V27"/></g></mask><mask id="logo-smile-mask"><path fill="#fff" d="M31.7331 30C36.8448 30 41.4909 25.2412 40.9582 24.1898C40.423 23.1334 37.8672 26.8308 31.7331 26.8308C25.5991 26.8308 23.5544 23.1334 23.0432 24.1898C22.5321 25.2462 26.6214 30 31.7331 30Z"/></mask><mask id="logo-vector-mask"><g fill="none" stroke="#fff" stroke-linecap="round" stroke-linejoin="round" stroke-width="2"><path stroke-dasharray="2 3" d="M24 12v0h0"><animate fill="freeze" attributeName="d" begin="logoVectorReset.end" dur="0.5s" values="M24 12v0h0;M24 12v16h0;M24 12v16h16"/><set fill="freeze" attributeName="d" begin="logoVectorReset.begin" to="M24 12v0h0"/></path><path stroke-dasharray="2 3" d="M24 12s1 1 1 1"><animate fill="freeze" attributeName="d" begin="logoVectorReset.end+0.5s" dur="3s" values="M24 12s1 1 1 1;M24 12s8 8 16 16;M24 12s16 0 16 16"/><set fill="freeze" attributeName="d" begin="logoVectorReset.begin" to="M24 12s1 1 1 1"/><set fill="freeze" attributeName="opacity" begin="logoVectorReset.begin" to="0"/><set fill="freeze" attributeName="opacity" begin="logoVectorReset.end+0.5s" to="1"/></path><path d="M24 12l8 8"><animate fill="freeze" attributeName="d" begin="logoVectorReset.end+2s" dur="1.5s" values="M24 12l8 8;M24 12l14 0"/><set fill="freeze" attributeName="d" begin="logoVectorReset.begin" to="M24 12l8 8"/><set fill="freeze" attributeName="opacity" begin="logoVectorReset.begin" to="0"/><set fill="freeze" attributeName="opacity" begin="logoVectorReset.end+2s" to="1"/></path></g><circle cx="25" cy="13" r="2" fill="#000" stroke="#fff" stroke-width="2" opacity="0"><animateMotion fill="freeze" begin="logoVectorReset.end+0.5s" dur="1.5s" path="M0 0l15 15"/><set fill="freeze" attributeName="opacity" begin="logoVectorReset.end+0.5s" to="1"/><set fill="freeze" attributeName="opacity" begin="logoVectorReset.end+2s" to="0"/></circle><circle cx="32" cy="20" r="2" fill="#000" stroke="#fff" stroke-width="2"><animateMotion fill="freeze" begin="logoVectorReset.end+2s" dur="1.5s" path="M0 0l6-8"/><set fill="freeze" attributeName="opacity" begin="logoVectorReset.begin" to="0"/><set fill="freeze" attributeName="opacity" begin="logoVectorReset.end+2s" to="1"/></circle></mask><mask id="logo-cloud-mask"><g fill="#fff"><circle cx="27" cy="21" r="6" data-part="left"><animate attributeName="cx" dur="3s" repeatCount="indefinite" values="26;28;26"/></circle><circle cx="37" cy="21" r="6" data-part="right"><animate attributeName="cx" dur="3.5s" repeatCount="indefinite" values="36;38;36"/></circle><circle cx="32" cy="16" r="6" data-part="top"><animate attributeName="cy" dur="3.5s" repeatCount="indefinite" values="15;17;15"/></circle><ellipse cx="32.5" cy="20.5" data-part="bottom" rx="9.5" ry="6.5"><animate attributeName="ry" dur="3s" repeatCount="indefinite" values="6;8;6;7;6"/></ellipse><g fill="#000"><circle cx="27" cy="21" r="4" data-part="left"><animate attributeName="cx" dur="3s" repeatCount="indefinite" values="26;28;26"/></circle><circle cx="37" cy="21" r="4" data-part="right"><animate attributeName="cx" dur="3.5s" repeatCount="indefinite" values="36;38;36"/></circle><circle cx="32" cy="16" r="4" data-part="top"><animate attributeName="cy" dur="3.5s" repeatCount="indefinite" values="15;17;15"/></circle><ellipse cx="32.5" cy="20.5" data-part="bottom" rx="7.5" ry="4.5"><animate attributeName="ry" dur="3s" repeatCount="indefinite" values="4;6;4;5;4"/></ellipse></g><animateTransform fill="freeze" attributeName="transform" begin="logoCloudReset.begin" dur="8.2s" from="-24" to="24" type="translate"/></g></mask><mask id="logo-code-mask"><path stroke="#fff" stroke-linecap="round" stroke-width="2" d="M40 -4l-4 12"><animateMotion fill="freeze" begin="logoCodeReset.begin" dur="1.5s" path="M0 0l-12 36"/></path></mask><g fill="none" stroke="#979797" stroke-dasharray="22" stroke-linecap="round" stroke-linejoin="round" stroke-width="2" data-part="code"><path stroke-dashoffset="22" d="M8 13l-7 7l7 7" data-part="left"><animateMotion dur="1.5s" path="M0 0h2z" repeatCount="indefinite"/><animate fill="freeze" attributeName="stroke-dashoffset" begin="1.2s" dur="0.3s" values="22;0"/></path><path stroke-dashoffset="22" d="M56 13l7 7l-7 7" data-part="right"><animateMotion dur="1.5s" path="M0 0h-2z" repeatCount="indefinite"/><animate fill="freeze" attributeName="stroke-dashoffset" begin="1.5s" dur="0.3s" values="22;0"/></path></g><g fill="none" stroke-linecap="round" stroke-linejoin="round" data-part="icon"><circle cx="32" cy="20" r="15" stroke="#307594" stroke-dasharray="100" stroke-dashoffset="100" stroke-width="2" transform="rotate(-90 32 20)"><animate id="logoCircle" fill="freeze" attributeName="stroke-dashoffset" begin="0s" dur="0.7s" values="100;0"/></circle><g data-part="smile" opacity="0"><g stroke="#307594" stroke-dasharray="5" stroke-dashoffset="5" stroke-width="3"><path d="M26.5 15.5v2"><animate fill="freeze" attributeName="stroke-dashoffset" begin="logoSmileReset.end" dur="0.3s" values="5;0"/><set fill="freeze" attributeName="stroke-dashoffset" begin="logoSmileReset.begin" to="5"/></path><path d="M37.5 15.5v2"><animate fill="freeze" attributeName="stroke-dashoffset" begin="logoSmileReset.end+0.2s" dur="0.3s" values="5;0"/><set fill="freeze" attributeName="stroke-dashoffset" begin="logoSmileReset.begin" to="5"/></path></g><circle cx="32" cy="24" r="0" fill="#307594" mask="url(#logo-smile-mask)"><animate fill="freeze" attributeName="r" begin="logoSmileReset.end+0.4s" dur="0.3s" values="0;19"/><set fill="freeze" attributeName="r" begin="logoSmileReset.begin" to="0"/></circle><animate id="logoSmileHide" fill="freeze" attributeName="opacity" begin="logoSmileReset.begin+10s" dur="0.3s" values="1;0"/><animate id="logoSmileReset" fill="freeze" attributeName="opacity" begin="logoCircle.end;logoCodeHide.end" calcMode="discrete" dur="0.1s" values="0;1"/></g><g data-part="vector" opacity="0"><rect width="32" height="32" x="16" y="4" fill="#307594" mask="url(#logo-vector-mask)"/><animate id="logoVectorHide" fill="freeze" attributeName="opacity" begin="logoVectorReset.begin+4s" dur="0.3s" values="1;0"/><animate id="logoVectorReset" fill="freeze" attributeName="opacity" begin="logoSmileHide.end" calcMode="discrete" dur="0.1s" values="0;1"/></g><g data-part="cloud" opacity="0"><circle cx="32" cy="20" r="15" fill="#307594" mask="url(#logo-cloud-mask)"/><animate id="logoCloudHide" fill="freeze" attributeName="opacity" begin="logoCloudReset.begin+8s" dur="0.3s" values="1;0"/><animate id="logoCloudReset" fill="freeze" attributeName="opacity" begin="logoVectorHide.end" calcMode="discrete" dur="0.1s" values="0;1"/></g><g data-part="code-icon" opacity="0"><g stroke="#307594" stroke-dasharray="12" stroke-dashoffset="12" stroke-width="2"><path d="M27 17l-3 3l3 3"><animate fill="freeze" attributeName="stroke-dashoffset" begin="logoCodeReset.end+0.3s" dur="0.3s" values="12;0"/><set fill="freeze" attributeName="stroke-dashoffset" begin="logoCodeReset.begin" to="12"/></path><path d="M37 17l3 3l-3 3"><animate fill="freeze" attributeName="stroke-dashoffset" begin="logoCodeReset.end+0.5s" dur="0.3s" values="12;0"/><set fill="freeze" attributeName="stroke-dashoffset" begin="logoCodeReset.begin" to="12"/></path></g><circle cx="32" cy="20" r="14" fill="#307594" mask="url(#logo-code-mask)"/><animate id="logoCodeHide" fill="freeze" attributeName="opacity" begin="logoCodeReset.begin+1.5s" dur="0.3s" values="1;0"/><animate id="logoCodeReset" fill="freeze" attributeName="opacity" begin="logoCloudHide.end" calcMode="discrete" dur="0.1s" values="0;1"/></g></g><g fill="none" stroke-linecap="round" stroke-width="3" data-part="iconify"><g data-part="i"><circle cx="77.5" cy="2.5" r="1.5" fill="#E13E31" opacity="0"><set attributeName="opacity" begin="0.2s" to="1"/></circle><path stroke="#E13E31" stroke-dasharray="22" stroke-dashoffset="22" d="M77.5 7.5V19.5"><animate fill="freeze" attributeName="stroke-dashoffset" dur="0.2s" values="22;0"/></path></g><path stroke="#E13E31" stroke-dasharray="42" stroke-dashoffset="42" d="M94.5962 8.4038C92.0578 5.86539 87.9422 5.86539 85.4038 8.4038C82.8654 10.9422 82.8654 15.0578 85.4038 17.5962C87.9422 20.1346 92.0578 20.1346 94.5962 17.5962" data-part="c"><animate fill="freeze" attributeName="stroke-dashoffset" begin="0.2s" dur="0.3s" values="42;0"/></path><circle cx="106" cy="13" r="6.5" stroke="#E13E31" stroke-dasharray="52" stroke-dashoffset="52" data-part="o" transform="rotate(-180 106 13)"><animate fill="freeze" attributeName="stroke-dashoffset" begin="0.5s" dur="0.3s" values="52;0"/></circle><path stroke="#E13E31" stroke-dasharray="34" stroke-dashoffset="34" d="M129.5 19.5C129.5 16.525 129.5 14.025 129.5 12C129.5 8.96243 127.038 6.5 124 6.5C120.962 6.5 118.5 8.96243 118.5 12C118.5 14.025 118.5 16.525 118.5 19.5" data-part="n"><animate fill="freeze" attributeName="stroke-dashoffset" begin="0.7s" dur="0.3s" values="34;68"/></path><g data-part="i2"><circle cx="135.5" cy="2.5" r="1.5" fill="#AEAEAE" opacity="0"><set attributeName="opacity" begin="1.2s" to="1"/></circle><path stroke="#AEAEAE" stroke-dasharray="22" stroke-dashoffset="22" d="M135.5 7.5V19.5"><animate fill="freeze" attributeName="stroke-dashoffset" begin="1.0s" dur="0.2s" values="22;0"/></path></g><g data-part="f"><path stroke="#AEAEAE" stroke-dasharray="26" stroke-dashoffset="26" d="M149.5 2.5C147.962 2.5 146.795 2.5 146 2.5C143.5 2.5 141.5 4.5 141.5 7C141.5 8.66667 141.5 12.8333 141.5 19.5"><animate fill="freeze" attributeName="stroke-dashoffset" begin="1.2s" dur="0.2s" values="26;0"/></path><path stroke="#AEAEAE" stroke-dasharray="5" stroke-dashoffset="5" d="M145 11.5h2.5"><animate fill="freeze" attributeName="stroke-dashoffset" begin="1.4s" dur="0.1s" values="5;0"/></path></g><g data-part="y"><path stroke="#AEAEAE" stroke-dasharray="24" stroke-dashoffset="24" d="M153.5 6.5C153.5 8.16667 153.5 9.83333 153.5 11.5C153.5 14 155 15.5 157.5 15.5C157.73 15.5 158.23 15.5 159 15.5"><animate fill="freeze" attributeName="stroke-dashoffset" begin="1.5s" dur="0.2s" values="24;0"/></path><path stroke="#AEAEAE" stroke-dasharray="24" stroke-dashoffset="24" d="M154.5 22.5C156.371 22.5 157.704 22.5 158.5 22.5C160.5 22.5 162.5 20.5 162.5 18.5C162.5 17.1667 162.5 13.1667 162.5 6.5"><animate fill="freeze" attributeName="stroke-dashoffset" begin="1.7s" dur="0.2s" values="24;48"/></path></g></g><rect width="62" height="0" x="72" y="25" fill="#307594" mask="url(#logo-design-mask)" opacity="0"><animate fill="freeze" attributeName="height" begin="2.0s" dur="0.2s" values="0;14"/><animate fill="freeze" attributeName="opacity" begin="2.0s" dur="0.3s" values="0;1"/></rect></svg>