<svg xmlns="http://www.w3.org/2000/svg" width="2026" height="294" fill="none" viewBox="0 0 2026 294"><rect width="375" height="138" x="825" y="22.718" fill="#C3E88C" rx="10"/><path fill="#15505C" d="M905.511 95.3281H897.82V90.8984H905.511C906.769 90.8984 907.787 90.6934 908.566 90.2832C909.359 89.8594 909.94 89.2852 910.31 88.5605C910.679 87.8223 910.863 86.9814 910.863 86.0381C910.863 85.1221 910.679 84.2676 910.31 83.4746C909.94 82.6816 909.359 82.0391 908.566 81.5469C907.787 81.0547 906.769 80.8086 905.511 80.8086H899.666V106.218H894.026V76.3584H905.511C907.835 76.3584 909.817 76.7754 911.458 77.6094C913.112 78.4297 914.37 79.5713 915.231 81.0342C916.106 82.4834 916.544 84.1377 916.544 85.9971C916.544 87.9248 916.106 89.5859 915.231 90.9805C914.37 92.375 913.112 93.4482 911.458 94.2002C909.817 94.9521 907.835 95.3281 905.511 95.3281ZM925.978 88.5605V106.218H920.563V84.0283H925.69L925.978 88.5605ZM932.725 83.8848L932.643 88.9297C932.342 88.875 932 88.834 931.617 88.8066C931.248 88.7793 930.899 88.7656 930.571 88.7656C929.737 88.7656 929.006 88.8818 928.377 89.1143C927.748 89.333 927.222 89.6543 926.798 90.0781C926.388 90.502 926.073 91.0215 925.854 91.6367C925.636 92.2383 925.513 92.9219 925.485 93.6875L924.316 93.5439C924.316 92.1357 924.46 90.8301 924.747 89.627C925.034 88.4238 925.451 87.3711 925.998 86.4688C926.545 85.5664 927.229 84.8691 928.049 84.377C928.883 83.8711 929.84 83.6182 930.92 83.6182C931.221 83.6182 931.542 83.6455 931.884 83.7002C932.239 83.7412 932.52 83.8027 932.725 83.8848ZM934.16 95.3486V94.918C934.16 93.291 934.393 91.7939 934.857 90.4268C935.322 89.0459 935.999 87.8496 936.888 86.8379C937.776 85.8262 938.863 85.04 940.148 84.4795C941.434 83.9053 942.896 83.6182 944.537 83.6182C946.205 83.6182 947.682 83.9053 948.967 84.4795C950.266 85.04 951.359 85.8262 952.248 86.8379C953.137 87.8496 953.813 89.0459 954.278 90.4268C954.743 91.7939 954.976 93.291 954.976 94.918V95.3486C954.976 96.9619 954.743 98.459 954.278 99.8398C953.813 101.207 953.137 102.403 952.248 103.429C951.359 104.44 950.272 105.227 948.987 105.787C947.702 106.348 946.232 106.628 944.578 106.628C942.938 106.628 941.468 106.348 940.169 105.787C938.87 105.227 937.776 104.44 936.888 103.429C935.999 102.403 935.322 101.207 934.857 99.8398C934.393 98.459 934.16 96.9619 934.16 95.3486ZM939.574 94.918V95.3486C939.574 96.3193 939.67 97.2285 939.861 98.0762C940.053 98.9238 940.347 99.6689 940.743 100.312C941.14 100.954 941.652 101.46 942.281 101.829C942.924 102.185 943.689 102.362 944.578 102.362C945.453 102.362 946.205 102.185 946.834 101.829C947.463 101.46 947.976 100.954 948.372 100.312C948.782 99.6689 949.083 98.9238 949.274 98.0762C949.466 97.2285 949.562 96.3193 949.562 95.3486V94.918C949.562 93.9609 949.466 93.0654 949.274 92.2314C949.083 91.3838 948.782 90.6387 948.372 89.9961C947.976 89.3398 947.456 88.8271 946.813 88.458C946.185 88.0752 945.426 87.8838 944.537 87.8838C943.662 87.8838 942.91 88.0752 942.281 88.458C941.652 88.8271 941.14 89.3398 940.743 89.9961C940.347 90.6387 940.053 91.3838 939.861 92.2314C939.67 93.0654 939.574 93.9609 939.574 94.918ZM959.18 84.0283H964.635V107.858C964.635 109.431 964.348 110.764 963.773 111.857C963.213 112.951 962.399 113.778 961.333 114.339C960.267 114.899 958.961 115.18 957.416 115.18C956.938 115.18 956.459 115.152 955.98 115.098C955.502 115.043 955.03 114.954 954.565 114.831L954.586 110.647C954.887 110.702 955.194 110.743 955.509 110.771C955.823 110.812 956.138 110.832 956.452 110.832C957.04 110.832 957.532 110.729 957.929 110.524C958.339 110.319 958.646 109.998 958.852 109.561C959.07 109.123 959.18 108.556 959.18 107.858V84.0283ZM958.729 78.2246C958.729 77.418 959.002 76.748 959.549 76.2148C960.109 75.6816 960.861 75.415 961.805 75.415C962.748 75.415 963.493 75.6816 964.04 76.2148C964.601 76.748 964.881 77.418 964.881 78.2246C964.881 79.0176 964.601 79.6807 964.04 80.2139C963.493 80.7471 962.748 81.0137 961.805 81.0137C960.861 81.0137 960.109 80.7471 959.549 80.2139C959.002 79.6807 958.729 79.0176 958.729 78.2246ZM979.626 106.628C977.944 106.628 976.434 106.354 975.094 105.808C973.754 105.261 972.612 104.502 971.669 103.531C970.739 102.547 970.021 101.405 969.516 100.106C969.023 98.7939 968.777 97.3857 968.777 95.8818V95.0615C968.777 93.3525 969.023 91.8008 969.516 90.4062C970.008 88.998 970.705 87.7881 971.607 86.7764C972.51 85.7646 973.59 84.9854 974.848 84.4385C976.105 83.8916 977.493 83.6182 979.011 83.6182C980.583 83.6182 981.971 83.8848 983.174 84.418C984.377 84.9375 985.382 85.6758 986.188 86.6328C986.995 87.5898 987.604 88.7383 988.014 90.0781C988.424 91.4043 988.629 92.874 988.629 94.4873V96.7637H971.238V93.0312H983.297V92.6211C983.27 91.7598 983.105 90.9736 982.805 90.2627C982.504 89.5381 982.039 88.9639 981.41 88.54C980.781 88.1025 979.968 87.8838 978.97 87.8838C978.163 87.8838 977.459 88.0615 976.857 88.417C976.27 88.7588 975.777 89.251 975.381 89.8936C974.998 90.5225 974.711 91.2744 974.52 92.1494C974.328 93.0244 974.232 93.9951 974.232 95.0615V95.8818C974.232 96.8115 974.355 97.6729 974.602 98.4658C974.861 99.2588 975.237 99.9492 975.729 100.537C976.235 101.111 976.837 101.562 977.534 101.891C978.245 102.205 979.052 102.362 979.954 102.362C981.089 102.362 982.114 102.144 983.03 101.706C983.96 101.255 984.767 100.592 985.45 99.7168L988.178 102.547C987.713 103.23 987.084 103.887 986.291 104.516C985.512 105.145 984.568 105.657 983.461 106.054C982.354 106.437 981.075 106.628 979.626 106.628ZM1001.36 102.362C1002.13 102.362 1002.81 102.212 1003.42 101.911C1004.02 101.61 1004.5 101.187 1004.85 100.64C1005.22 100.093 1005.42 99.457 1005.45 98.7324H1010.55C1010.52 100.236 1010.1 101.583 1009.28 102.772C1008.46 103.962 1007.37 104.905 1006 105.603C1004.65 106.286 1003.13 106.628 1001.45 106.628C999.737 106.628 998.247 106.341 996.976 105.767C995.704 105.192 994.645 104.393 993.797 103.367C992.963 102.342 992.334 101.152 991.91 99.7988C991.5 98.4453 991.295 96.9961 991.295 95.4512V94.7949C991.295 93.25 991.5 91.8008 991.91 90.4473C992.334 89.0938 992.963 87.9043 993.797 86.8789C994.645 85.8535 995.704 85.0537 996.976 84.4795C998.247 83.9053 999.73 83.6182 1001.43 83.6182C1003.22 83.6182 1004.79 83.9668 1006.14 84.6641C1007.51 85.3613 1008.58 86.3457 1009.34 87.6172C1010.12 88.8887 1010.52 90.3857 1010.55 92.1084H1005.45C1005.42 91.3154 1005.24 90.6045 1004.91 89.9756C1004.58 89.3467 1004.12 88.8408 1003.52 88.458C1002.92 88.0752 1002.18 87.8838 1001.32 87.8838C1000.41 87.8838 999.642 88.0752 999.026 88.458C998.425 88.8408 997.953 89.3672 997.611 90.0371C997.283 90.6934 997.051 91.4316 996.914 92.252C996.791 93.0586 996.729 93.9062 996.729 94.7949V95.4512C996.729 96.3535 996.791 97.2148 996.914 98.0352C997.051 98.8555 997.283 99.5938 997.611 100.25C997.953 100.893 998.425 101.405 999.026 101.788C999.642 102.171 1000.42 102.362 1001.36 102.362ZM1024.66 84.0283V87.9248H1011.95V84.0283H1024.66ZM1015.35 78.5732H1020.79V99.8193C1020.79 100.476 1020.87 100.981 1021.05 101.337C1021.23 101.692 1021.5 101.932 1021.85 102.055C1022.21 102.178 1022.63 102.239 1023.12 102.239C1023.48 102.239 1023.81 102.219 1024.11 102.178C1024.41 102.137 1024.66 102.096 1024.87 102.055L1024.89 106.115C1024.44 106.266 1023.92 106.389 1023.35 106.484C1022.79 106.58 1022.15 106.628 1021.44 106.628C1020.22 106.628 1019.16 106.423 1018.24 106.013C1017.33 105.589 1016.62 104.912 1016.11 103.982C1015.6 103.039 1015.35 101.795 1015.35 100.25V78.5732ZM1056.61 96.3945H1062.25C1062.1 98.3906 1061.55 100.161 1060.59 101.706C1059.63 103.237 1058.3 104.44 1056.59 105.315C1054.88 106.19 1052.81 106.628 1050.38 106.628C1048.5 106.628 1046.82 106.3 1045.31 105.644C1043.82 104.974 1042.54 104.023 1041.48 102.793C1040.42 101.549 1039.62 100.059 1039.06 98.3223C1038.5 96.5723 1038.22 94.6104 1038.22 92.4365V90.1602C1038.22 87.9863 1038.5 86.0244 1039.08 84.2744C1039.65 82.5244 1040.47 81.0342 1041.54 79.8037C1042.62 78.5596 1043.91 77.6025 1045.42 76.9326C1046.93 76.2627 1048.63 75.9277 1050.5 75.9277C1052.93 75.9277 1054.99 76.3789 1056.67 77.2812C1058.36 78.1699 1059.66 79.3936 1060.59 80.9521C1061.52 82.5107 1062.08 84.3018 1062.27 86.3252H1056.63C1056.52 85.0674 1056.25 84.001 1055.81 83.126C1055.39 82.251 1054.75 81.5879 1053.88 81.1367C1053.04 80.6719 1051.91 80.4395 1050.5 80.4395C1049.41 80.4395 1048.44 80.6445 1047.61 81.0547C1046.79 81.4648 1046.11 82.0801 1045.56 82.9004C1045.01 83.707 1044.6 84.7188 1044.33 85.9355C1044.05 87.1387 1043.92 88.5332 1043.92 90.1191V92.4365C1043.92 93.9541 1044.04 95.3145 1044.29 96.5176C1044.53 97.7207 1044.92 98.7393 1045.44 99.5732C1045.96 100.407 1046.62 101.043 1047.45 101.48C1048.27 101.918 1049.24 102.137 1050.38 102.137C1051.76 102.137 1052.88 101.918 1053.74 101.48C1054.62 101.043 1055.28 100.4 1055.73 99.5527C1056.2 98.7051 1056.49 97.6523 1056.61 96.3945ZM1065.25 95.3486V94.918C1065.25 93.291 1065.48 91.7939 1065.94 90.4268C1066.41 89.0459 1067.08 87.8496 1067.97 86.8379C1068.86 85.8262 1069.95 85.04 1071.23 84.4795C1072.52 83.9053 1073.98 83.6182 1075.62 83.6182C1077.29 83.6182 1078.77 83.9053 1080.05 84.4795C1081.35 85.04 1082.45 85.8262 1083.33 86.8379C1084.22 87.8496 1084.9 89.0459 1085.36 90.4268C1085.83 91.7939 1086.06 93.291 1086.06 94.918V95.3486C1086.06 96.9619 1085.83 98.459 1085.36 99.8398C1084.9 101.207 1084.22 102.403 1083.33 103.429C1082.45 104.44 1081.36 105.227 1080.07 105.787C1078.79 106.348 1077.32 106.628 1075.66 106.628C1074.02 106.628 1072.55 106.348 1071.25 105.787C1069.96 105.227 1068.86 104.44 1067.97 103.429C1067.08 102.403 1066.41 101.207 1065.94 99.8398C1065.48 98.459 1065.25 96.9619 1065.25 95.3486ZM1070.66 94.918V95.3486C1070.66 96.3193 1070.76 97.2285 1070.95 98.0762C1071.14 98.9238 1071.43 99.6689 1071.83 100.312C1072.23 100.954 1072.74 101.46 1073.37 101.829C1074.01 102.185 1074.78 102.362 1075.66 102.362C1076.54 102.362 1077.29 102.185 1077.92 101.829C1078.55 101.46 1079.06 100.954 1079.46 100.312C1079.87 99.6689 1080.17 98.9238 1080.36 98.0762C1080.55 97.2285 1080.65 96.3193 1080.65 95.3486V94.918C1080.65 93.9609 1080.55 93.0654 1080.36 92.2314C1080.17 91.3838 1079.87 90.6387 1079.46 89.9961C1079.06 89.3398 1078.54 88.8271 1077.9 88.458C1077.27 88.0752 1076.51 87.8838 1075.62 87.8838C1074.75 87.8838 1074 88.0752 1073.37 88.458C1072.74 88.8271 1072.23 89.3398 1071.83 89.9961C1071.43 90.6387 1071.14 91.3838 1070.95 92.2314C1070.76 93.0654 1070.66 93.9609 1070.66 94.918ZM1103.31 101.501V74.7178H1108.76V106.218H1103.84L1103.31 101.501ZM1089.06 95.3896V94.959C1089.06 93.2637 1089.25 91.7256 1089.63 90.3447C1090.03 88.9502 1090.6 87.7539 1091.35 86.7559C1092.1 85.7578 1093.01 84.9854 1094.08 84.4385C1095.16 83.8916 1096.38 83.6182 1097.75 83.6182C1099.08 83.6182 1100.23 83.8848 1101.22 84.418C1102.21 84.9512 1103.06 85.71 1103.76 86.6943C1104.47 87.6787 1105.04 88.8477 1105.46 90.2012C1105.89 91.541 1106.19 93.0176 1106.38 94.6309V95.7998C1106.19 97.3721 1105.89 98.8145 1105.46 100.127C1105.04 101.439 1104.47 102.588 1103.76 103.572C1103.06 104.543 1102.21 105.295 1101.22 105.828C1100.22 106.361 1099.05 106.628 1097.71 106.628C1096.36 106.628 1095.14 106.348 1094.06 105.787C1092.99 105.227 1092.08 104.44 1091.33 103.429C1090.59 102.417 1090.03 101.228 1089.63 99.8604C1089.25 98.4932 1089.06 97.0029 1089.06 95.3896ZM1094.49 94.959V95.3896C1094.49 96.3467 1094.57 97.2422 1094.74 98.0762C1094.9 98.9102 1095.17 99.6484 1095.54 100.291C1095.91 100.92 1096.38 101.412 1096.95 101.768C1097.54 102.123 1098.25 102.301 1099.08 102.301C1100.15 102.301 1101.03 102.068 1101.71 101.604C1102.41 101.125 1102.95 100.476 1103.33 99.6553C1103.71 98.8213 1103.96 97.8848 1104.07 96.8457V93.626C1104.01 92.8057 1103.87 92.0469 1103.64 91.3496C1103.42 90.6523 1103.1 90.0508 1102.69 89.5449C1102.3 89.0391 1101.8 88.6426 1101.22 88.3555C1100.63 88.0684 1099.93 87.9248 1099.12 87.9248C1098.29 87.9248 1097.58 88.1094 1096.99 88.4785C1096.4 88.834 1095.93 89.333 1095.56 89.9756C1095.19 90.6182 1094.91 91.3633 1094.74 92.2109C1094.57 93.0586 1094.49 93.9746 1094.49 94.959ZM1123.63 106.628C1121.95 106.628 1120.44 106.354 1119.1 105.808C1117.76 105.261 1116.62 104.502 1115.67 103.531C1114.75 102.547 1114.03 101.405 1113.52 100.106C1113.03 98.7939 1112.78 97.3857 1112.78 95.8818V95.0615C1112.78 93.3525 1113.03 91.8008 1113.52 90.4062C1114.01 88.998 1114.71 87.7881 1115.61 86.7764C1116.52 85.7646 1117.6 84.9854 1118.85 84.4385C1120.11 83.8916 1121.5 83.6182 1123.02 83.6182C1124.59 83.6182 1125.98 83.8848 1127.18 84.418C1128.38 84.9375 1129.39 85.6758 1130.19 86.6328C1131 87.5898 1131.61 88.7383 1132.02 90.0781C1132.43 91.4043 1132.63 92.874 1132.63 94.4873V96.7637H1115.24V93.0312H1127.3V92.6211C1127.28 91.7598 1127.11 90.9736 1126.81 90.2627C1126.51 89.5381 1126.04 88.9639 1125.42 88.54C1124.79 88.1025 1123.97 87.8838 1122.98 87.8838C1122.17 87.8838 1121.46 88.0615 1120.86 88.417C1120.28 88.7588 1119.78 89.251 1119.39 89.8936C1119 90.5225 1118.72 91.2744 1118.53 92.1494C1118.33 93.0244 1118.24 93.9951 1118.24 95.0615V95.8818C1118.24 96.8115 1118.36 97.6729 1118.61 98.4658C1118.87 99.2588 1119.24 99.9492 1119.74 100.537C1120.24 101.111 1120.84 101.562 1121.54 101.891C1122.25 102.205 1123.06 102.362 1123.96 102.362C1125.09 102.362 1126.12 102.144 1127.04 101.706C1127.97 101.255 1128.77 100.592 1129.46 99.7168L1132.18 102.547C1131.72 103.23 1131.09 103.887 1130.3 104.516C1129.52 105.145 1128.57 105.657 1127.47 106.054C1126.36 106.437 1125.08 106.628 1123.63 106.628Z"/><rect width="375" height="148" x="21" y="124" fill="#029788" rx="10"/><path fill="#fff" d="M130.488 182.641H136.128V202.472C136.128 204.755 135.636 206.676 134.651 208.234C133.667 209.779 132.327 210.948 130.632 211.741C128.937 212.521 127.009 212.91 124.849 212.91C122.661 212.91 120.713 212.521 119.004 211.741C117.295 210.948 115.955 209.779 114.984 208.234C114.014 206.676 113.528 204.755 113.528 202.472V182.641H119.168V202.472C119.168 203.866 119.4 205.008 119.865 205.896C120.33 206.771 120.986 207.421 121.834 207.845C122.682 208.269 123.687 208.48 124.849 208.48C126.024 208.48 127.029 208.269 127.863 207.845C128.711 207.421 129.36 206.771 129.812 205.896C130.263 205.008 130.488 203.866 130.488 202.472V182.641ZM153.272 206.43C153.272 205.965 153.149 205.548 152.903 205.179C152.657 204.81 152.192 204.475 151.509 204.174C150.839 203.859 149.854 203.565 148.556 203.292C147.407 203.046 146.348 202.738 145.377 202.369C144.406 202 143.572 201.556 142.875 201.036C142.178 200.503 141.631 199.881 141.234 199.17C140.852 198.445 140.66 197.611 140.66 196.668C140.66 195.752 140.858 194.891 141.255 194.084C141.651 193.264 142.226 192.546 142.978 191.931C143.729 191.302 144.646 190.81 145.726 190.454C146.806 190.085 148.022 189.9 149.376 189.9C151.263 189.9 152.883 190.208 154.236 190.823C155.604 191.438 156.649 192.286 157.374 193.366C158.099 194.433 158.461 195.636 158.461 196.976H153.047C153.047 196.388 152.91 195.854 152.637 195.376C152.377 194.897 151.974 194.515 151.427 194.228C150.88 193.927 150.189 193.776 149.355 193.776C148.604 193.776 147.968 193.899 147.448 194.146C146.942 194.392 146.56 194.713 146.3 195.109C146.04 195.506 145.91 195.943 145.91 196.422C145.91 196.777 145.979 197.099 146.115 197.386C146.266 197.659 146.505 197.912 146.833 198.145C147.161 198.377 147.605 198.589 148.166 198.78C148.74 198.972 149.444 199.156 150.278 199.334C151.933 199.662 153.375 200.1 154.605 200.646C155.85 201.18 156.82 201.891 157.518 202.779C158.215 203.668 158.563 204.803 158.563 206.184C158.563 207.168 158.352 208.07 157.928 208.891C157.504 209.697 156.889 210.401 156.082 211.003C155.275 211.604 154.312 212.076 153.19 212.418C152.069 212.746 150.805 212.91 149.396 212.91C147.359 212.91 145.637 212.548 144.229 211.823C142.82 211.085 141.754 210.155 141.029 209.034C140.305 207.899 139.942 206.724 139.942 205.507H145.131C145.172 206.368 145.404 207.059 145.828 207.578C146.252 208.098 146.785 208.474 147.428 208.706C148.084 208.925 148.774 209.034 149.499 209.034C150.319 209.034 151.01 208.925 151.57 208.706C152.131 208.474 152.555 208.166 152.842 207.783C153.129 207.387 153.272 206.936 153.272 206.43ZM172.652 212.91C170.971 212.91 169.46 212.637 168.12 212.09C166.78 211.543 165.639 210.784 164.695 209.813C163.766 208.829 163.048 207.688 162.542 206.389C162.05 205.076 161.804 203.668 161.804 202.164V201.344C161.804 199.635 162.05 198.083 162.542 196.688C163.034 195.28 163.731 194.07 164.634 193.059C165.536 192.047 166.616 191.268 167.874 190.721C169.132 190.174 170.52 189.9 172.037 189.9C173.609 189.9 174.997 190.167 176.2 190.7C177.403 191.22 178.408 191.958 179.215 192.915C180.021 193.872 180.63 195.021 181.04 196.36C181.45 197.687 181.655 199.156 181.655 200.77V203.046H164.265V199.313H176.323V198.903C176.296 198.042 176.132 197.256 175.831 196.545C175.53 195.82 175.065 195.246 174.437 194.822C173.808 194.385 172.994 194.166 171.996 194.166C171.189 194.166 170.485 194.344 169.884 194.699C169.296 195.041 168.804 195.533 168.407 196.176C168.024 196.805 167.737 197.557 167.546 198.432C167.354 199.307 167.259 200.277 167.259 201.344V202.164C167.259 203.094 167.382 203.955 167.628 204.748C167.888 205.541 168.264 206.231 168.756 206.819C169.262 207.394 169.863 207.845 170.561 208.173C171.271 208.487 172.078 208.645 172.98 208.645C174.115 208.645 175.141 208.426 176.057 207.988C176.986 207.537 177.793 206.874 178.477 205.999L181.204 208.829C180.739 209.513 180.11 210.169 179.317 210.798C178.538 211.427 177.595 211.939 176.487 212.336C175.38 212.719 174.102 212.91 172.652 212.91ZM190.699 194.843V212.5H185.285V190.311H190.412L190.699 194.843ZM197.446 190.167L197.364 195.212C197.063 195.157 196.722 195.116 196.339 195.089C195.97 195.062 195.621 195.048 195.293 195.048C194.459 195.048 193.728 195.164 193.099 195.396C192.47 195.615 191.943 195.937 191.52 196.36C191.109 196.784 190.795 197.304 190.576 197.919C190.357 198.521 190.234 199.204 190.207 199.97L189.038 199.826C189.038 198.418 189.182 197.112 189.469 195.909C189.756 194.706 190.173 193.653 190.72 192.751C191.267 191.849 191.95 191.151 192.771 190.659C193.604 190.153 194.562 189.9 195.642 189.9C195.942 189.9 196.264 189.928 196.605 189.982C196.961 190.023 197.241 190.085 197.446 190.167ZM228.762 202.677H234.401C234.251 204.673 233.697 206.443 232.74 207.988C231.783 209.52 230.45 210.723 228.741 211.598C227.032 212.473 224.961 212.91 222.527 212.91C220.654 212.91 218.966 212.582 217.462 211.926C215.972 211.256 214.693 210.306 213.627 209.075C212.574 207.831 211.768 206.341 211.207 204.604C210.646 202.854 210.366 200.893 210.366 198.719V196.442C210.366 194.269 210.653 192.307 211.228 190.557C211.802 188.807 212.622 187.316 213.688 186.086C214.769 184.842 216.061 183.885 217.564 183.215C219.082 182.545 220.777 182.21 222.65 182.21C225.084 182.21 227.142 182.661 228.823 183.563C230.505 184.452 231.811 185.676 232.74 187.234C233.67 188.793 234.23 190.584 234.422 192.607H228.782C228.673 191.35 228.399 190.283 227.962 189.408C227.538 188.533 226.896 187.87 226.034 187.419C225.187 186.954 224.059 186.722 222.65 186.722C221.557 186.722 220.593 186.927 219.759 187.337C218.938 187.747 218.255 188.362 217.708 189.183C217.161 189.989 216.751 191.001 216.478 192.218C216.204 193.421 216.067 194.815 216.067 196.401V198.719C216.067 200.236 216.19 201.597 216.437 202.8C216.683 204.003 217.065 205.021 217.585 205.855C218.104 206.689 218.774 207.325 219.595 207.763C220.415 208.2 221.393 208.419 222.527 208.419C223.908 208.419 225.029 208.2 225.891 207.763C226.766 207.325 227.429 206.683 227.88 205.835C228.345 204.987 228.639 203.935 228.762 202.677ZM237.396 201.631V201.2C237.396 199.573 237.628 198.076 238.093 196.709C238.558 195.328 239.234 194.132 240.123 193.12C241.012 192.108 242.099 191.322 243.384 190.762C244.669 190.188 246.132 189.9 247.772 189.9C249.44 189.9 250.917 190.188 252.202 190.762C253.501 191.322 254.595 192.108 255.483 193.12C256.372 194.132 257.049 195.328 257.514 196.709C257.979 198.076 258.211 199.573 258.211 201.2V201.631C258.211 203.244 257.979 204.741 257.514 206.122C257.049 207.489 256.372 208.686 255.483 209.711C254.595 210.723 253.508 211.509 252.223 212.069C250.938 212.63 249.468 212.91 247.813 212.91C246.173 212.91 244.703 212.63 243.404 212.069C242.105 211.509 241.012 210.723 240.123 209.711C239.234 208.686 238.558 207.489 238.093 206.122C237.628 204.741 237.396 203.244 237.396 201.631ZM242.81 201.2V201.631C242.81 202.602 242.905 203.511 243.097 204.358C243.288 205.206 243.582 205.951 243.979 206.594C244.375 207.236 244.888 207.742 245.517 208.111C246.159 208.467 246.925 208.645 247.813 208.645C248.688 208.645 249.44 208.467 250.069 208.111C250.698 207.742 251.211 207.236 251.607 206.594C252.018 205.951 252.318 205.206 252.51 204.358C252.701 203.511 252.797 202.602 252.797 201.631V201.2C252.797 200.243 252.701 199.348 252.51 198.514C252.318 197.666 252.018 196.921 251.607 196.278C251.211 195.622 250.691 195.109 250.049 194.74C249.42 194.357 248.661 194.166 247.772 194.166C246.897 194.166 246.146 194.357 245.517 194.74C244.888 195.109 244.375 195.622 243.979 196.278C243.582 196.921 243.288 197.666 243.097 198.514C242.905 199.348 242.81 200.243 242.81 201.2ZM275.458 207.783V181H280.913V212.5H275.991L275.458 207.783ZM261.205 201.672V201.241C261.205 199.546 261.396 198.008 261.779 196.627C262.176 195.232 262.75 194.036 263.502 193.038C264.254 192.04 265.163 191.268 266.229 190.721C267.31 190.174 268.533 189.9 269.9 189.9C271.227 189.9 272.382 190.167 273.366 190.7C274.364 191.233 275.212 191.992 275.909 192.977C276.62 193.961 277.188 195.13 277.611 196.483C278.035 197.823 278.343 199.3 278.534 200.913V202.082C278.343 203.654 278.035 205.097 277.611 206.409C277.188 207.722 276.62 208.87 275.909 209.854C275.212 210.825 274.364 211.577 273.366 212.11C272.368 212.644 271.199 212.91 269.859 212.91C268.506 212.91 267.289 212.63 266.209 212.069C265.143 211.509 264.233 210.723 263.481 209.711C262.743 208.699 262.176 207.51 261.779 206.143C261.396 204.775 261.205 203.285 261.205 201.672ZM266.64 201.241V201.672C266.64 202.629 266.722 203.524 266.886 204.358C267.05 205.192 267.316 205.931 267.686 206.573C268.055 207.202 268.526 207.694 269.101 208.05C269.688 208.405 270.399 208.583 271.233 208.583C272.3 208.583 273.175 208.351 273.858 207.886C274.556 207.407 275.096 206.758 275.479 205.938C275.861 205.104 276.107 204.167 276.217 203.128V199.908C276.162 199.088 276.019 198.329 275.786 197.632C275.567 196.935 275.253 196.333 274.843 195.827C274.446 195.321 273.954 194.925 273.366 194.638C272.778 194.351 272.081 194.207 271.274 194.207C270.44 194.207 269.729 194.392 269.142 194.761C268.554 195.116 268.075 195.615 267.706 196.258C267.337 196.9 267.063 197.646 266.886 198.493C266.722 199.341 266.64 200.257 266.64 201.241ZM295.781 212.91C294.1 212.91 292.589 212.637 291.249 212.09C289.909 211.543 288.768 210.784 287.824 209.813C286.895 208.829 286.177 207.688 285.671 206.389C285.179 205.076 284.933 203.668 284.933 202.164V201.344C284.933 199.635 285.179 198.083 285.671 196.688C286.163 195.28 286.86 194.07 287.763 193.059C288.665 192.047 289.745 191.268 291.003 190.721C292.261 190.174 293.648 189.9 295.166 189.9C296.738 189.9 298.126 190.167 299.329 190.7C300.532 191.22 301.537 191.958 302.344 192.915C303.15 193.872 303.759 195.021 304.169 196.36C304.579 197.687 304.784 199.156 304.784 200.77V203.046H287.394V199.313H299.452V198.903C299.425 198.042 299.261 197.256 298.96 196.545C298.659 195.82 298.194 195.246 297.565 194.822C296.937 194.385 296.123 194.166 295.125 194.166C294.318 194.166 293.614 194.344 293.013 194.699C292.425 195.041 291.933 195.533 291.536 196.176C291.153 196.805 290.866 197.557 290.675 198.432C290.483 199.307 290.388 200.277 290.388 201.344V202.164C290.388 203.094 290.511 203.955 290.757 204.748C291.017 205.541 291.393 206.231 291.885 206.819C292.391 207.394 292.992 207.845 293.689 208.173C294.4 208.487 295.207 208.645 296.109 208.645C297.244 208.645 298.27 208.426 299.186 207.988C300.115 207.537 300.922 206.874 301.605 205.999L304.333 208.829C303.868 209.513 303.239 210.169 302.446 210.798C301.667 211.427 300.724 211.939 299.616 212.336C298.509 212.719 297.23 212.91 295.781 212.91Z"/><rect width="375" height="148" x="1629" y="124" fill="#029788" rx="10"/><path fill="#fff" d="M1706.82 182.641V212.5H1701.16L1688.47 191.787V212.5H1682.83V182.641H1688.47L1701.21 203.374V182.641H1706.82ZM1711.19 201.631V201.2C1711.19 199.573 1711.42 198.076 1711.89 196.709C1712.35 195.328 1713.03 194.132 1713.92 193.12C1714.81 192.108 1715.9 191.322 1717.18 190.762C1718.47 190.188 1719.93 189.9 1721.57 189.9C1723.24 189.9 1724.71 190.188 1726 190.762C1727.3 191.322 1728.39 192.108 1729.28 193.12C1730.17 194.132 1730.85 195.328 1731.31 196.709C1731.78 198.076 1732.01 199.573 1732.01 201.2V201.631C1732.01 203.244 1731.78 204.741 1731.31 206.122C1730.85 207.489 1730.17 208.686 1729.28 209.711C1728.39 210.723 1727.3 211.509 1726.02 212.069C1724.73 212.63 1723.26 212.91 1721.61 212.91C1719.97 212.91 1718.5 212.63 1717.2 212.069C1715.9 211.509 1714.81 210.723 1713.92 209.711C1713.03 208.686 1712.35 207.489 1711.89 206.122C1711.42 204.741 1711.19 203.244 1711.19 201.631ZM1716.61 201.2V201.631C1716.61 202.602 1716.7 203.511 1716.89 204.358C1717.08 205.206 1717.38 205.951 1717.78 206.594C1718.17 207.236 1718.68 207.742 1719.31 208.111C1719.96 208.467 1720.72 208.645 1721.61 208.645C1722.49 208.645 1723.24 208.467 1723.87 208.111C1724.5 207.742 1725.01 207.236 1725.4 206.594C1725.81 205.951 1726.12 205.206 1726.31 204.358C1726.5 203.511 1726.59 202.602 1726.59 201.631V201.2C1726.59 200.243 1726.5 199.348 1726.31 198.514C1726.12 197.666 1725.81 196.921 1725.4 196.278C1725.01 195.622 1724.49 195.109 1723.85 194.74C1723.22 194.357 1722.46 194.166 1721.57 194.166C1720.69 194.166 1719.94 194.357 1719.31 194.74C1718.68 195.109 1718.17 195.622 1717.78 196.278C1717.38 196.921 1717.08 197.666 1716.89 198.514C1716.7 199.348 1716.61 200.243 1716.61 201.2ZM1749.25 207.783V181H1754.71V212.5H1749.79L1749.25 207.783ZM1735 201.672V201.241C1735 199.546 1735.19 198.008 1735.58 196.627C1735.97 195.232 1736.55 194.036 1737.3 193.038C1738.05 192.04 1738.96 191.268 1740.03 190.721C1741.11 190.174 1742.33 189.9 1743.7 189.9C1745.02 189.9 1746.18 190.167 1747.16 190.7C1748.16 191.233 1749.01 191.992 1749.71 192.977C1750.42 193.961 1750.98 195.13 1751.41 196.483C1751.83 197.823 1752.14 199.3 1752.33 200.913V202.082C1752.14 203.654 1751.83 205.097 1751.41 206.409C1750.98 207.722 1750.42 208.87 1749.71 209.854C1749.01 210.825 1748.16 211.577 1747.16 212.11C1746.17 212.644 1745 212.91 1743.66 212.91C1742.3 212.91 1741.09 212.63 1740.01 212.069C1738.94 211.509 1738.03 210.723 1737.28 209.711C1736.54 208.699 1735.97 207.51 1735.58 206.143C1735.19 204.775 1735 203.285 1735 201.672ZM1740.44 201.241V201.672C1740.44 202.629 1740.52 203.524 1740.68 204.358C1740.85 205.192 1741.11 205.931 1741.48 206.573C1741.85 207.202 1742.32 207.694 1742.9 208.05C1743.49 208.405 1744.2 208.583 1745.03 208.583C1746.1 208.583 1746.97 208.351 1747.66 207.886C1748.35 207.407 1748.89 206.758 1749.28 205.938C1749.66 205.104 1749.9 204.167 1750.01 203.128V199.908C1749.96 199.088 1749.82 198.329 1749.58 197.632C1749.36 196.935 1749.05 196.333 1748.64 195.827C1748.24 195.321 1747.75 194.925 1747.16 194.638C1746.58 194.351 1745.88 194.207 1745.07 194.207C1744.24 194.207 1743.53 194.392 1742.94 194.761C1742.35 195.116 1741.87 195.615 1741.5 196.258C1741.13 196.9 1740.86 197.646 1740.68 198.493C1740.52 199.341 1740.44 200.257 1740.44 201.241ZM1769.58 212.91C1767.9 212.91 1766.39 212.637 1765.05 212.09C1763.71 211.543 1762.56 210.784 1761.62 209.813C1760.69 208.829 1759.97 207.688 1759.47 206.389C1758.98 205.076 1758.73 203.668 1758.73 202.164V201.344C1758.73 199.635 1758.98 198.083 1759.47 196.688C1759.96 195.28 1760.66 194.07 1761.56 193.059C1762.46 192.047 1763.54 191.268 1764.8 190.721C1766.06 190.174 1767.45 189.9 1768.96 189.9C1770.54 189.9 1771.92 190.167 1773.13 190.7C1774.33 191.22 1775.33 191.958 1776.14 192.915C1776.95 193.872 1777.56 195.021 1777.97 196.36C1778.38 197.687 1778.58 199.156 1778.58 200.77V203.046H1761.19V199.313H1773.25V198.903C1773.22 198.042 1773.06 197.256 1772.76 196.545C1772.46 195.82 1771.99 195.246 1771.36 194.822C1770.73 194.385 1769.92 194.166 1768.92 194.166C1768.12 194.166 1767.41 194.344 1766.81 194.699C1766.22 195.041 1765.73 195.533 1765.33 196.176C1764.95 196.805 1764.66 197.557 1764.47 198.432C1764.28 199.307 1764.18 200.277 1764.18 201.344V202.164C1764.18 203.094 1764.31 203.955 1764.55 204.748C1764.81 205.541 1765.19 206.231 1765.68 206.819C1766.19 207.394 1766.79 207.845 1767.49 208.173C1768.2 208.487 1769 208.645 1769.91 208.645C1771.04 208.645 1772.07 208.426 1772.98 207.988C1773.91 207.537 1774.72 206.874 1775.4 205.999L1778.13 208.829C1777.67 209.513 1777.04 210.169 1776.24 210.798C1775.46 211.427 1774.52 211.939 1773.41 212.336C1772.31 212.719 1771.03 212.91 1769.58 212.91ZM1795.54 182.641H1800.42L1808.58 205.117L1816.73 182.641H1821.63L1810.53 212.5H1806.62L1795.54 182.641ZM1793.08 182.641H1797.86L1798.72 203.292V212.5H1793.08V182.641ZM1819.29 182.641H1824.09V212.5H1818.45V203.292L1819.29 182.641ZM1828.46 201.631V201.2C1828.46 199.573 1828.69 198.076 1829.15 196.709C1829.62 195.328 1830.29 194.132 1831.18 193.12C1832.07 192.108 1833.16 191.322 1834.44 190.762C1835.73 190.188 1837.19 189.9 1838.83 189.9C1840.5 189.9 1841.98 190.188 1843.26 190.762C1844.56 191.322 1845.66 192.108 1846.54 193.12C1847.43 194.132 1848.11 195.328 1848.57 196.709C1849.04 198.076 1849.27 199.573 1849.27 201.2V201.631C1849.27 203.244 1849.04 204.741 1848.57 206.122C1848.11 207.489 1847.43 208.686 1846.54 209.711C1845.66 210.723 1844.57 211.509 1843.28 212.069C1842 212.63 1840.53 212.91 1838.87 212.91C1837.23 212.91 1835.76 212.63 1834.46 212.069C1833.17 211.509 1832.07 210.723 1831.18 209.711C1830.29 208.686 1829.62 207.489 1829.15 206.122C1828.69 204.741 1828.46 203.244 1828.46 201.631ZM1833.87 201.2V201.631C1833.87 202.602 1833.97 203.511 1834.16 204.358C1834.35 205.206 1834.64 205.951 1835.04 206.594C1835.44 207.236 1835.95 207.742 1836.58 208.111C1837.22 208.467 1837.99 208.645 1838.87 208.645C1839.75 208.645 1840.5 208.467 1841.13 208.111C1841.76 207.742 1842.27 207.236 1842.67 206.594C1843.08 205.951 1843.38 205.206 1843.57 204.358C1843.76 203.511 1843.86 202.602 1843.86 201.631V201.2C1843.86 200.243 1843.76 199.348 1843.57 198.514C1843.38 197.666 1843.08 196.921 1842.67 196.278C1842.27 195.622 1841.75 195.109 1841.11 194.74C1840.48 194.357 1839.72 194.166 1838.83 194.166C1837.96 194.166 1837.21 194.357 1836.58 194.74C1835.95 195.109 1835.44 195.622 1835.04 196.278C1834.64 196.921 1834.35 197.666 1834.16 198.514C1833.97 199.348 1833.87 200.243 1833.87 201.2ZM1866.52 207.783V181H1871.97V212.5H1867.05L1866.52 207.783ZM1852.27 201.672V201.241C1852.27 199.546 1852.46 198.008 1852.84 196.627C1853.24 195.232 1853.81 194.036 1854.56 193.038C1855.31 192.04 1856.22 191.268 1857.29 190.721C1858.37 190.174 1859.59 189.9 1860.96 189.9C1862.29 189.9 1863.44 190.167 1864.43 190.7C1865.42 191.233 1866.27 191.992 1866.97 192.977C1867.68 193.961 1868.25 195.13 1868.67 196.483C1869.1 197.823 1869.4 199.3 1869.59 200.913V202.082C1869.4 203.654 1869.1 205.097 1868.67 206.409C1868.25 207.722 1867.68 208.87 1866.97 209.854C1866.27 210.825 1865.42 211.577 1864.43 212.11C1863.43 212.644 1862.26 212.91 1860.92 212.91C1859.57 212.91 1858.35 212.63 1857.27 212.069C1856.2 211.509 1855.29 210.723 1854.54 209.711C1853.8 208.699 1853.24 207.51 1852.84 206.143C1852.46 204.775 1852.27 203.285 1852.27 201.672ZM1857.7 201.241V201.672C1857.7 202.629 1857.78 203.524 1857.95 204.358C1858.11 205.192 1858.38 205.931 1858.75 206.573C1859.12 207.202 1859.59 207.694 1860.16 208.05C1860.75 208.405 1861.46 208.583 1862.29 208.583C1863.36 208.583 1864.24 208.351 1864.92 207.886C1865.62 207.407 1866.16 206.758 1866.54 205.938C1866.92 205.104 1867.17 204.167 1867.28 203.128V199.908C1867.22 199.088 1867.08 198.329 1866.85 197.632C1866.63 196.935 1866.31 196.333 1865.9 195.827C1865.51 195.321 1865.01 194.925 1864.43 194.638C1863.84 194.351 1863.14 194.207 1862.33 194.207C1861.5 194.207 1860.79 194.392 1860.2 194.761C1859.61 195.116 1859.14 195.615 1858.77 196.258C1858.4 196.9 1858.12 197.646 1857.95 198.493C1857.78 199.341 1857.7 200.257 1857.7 201.241ZM1890.08 207.229V190.311H1895.54V212.5H1890.41L1890.08 207.229ZM1890.78 202.636L1892.46 202.595C1892.46 204.085 1892.3 205.459 1891.97 206.717C1891.64 207.975 1891.13 209.068 1890.43 209.998C1889.75 210.914 1888.88 211.632 1887.83 212.151C1886.77 212.657 1885.53 212.91 1884.09 212.91C1883 212.91 1882 212.76 1881.1 212.459C1880.2 212.145 1879.42 211.659 1878.76 211.003C1878.12 210.333 1877.62 209.479 1877.26 208.439C1876.91 207.387 1876.73 206.122 1876.73 204.646V190.311H1882.15V204.687C1882.15 205.425 1882.23 206.04 1882.39 206.532C1882.57 207.024 1882.81 207.428 1883.11 207.742C1883.42 208.043 1883.79 208.262 1884.2 208.398C1884.62 208.521 1885.07 208.583 1885.55 208.583C1886.86 208.583 1887.89 208.323 1888.65 207.804C1889.41 207.271 1889.96 206.56 1890.29 205.671C1890.62 204.769 1890.78 203.757 1890.78 202.636ZM1906.08 181V212.5H1900.64V181H1906.08ZM1921.21 212.91C1919.53 212.91 1918.02 212.637 1916.68 212.09C1915.34 211.543 1914.2 210.784 1913.26 209.813C1912.33 208.829 1911.61 207.688 1911.1 206.389C1910.61 205.076 1910.36 203.668 1910.36 202.164V201.344C1910.36 199.635 1910.61 198.083 1911.1 196.688C1911.59 195.28 1912.29 194.07 1913.19 193.059C1914.1 192.047 1915.18 191.268 1916.43 190.721C1917.69 190.174 1919.08 189.9 1920.6 189.9C1922.17 189.9 1923.56 190.167 1924.76 190.7C1925.96 191.22 1926.97 191.958 1927.78 192.915C1928.58 193.872 1929.19 195.021 1929.6 196.36C1930.01 197.687 1930.22 199.156 1930.22 200.77V203.046H1912.83V199.313H1924.88V198.903C1924.86 198.042 1924.69 197.256 1924.39 196.545C1924.09 195.82 1923.63 195.246 1923 194.822C1922.37 194.385 1921.55 194.166 1920.56 194.166C1919.75 194.166 1919.05 194.344 1918.44 194.699C1917.86 195.041 1917.36 195.533 1916.97 196.176C1916.58 196.805 1916.3 197.557 1916.11 198.432C1915.92 199.307 1915.82 200.277 1915.82 201.344V202.164C1915.82 203.094 1915.94 203.955 1916.19 204.748C1916.45 205.541 1916.82 206.231 1917.32 206.819C1917.82 207.394 1918.42 207.845 1919.12 208.173C1919.83 208.487 1920.64 208.645 1921.54 208.645C1922.68 208.645 1923.7 208.426 1924.62 207.988C1925.55 207.537 1926.35 206.874 1927.04 205.999L1929.76 208.829C1929.3 209.513 1928.67 210.169 1927.88 210.798C1927.1 211.427 1926.16 211.939 1925.05 212.336C1923.94 212.719 1922.66 212.91 1921.21 212.91ZM1946.05 206.43C1946.05 205.965 1945.92 205.548 1945.68 205.179C1945.43 204.81 1944.97 204.475 1944.28 204.174C1943.61 203.859 1942.63 203.565 1941.33 203.292C1940.18 203.046 1939.12 202.738 1938.15 202.369C1937.18 202 1936.35 201.556 1935.65 201.036C1934.95 200.503 1934.41 199.881 1934.01 199.17C1933.63 198.445 1933.44 197.611 1933.44 196.668C1933.44 195.752 1933.63 194.891 1934.03 194.084C1934.43 193.264 1935 192.546 1935.75 191.931C1936.5 191.302 1937.42 190.81 1938.5 190.454C1939.58 190.085 1940.8 189.9 1942.15 189.9C1944.04 189.9 1945.66 190.208 1947.01 190.823C1948.38 191.438 1949.42 192.286 1950.15 193.366C1950.87 194.433 1951.24 195.636 1951.24 196.976H1945.82C1945.82 196.388 1945.69 195.854 1945.41 195.376C1945.15 194.897 1944.75 194.515 1944.2 194.228C1943.66 193.927 1942.96 193.776 1942.13 193.776C1941.38 193.776 1940.74 193.899 1940.22 194.146C1939.72 194.392 1939.33 194.713 1939.08 195.109C1938.82 195.506 1938.69 195.943 1938.69 196.422C1938.69 196.777 1938.75 197.099 1938.89 197.386C1939.04 197.659 1939.28 197.912 1939.61 198.145C1939.94 198.377 1940.38 198.589 1940.94 198.78C1941.52 198.972 1942.22 199.156 1943.05 199.334C1944.71 199.662 1946.15 200.1 1947.38 200.646C1948.62 201.18 1949.6 201.891 1950.29 202.779C1950.99 203.668 1951.34 204.803 1951.34 206.184C1951.34 207.168 1951.13 208.07 1950.7 208.891C1950.28 209.697 1949.66 210.401 1948.86 211.003C1948.05 211.604 1947.09 212.076 1945.97 212.418C1944.84 212.746 1943.58 212.91 1942.17 212.91C1940.13 212.91 1938.41 212.548 1937 211.823C1935.6 211.085 1934.53 210.155 1933.8 209.034C1933.08 207.899 1932.72 206.724 1932.72 205.507H1937.91C1937.95 206.368 1938.18 207.059 1938.6 207.578C1939.03 208.098 1939.56 208.474 1940.2 208.706C1940.86 208.925 1941.55 209.034 1942.27 209.034C1943.09 209.034 1943.79 208.925 1944.35 208.706C1944.91 208.474 1945.33 208.166 1945.62 207.783C1945.9 207.387 1946.05 206.936 1946.05 206.43Z"/><path fill="#999899" d="M396 198L429.279 207.619L420.969 173.989L396 198ZM824.28 89.0876L421.492 188.611L422.931 194.436L825.72 94.9124L824.28 89.0876Z"/><path fill="#999899" d="M1629 198L1604.03 173.989L1595.72 207.619L1629 198ZM1199.28 94.9124L1602.07 194.436L1603.51 188.611L1200.72 89.0876L1199.28 94.9124Z"/></svg>