<svg xmlns="http://www.w3.org/2000/svg" width="715" height="88" fill="none" viewBox="0 0 715 88"><path fill="#0FC" d="M714.019 67L696 86.586H714.019V67Z"/><path fill="#0FC" d="M106.637 35L80 87.4904H106.637V35Z"/><path fill="#fff" d="M87.541 0L55.4025 61.118L46.6193 45.5247L37.1974 63.5435L49.876 86.9618H65.6401L109.682 0.00562486H87.541V0ZM17.8059 0H0V86.9561H17.8116V0H17.8059ZM43.0262 0L22.3686 42.5678V82.0882L65.2865 0H43.0262Z"/><path fill="#fff" d="M199.777 68.1582H143.369V86.9607H199.777V68.1582Z"/><path fill="#fff" d="M199.777 36.8203H143.369V50.9222H199.777V36.8203Z"/><path fill="#fff" d="M199.777 0.783203H143.369V19.5857H199.777V0.783203Z"/><path fill="#fff" d="M138.668 0.783203H119.865V86.9615H138.668V0.783203Z"/><path fill="#fff" d="M305.541 59.8265C305.541 76.7401 294.011 86.9613 277.012 86.9613H234.248V68.7533H273.68C281.524 68.7533 286.64 65.9334 286.64 59.7083C286.64 54.0743 283.074 50.7816 276.414 50.7816H234.248V36.3334H275.11C281.883 36.3334 284.976 33.6261 284.976 28.1102C284.976 21.7669 280.214 19.7688 272.25 19.7688H234.248V1.56641H274.751C292.228 1.56641 303.878 9.08037 303.878 23.8832C303.878 34.2227 298.768 39.2714 293.891 41.5003C300.425 44.2076 305.541 50.8998 305.541 59.8265Z"/><path fill="#fff" d="M229.548 0.783203H211.529V86.9615H229.548V0.783203Z"/><path fill="#fff" d="M358.649 0.783203C334.338 0.783203 316.37 17.0055 315.729 41.606H334.458C335.507 28.485 345.422 19.2776 358.649 19.2776H406.607V0.783203H358.649ZM358.649 68.4728C345.273 68.4728 335.449 59.22 334.452 46.1444H315.809C317.264 69.5804 334.939 86.9615 358.649 86.9615H406.607V68.4728H358.649Z"/><path fill="#fff" d="M457.67 68.4728C444.438 68.4728 434.722 59.2143 433.73 46.1444H415.294C416.74 69.5804 434.217 86.9615 457.67 86.9615H466.224V68.4728H457.67ZM478.962 0.783203H470.759V19.2776H478.962C492.494 19.2776 502.222 28.485 503.248 41.606H521.768C521.139 17.335 503.815 0.783203 478.962 0.783203ZM503.259 46.1444C502.267 59.2143 492.528 68.4728 478.962 68.4728H470.759V86.9615H478.962C502.749 86.9615 520.244 69.5804 521.689 46.1444H503.259ZM457.675 0.783203C433.628 0.783203 415.856 16.9999 415.221 41.606H433.752C434.784 28.485 444.586 19.2776 457.675 19.2776H466.23V0.783203H457.675Z"/><path fill="#fff" d="M550.294 0.845916L550.271 0.823186H532.74V86.9561H550.3V0.845916H550.294ZM554.842 5.46705V34.284L601.427 82.2782V52.7629L554.842 5.46705ZM605.94 0V86.9334L605.974 86.9618H623.619V0H605.94Z"/><path fill="#fff" d="M655.738 0.783203H636.936V86.9615H655.738V0.783203Z"/><path fill="#fff" d="M713.713 0.783203H660.439V19.5857H713.713V0.783203Z"/><path fill="#fff" d="M713.713 37.6055H660.439V54.8411H713.713V37.6055Z"/></svg>