<svg width="1082" height="156" viewBox="0 0 1082 156" fill="none" xmlns="http://www.w3.org/2000/svg">
<line y1="-1" x2="489.838" y2="-1" transform="matrix(-0.949294 0.31439 -0.951648 -0.307191 465 1)" stroke="#888888" stroke-width="2"/>
<line y1="-1" x2="401.693" y2="-1" transform="matrix(-0.923592 0.383378 -0.968399 -0.249406 483 1)" stroke="#888888" stroke-width="2"/>
<line y1="-1" x2="321.31" y2="-1" transform="matrix(-0.877658 0.479288 -0.981372 -0.192115 499 1)" stroke="#888888" stroke-width="2"/>
<line y1="-1" x2="250.638" y2="-1" transform="matrix(-0.789984 0.613128 -0.990646 -0.136454 514 1)" stroke="#888888" stroke-width="2"/>
<line y1="-1" x2="178.37" y2="-1" transform="matrix(-0.504568 0.863372 -0.998054 -0.0623556 528 1)" stroke="#888888" stroke-width="2"/>
<line y1="-1" x2="154.003" y2="-1" transform="matrix(0.00645135 0.999979 -1 0.000698685 540 1)" stroke="#888888" stroke-width="2"/>
<line y1="-1" x2="401.693" y2="-1" transform="matrix(0.923592 0.383378 0.968399 -0.249406 599 1)" stroke="#888888" stroke-width="2"/>
<line y1="-1" x2="321.31" y2="-1" transform="matrix(0.877658 0.479288 0.981372 -0.192115 583 1)" stroke="#888888" stroke-width="2"/>
<line y1="-1" x2="250.638" y2="-1" transform="matrix(0.789984 0.613128 0.990646 -0.136454 568 1)" stroke="#888888" stroke-width="2"/>
<line y1="-1" x2="178.37" y2="-1" transform="matrix(0.504568 0.863372 0.998054 -0.0623556 554 1)" stroke="#888888" stroke-width="2"/>
</svg>
