<svg width="797" height="367" viewBox="0 0 797 367" fill="none" xmlns="http://www.w3.org/2000/svg">
<path d="M205.171 275.031C205.26 277.145 204.977 279.118 204.322 280.949C203.965 281.917 203.592 281.925 203.205 280.972L200.972 275.701L200.771 243.184C200.771 242.603 200.574 242.037 200.213 241.576L199.252 240.325C198.731 239.64 198.508 238.866 198.582 238.002C199.61 226.895 199.692 215.937 198.828 205.128C198.649 203.028 200.257 200.259 200.347 197.981C200.868 183.435 200.994 168.918 200.726 154.431C200.615 148.624 198.984 142.17 199.565 134.979C200.146 127.787 199.863 120.648 198.716 113.561C199.997 110.747 200.697 108.112 200.816 105.655C200.905 95.828 201.285 86.158 199.677 76.51C197.235 61.71 194.801 46.933 192.374 32.178C192.353 32.064 192.309 31.955 192.244 31.858C192.178 31.762 192.093 31.68 191.994 31.619C191.895 31.558 191.784 31.519 191.668 31.503C191.553 31.488 191.436 31.497 191.324 31.531L190.721 31.709C190.542 31.769 190.46 31.888 190.475 32.067C191.637 44.648 192.992 57.274 194.54 69.944C194.748 71.582 195.686 76.011 197.354 83.232C198.426 87.922 198.612 92.508 197.912 96.99C197.064 102.238 195.724 107.062 195.768 112.556C195.858 121.817 195.798 131.085 195.59 140.361C195.478 145.252 197.041 149.763 197.868 154.498C198.419 157.58 198.471 161.064 198.024 164.95C197.22 171.784 197.272 178.759 198.18 185.876C198.657 189.718 198.419 193.544 197.466 197.356C196.557 200.944 196.081 204.495 196.036 208.009C195.902 216.808 195.858 225.883 195.902 235.233C195.902 237.317 196.416 240.638 197.443 245.194C198.173 248.439 198.374 251.842 198.046 255.4C197.302 263.604 197.428 271.822 198.426 280.056C198.515 281.813 197.853 282.684 196.438 282.669C196.051 282.654 195.806 282.81 195.701 283.138C195.686 283.212 195.694 283.287 195.724 283.361C196.021 283.868 195.873 284.15 195.277 284.21C195.054 284.225 194.845 284.188 194.652 284.098C194.547 284.045 194.461 283.96 194.405 283.857C194.349 283.753 194.326 283.635 194.339 283.518C194.696 280.942 194.547 278.604 193.892 276.505C193.863 218.021 193.877 159.523 193.937 101.01C193.952 88.711 193.394 78.036 192.262 68.984C190.833 57.46 189.441 45.541 188.086 33.228C187.952 32.022 187.282 31.419 186.076 31.419H175.177C173.882 31.419 173.16 32.059 173.011 33.34L167.092 86.582L166.154 98.977C166.005 100.928 165.402 101.084 164.345 99.446L163.787 98.575C163.445 98.054 163.281 97.481 163.296 96.856L163.564 85.622L170.755 32.826C170.774 32.691 170.766 32.553 170.731 32.422C170.696 32.29 170.635 32.166 170.552 32.058C170.469 31.95 170.365 31.86 170.246 31.792C170.128 31.724 169.997 31.681 169.862 31.665L169.214 31.575C169.006 31.546 168.879 31.635 168.834 31.843C165.633 49.055 162.909 66.207 160.66 83.299C159.707 90.416 160.013 99.327 161.576 110.032C162.715 117.871 161.152 124.884 161.71 132.299C162.052 136.691 162 141.113 161.554 145.565C159.469 166.364 159.536 186.323 161.755 205.44C162.559 212.297 161.308 218.729 161.822 225.63C162.164 230.201 161.985 235.508 161.286 241.553C160.66 246.913 160.281 252.296 160.147 257.7L159.611 281.686C159.596 282.446 159.328 283.101 158.807 283.652C158.3 284.173 158.114 284.783 158.248 285.483C158.859 288.922 158.68 292.436 157.712 296.024C157.608 296.441 157.348 296.605 156.931 296.516L155.836 296.27C155.449 296.196 155.293 295.972 155.367 295.6C155.516 294.722 155.382 293.806 154.965 292.853C155.635 284.083 155.97 277.555 155.97 273.267C156.015 214.143 156.037 155.012 156.037 95.873C156.022 85.957 156.692 77.187 158.047 69.564C160.31 56.715 162.544 43.464 164.747 29.811C164.895 28.864 165.197 27.937 165.641 27.064L179.108 1.04569C179.264 0.74829 179.501 0.501087 179.792 0.332487C180.083 0.163887 180.415 0.0805912 180.751 0.0921912C181.087 0.103891 181.412 0.209989 181.691 0.398389C181.969 0.586789 182.188 0.849893 182.324 1.15729C185.331 8.02099 188.778 14.81 192.664 21.525C195.016 25.56 196.543 29.952 197.242 34.702C198.999 46.345 200.92 57.951 203.004 69.52C204.404 77.187 205.089 86.545 205.059 97.593C204.925 156.746 204.962 215.892 205.171 275.031ZM181.497 9.37599C181.423 9.25799 181.322 9.15899 181.203 9.08699C181.084 9.01499 180.95 8.97199 180.811 8.96099C180.672 8.94999 180.532 8.97199 180.403 9.02499C180.274 9.07699 180.16 9.15899 180.068 9.26399C179.309 10.128 178.795 11.096 178.527 12.168C178.274 13.21 178.676 13.761 179.733 13.82L181.185 13.91C182.197 13.969 182.651 13.493 182.547 12.48C182.428 11.364 182.078 10.329 181.497 9.37599ZM174.954 29.029L186.031 29.074C186.4 29.074 186.755 28.929 187.018 28.67C187.281 28.411 187.432 28.059 187.438 27.689L187.46 24.049C187.464 23.233 187.347 22.424 187.116 21.669C186.885 20.914 186.544 20.227 186.112 19.648C185.681 19.069 185.167 18.61 184.602 18.296C184.036 17.982 183.429 17.819 182.815 17.818L178.259 17.773C177.023 17.77 175.834 18.42 174.955 19.58C174.076 20.74 173.577 22.315 173.569 23.96L173.547 27.6C173.544 27.787 173.578 27.972 173.647 28.145C173.717 28.319 173.82 28.476 173.951 28.609C174.082 28.742 174.238 28.848 174.41 28.92C174.582 28.992 174.767 29.029 174.954 29.029Z" fill="white"/>
<path d="M555.045 359.362L554.04 356.324L561.387 347.905C562.072 347.13 561.983 346.453 561.119 345.872C558.797 344.339 556.906 342.284 555.447 339.708C554.777 338.532 554.412 338.614 554.352 339.954L553.772 353.131C553.355 353.95 553.124 354.895 553.079 355.967C553.05 356.786 552.648 357.054 551.873 356.771C551.65 356.682 551.404 356.659 551.136 356.704C550.779 356.764 550.66 356.965 550.779 357.307C550.853 357.501 550.809 357.694 550.645 357.888C550.481 358.096 550.273 358.156 550.02 358.066C549.766 357.992 549.513 357.85 549.26 357.642C552.03 297.923 552.64 238.159 551.092 178.35C550.615 160.588 549.111 143.644 546.58 127.519C544.548 114.678 541.019 97.972 532.354 87.811C532.223 87.658 532.062 87.534 531.88 87.449C531.697 87.364 531.499 87.319 531.298 87.317C531.097 87.315 530.898 87.356 530.714 87.437C530.53 87.518 530.366 87.638 530.232 87.788C521.857 97.258 518.641 111.998 516.564 124.795C512.946 146.994 511.13 169.335 511.115 191.817L510.467 192.911C509.782 194.073 509.477 193.968 509.552 192.599C509.566 192.197 509.425 191.891 509.127 191.683C508.413 191.177 508.182 191.348 508.435 192.197C508.465 192.271 508.45 192.338 508.39 192.398C507.854 192.949 507.534 192.815 507.43 191.996C507.341 191.192 507.14 190.581 506.827 190.164C506.767 164.168 509.395 138.485 514.711 113.114C516.944 102.551 520.495 90.2 528.736 83.545C529.441 82.981 530.32 82.679 531.221 82.691C532.122 82.703 532.988 83.029 533.672 83.612C543.253 91.786 547.518 108.536 549.662 120.44C553.548 141.984 555.677 168.642 556.05 200.415C556.6 247.42 556.265 290.166 555.045 328.653C554.799 336.023 558.953 342.388 565.519 345.783C565.62 345.838 565.708 345.914 565.776 346.006C565.845 346.098 565.893 346.203 565.916 346.314C565.94 346.425 565.938 346.539 565.912 346.648C565.886 346.757 565.836 346.858 565.765 346.944L555.045 359.362Z" fill="white"/>
<path d="M163.564 85.622L163.296 96.856C163.281 97.481 163.445 98.054 163.787 98.575L164.346 99.446C165.403 101.084 166.006 100.928 166.155 98.977L167.093 86.582L167.294 357.62C167.294 357.851 167.34 358.081 167.43 358.295C167.519 358.509 167.651 358.703 167.817 358.867C167.983 359.031 168.18 359.161 168.397 359.25C168.613 359.338 168.846 359.384 169.08 359.384L192.151 359.406C192.565 359.406 192.963 359.239 193.256 358.942C193.549 358.645 193.714 358.241 193.714 357.821L193.893 276.505C194.548 278.604 194.697 280.942 194.339 283.518C194.326 283.635 194.349 283.753 194.405 283.857C194.461 283.96 194.547 284.045 194.652 284.098C194.845 284.188 195.054 284.225 195.277 284.21C195.873 284.15 196.022 283.868 195.724 283.361C195.694 283.287 195.687 283.212 195.702 283.138C195.806 282.81 196.051 282.654 196.439 282.669C197.853 282.684 198.516 281.813 198.426 280.056L199.99 288.208C200.109 288.803 200.057 289.376 199.833 289.927C199.714 290.24 199.692 290.545 199.766 290.843C200.094 292.094 200.325 292.079 200.459 290.798C200.965 286.019 201.136 280.987 200.972 275.701L203.206 280.972C203.593 281.925 203.965 281.917 204.322 280.949C204.977 279.118 205.26 277.145 205.171 275.031L209.638 359.429L218.66 360.389C220.164 360.553 220.343 361.119 219.196 362.086C217.975 363.114 216.591 363.233 215.042 362.444C214.715 362.276 214.353 362.183 213.982 362.171C213.611 362.16 213.241 362.23 212.898 362.377C211.231 363.106 210.568 363.59 210.911 363.828C211.417 364.186 211.595 364.722 211.447 365.436C211.313 366.121 211.588 367.253 212.273 368.831L5.625 368.697C2.662 368.697 1.076 367.216 0.867997 364.253C0.822997 363.612 0.905 362.965 1.113 362.31C1.38 361.469 1.908 360.735 2.62 360.217C3.331 359.698 4.188 359.422 5.066 359.429L27.33 359.54C27.561 359.538 27.788 359.48 27.991 359.371C28.194 359.263 28.367 359.107 28.495 358.917C28.623 358.727 28.702 358.51 28.725 358.283C28.748 358.057 28.714 357.829 28.626 357.62C26.169 351.739 22.566 347.287 17.816 344.264C11.273 340.066 11.496 330.864 17.303 326.197C20.541 323.584 20.787 319.519 24.114 317.107C34.209 309.826 38.743 320.055 45.688 324.321C54.488 329.748 52.076 343.706 43.031 347.413C39.279 348.932 36.189 351.858 33.762 356.19C32.571 358.319 33.197 359.391 35.638 359.406L55.939 359.473C56.907 359.473 57.406 358.997 57.436 358.044C58.672 326.137 60.116 294.334 61.768 262.636C62.096 256.204 62.267 249.928 62.282 243.809C62.282 237.243 59.334 231.95 57.726 225.875C57.648 225.575 57.639 225.26 57.701 224.956C57.763 224.652 57.894 224.366 58.084 224.12C58.274 223.874 58.517 223.675 58.796 223.538C59.075 223.401 59.381 223.329 59.691 223.329L100.45 223.352C100.817 223.35 101.179 223.441 101.501 223.617C101.824 223.793 102.096 224.049 102.293 224.359C102.489 224.67 102.604 225.025 102.625 225.392C102.646 225.759 102.574 226.125 102.415 226.456C98.991 233.662 97.457 241.285 97.814 249.325C99.467 285.848 101.127 322.407 102.795 359.004C102.8 359.154 102.864 359.296 102.972 359.401C103.081 359.505 103.225 359.563 103.375 359.563L123.453 359.473C123.703 359.472 123.948 359.408 124.166 359.286C124.384 359.164 124.567 358.989 124.699 358.777C124.83 358.565 124.906 358.323 124.919 358.074C124.931 357.824 124.88 357.576 124.771 357.352C122.671 352.974 118.852 347.123 114.497 344.599C107.864 340.736 106.926 331.624 113.001 326.532C116.686 323.45 116.708 318.804 121.153 316.482C127.049 313.385 132.2 314.635 136.607 320.234C139.243 323.584 143.33 324.388 145.407 328.43C149.27 336.001 146.456 344.242 138.662 347.525C134.821 349.133 131.694 352.416 129.282 357.374C129.172 357.595 129.12 357.841 129.131 358.087C129.142 358.334 129.216 358.574 129.346 358.784C129.475 358.994 129.657 359.168 129.872 359.288C130.088 359.409 130.33 359.473 130.577 359.473L149.918 359.496C150.371 359.496 150.807 359.323 151.135 359.011C151.463 358.699 151.659 358.273 151.682 357.821L154.965 292.853C155.382 293.806 155.516 294.722 155.367 295.6C155.293 295.972 155.449 296.196 155.836 296.27L156.931 296.516C157.348 296.605 157.608 296.441 157.712 296.024C158.68 292.436 158.859 288.922 158.249 285.483C158.115 284.783 158.301 284.173 158.807 283.652C159.328 283.101 159.596 282.446 159.611 281.686L160.147 257.7C160.192 265.562 160.259 273.416 160.348 281.262C160.437 287.136 162.269 292.384 161.666 298.258C160.906 305.784 159.053 313.042 160.236 320.658C161.353 327.715 162.216 334.795 162.827 341.897C162.842 342.046 162.924 342.12 163.073 342.12L163.676 342.098C163.899 342.087 164.109 341.99 164.263 341.828C164.417 341.665 164.502 341.45 164.502 341.227C164.666 326.115 164.688 310.913 164.569 295.622C164.524 291.044 161.934 286.957 162.38 282.49C163.452 272.202 163.556 261.08 162.693 249.124C162.202 242.447 164.435 234.362 164.547 227.059C164.658 219.22 165.194 211.225 163.385 203.564C160.594 191.929 164.569 179.243 163.274 167.273C162.38 158.994 162.261 152.488 162.916 147.753C164.941 133.088 165.44 122.256 164.413 115.258C162.641 103.049 162.358 93.171 163.564 85.622ZM72.31 235.747C76.017 239.99 83.097 240.459 86.938 236.506C89.544 233.826 92.529 231.354 95.894 229.091C97.249 228.198 97.115 227.751 95.492 227.751H64.716C62.974 227.751 62.833 228.228 64.292 229.181C67.061 230.99 70.121 233.245 72.31 235.747ZM65.833 233.469C65.178 233.141 64.888 233.335 64.962 234.049C65.319 237.489 67.158 239.201 70.479 239.186C71.446 239.171 71.647 238.777 71.081 238.002C69.652 236.052 67.903 234.541 65.833 233.469ZM89.037 239.141C92.73 239.454 94.725 237.809 95.023 234.206C95.142 232.851 94.688 232.627 93.66 233.536L88.68 238.069C87.98 238.695 88.099 239.052 89.037 239.141ZM73.113 242.491C73.106 242.195 72.983 241.914 72.769 241.709C72.555 241.504 72.269 241.392 71.973 241.398L67.731 241.487C67.584 241.49 67.439 241.522 67.305 241.581C67.171 241.64 67.05 241.725 66.948 241.831C66.847 241.936 66.767 242.061 66.714 242.198C66.66 242.334 66.635 242.48 66.638 242.627L66.772 249.058C66.778 249.354 66.902 249.635 67.116 249.84C67.329 250.045 67.616 250.157 67.912 250.151L72.154 250.062C72.301 250.059 72.446 250.027 72.58 249.968C72.714 249.909 72.835 249.824 72.937 249.718C73.038 249.612 73.118 249.487 73.171 249.351C73.225 249.214 73.25 249.068 73.247 248.922L73.113 242.491ZM80.149 249.526C78.437 248.588 77.32 247.367 76.799 245.864C76.575 245.223 76.754 244.725 77.335 244.367C77.99 243.965 78.496 243.437 78.853 242.782C79.553 241.516 79.203 241.047 77.804 241.375L76.531 241.687C75.757 241.866 75.392 242.35 75.436 243.139L75.704 248.119C75.764 249.34 76.404 249.988 77.625 250.062L82.873 250.442C83.871 250.516 84.37 250.055 84.37 249.057L84.392 247.047C84.392 246.228 84.05 246.042 83.365 246.489C82.337 247.144 81.6 248.037 81.154 249.169C80.945 249.675 80.61 249.794 80.149 249.526ZM82.293 244.323C82.531 244.248 82.777 244.271 83.03 244.39C83.789 244.747 84.243 244.509 84.392 243.675C84.541 242.886 84.295 242.261 83.655 241.799C82.658 241.084 82.025 241.33 81.757 242.536C81.533 243.578 80.901 244.293 79.858 244.68C79.62 244.769 79.546 244.933 79.635 245.171C79.71 245.395 79.844 245.551 80.037 245.64C80.26 245.745 80.476 245.73 80.685 245.596C80.938 245.432 81.169 245.223 81.377 244.97C81.615 244.658 81.921 244.442 82.293 244.323ZM93.492 242.279C93.491 242.165 93.468 242.051 93.424 241.946C93.38 241.84 93.316 241.745 93.235 241.664C93.153 241.583 93.057 241.519 92.951 241.476C92.846 241.433 92.732 241.41 92.618 241.411L87.794 241.428C87.679 241.428 87.566 241.451 87.461 241.495C87.355 241.539 87.259 241.604 87.179 241.685C87.098 241.766 87.034 241.862 86.991 241.968C86.948 242.074 86.925 242.187 86.926 242.302L86.95 249.314C86.951 249.429 86.974 249.542 87.018 249.648C87.062 249.753 87.126 249.849 87.207 249.929C87.289 250.01 87.385 250.074 87.491 250.117C87.597 250.161 87.71 250.183 87.824 250.182L92.648 250.166C92.763 250.165 92.876 250.142 92.981 250.098C93.087 250.054 93.183 249.989 93.263 249.908C93.344 249.827 93.408 249.731 93.451 249.625C93.495 249.519 93.517 249.406 93.516 249.292L93.492 242.279ZM64.672 317.509C64.757 317.515 64.842 317.489 64.908 317.435C64.975 317.381 65.018 317.304 65.029 317.219L72.712 253.144C72.718 253.059 72.692 252.974 72.638 252.908C72.584 252.841 72.506 252.798 72.421 252.787L67.129 252.318C67.081 252.312 67.033 252.315 66.987 252.329C66.941 252.343 66.898 252.367 66.862 252.399C66.826 252.431 66.797 252.47 66.778 252.514C66.758 252.557 66.748 252.605 66.749 252.653L63.667 317.107C63.664 317.151 63.669 317.195 63.684 317.237C63.698 317.279 63.72 317.317 63.749 317.351C63.778 317.384 63.813 317.411 63.853 317.43C63.892 317.45 63.935 317.461 63.979 317.464L64.672 317.509ZM84.705 253.345C84.683 253.16 84.593 252.989 84.453 252.865C84.313 252.742 84.132 252.674 83.945 252.675L76.129 252.653C75.942 252.652 75.761 252.719 75.621 252.843C75.481 252.967 75.391 253.137 75.369 253.323L72.823 273.914C72.811 274.019 72.821 274.126 72.852 274.227C72.883 274.328 72.935 274.422 73.004 274.502C73.074 274.582 73.159 274.646 73.255 274.691C73.351 274.736 73.455 274.761 73.56 274.763L86.447 274.785C86.553 274.783 86.657 274.759 86.752 274.714C86.848 274.669 86.934 274.604 87.003 274.524C87.072 274.444 87.124 274.351 87.155 274.249C87.187 274.148 87.196 274.042 87.184 273.937L84.705 253.345ZM96.206 321.306C96.221 321.35 96.229 321.395 96.229 321.44C96.244 321.499 96.266 321.551 96.296 321.596C96.34 321.656 96.4 321.67 96.474 321.641C96.549 321.611 96.586 321.551 96.586 321.462C95.693 298.756 94.576 275.865 93.236 252.787C93.221 252.43 93.035 252.266 92.678 252.296L87.831 252.742C87.578 252.757 87.467 252.891 87.496 253.144C89.789 275.984 92.693 298.704 96.206 321.306ZM88.032 279.967C88.005 279.761 87.904 279.573 87.748 279.438C87.591 279.302 87.391 279.228 87.184 279.23L72.89 279.207C72.683 279.206 72.483 279.279 72.327 279.415C72.17 279.551 72.069 279.739 72.042 279.944L68.111 311.635C68.095 311.756 68.105 311.878 68.141 311.995C68.176 312.111 68.236 312.218 68.317 312.309C68.397 312.4 68.496 312.473 68.607 312.522C68.718 312.572 68.838 312.597 68.96 312.596L91.047 312.64C91.169 312.641 91.289 312.616 91.4 312.567C91.511 312.517 91.61 312.445 91.691 312.354C91.771 312.263 91.831 312.155 91.867 312.039C91.902 311.923 91.912 311.8 91.896 311.68L88.032 279.967ZM197.6 284.366L196.774 284.411C196.401 284.426 196.215 284.619 196.215 284.992L196.238 345.046C196.238 345.284 196.349 345.411 196.573 345.426L197.198 345.47C197.302 345.485 197.354 345.441 197.354 345.336C198.903 334.944 200.161 325.631 201.129 317.397C201.56 313.824 201.084 308.509 199.699 301.451C199.074 298.28 200.325 294.55 198.627 291.692C198.032 290.679 197.853 289.592 198.091 288.431C198.359 287.165 198.285 285.878 197.868 284.567C197.823 284.433 197.734 284.366 197.6 284.366ZM68.379 317.263C68.059 317.267 67.751 317.386 67.513 317.6C67.274 317.814 67.122 318.107 67.084 318.425L63.6 346.877C63.578 347.063 63.595 347.251 63.651 347.43C63.708 347.608 63.801 347.772 63.926 347.912C64.05 348.051 64.203 348.163 64.374 348.238C64.545 348.314 64.73 348.353 64.917 348.351L95.201 348.284C95.388 348.286 95.574 348.247 95.745 348.171C95.916 348.096 96.068 347.984 96.193 347.845C96.318 347.705 96.411 347.541 96.467 347.363C96.524 347.184 96.541 346.996 96.519 346.81L92.901 318.358C92.863 318.036 92.707 317.74 92.464 317.525C92.221 317.311 91.907 317.194 91.583 317.196L68.379 317.263ZM33.271 337.274L33.226 340.914C33.224 341.304 33.297 341.691 33.444 342.053C33.591 342.414 33.807 342.743 34.081 343.021C34.354 343.299 34.68 343.52 35.039 343.672C35.399 343.824 35.784 343.904 36.174 343.907C46.247 343.952 51.004 331.356 40.887 327.135C36.174 325.147 34.522 316.258 27.755 320.301C24.025 322.556 25.32 326.822 21.323 329.234C16.052 332.428 16.499 338.525 22.082 341.473C22.689 341.79 23.363 341.955 24.047 341.955C24.732 341.955 25.406 341.79 26.013 341.473C28.291 340.296 29.221 338.934 28.804 337.386C28.611 336.641 28.804 336.008 29.385 335.487C30.07 334.862 30.859 334.721 31.752 335.063C32.203 335.226 32.591 335.526 32.863 335.922C33.135 336.319 33.278 336.791 33.271 337.274ZM129.126 336.537L129.349 340.535C129.38 341.051 129.519 341.556 129.756 342.016C129.993 342.476 130.323 342.881 130.725 343.205C131.127 343.529 131.592 343.765 132.089 343.897C132.587 344.03 133.107 344.056 133.615 343.974C139.898 342.976 142.824 339.567 142.392 333.745C142.101 329.949 138.238 327.514 135.089 326.04C134.382 325.708 133.813 325.139 133.481 324.432C130.466 318.179 122.269 317.241 120.594 325.058C119.634 329.524 115.391 329.1 114.073 332.941C112.085 338.636 117.736 343.125 123.163 341.115C123.664 340.915 124.065 340.521 124.279 340.021C124.681 339.038 124.845 337.974 124.771 336.827C124.739 336.434 124.859 336.042 125.108 335.731C125.356 335.42 125.715 335.214 126.111 335.152L127.183 334.974C128.404 334.795 129.051 335.316 129.126 336.537ZM157.489 329.658C157.34 338.919 156.923 348.24 156.238 357.62C156.219 357.883 156.256 358.147 156.346 358.395C156.436 358.643 156.577 358.869 156.761 359.059C156.944 359.249 157.165 359.397 157.41 359.496C157.655 359.594 157.918 359.64 158.182 359.63L161.264 359.496C162.484 359.451 163.035 358.826 162.916 357.62C162.053 347.778 160.683 338.413 158.807 329.524C158.003 325.668 157.564 325.713 157.489 329.658ZM203.541 331.333C203.287 326.762 202.751 326.725 201.933 331.222C200.488 339.068 199.223 347.949 198.136 357.865C198.032 358.848 198.471 359.362 199.454 359.406L202.737 359.607C203.868 359.667 204.426 359.131 204.412 357.999C204.322 349.081 204.032 340.192 203.541 331.333ZM25.544 347.771C26.005 348.738 26.623 349.572 27.397 350.272C28.321 351.106 28.797 350.897 28.827 349.647C28.842 348.59 28.685 347.562 28.358 346.565C28.271 346.293 28.106 346.052 27.884 345.874C27.662 345.695 27.391 345.586 27.107 345.56C26.512 345.5 26.043 345.709 25.7 346.185C25.537 346.408 25.436 346.672 25.409 346.951C25.382 347.229 25.428 347.512 25.544 347.771ZM121.555 347.927C122.18 348.984 122.962 349.915 123.9 350.719C123.993 350.798 124.107 350.849 124.229 350.864C124.35 350.88 124.474 350.859 124.586 350.805C124.698 350.752 124.794 350.667 124.862 350.561C124.931 350.454 124.968 350.331 124.972 350.205C124.957 348.939 124.734 347.704 124.302 346.498C124.223 346.26 124.076 346.051 123.877 345.897C123.679 345.742 123.438 345.648 123.185 345.627C122.411 345.552 121.882 345.731 121.599 346.163C121.431 346.424 121.338 346.727 121.33 347.039C121.322 347.35 121.4 347.657 121.555 347.927ZM33.896 348.217C33.36 348.768 33.115 349.394 33.159 350.093C33.219 351.195 33.703 351.433 34.611 350.808C35.445 350.212 35.705 349.461 35.393 348.552C35.339 348.407 35.249 348.277 35.133 348.175C35.016 348.073 34.877 348.002 34.727 347.968C34.578 347.935 34.423 347.94 34.278 347.984C34.132 348.027 34.001 348.108 33.896 348.217ZM129.135 350.917C129.249 351.014 129.391 351.075 129.552 351.098C129.714 351.121 129.891 351.105 130.075 351.051C130.259 350.997 130.445 350.906 130.623 350.783C130.802 350.66 130.968 350.508 131.114 350.336C131.407 349.987 131.597 349.575 131.642 349.191C131.686 348.806 131.581 348.481 131.35 348.287C131.236 348.19 131.094 348.129 130.932 348.106C130.771 348.083 130.593 348.099 130.41 348.153C130.226 348.207 130.04 348.298 129.861 348.421C129.683 348.544 129.517 348.696 129.371 348.868C129.077 349.217 128.887 349.629 128.843 350.013C128.799 350.398 128.904 350.723 129.135 350.917ZM62.506 354.605C62.52 354.515 62.535 354.426 62.55 354.337C62.223 355.93 62.23 357.3 62.572 358.446C62.796 359.22 63.309 359.607 64.113 359.607L96.028 359.54C97.323 359.54 97.963 358.893 97.948 357.597L97.904 352.036C97.904 351.705 97.772 351.387 97.537 351.152C97.303 350.917 96.985 350.786 96.653 350.786L64.046 350.897C63.687 350.899 63.338 351.017 63.052 351.235C62.765 351.452 62.558 351.757 62.461 352.103C62.267 352.788 62.282 353.622 62.506 354.605Z" fill="white"/>
<path d="M200.816 105.655C200.697 108.112 199.997 110.747 198.716 113.561C197.57 108.826 198.27 106.191 200.816 105.655Z" fill="white"/>
<path d="M486.504 348.418C484.821 351.798 483.355 350.145 482.104 343.46L481.501 148.557C481.501 147.738 481.092 147.322 480.273 147.307L468.838 147.24C468.439 147.238 468.046 147.335 467.694 147.522C467.341 147.71 467.041 147.982 466.82 148.314C466.599 148.646 466.463 149.027 466.425 149.425C466.388 149.822 466.449 150.222 466.605 150.59L469.039 156.329C469.113 156.478 469.113 156.568 469.039 156.597L468.548 156.888C467.863 157.275 467.342 157.118 466.984 156.419C466.612 155.689 466.121 155.071 465.51 154.565C464.855 154.014 464.096 153.739 463.232 153.739L447.108 153.694C446.155 153.694 445.388 154.066 444.807 154.811L443.333 156.709C442.782 157.409 442.291 157.364 441.859 156.575C441.651 156.188 441.636 155.808 441.815 155.436C442.604 153.813 443.333 152.183 444.003 150.545C444.154 150.181 444.212 149.784 444.171 149.392C444.13 148.999 443.991 148.623 443.768 148.295C443.545 147.968 443.243 147.7 442.891 147.516C442.538 147.332 442.146 147.237 441.748 147.24L430.402 147.307C429.539 147.307 429.1 147.746 429.085 148.624L428.459 357.91L427.477 358.156C426.539 358.394 426.159 358.037 426.338 357.084L426.561 355.833C426.71 354.984 426.382 354.419 425.578 354.136L424.082 353.6C424.231 288.58 424.238 223.582 424.104 158.607C424.104 149.786 425.288 142.661 429.956 135.47C430.21 135.07 430.557 134.739 430.966 134.506C431.375 134.272 431.833 134.143 432.301 134.13C433.775 134.056 434.534 133.296 434.579 131.852C434.742 124.854 435.1 117.938 435.651 111.104C435.651 111.045 435.688 111 435.762 110.97L436.343 110.836C436.775 110.747 436.991 110.918 436.991 111.35L437.214 131.227C437.22 131.669 437.356 132.097 437.602 132.459C437.849 132.821 438.195 133.099 438.599 133.259L440.944 134.197C441.505 134.427 441.958 134.848 442.217 135.381L448.738 148.892C449.14 149.711 449.788 150.098 450.681 150.054L459.793 149.652C460.716 149.622 461.289 149.153 461.513 148.245C462.518 144.225 465.711 142.594 466.627 138.061C466.802 137.186 467.221 136.387 467.833 135.76C468.95 134.614 470.29 133.847 471.853 133.46C472.702 133.252 473.126 132.708 473.126 131.83L473.349 111.551C473.349 111.365 473.421 111.187 473.551 111.053C473.68 110.92 473.856 110.842 474.042 110.836L474.645 110.814C474.729 110.811 474.812 110.824 474.891 110.853C474.97 110.882 475.041 110.926 475.102 110.983C475.162 111.039 475.21 111.106 475.243 111.181C475.276 111.256 475.292 111.336 475.292 111.417L475.449 132.634C475.464 133.542 475.925 134.003 476.833 134.018C478.01 134.033 479.171 134.234 480.317 134.621C480.83 134.797 481.273 135.13 481.582 135.572C481.891 136.013 482.051 136.541 482.037 137.078C481.962 139.535 482.841 141.701 484.672 143.577C485.276 144.208 485.619 145.045 485.633 145.922L486.504 348.418ZM440.162 140.227C438.375 137.011 433.819 136.877 432.122 140.272C431.964 140.583 431.887 140.93 431.899 141.279C431.91 141.628 432.01 141.969 432.188 142.27C432.366 142.57 432.617 142.821 432.918 142.999C433.219 143.177 433.559 143.276 433.909 143.287L438.197 143.443C438.58 143.456 438.959 143.366 439.296 143.184C439.633 143.002 439.916 142.734 440.116 142.407C440.316 142.081 440.425 141.707 440.433 141.323C440.441 140.94 440.348 140.562 440.162 140.227ZM471.027 143.287L477.347 142.952C477.47 142.946 477.591 142.916 477.703 142.863C477.814 142.811 477.914 142.737 477.997 142.646C478.08 142.554 478.145 142.448 478.186 142.332C478.228 142.215 478.246 142.092 478.24 141.969L478.196 141.143C478.175 140.741 478.078 140.348 477.912 139.985C477.746 139.622 477.513 139.296 477.227 139.026C476.941 138.757 476.607 138.548 476.244 138.413C475.882 138.278 475.497 138.219 475.114 138.239L472.746 138.373C471.973 138.418 471.249 138.781 470.734 139.384C470.219 139.987 469.955 140.78 469.999 141.589L470.044 142.416C470.061 142.661 470.174 142.889 470.357 143.052C470.541 143.215 470.781 143.299 471.027 143.287Z" fill="white"/>
<path d="M538.138 118.005L524.493 118.072C524.142 118.075 523.799 117.969 523.511 117.769C523.224 117.569 523.005 117.285 522.885 116.956L521.835 114.008C521.746 113.753 521.72 113.481 521.757 113.215C521.794 112.948 521.894 112.694 522.049 112.473C522.204 112.253 522.409 112.072 522.648 111.947C522.886 111.822 523.151 111.755 523.421 111.752L539.166 111.663C539.44 111.661 539.71 111.725 539.954 111.85C540.198 111.975 540.407 112.157 540.565 112.381C540.723 112.605 540.825 112.864 540.861 113.135C540.897 113.407 540.867 113.683 540.774 113.941L539.724 116.889C539.605 117.214 539.39 117.496 539.106 117.696C538.823 117.895 538.485 118.003 538.138 118.005Z" fill="white"/>
<path d="M543.008 122.074C543.008 122.22 542.98 122.366 542.924 122.501C542.869 122.637 542.787 122.761 542.684 122.865C542.58 122.969 542.457 123.051 542.322 123.108C542.187 123.165 542.042 123.194 541.895 123.195L520.723 123.268C520.427 123.269 520.143 123.153 519.932 122.944C519.722 122.735 519.604 122.452 519.603 122.156L519.601 121.709C519.6 121.562 519.629 121.417 519.685 121.281C519.74 121.146 519.822 121.022 519.925 120.918C520.029 120.814 520.151 120.731 520.287 120.675C520.422 120.618 520.567 120.589 520.714 120.588L541.886 120.515C542.182 120.514 542.466 120.63 542.676 120.839C542.886 121.047 543.005 121.331 543.006 121.627L543.008 122.074Z" fill="white"/>
<path d="M545.531 130.73C545.532 131.044 545.408 131.346 545.187 131.568C544.966 131.791 544.665 131.917 544.351 131.918L518.177 132.009C518.021 132.01 517.867 131.98 517.723 131.921C517.58 131.862 517.449 131.775 517.338 131.666C517.228 131.556 517.141 131.426 517.081 131.283C517.021 131.139 516.989 130.985 516.989 130.83V130.74C516.988 130.427 517.111 130.125 517.332 129.902C517.554 129.68 517.854 129.554 518.168 129.553L544.342 129.461C544.498 129.461 544.652 129.491 544.796 129.55C544.94 129.609 545.07 129.695 545.181 129.805C545.291 129.915 545.379 130.045 545.439 130.188C545.499 130.332 545.53 130.485 545.53 130.641L545.531 130.73Z" fill="white"/>
<path d="M406.081 348.374C405.501 349.758 404.064 349.066 401.771 346.297L401.615 331.758C401.6 330.983 401.205 330.596 400.431 330.596L379.214 330.842C379.676 337.423 378.939 341.048 377.003 341.718L376.713 332.026C376.683 331.266 376.289 330.864 375.529 330.82L362.397 330.284C361.132 329.093 359.851 329.152 358.556 330.462L341.493 330.507C339.349 328.259 339.119 326.904 340.801 326.442L346.987 325.884C347.762 325.81 348.149 325.385 348.149 324.611L348.126 163.297C348.126 162.973 348.191 162.652 348.317 162.352C348.443 162.053 348.628 161.781 348.86 161.552C349.093 161.324 349.369 161.143 349.672 161.021C349.975 160.899 350.3 160.838 350.628 160.841L359.963 160.885C360.871 160.885 361.31 160.439 361.281 159.545L361.057 151.55C361.043 151.091 361.154 150.636 361.377 150.232C361.601 149.827 361.93 149.488 362.33 149.25L364.586 147.91C365.33 147.463 365.695 146.808 365.68 145.944L365.591 136.408C365.591 135.842 365.874 135.574 366.44 135.604L367.043 135.626C367.46 135.641 367.668 135.857 367.668 136.274L367.735 146.503C367.735 147.098 368.04 147.396 368.651 147.396L369.276 147.374C369.842 147.374 370.117 147.091 370.102 146.525L369.946 136.877C369.943 136.714 369.972 136.552 370.031 136.4C370.091 136.248 370.179 136.11 370.291 135.994C370.404 135.877 370.538 135.785 370.685 135.722C370.833 135.659 370.992 135.626 371.152 135.626H371.755C372.016 135.626 372.266 135.728 372.45 135.908C372.634 136.088 372.738 136.332 372.738 136.587V145.676C372.738 146.54 373.095 147.225 373.81 147.731L376.222 149.495C376.936 150.002 377.294 150.701 377.294 151.595L377.227 159.59C377.227 159.916 377.356 160.228 377.586 160.459C377.817 160.689 378.129 160.818 378.455 160.818L388.594 160.93C389.062 160.93 389.511 161.116 389.842 161.447C390.173 161.778 390.359 162.226 390.359 162.694L390.314 324.7C390.314 324.925 390.359 325.148 390.446 325.354C390.534 325.561 390.662 325.747 390.823 325.902C390.984 326.056 391.174 326.176 391.383 326.254C391.591 326.331 391.812 326.365 392.034 326.353L399.783 325.996C400.617 325.966 401.362 325.713 402.017 325.236C402.687 324.76 403.394 324.403 404.138 324.164C405.3 323.822 405.888 324.254 405.903 325.46L406.081 348.374ZM374.703 156.329C375.12 153.843 374.554 151.885 373.006 150.456C372.068 149.577 371.599 149.778 371.599 151.059L371.621 159.255C371.621 160.074 372.016 160.558 372.805 160.707C373.341 160.811 373.862 160.744 374.368 160.506C374.904 160.238 375.083 159.821 374.904 159.255C374.83 159.047 374.77 158.831 374.725 158.607C374.576 157.848 374.569 157.089 374.703 156.329ZM367.378 151.528L367.4 159.97C367.4 160.048 367.415 160.125 367.445 160.197C367.474 160.269 367.517 160.334 367.572 160.388C367.626 160.443 367.69 160.485 367.76 160.513C367.831 160.541 367.906 160.553 367.981 160.55L368.74 160.528C369.291 160.498 369.566 160.208 369.566 159.657L369.522 150.858C369.522 150.634 369.41 150.515 369.187 150.5L368.561 150.456C368.411 150.44 368.26 150.456 368.117 150.503C367.974 150.55 367.842 150.626 367.73 150.727C367.618 150.828 367.529 150.952 367.469 151.09C367.408 151.228 367.377 151.377 367.378 151.528ZM365.345 160.059L365.368 151.595C365.368 151.178 365.159 150.947 364.742 150.902L363.961 150.858C363.866 150.849 363.771 150.86 363.681 150.89C363.591 150.92 363.507 150.97 363.436 151.034C363.365 151.099 363.307 151.179 363.267 151.267C363.227 151.356 363.204 151.452 363.201 151.55L363.179 159.947C363.179 160.528 363.469 160.796 364.05 160.751L364.742 160.707C365.144 160.677 365.345 160.461 365.345 160.059ZM359.254 166.719C359.268 166.34 359.13 165.972 358.871 165.695C358.613 165.417 358.255 165.254 357.876 165.241L354.082 165.109C353.703 165.095 353.334 165.233 353.057 165.492C352.78 165.75 352.616 166.108 352.603 166.487L352.542 168.228C352.529 168.607 352.667 168.976 352.926 169.253C353.184 169.53 353.542 169.693 353.921 169.706L357.715 169.839C358.094 169.852 358.463 169.714 358.74 169.456C359.017 169.197 359.18 168.839 359.194 168.46L359.254 166.719ZM372.403 167.563C372.864 169.752 374.197 170.459 376.4 169.685C376.604 169.62 376.782 169.495 376.91 169.327C377.038 169.159 377.11 168.956 377.115 168.747L377.204 167.228C377.264 165.858 376.616 165.173 375.261 165.173H374.323C372.7 165.188 372.06 165.985 372.403 167.563ZM386.128 166.389C386.123 166.219 386.085 166.051 386.015 165.896C385.945 165.741 385.845 165.601 385.722 165.484C385.598 165.368 385.452 165.277 385.293 165.216C385.134 165.156 384.965 165.127 384.795 165.133L380.464 165.261C380.294 165.266 380.127 165.304 379.971 165.374C379.816 165.444 379.676 165.544 379.56 165.667C379.443 165.791 379.352 165.937 379.291 166.096C379.231 166.255 379.203 166.424 379.208 166.594L379.269 168.648C379.274 168.818 379.312 168.985 379.382 169.141C379.452 169.296 379.551 169.436 379.675 169.552C379.799 169.669 379.944 169.76 380.104 169.82C380.263 169.881 380.432 169.909 380.602 169.904L384.933 169.776C385.103 169.771 385.27 169.732 385.425 169.663C385.58 169.593 385.72 169.493 385.837 169.369C385.954 169.246 386.045 169.1 386.105 168.941C386.166 168.782 386.194 168.613 386.189 168.443L386.128 166.389ZM365.747 167.518C365.799 167.01 365.671 166.499 365.386 166.074C365.1 165.65 364.675 165.339 364.184 165.196C363.052 164.883 362.174 165.278 361.549 166.379C361.369 166.7 361.268 167.059 361.252 167.426C361.237 167.794 361.308 168.16 361.46 168.494C361.613 168.829 361.841 169.123 362.128 169.354C362.415 169.584 362.752 169.743 363.112 169.819C364.675 170.146 365.554 169.379 365.747 167.518ZM367.735 166.536C367.214 167.727 367.34 168.717 368.115 169.506C368.262 169.654 368.445 169.762 368.645 169.82C368.846 169.877 369.058 169.883 369.261 169.836C369.465 169.789 369.653 169.691 369.808 169.551C369.963 169.412 370.079 169.235 370.147 169.037C370.43 168.218 370.445 167.422 370.192 166.647C370.107 166.395 369.949 166.174 369.736 166.013C369.524 165.853 369.268 165.76 369.002 165.748C368.736 165.736 368.472 165.805 368.246 165.946C368.02 166.086 367.842 166.292 367.735 166.536ZM359.137 173.481C359.137 173.132 358.998 172.797 358.751 172.55C358.504 172.303 358.168 172.164 357.819 172.164H353.799C353.626 172.164 353.455 172.198 353.295 172.264C353.135 172.33 352.99 172.427 352.867 172.55C352.745 172.672 352.648 172.817 352.582 172.977C352.515 173.137 352.481 173.308 352.481 173.481V324.991C352.481 325.164 352.515 325.335 352.582 325.495C352.648 325.655 352.745 325.8 352.867 325.922C352.99 326.045 353.135 326.142 353.295 326.208C353.455 326.274 353.626 326.308 353.799 326.308H357.819C358.168 326.308 358.504 326.17 358.751 325.922C358.998 325.675 359.137 325.34 359.137 324.991V173.481ZM365.68 173.548C365.68 173.146 365.52 172.759 365.236 172.475C364.951 172.19 364.564 172.03 364.162 172.03H363C362.598 172.03 362.211 172.19 361.926 172.475C361.642 172.759 361.482 173.146 361.482 173.548V324.879C361.482 325.282 361.642 325.668 361.926 325.953C362.211 326.238 362.598 326.398 363 326.398H364.162C364.564 326.398 364.951 326.238 365.236 325.953C365.52 325.668 365.68 325.282 365.68 324.879V173.548ZM370.348 173.37C370.348 173.121 370.249 172.882 370.073 172.706C369.897 172.531 369.659 172.432 369.41 172.432H368.785C368.536 172.432 368.297 172.531 368.121 172.706C367.946 172.882 367.847 173.121 367.847 173.37V325.102C367.847 325.351 367.946 325.59 368.121 325.766C368.297 325.942 368.536 326.04 368.785 326.04H369.41C369.659 326.04 369.897 325.942 370.073 325.766C370.249 325.59 370.348 325.351 370.348 325.102V173.37ZM376.981 173.258C376.981 173.094 376.949 172.931 376.886 172.779C376.823 172.628 376.731 172.49 376.615 172.374C376.499 172.258 376.361 172.165 376.209 172.103C376.057 172.04 375.895 172.007 375.73 172.007H373.988C373.824 172.007 373.661 172.04 373.51 172.103C373.358 172.165 373.22 172.258 373.104 172.374C372.988 172.49 372.896 172.628 372.833 172.779C372.77 172.931 372.738 173.094 372.738 173.258V325.035C372.738 325.367 372.869 325.685 373.104 325.92C373.339 326.154 373.657 326.286 373.988 326.286H375.73C376.062 326.286 376.38 326.154 376.615 325.92C376.849 325.685 376.981 325.367 376.981 325.035V173.258ZM386.182 173.593C386.182 173.196 386.025 172.816 385.744 172.535C385.463 172.254 385.083 172.097 384.686 172.097H380.889C380.492 172.097 380.112 172.254 379.831 172.535C379.551 172.816 379.393 173.196 379.393 173.593V324.879C379.393 325.276 379.551 325.656 379.831 325.937C380.112 326.218 380.492 326.375 380.889 326.375H384.686C385.083 326.375 385.463 326.218 385.744 325.937C386.025 325.656 386.182 325.276 386.182 324.879V173.593Z" fill="white"/>
<path d="M545.508 139.959C545.508 140.19 545.417 140.412 545.253 140.575C545.09 140.738 544.868 140.83 544.637 140.83H518.061C517.83 140.83 517.608 140.738 517.445 140.575C517.281 140.412 517.19 140.19 517.19 139.959V139.334C517.19 139.103 517.281 138.881 517.445 138.718C517.608 138.554 517.83 138.463 518.061 138.463H544.637C544.868 138.463 545.09 138.554 545.253 138.718C545.417 138.881 545.508 139.103 545.508 139.334V139.959Z" fill="white"/>
<path d="M547.742 148.567C547.742 148.719 547.713 148.871 547.655 149.012C547.597 149.153 547.512 149.281 547.404 149.389C547.297 149.498 547.169 149.584 547.029 149.642C546.888 149.701 546.737 149.732 546.584 149.732L516.033 149.839C515.88 149.84 515.729 149.81 515.588 149.752C515.447 149.694 515.319 149.609 515.21 149.502C515.102 149.394 515.016 149.267 514.957 149.126C514.898 148.985 514.868 148.834 514.867 148.682V148.592C514.867 148.44 514.896 148.289 514.954 148.148C515.012 148.007 515.097 147.878 515.204 147.77C515.312 147.662 515.44 147.576 515.58 147.517C515.721 147.458 515.872 147.428 516.024 147.427L546.576 147.32C546.729 147.32 546.88 147.349 547.021 147.407C547.162 147.465 547.29 147.55 547.399 147.658C547.507 147.765 547.593 147.893 547.652 148.034C547.71 148.174 547.741 148.325 547.742 148.478V148.567Z" fill="white"/>
<path d="M539.97 160.148C539.91 160.759 539.724 161.332 539.411 161.868C538.994 162.568 538.384 162.918 537.58 162.918L524.783 162.895C523.666 162.895 522.981 162.352 522.728 161.265C522.133 158.764 520.495 157.96 517.815 158.853C516.981 159.136 516.192 159.069 515.448 158.652C515.135 158.488 514.912 158.265 514.778 157.982C514.691 157.801 514.651 157.601 514.662 157.401C514.674 157.2 514.736 157.006 514.843 156.836C514.95 156.667 515.099 156.527 515.275 156.43C515.451 156.334 515.649 156.284 515.85 156.285L546.759 156.329C546.877 156.329 546.994 156.353 547.103 156.398C547.212 156.444 547.31 156.51 547.391 156.594C547.473 156.677 547.536 156.776 547.577 156.884C547.618 156.993 547.636 157.108 547.63 157.223L547.585 158.049C547.568 158.294 547.458 158.522 547.278 158.685C547.099 158.847 546.864 158.932 546.625 158.92L541.645 158.719C540.647 158.674 540.089 159.151 539.97 160.148Z" fill="white"/>
<path d="M475.471 284.5C475.173 286.019 474.354 286.711 473.014 286.577L473.104 226.903C473.104 226.188 472.746 225.838 472.032 225.853L458.453 226.032C457.902 226.047 457.627 226.329 457.627 226.88L457.649 277.108C457.649 278.106 458.14 278.701 459.123 278.895C461.073 279.282 462.108 280.488 462.227 282.513C462.287 283.466 462.786 283.882 463.724 283.763C464.468 283.674 465.079 283.89 465.555 284.411C466.121 285.036 466.396 285.892 466.381 286.979C466.218 302.419 466.299 317.673 466.627 332.74C468.473 333.693 468.391 334.579 466.381 335.398L466.113 358.96C464.371 356.458 463.381 353.384 463.143 349.736C463.113 349.289 463.054 349.289 462.964 349.736C462.317 352.595 463.054 355.118 462.183 358.089L462.384 289.391C462.384 288.468 461.93 287.999 461.021 287.984L450.212 287.94C449.006 287.925 448.403 288.528 448.403 289.749L448.314 343.795C445.529 344.45 444.227 340.609 444.405 332.271L444.271 286.108C444.271 285.245 444.681 284.657 445.5 284.344C447.093 283.763 448.12 282.647 448.582 280.994C448.718 280.493 449.01 280.048 449.415 279.722C449.82 279.397 450.318 279.209 450.837 279.185L453.674 279.051C454.686 278.991 455.192 278.455 455.192 277.443L455.215 227.55C455.215 227.082 455.029 226.634 454.698 226.303C454.367 225.972 453.918 225.786 453.45 225.786L439.202 225.831C438.746 225.831 438.308 226.012 437.986 226.334C437.663 226.657 437.482 227.094 437.482 227.55V329.011C437.497 331.378 436.685 332.495 435.048 332.361L435.159 161.22C435.159 159.538 435.993 158.622 437.661 158.473C439.939 158.25 441.926 157.401 444.182 157.826C451.478 159.21 458.624 159.255 465.622 157.96C468.414 157.446 471.138 158.116 473.885 158.697C474.674 158.86 475.069 159.344 475.069 160.148L475.471 284.5ZM437.683 161.377L437.728 163.387C437.728 163.45 437.74 163.513 437.765 163.571C437.79 163.63 437.827 163.683 437.873 163.726C437.919 163.77 437.973 163.804 438.033 163.827C438.092 163.849 438.156 163.859 438.219 163.856L438.733 163.833C442.853 163.732 446.801 163.509 449.708 163.211C452.614 162.914 454.242 162.567 454.232 162.248V161.712C454.23 161.553 453.825 161.406 453.04 161.278C452.254 161.151 451.105 161.046 449.657 160.969C448.209 160.893 446.491 160.846 444.601 160.831C442.711 160.817 440.687 160.835 438.643 160.885L438.13 160.908C438.009 160.913 437.896 160.965 437.812 161.053C437.729 161.14 437.683 161.256 437.683 161.377ZM472.694 161.887C472.687 161.731 472.651 161.579 472.585 161.438C472.52 161.297 472.428 161.17 472.314 161.064C472.199 160.959 472.065 160.877 471.92 160.823C471.774 160.769 471.619 160.745 471.463 160.751L458.074 161.289C457.919 161.295 457.766 161.332 457.625 161.397C457.484 161.463 457.357 161.555 457.252 161.669C457.146 161.783 457.064 161.917 457.011 162.063C456.957 162.209 456.933 162.364 456.939 162.519L456.942 162.609C456.949 162.764 456.985 162.917 457.051 163.058C457.116 163.199 457.208 163.326 457.322 163.431C457.437 163.537 457.571 163.618 457.716 163.672C457.862 163.726 458.017 163.75 458.173 163.744L471.562 163.206C471.717 163.2 471.87 163.163 472.011 163.098C472.152 163.033 472.279 162.94 472.384 162.826C472.49 162.712 472.572 162.578 472.625 162.432C472.679 162.286 472.703 162.131 472.697 161.976L472.694 161.887ZM450.659 196.373L450.994 167.317C451 167.035 450.949 166.755 450.843 166.493C450.737 166.231 450.579 165.994 450.378 165.795C450.178 165.597 449.938 165.441 449.676 165.338C449.413 165.235 449.132 165.186 448.85 165.196L439.269 165.508C438.078 165.538 437.482 166.149 437.482 167.34L437.46 217.433C437.46 218.356 437.929 218.818 438.867 218.818L453.942 218.751C454.805 218.751 455.237 218.312 455.237 217.433L455.192 200.639C455.192 199.686 454.708 199.18 453.741 199.12C453.071 199.09 452.453 198.912 451.887 198.584C451.053 198.093 450.644 197.356 450.659 196.373ZM457.448 166.96C457.448 166.403 457.227 165.869 456.833 165.476C456.439 165.082 455.905 164.861 455.349 164.861H455.215C454.658 164.861 454.124 165.082 453.73 165.476C453.337 165.869 453.115 166.403 453.115 166.96V194.877C453.115 195.433 453.337 195.967 453.73 196.361C454.124 196.755 454.658 196.976 455.215 196.976H455.349C455.905 196.976 456.439 196.755 456.833 196.361C457.227 195.967 457.448 195.433 457.448 194.877V166.96ZM459.838 196.998C459.837 197.313 459.717 197.616 459.503 197.847L457.962 199.522C457.747 199.753 457.627 200.056 457.627 200.371V217.5C457.627 217.832 457.758 218.15 457.993 218.385C458.228 218.619 458.546 218.751 458.877 218.751L471.875 218.84C472.207 218.84 472.525 218.709 472.76 218.474C472.994 218.239 473.126 217.921 473.126 217.59L473.081 166.446C473.081 166.28 473.048 166.116 472.984 165.962C472.92 165.809 472.826 165.67 472.707 165.554C472.589 165.438 472.448 165.346 472.294 165.284C472.14 165.223 471.974 165.193 471.808 165.196L460.887 165.441C460.56 165.447 460.247 165.582 460.017 165.815C459.788 166.049 459.659 166.364 459.659 166.692L459.838 196.998ZM454.721 221.789C454.72 221.692 454.701 221.596 454.663 221.507C454.626 221.418 454.571 221.337 454.502 221.269C454.433 221.201 454.352 221.147 454.262 221.11C454.173 221.074 454.077 221.055 453.98 221.056L438.615 221.136C438.419 221.137 438.232 221.216 438.095 221.355C437.957 221.494 437.881 221.682 437.882 221.877L437.887 222.815C437.887 222.912 437.907 223.008 437.944 223.097C437.982 223.186 438.036 223.267 438.105 223.335C438.174 223.403 438.256 223.457 438.345 223.494C438.435 223.53 438.531 223.549 438.627 223.548L453.993 223.468C454.188 223.467 454.375 223.388 454.512 223.249C454.65 223.11 454.727 222.922 454.726 222.727L454.721 221.789ZM472.812 222.008C472.812 221.9 472.79 221.792 472.748 221.692C472.706 221.592 472.645 221.501 472.568 221.425C472.491 221.348 472.4 221.288 472.299 221.246C472.199 221.205 472.091 221.184 471.983 221.185L458.806 221.231C458.698 221.231 458.59 221.253 458.49 221.295C458.39 221.337 458.299 221.398 458.223 221.475C458.146 221.552 458.086 221.643 458.044 221.743C458.003 221.844 457.982 221.951 457.983 222.06L457.985 222.819C457.986 222.928 458.007 223.035 458.049 223.135C458.091 223.235 458.152 223.326 458.229 223.403C458.306 223.479 458.398 223.54 458.498 223.581C458.599 223.622 458.706 223.643 458.815 223.643L471.991 223.597C472.1 223.596 472.207 223.575 472.307 223.533C472.407 223.491 472.498 223.43 472.575 223.353C472.651 223.276 472.712 223.184 472.753 223.084C472.794 222.983 472.815 222.876 472.815 222.767L472.812 222.008ZM451.217 284.054L458.364 283.763C459.659 283.704 459.875 283.198 459.011 282.245C457.001 280.056 452.736 281.441 450.815 282.959C449.817 283.748 449.951 284.113 451.217 284.054Z" fill="white"/>
<path d="M547.92 166.558C547.92 166.872 547.796 167.173 547.574 167.395C547.352 167.617 547.051 167.742 546.737 167.742H516.185C515.871 167.742 515.57 167.617 515.348 167.395C515.126 167.173 515.001 166.872 515.001 166.558V166.424C515.001 166.11 515.126 165.809 515.348 165.587C515.57 165.365 515.871 165.24 516.185 165.24H546.737C547.051 165.24 547.352 165.365 547.574 165.587C547.796 165.809 547.92 166.11 547.92 166.424V166.558Z" fill="white"/>
<path d="M547.787 175.619C547.787 175.739 547.764 175.858 547.718 175.97C547.672 176.081 547.605 176.182 547.52 176.267C547.435 176.352 547.334 176.42 547.223 176.466C547.112 176.512 546.993 176.536 546.873 176.536L515.964 176.59C515.843 176.591 515.724 176.567 515.613 176.521C515.502 176.476 515.401 176.408 515.316 176.323C515.23 176.238 515.163 176.138 515.117 176.027C515.07 175.916 515.046 175.797 515.046 175.676L515.045 175.096C515.045 174.975 515.069 174.856 515.114 174.745C515.16 174.634 515.228 174.533 515.312 174.448C515.397 174.362 515.498 174.295 515.609 174.249C515.72 174.202 515.839 174.179 515.959 174.178L546.869 174.124C546.989 174.124 547.108 174.148 547.219 174.193C547.33 174.239 547.431 174.306 547.517 174.391C547.602 174.476 547.669 174.577 547.716 174.688C547.762 174.799 547.786 174.918 547.786 175.038L547.787 175.619Z" fill="white"/>
<path d="M262.031 346.364C260.81 346.915 259.269 346.669 257.408 345.627C257.781 343.364 257.647 341.264 257.006 339.329C256.753 338.569 256.403 338.525 255.957 339.195C254.617 341.175 253.664 343.423 253.098 345.939C251.594 346.282 250.753 346.073 250.574 345.314C253.053 339.53 258.346 331.132 255.622 324.767C252.495 317.487 249.398 310.132 246.331 302.702C245.676 301.094 245.006 301.094 244.321 302.702L235.12 324.589C234.491 326.08 234.167 327.682 234.167 329.301C234.167 330.92 234.491 332.522 235.12 334.013L243.696 354.27L241.708 356.369L235.522 340.423C234.36 337.43 233.638 337.535 233.355 340.736L232.842 346.766C231.144 348.061 230.154 348.121 229.871 346.944C229.588 345.723 229.082 345.128 228.353 345.158C228.822 338.234 229.827 331.445 229.268 324.499C228.539 315.328 227.966 306.469 227.549 297.923C227.035 286.957 230.631 270.475 229.023 256.986C227.385 243.154 227.348 229.367 228.911 215.624C230.43 202.314 228.152 189.45 227.683 176.139C227.674 175.896 227.713 175.653 227.799 175.426C227.885 175.199 228.015 174.991 228.182 174.816C228.349 174.641 228.549 174.502 228.77 174.407C228.991 174.312 229.229 174.263 229.469 174.263L261.294 174.241C261.591 174.241 261.885 174.305 262.155 174.428C262.426 174.552 262.666 174.732 262.861 174.956C263.056 175.181 263.2 175.444 263.284 175.729C263.368 176.014 263.391 176.314 263.349 176.608C261.071 192.658 260.751 208.835 262.389 225.138C263.044 231.645 263.103 237.437 262.567 242.514C261.019 257.343 261.019 272.619 262.567 288.342C263.103 293.851 263.074 299.724 262.478 305.963C261.198 319.467 261.049 332.934 262.031 346.364ZM232.752 182.884C232.529 187.276 232.633 191.326 233.065 195.033C233.378 197.743 234.107 197.862 235.254 195.39L242.601 179.601C242.854 179.065 242.683 178.782 242.088 178.752L233.914 178.35C232.931 178.305 232.35 178.767 232.172 179.735C232.053 180.375 232.149 180.993 232.462 181.588C232.681 181.982 232.781 182.432 232.752 182.884ZM258.681 179.467C258.691 179.364 258.679 179.261 258.646 179.164C258.613 179.067 258.56 178.977 258.491 178.902C258.421 178.826 258.337 178.766 258.243 178.724C258.149 178.683 258.047 178.662 257.944 178.663L248.788 178.573C248.662 178.569 248.536 178.597 248.424 178.655C248.312 178.713 248.217 178.799 248.147 178.904C248.078 179.009 248.037 179.131 248.027 179.257C248.018 179.383 248.042 179.509 248.095 179.623L255.845 196.574C255.911 196.723 256.024 196.845 256.167 196.923C256.309 197.001 256.474 197.029 256.634 197.003C256.795 196.978 256.942 196.9 257.054 196.782C257.166 196.664 257.235 196.512 257.252 196.351L258.681 179.467ZM245.951 180.807C245.894 180.683 245.802 180.579 245.688 180.506C245.573 180.433 245.44 180.394 245.304 180.394C245.168 180.394 245.034 180.433 244.92 180.506C244.805 180.579 244.713 180.683 244.656 180.807L233.422 205.105C233.382 205.197 233.361 205.296 233.361 205.396C233.361 205.496 233.382 205.595 233.422 205.686L244.678 230.141C244.736 230.264 244.827 230.369 244.942 230.442C245.057 230.515 245.19 230.554 245.326 230.554C245.462 230.554 245.595 230.515 245.71 230.442C245.825 230.369 245.916 230.264 245.974 230.141L257.185 205.686C257.226 205.595 257.247 205.496 257.247 205.396C257.247 205.296 257.226 205.197 257.185 205.105L245.951 180.807ZM234.785 214.396C234.668 214.141 234.467 213.934 234.216 213.809C233.965 213.683 233.679 213.648 233.405 213.708C233.131 213.768 232.886 213.92 232.71 214.138C232.535 214.357 232.439 214.629 232.44 214.91L232.507 255.132C232.511 255.411 232.61 255.679 232.788 255.894C232.965 256.109 233.21 256.257 233.483 256.314C233.756 256.371 234.04 256.334 234.288 256.209C234.537 256.083 234.736 255.877 234.852 255.623L243.74 235.501C243.811 235.343 243.848 235.172 243.848 234.999C243.848 234.825 243.811 234.654 243.74 234.496L234.785 214.396ZM255.465 255.422C255.588 255.705 255.805 255.936 256.078 256.077C256.352 256.219 256.666 256.261 256.967 256.199C257.269 256.136 257.539 255.971 257.734 255.732C257.928 255.493 258.034 255.194 258.034 254.886L258.257 215.49C258.262 215.18 258.16 214.878 257.968 214.635C257.775 214.392 257.505 214.224 257.202 214.158C256.899 214.092 256.583 214.133 256.307 214.274C256.031 214.415 255.812 214.648 255.689 214.932L246.934 234.585C246.857 234.753 246.815 234.935 246.811 235.119C246.807 235.304 246.841 235.487 246.912 235.657L255.465 255.422ZM244.656 292.116C244.713 292.239 244.805 292.344 244.92 292.417C245.034 292.49 245.168 292.529 245.304 292.529C245.44 292.529 245.573 292.49 245.688 292.417C245.802 292.344 245.894 292.239 245.951 292.116L255.666 269.76C256.23 268.462 256.523 267.063 256.527 265.65C256.531 264.236 256.246 262.838 255.689 261.542L245.996 239.208C245.937 239.08 245.843 238.971 245.724 238.895C245.605 238.819 245.467 238.778 245.326 238.778C245.185 238.778 245.047 238.819 244.928 238.895C244.809 238.971 244.715 239.08 244.656 239.208L235.008 261.452C234.43 262.769 234.132 264.195 234.132 265.64C234.132 267.085 234.43 268.518 235.008 269.85L244.656 292.116ZM234.852 275.746C234.744 275.479 234.546 275.258 234.292 275.122C234.038 274.986 233.745 274.943 233.463 275.002C233.181 275.06 232.928 275.216 232.749 275.442C232.57 275.668 232.477 275.949 232.484 276.237L232.574 317.71C232.583 317.987 232.685 318.252 232.865 318.463C233.044 318.675 233.289 318.819 233.56 318.873C233.832 318.928 234.114 318.889 234.36 318.763C234.607 318.637 234.804 318.431 234.919 318.179L243.651 297.431C243.715 297.28 243.749 297.116 243.749 296.951C243.749 296.786 243.715 296.623 243.651 296.471L234.852 275.746ZM247.671 294.841C247.388 295.505 247.243 296.221 247.243 296.946C247.243 297.671 247.388 298.39 247.671 299.062L255.912 318.76C256.448 320.025 256.798 319.981 256.962 318.626C258.793 304.392 258.875 290.344 257.207 276.483C256.939 274.249 256.366 274.167 255.488 276.237L247.671 294.841Z" fill="white"/>
<path d="M233.78 181.7C234.971 181.149 236.065 181.097 237.063 181.544C237.168 181.591 237.259 181.665 237.327 181.759C237.395 181.852 237.437 181.961 237.451 182.075C237.464 182.19 237.448 182.306 237.404 182.412C237.359 182.519 237.288 182.612 237.197 182.683C236.184 183.472 235.082 183.68 233.891 183.308C233.723 183.254 233.573 183.151 233.463 183.011C233.353 182.872 233.287 182.703 233.275 182.528C233.263 182.353 233.305 182.18 233.395 182.032C233.485 181.884 233.619 181.768 233.78 181.7Z" fill="white"/>
<path d="M547.854 184.53C547.854 184.647 547.831 184.764 547.786 184.872C547.742 184.981 547.676 185.079 547.593 185.162C547.51 185.245 547.412 185.311 547.304 185.356C547.195 185.402 547.079 185.425 546.962 185.425L515.919 185.479C515.801 185.479 515.685 185.456 515.577 185.412C515.468 185.367 515.37 185.301 515.287 185.219C515.203 185.136 515.137 185.037 515.092 184.929C515.047 184.821 515.024 184.705 515.024 184.587L515.023 184.007C515.023 183.889 515.046 183.773 515.09 183.665C515.135 183.556 515.201 183.458 515.283 183.375C515.366 183.291 515.465 183.225 515.573 183.18C515.681 183.135 515.797 183.112 515.915 183.112L546.958 183.058C547.075 183.058 547.192 183.08 547.3 183.125C547.408 183.17 547.507 183.235 547.59 183.318C547.673 183.401 547.739 183.499 547.784 183.608C547.829 183.716 547.853 183.832 547.853 183.949L547.854 184.53Z" fill="white"/>
<path d="M506.827 190.164C507.14 190.581 507.341 191.192 507.43 191.996C507.534 192.815 507.854 192.949 508.39 192.398C508.45 192.338 508.465 192.271 508.435 192.197C508.182 191.348 508.413 191.177 509.127 191.683C509.425 191.891 509.567 192.197 509.552 192.599C509.477 193.968 509.782 194.073 510.467 192.911L511.115 191.817C509.939 247.338 510.609 302.881 513.125 358.446C513.142 358.748 513.274 359.032 513.495 359.24C513.715 359.448 514.006 359.563 514.309 359.563H547.943C548.583 359.563 549.007 359.257 549.216 358.647C549.305 358.349 549.32 358.014 549.26 357.642C549.513 357.85 549.767 357.992 550.02 358.066C550.273 358.156 550.481 358.096 550.645 357.888C550.809 357.694 550.853 357.501 550.779 357.307C550.66 356.965 550.779 356.764 551.136 356.704C551.404 356.659 551.65 356.682 551.873 356.771C552.648 357.054 553.05 356.786 553.079 355.967C553.124 354.895 553.355 353.95 553.772 353.131C553.593 354.218 553.682 355.282 554.04 356.324L555.045 359.362L581.13 359.473C581.439 359.477 581.743 359.397 582.01 359.242C582.278 359.087 582.498 358.863 582.649 358.593C582.8 358.324 582.875 358.018 582.867 357.709C582.86 357.401 582.768 357.1 582.604 356.838C579.969 352.572 576.887 347.302 572.487 344.622C565.363 340.289 564.76 330.44 571.862 325.638C572.809 324.982 573.538 324.074 573.961 323.025C577.467 314.36 587.964 311.412 593.86 319.43C596.406 322.891 600.538 323.941 602.726 327.626C606.88 334.616 605.027 344.019 597.098 347.235C593.242 348.813 590.034 351.895 587.473 356.481C586.624 357.999 587.011 359.071 588.634 359.697C589.125 359.875 590.212 359.853 591.895 359.63C590.837 361.699 589.155 362.853 586.847 363.091C586.558 363.124 586.29 363.261 586.096 363.475C585.903 363.69 585.796 363.967 585.798 364.253V365.079C585.798 365.436 585.984 365.622 586.356 365.637L591.738 365.749C592.095 365.755 592.443 365.866 592.737 366.068C593.031 366.271 593.259 366.556 593.391 366.888C593.897 368.154 594.887 368.637 596.361 368.34C597.597 368.087 598.669 368.176 599.577 368.608L309.132 368.742C311.098 364.737 311.939 361.602 311.656 359.339L310.584 343.304C310.524 342.455 310.219 342.351 309.668 342.991C308.239 344.614 307.249 346.766 306.698 349.446C305.849 348.761 305.351 347.503 305.202 345.671C307.167 342.753 308.529 339.76 309.289 336.693C309.974 333.939 309.609 330.835 308.194 327.38C305.529 320.874 302.455 314.137 298.971 307.169C297.303 308.062 296.73 307.265 297.251 304.779L288.184 286.019C287.797 285.215 287.521 285.252 287.357 286.131C285.898 293.769 285.362 299.903 285.749 304.533C286.256 310.921 286.546 317.159 286.62 323.249C285.921 324.35 285.213 325.05 284.499 325.348C283.754 325.676 283.345 325.43 283.27 324.611L281.796 307.169C281.275 300.245 281.461 292.942 282.355 285.26C282.965 279.9 283.084 275.172 282.712 271.078C282.295 266.552 281.93 261.951 281.618 257.276C280.724 243.988 282.712 230.141 283.136 216.406C284.67 216.942 285.734 215.215 286.33 211.225L286.754 213.391C286.888 214.061 287.246 214.217 287.826 213.86L288.541 213.413C288.809 214.604 289.308 215.327 290.037 215.58C287.164 219.376 286.918 223.076 289.3 226.679C289.003 226.62 288.735 226.597 288.496 226.612C287.901 226.672 287.715 226.985 287.938 227.55C288.28 228.325 288.474 229.084 288.519 229.828C287.536 228.95 287.022 228.719 286.978 229.136C285.414 241.97 285.422 254.79 287 267.594C287.089 268.249 287.409 268.405 287.96 268.063C288.154 267.944 288.347 267.765 288.541 267.527C288.705 269.433 289.129 270.475 289.814 270.654C287.625 273.892 286.933 277.689 288.876 281.262C292.196 287.471 295.308 293.53 298.211 299.441C298.275 299.569 298.373 299.676 298.494 299.752C298.615 299.828 298.754 299.869 298.897 299.871C299.04 299.874 299.18 299.837 299.303 299.765C299.427 299.693 299.528 299.589 299.596 299.464L304.13 290.575C304.576 291.2 305.343 291.61 306.43 291.803L301.003 302.702C300.541 303.64 300.534 304.585 300.981 305.538L309.445 323.383C310.13 324.827 310.554 324.752 310.718 323.159L311.946 310.496C312.08 312.417 312.587 313.511 313.465 313.779C314.15 314.003 314.537 313.757 314.626 313.042C314.745 312.164 315.348 311.754 316.435 311.814C314.321 327.447 314.477 342.947 316.904 358.312C317.023 359.056 317.463 359.429 318.222 359.429H331.086C331.396 359.429 331.694 359.305 331.915 359.083C332.137 358.862 332.264 358.561 332.27 358.245C332.404 348.389 332.426 338.071 332.337 327.291C332.307 323.152 333.729 322.579 336.602 325.571C337.019 326.003 338.419 326.293 340.801 326.442C339.119 326.904 339.349 328.259 341.493 330.507C340.004 330.358 338.851 330.425 338.032 330.708C337.347 330.946 337.004 331.423 337.004 332.137L337.049 358.714C337.049 359.176 337.28 359.406 337.741 359.406H358.02C358.571 359.406 358.839 359.138 358.824 358.602L358.556 330.462C359.851 329.152 361.132 329.093 362.397 330.284L361.683 358.111C361.653 358.975 362.077 359.414 362.956 359.429L375.261 359.451C376.229 359.451 376.72 358.967 376.735 357.999L377.003 341.718C378.939 341.048 379.676 337.423 379.214 330.842L379.46 358.647C379.475 359.243 379.78 359.54 380.376 359.54H400.342C401.175 359.54 401.592 359.123 401.592 358.29L401.771 346.297C404.064 349.066 405.501 349.758 406.081 348.374L406.238 358.245C406.253 359.138 406.707 359.585 407.6 359.585H422.675C423.539 359.585 423.978 359.146 423.993 358.267L424.082 353.6L425.578 354.136C426.382 354.419 426.71 354.984 426.561 355.833L426.338 357.084C426.159 358.037 426.539 358.394 427.477 358.156L428.459 357.91C428.921 359.726 430.663 360.255 433.685 359.496C434.415 359.317 434.787 358.855 434.802 358.111L435.048 332.361C436.685 332.495 437.497 331.378 437.482 329.011L437.661 331.199C437.735 331.988 438.152 332.51 438.911 332.763C440.698 333.328 442.529 333.165 444.405 332.271C444.227 340.609 445.529 344.45 448.314 343.795L448.582 358.781C448.582 359.332 448.865 359.6 449.43 359.585H449.989C450.554 359.57 450.837 359.28 450.837 358.714L450.86 328.631C450.86 326.993 451.671 326.182 453.294 326.197H457.359C458.967 326.212 459.763 327.016 459.748 328.609L459.659 358.625C459.657 358.806 459.699 358.986 459.781 359.148C459.862 359.311 459.982 359.452 460.13 359.56C460.277 359.669 460.449 359.742 460.631 359.773C460.813 359.805 461 359.794 461.178 359.741C461.877 359.533 462.212 358.982 462.183 358.089C463.054 355.118 462.317 352.595 462.964 349.736C463.054 349.289 463.113 349.289 463.143 349.736C463.381 353.384 464.371 356.458 466.113 358.96C468.257 359.957 470.215 360.069 471.987 359.295C472.687 358.997 473.037 358.468 473.037 357.709L472.992 336.827C472.992 336.038 472.62 335.547 471.875 335.353C470.416 334.981 468.585 334.996 466.381 335.398C468.391 334.579 468.473 333.693 466.627 332.74C468.563 333.008 470.051 333.06 471.094 332.897C472.255 332.703 472.851 331.676 472.88 329.815C473.074 315.402 473.119 300.99 473.014 286.577C474.354 286.711 475.173 286.019 475.471 284.5L475.56 358.29C475.56 359.228 476.022 359.689 476.945 359.674L481.121 359.585C481.717 359.57 482.022 359.257 482.037 358.647L482.104 343.46C483.355 350.145 484.821 351.798 486.504 348.418L486.593 357.084C486.608 358.975 487.553 359.853 489.429 359.719C494.849 359.332 500.335 359.369 505.889 359.831C507.854 359.994 508.792 359.086 508.703 357.106C506.008 302.166 505.383 246.519 506.827 190.164ZM586.981 336.671C587.324 337.951 587.376 339.21 587.138 340.445C586.736 342.574 587.614 343.699 589.773 343.818C595.803 344.175 599.317 341.51 600.314 335.822C601.699 327.827 592.788 328.207 590.488 323.182C587.674 317.04 579.522 318.961 578.361 325.058C577.914 327.38 576.492 329.033 574.095 330.016C573.216 330.388 572.599 331.013 572.241 331.892C569.718 338.346 574.765 343.416 581.175 341.026C581.994 340.728 582.425 340.14 582.47 339.262L582.626 336.894C582.671 336.15 583.021 335.584 583.676 335.197C584.227 334.869 584.8 334.81 585.396 335.018C586.229 335.286 586.758 335.837 586.981 336.671ZM457.348 330.012C457.347 329.592 457.179 329.189 456.881 328.892C456.583 328.595 456.18 328.429 455.759 328.429L454.866 328.431C454.658 328.431 454.452 328.473 454.259 328.553C454.067 328.633 453.893 328.75 453.746 328.897C453.599 329.045 453.482 329.22 453.403 329.412C453.323 329.605 453.283 329.811 453.283 330.019L453.305 342.481C453.306 342.902 453.473 343.305 453.771 343.602C454.069 343.898 454.473 344.065 454.893 344.064L455.787 344.062C455.995 344.062 456.201 344.021 456.393 343.941C456.585 343.861 456.76 343.744 456.907 343.596C457.054 343.449 457.171 343.274 457.25 343.081C457.329 342.889 457.37 342.682 457.37 342.474L457.348 330.012ZM444.242 336.75C444.242 336.562 444.206 336.376 444.135 336.203C444.064 336.029 443.959 335.871 443.827 335.738C443.694 335.605 443.537 335.499 443.364 335.426C443.191 335.354 443.005 335.316 442.817 335.316L438.931 335.302C438.744 335.301 438.558 335.338 438.384 335.409C438.21 335.48 438.052 335.585 437.919 335.717C437.786 335.849 437.68 336.007 437.608 336.18C437.535 336.353 437.498 336.539 437.497 336.726L437.422 358.211C437.421 358.399 437.458 358.585 437.529 358.758C437.6 358.932 437.705 359.09 437.837 359.223C437.97 359.356 438.127 359.462 438.3 359.534C438.473 359.607 438.659 359.644 438.847 359.645L442.733 359.659C442.92 359.659 443.106 359.623 443.28 359.552C443.454 359.481 443.611 359.376 443.745 359.244C443.878 359.111 443.984 358.954 444.056 358.781C444.129 358.608 444.166 358.422 444.167 358.234L444.242 336.75ZM457.402 347.594C457.405 347.413 457.371 347.232 457.304 347.063C457.236 346.894 457.136 346.741 457.009 346.61C456.882 346.48 456.73 346.376 456.563 346.305C456.396 346.233 456.217 346.195 456.035 346.193L454.829 346.178C454.462 346.174 454.108 346.315 453.845 346.572C453.582 346.828 453.432 347.179 453.428 347.546L453.295 358.399C453.293 358.581 453.326 358.761 453.394 358.93C453.461 359.099 453.561 359.253 453.688 359.383C453.815 359.513 453.967 359.617 454.134 359.689C454.301 359.76 454.481 359.798 454.663 359.801L455.868 359.815C456.236 359.82 456.59 359.678 456.852 359.422C457.115 359.165 457.265 358.815 457.27 358.448L457.402 347.594ZM582.582 347.726C582.656 347.369 582.641 347.026 582.537 346.699C582.358 346.103 581.949 345.768 581.309 345.694C580.951 345.649 580.594 345.634 580.237 345.649C579.031 345.664 578.673 346.215 579.165 347.302C579.76 348.627 580.646 349.781 581.822 350.763C581.892 350.823 581.975 350.865 582.064 350.885C582.153 350.905 582.246 350.903 582.334 350.878C582.423 350.854 582.504 350.809 582.57 350.746C582.636 350.683 582.687 350.604 582.716 350.518C582.894 349.997 582.887 349.475 582.693 348.954C582.544 348.552 582.507 348.143 582.582 347.726ZM586.736 349.691C586.681 349.838 586.663 349.995 586.683 350.15C586.703 350.305 586.761 350.453 586.851 350.581C586.942 350.708 587.062 350.812 587.201 350.883C587.34 350.954 587.495 350.989 587.651 350.987C588.634 350.957 589.319 350.391 589.706 349.289C589.751 349.157 589.764 349.015 589.743 348.877C589.723 348.738 589.669 348.606 589.586 348.49C589.504 348.375 589.395 348.28 589.268 348.214C589.141 348.147 589.001 348.11 588.857 348.106C587.86 348.076 587.152 348.604 586.736 349.691Z" fill="white"/>
<path d="M547.854 193.575C547.854 193.692 547.831 193.809 547.787 193.917C547.742 194.026 547.676 194.124 547.593 194.207C547.511 194.29 547.412 194.356 547.304 194.401C547.196 194.447 547.079 194.47 546.962 194.47L515.874 194.524C515.757 194.524 515.641 194.501 515.532 194.457C515.424 194.412 515.325 194.346 515.242 194.264C515.159 194.181 515.093 194.082 515.048 193.974C515.003 193.866 514.98 193.75 514.979 193.632L514.978 192.962C514.978 192.845 515.001 192.729 515.045 192.62C515.09 192.512 515.156 192.413 515.239 192.33C515.322 192.247 515.42 192.181 515.528 192.136C515.637 192.091 515.753 192.068 515.87 192.067L546.958 192.013C547.075 192.013 547.191 192.036 547.3 192.081C547.408 192.125 547.507 192.191 547.59 192.274C547.673 192.357 547.739 192.455 547.784 192.563C547.829 192.672 547.853 192.788 547.853 192.905L547.854 193.575Z" fill="white"/>
<path d="M316.435 311.814C315.348 311.754 314.745 312.164 314.626 313.042C314.537 313.757 314.15 314.003 313.465 313.779C312.587 313.511 312.08 312.417 311.946 310.496L310.517 285.327C310.443 284.195 310.16 284.136 309.668 285.148L306.43 291.803C305.343 291.61 304.576 291.2 304.13 290.575L309.244 280.525C310.42 278.202 310.465 275.865 309.378 273.512L299.417 251.871C299.37 251.772 299.296 251.688 299.203 251.629C299.11 251.57 299.002 251.539 298.892 251.539C298.782 251.539 298.675 251.57 298.582 251.629C298.489 251.688 298.415 251.772 298.368 251.871L289.814 270.654C289.129 270.475 288.705 269.433 288.541 267.527L296.983 248.633C297.281 247.963 297.266 247.293 296.938 246.623L288.519 229.828C288.474 229.084 288.28 228.325 287.938 227.55C287.715 226.985 287.901 226.672 288.496 226.612C288.735 226.597 289.003 226.62 289.3 226.679L297.519 242.558C298.397 244.241 299.276 244.241 300.154 242.558L309.356 224.87C309.879 223.873 310.148 222.761 310.14 221.632C310.133 220.502 309.848 219.391 309.311 218.394L299.574 200.304C299.498 200.164 299.385 200.049 299.248 199.969C299.111 199.889 298.955 199.848 298.796 199.85C298.638 199.852 298.483 199.898 298.348 199.982C298.214 200.066 298.105 200.185 298.033 200.326L290.037 215.58C289.308 215.327 288.809 214.604 288.541 213.413L296.067 199.991C296.574 199.098 296.32 198.658 295.308 198.673L287.089 198.74C286.256 198.74 285.854 199.157 285.883 199.991L286.33 211.225C285.734 215.215 284.67 216.942 283.136 216.406L281.372 196.619C281.347 196.332 281.382 196.044 281.474 195.772C281.566 195.5 281.714 195.25 281.908 195.04C282.101 194.829 282.337 194.662 282.598 194.549C282.86 194.437 283.142 194.381 283.427 194.385L314.827 194.43C315.157 194.431 315.482 194.505 315.78 194.645C316.078 194.786 316.342 194.99 316.553 195.243C316.764 195.496 316.916 195.793 317 196.112C317.084 196.43 317.097 196.763 317.038 197.088C314.597 210.666 314.209 224.051 315.877 237.243C317.865 253.055 313.912 267.884 315.274 283.607C316.108 293.076 316.495 302.479 316.435 311.814ZM312.147 199.634C312.157 199.52 312.142 199.405 312.105 199.297C312.067 199.189 312.008 199.09 311.93 199.006C311.853 198.922 311.758 198.855 311.653 198.809C311.549 198.763 311.435 198.74 311.321 198.74L302.812 198.718C302.667 198.715 302.523 198.751 302.396 198.821C302.269 198.892 302.163 198.995 302.088 199.119C302.014 199.244 301.973 199.386 301.971 199.531C301.968 199.676 302.004 199.819 302.075 199.946L309.423 213.391C309.505 213.554 309.639 213.685 309.804 213.764C309.969 213.843 310.155 213.865 310.334 213.827C310.512 213.789 310.673 213.692 310.791 213.553C310.909 213.413 310.978 213.239 310.986 213.056L312.147 199.634ZM309.49 229.114L300.958 247.047C300.527 247.97 300.527 248.886 300.958 249.794L309.579 268.085C310.1 269.202 310.45 269.15 310.629 267.929C312.49 255.08 312.527 242.208 310.74 229.315C310.547 227.856 310.13 227.789 309.49 229.114Z" fill="white"/>
<path d="M520.942 203.341L515.872 203.698C515.615 203.717 515.361 203.634 515.164 203.467C514.968 203.299 514.845 203.062 514.822 202.805L514.755 202.202C514.666 201.368 515.046 200.951 515.894 200.951L546.96 200.929C547.571 200.929 547.846 201.234 547.786 201.845L547.697 202.738C547.623 203.408 547.25 203.721 546.58 203.676L541.578 203.319C540.595 203.259 540.111 203.721 540.126 204.703C540.141 205.358 540.037 205.969 539.813 206.535C539.531 207.249 539.002 207.607 538.228 207.607L524.269 207.629C523.893 207.629 523.527 207.51 523.222 207.29C522.917 207.069 522.69 206.758 522.572 206.401C522.408 205.939 522.364 205.47 522.438 204.994C522.632 203.817 522.133 203.267 520.942 203.341Z" fill="white"/>
<path d="M547.742 211.359C547.742 211.679 547.615 211.985 547.388 212.211C547.162 212.438 546.856 212.565 546.536 212.565H515.716C515.396 212.565 515.089 212.438 514.863 212.211C514.637 211.985 514.51 211.679 514.51 211.359V211.091C514.51 210.771 514.637 210.464 514.863 210.238C515.089 210.012 515.396 209.885 515.716 209.885H546.536C546.856 209.885 547.162 210.012 547.388 210.238C547.615 210.464 547.742 210.771 547.742 211.091V211.359Z" fill="white"/>
<path d="M547.853 220.292C547.853 220.559 547.747 220.814 547.559 221.003C547.371 221.191 547.115 221.297 546.848 221.297H515.671C515.405 221.297 515.149 221.191 514.96 221.003C514.772 220.814 514.666 220.559 514.666 220.292V219.756C514.666 219.489 514.772 219.234 514.96 219.045C515.149 218.857 515.405 218.751 515.671 218.751H546.848C547.115 218.751 547.371 218.857 547.559 219.045C547.747 219.234 547.853 219.489 547.853 219.756V220.292Z" fill="white"/>
<path d="M548.032 229.091C548.032 229.411 547.905 229.718 547.679 229.944C547.453 230.17 547.146 230.297 546.826 230.297H515.961C515.641 230.297 515.335 230.17 515.109 229.944C514.882 229.718 514.755 229.411 514.755 229.091V228.957C514.755 228.637 514.882 228.331 515.109 228.105C515.335 227.878 515.641 227.751 515.961 227.751H546.826C547.146 227.751 547.453 227.878 547.679 228.105C547.905 228.331 548.032 228.637 548.032 228.957V229.091Z" fill="white"/>
<path d="M547.92 238.069C547.92 238.336 547.815 238.591 547.626 238.78C547.438 238.968 547.182 239.074 546.915 239.074H515.693C515.427 239.074 515.171 238.968 514.983 238.78C514.794 238.591 514.688 238.336 514.688 238.069V237.667C514.688 237.401 514.794 237.145 514.983 236.957C515.171 236.768 515.427 236.662 515.693 236.662H546.915C547.182 236.662 547.438 236.768 547.626 236.957C547.815 237.145 547.92 237.401 547.92 237.667V238.069Z" fill="white"/>
<path d="M599.577 368.608C598.669 368.176 597.597 368.087 596.361 368.34C594.887 368.637 593.897 368.154 593.391 366.888C593.259 366.556 593.031 366.271 592.737 366.068C592.443 365.866 592.096 365.755 591.738 365.749L586.356 365.637C585.984 365.622 585.798 365.436 585.798 365.079V364.253C585.796 363.967 585.903 363.69 586.097 363.475C586.29 363.261 586.558 363.124 586.847 363.091C589.155 362.853 590.838 361.699 591.895 359.63L607.171 359.585C607.52 359.585 607.855 359.444 608.102 359.193C608.35 358.941 608.488 358.6 608.488 358.245V241.397C608.488 239.804 609.285 239.007 610.878 239.007L651.569 239.03C652.79 239.03 653.401 239.64 653.401 240.861L653.378 328.609C653.378 329.696 653.922 330.276 655.009 330.351L656.081 330.44C656.596 330.474 657.079 330.703 657.432 331.081C657.785 331.458 657.98 331.956 657.979 332.472L657.934 358.647C657.931 358.763 657.952 358.879 657.996 358.987C658.039 359.095 658.105 359.194 658.188 359.277C658.271 359.36 658.371 359.427 658.481 359.472C658.59 359.517 658.708 359.54 658.828 359.54H678.905C679.229 359.54 679.547 359.457 679.829 359.3C680.112 359.142 680.35 358.915 680.52 358.64C680.69 358.365 680.786 358.051 680.801 357.727C680.816 357.404 680.747 357.083 680.603 356.793C677.804 351.121 674.334 346.952 670.195 344.287C663.384 339.909 663.719 330.797 669.726 325.951C672.808 323.472 672.987 319.698 676.136 317.308C681.429 313.266 688.196 314.382 692.305 319.541C695.477 323.539 700.301 324.544 702.244 329.614C705.058 336.827 702.4 344.421 695.164 347.346C691.233 348.939 688.032 352.141 685.561 356.95C685.418 357.227 685.35 357.537 685.362 357.848C685.375 358.16 685.467 358.463 685.632 358.728C685.796 358.993 686.025 359.211 686.299 359.361C686.572 359.512 686.879 359.589 687.191 359.585L792.832 359.473C793.282 359.473 793.728 359.569 794.14 359.753C794.551 359.938 794.92 360.208 795.222 360.545C796.368 361.856 796.845 363.151 796.651 364.431C796.249 367.186 794.656 368.563 791.872 368.563L599.577 368.608ZM642.591 259.554L614.25 259.465C613.268 259.45 612.836 259.934 612.955 260.916L613.089 262.033C613.208 262.971 613.737 263.44 614.675 263.44H643.194C643.416 263.44 643.628 263.529 643.787 263.687C643.945 263.846 644.037 264.062 644.043 264.289V264.869C644.043 265.047 644.008 265.223 643.941 265.387C643.873 265.551 643.774 265.7 643.649 265.825C643.524 265.95 643.377 266.048 643.214 266.114C643.052 266.18 642.878 266.212 642.703 266.209L614.228 266.142C613.201 266.142 612.776 266.649 612.955 267.661L613.178 268.822C613.342 269.701 613.871 270.14 614.764 270.14L638.482 270.118C639.018 270.118 639.271 270.386 639.241 270.922L639.197 271.748C639.167 272.522 638.757 272.909 637.968 272.909L614.63 272.731C613.975 272.716 613.632 273.043 613.603 273.713L613.558 274.383C613.555 274.482 613.572 274.58 613.608 274.672C613.643 274.764 613.697 274.848 613.766 274.919C613.835 274.99 613.917 275.046 614.008 275.085C614.099 275.123 614.196 275.143 614.295 275.143L642.524 274.83C643.656 274.815 644.177 274.242 644.088 273.11C643.879 270.743 644.892 269.738 647.125 270.095C648.167 270.259 648.688 269.812 648.688 268.755L648.778 244.434C648.778 244.195 648.684 243.966 648.517 243.795C648.351 243.624 648.123 243.524 647.884 243.519H614.451C614.247 243.518 614.045 243.56 613.857 243.64C613.67 243.721 613.501 243.84 613.36 243.988C613.22 244.137 613.112 244.312 613.042 244.504C612.973 244.696 612.943 244.9 612.955 245.104L613.178 248.655C613.223 249.623 613.729 250.107 614.697 250.107H643.127C643.305 250.107 643.475 250.178 643.601 250.303C643.727 250.429 643.797 250.599 643.797 250.777V251.514C643.783 252.303 643.381 252.698 642.591 252.698L614.563 252.653C613.342 252.638 612.829 253.234 613.022 254.44L613.178 255.4C613.232 255.778 613.422 256.123 613.713 256.373C614.004 256.623 614.377 256.762 614.764 256.762L642.949 256.673C643.068 256.673 643.186 256.697 643.296 256.743C643.406 256.789 643.505 256.857 643.588 256.943C643.672 257.028 643.737 257.129 643.781 257.24C643.824 257.351 643.845 257.469 643.842 257.589L643.797 258.415C643.768 259.189 643.366 259.569 642.591 259.554ZM645.249 277.086C644.266 277.443 643.247 277.51 642.189 277.287C641.237 277.078 640.581 277.428 640.224 278.336C640.06 278.738 640.038 279.155 640.157 279.587C640.209 279.784 640.218 279.989 640.185 280.19C640.151 280.391 640.075 280.583 639.961 280.754C639.847 280.924 639.698 281.07 639.525 281.18C639.351 281.291 639.155 281.364 638.951 281.396L634.708 282.066C633.904 282.185 633.487 282.647 633.457 283.451L633.412 284.299C633.353 285.431 632.757 286.034 631.626 286.108L628.142 286.354C627.129 286.414 626.63 286.95 626.645 287.962C626.66 288.647 626.467 289.235 626.065 289.726C625.35 290.605 624.434 290.94 623.318 290.731C621.084 290.285 619.923 291.156 619.834 293.344C619.789 294.446 619.216 295.057 618.114 295.176C616.968 295.295 615.866 295.22 614.809 294.952C613.737 294.684 613.201 295.094 613.201 296.181L613.178 335.688C613.178 336.079 613.331 336.454 613.604 336.731C613.876 337.007 614.245 337.162 614.63 337.162L638.169 337.095C638.455 337.096 638.737 337.027 638.99 336.894C639.244 336.762 639.461 336.57 639.623 336.335C639.786 336.1 639.889 335.828 639.924 335.545C639.958 335.261 639.923 334.973 639.822 334.706C639.375 333.544 639.42 332.472 639.956 331.49C640.403 330.656 641.117 330.269 642.1 330.328C643.961 330.447 645.815 330.425 647.661 330.261C647.953 330.239 648.226 330.107 648.425 329.891C648.624 329.676 648.734 329.393 648.733 329.1L648.644 274.026C648.644 272.88 648.182 272.641 647.259 273.311C646.678 273.728 646.433 274.301 646.522 275.031C646.641 276.043 646.217 276.728 645.249 277.086ZM626.891 277.756C624.97 279.498 623.154 279.542 621.442 277.89C620.891 277.339 620.318 277.316 619.722 277.823C617.935 279.356 616.275 279.356 614.742 277.823C614.652 277.732 614.541 277.666 614.419 277.629C614.297 277.593 614.168 277.588 614.043 277.614C613.918 277.641 613.803 277.699 613.706 277.782C613.61 277.865 613.536 277.971 613.491 278.091C613.342 278.478 613.372 278.835 613.58 279.163C614.087 280.026 614.838 280.436 615.836 280.391L627.807 279.877C629.325 279.818 629.549 279.252 628.477 278.18L628.075 277.778C627.688 277.391 627.293 277.383 626.891 277.756ZM637.526 278.292C637.512 278.158 637.417 278.034 637.246 277.927C637.076 277.82 636.833 277.732 636.532 277.668C636.231 277.604 635.878 277.566 635.492 277.555C635.107 277.544 634.697 277.561 634.286 277.605C633.455 277.694 632.671 277.887 632.104 278.141C631.537 278.395 631.235 278.69 631.264 278.961C631.278 279.095 631.373 279.22 631.544 279.327C631.715 279.434 631.957 279.522 632.258 279.586C632.559 279.649 632.912 279.688 633.298 279.698C633.683 279.709 634.093 279.692 634.504 279.648C635.335 279.559 636.12 279.367 636.686 279.112C637.253 278.858 637.555 278.563 637.526 278.292ZM621.129 285.93C621.114 286.168 620.988 286.287 620.749 286.287L614.518 286.354C613.625 286.354 613.119 286.801 613 287.694C612.821 288.96 612.903 290.218 613.245 291.468C613.484 292.317 614.035 292.764 614.898 292.808C615.315 292.838 615.71 292.749 616.082 292.54C616.826 292.153 617.251 291.55 617.355 290.731C617.623 288.647 618.844 287.977 621.017 288.721C621.294 288.82 621.59 288.857 621.882 288.829C622.175 288.801 622.458 288.71 622.711 288.561C622.965 288.411 623.183 288.209 623.349 287.966C623.515 287.724 623.627 287.448 623.675 287.158C624.166 284.076 626.072 283.116 629.392 284.277C629.809 284.426 630.04 284.284 630.085 283.853L630.152 283.205C630.211 282.818 630.047 282.595 629.66 282.535C624.092 281.776 618.799 281.813 613.781 282.647C613.603 282.676 613.528 282.773 613.558 282.937L613.625 283.585C613.67 283.957 613.878 284.143 614.25 284.143L620.347 284.054C620.988 284.054 621.278 284.366 621.218 284.992L621.129 285.93ZM685.36 336.582L685.494 341.45C685.507 341.949 685.691 342.429 686.017 342.807C686.343 343.186 686.789 343.44 687.28 343.527C697.978 345.403 703.182 332.115 693.355 327.358C691.107 326.256 689.38 324.618 688.174 322.445C685.382 317.442 678.034 319.139 676.962 324.499C676.501 326.777 675.198 328.497 673.054 329.658C672.29 330.068 671.62 330.633 671.087 331.316C670.554 332 670.17 332.786 669.96 333.626C669.749 334.465 669.717 335.339 669.866 336.19C670.014 337.042 670.339 337.852 670.821 338.569C672.652 341.309 675.354 342.195 678.928 341.227C679.687 341.033 680.193 340.564 680.446 339.82C680.759 338.942 680.871 338.041 680.781 337.118C680.75 336.844 680.777 336.566 680.862 336.303C680.946 336.04 681.086 335.797 681.271 335.59C681.456 335.384 681.684 335.218 681.938 335.104C682.192 334.991 682.468 334.931 682.747 334.929L683.64 334.907C684.757 334.907 685.33 335.465 685.36 336.582ZM655.345 334.337C655.345 334.167 655.311 333.998 655.246 333.841C655.18 333.684 655.085 333.542 654.964 333.422C654.844 333.302 654.701 333.206 654.543 333.142C654.386 333.077 654.218 333.044 654.048 333.044L643.551 333.062C643.381 333.062 643.213 333.096 643.056 333.162C642.898 333.227 642.756 333.323 642.636 333.443C642.516 333.564 642.421 333.707 642.356 333.864C642.291 334.021 642.258 334.19 642.258 334.36L642.299 358.256C642.3 358.427 642.334 358.595 642.399 358.752C642.464 358.909 642.56 359.052 642.681 359.172C642.801 359.292 642.944 359.387 643.101 359.452C643.259 359.517 643.427 359.55 643.597 359.55L654.094 359.531C654.264 359.531 654.432 359.497 654.589 359.432C654.746 359.366 654.889 359.271 655.009 359.15C655.129 359.03 655.224 358.887 655.289 358.73C655.354 358.572 655.387 358.404 655.387 358.234L655.345 334.337ZM639.793 340.848C639.793 340.722 639.768 340.597 639.72 340.481C639.672 340.364 639.602 340.258 639.513 340.169C639.424 340.079 639.318 340.008 639.202 339.96C639.085 339.911 638.96 339.886 638.834 339.886L614.178 339.843C614.052 339.843 613.927 339.868 613.811 339.916C613.694 339.964 613.588 340.034 613.499 340.123C613.409 340.212 613.338 340.318 613.29 340.434C613.241 340.551 613.216 340.676 613.216 340.802L613.185 358.49C613.185 358.616 613.21 358.741 613.258 358.857C613.306 358.974 613.376 359.08 613.465 359.169C613.554 359.259 613.66 359.33 613.777 359.378C613.893 359.427 614.018 359.452 614.144 359.452L638.8 359.495C638.926 359.495 639.051 359.47 639.168 359.422C639.284 359.374 639.39 359.304 639.479 359.215C639.569 359.126 639.64 359.02 639.688 358.904C639.737 358.787 639.762 358.662 639.762 358.536L639.793 340.848ZM680.96 349.959C681.02 348.932 680.915 347.92 680.647 346.922C680.394 345.969 679.776 345.567 678.794 345.716C678.287 345.805 677.915 346.14 677.677 346.721C677.607 346.896 677.575 347.083 677.583 347.268C677.59 347.453 677.638 347.632 677.722 347.793C678.273 348.865 678.965 349.751 679.799 350.451C680.499 351.031 680.886 350.868 680.96 349.959ZM686.476 348.106C685.583 348.523 685.151 349.193 685.181 350.116C685.211 351.188 685.695 351.463 686.633 350.942C687.481 350.466 687.861 349.766 687.772 348.843C687.757 348.698 687.707 348.558 687.628 348.436C687.548 348.314 687.44 348.213 687.314 348.141C687.187 348.069 687.045 348.028 686.899 348.022C686.754 348.016 686.609 348.044 686.476 348.106Z" fill="white"/>
<path d="M547.898 247.063C547.898 247.213 547.869 247.361 547.812 247.499C547.755 247.637 547.672 247.763 547.566 247.869C547.46 247.975 547.335 248.059 547.197 248.117C547.059 248.174 546.911 248.204 546.761 248.204L515.807 248.258C515.505 248.259 515.215 248.139 515.001 247.926C514.787 247.713 514.667 247.423 514.666 247.121V246.764C514.666 246.614 514.695 246.466 514.752 246.328C514.809 246.189 514.892 246.064 514.998 245.958C515.104 245.852 515.229 245.768 515.367 245.71C515.505 245.653 515.653 245.623 515.803 245.623L546.757 245.569C547.059 245.568 547.349 245.688 547.563 245.901C547.777 246.114 547.897 246.404 547.898 246.706V247.063Z" fill="white"/>
<path d="M520.986 256.963L515.984 257.231C515.284 257.261 514.867 256.934 514.733 256.249L514.599 255.623C514.576 255.49 514.583 255.353 514.618 255.222C514.654 255.091 514.717 254.969 514.804 254.865C514.891 254.761 515 254.677 515.123 254.619C515.245 254.561 515.379 254.53 515.515 254.529H546.647C547.481 254.529 547.861 254.946 547.786 255.78L547.719 256.472C547.675 257.008 547.384 257.261 546.848 257.231L541.533 256.963C540.64 256.919 540.178 257.343 540.148 258.236C540.133 258.981 539.947 259.658 539.59 260.269C539.413 260.561 539.162 260.803 538.861 260.971C538.56 261.139 538.218 261.228 537.87 261.229C533.24 261.214 528.944 261.207 524.984 261.207C523.123 261.192 522.229 260.209 522.304 258.259C522.334 257.336 521.894 256.904 520.986 256.963Z" fill="white"/>
<path d="M548.01 264.885C548.01 265.052 547.977 265.218 547.914 265.372C547.85 265.527 547.756 265.667 547.638 265.786C547.52 265.904 547.38 265.998 547.226 266.062C547.071 266.126 546.906 266.16 546.739 266.16L515.874 266.214C515.707 266.214 515.542 266.182 515.387 266.118C515.233 266.054 515.092 265.961 514.974 265.843C514.855 265.725 514.761 265.585 514.697 265.43C514.633 265.276 514.599 265.11 514.599 264.943V264.809C514.599 264.642 514.631 264.477 514.695 264.322C514.759 264.167 514.852 264.027 514.97 263.908C515.088 263.79 515.228 263.696 515.383 263.632C515.537 263.568 515.703 263.534 515.87 263.534L546.734 263.48C546.901 263.48 547.067 263.512 547.221 263.576C547.376 263.64 547.517 263.733 547.635 263.851C547.753 263.969 547.847 264.109 547.912 264.264C547.976 264.418 548.009 264.584 548.009 264.751L548.01 264.885Z" fill="white"/>
<path d="M547.831 273.885C547.832 274.014 547.806 274.142 547.757 274.261C547.708 274.381 547.636 274.489 547.545 274.581C547.454 274.672 547.346 274.745 547.226 274.794C547.107 274.844 546.98 274.87 546.851 274.87L515.673 274.924C515.544 274.925 515.416 274.899 515.297 274.85C515.178 274.801 515.069 274.729 514.978 274.638C514.886 274.547 514.814 274.438 514.764 274.319C514.715 274.2 514.689 274.072 514.689 273.943L514.688 273.363C514.688 273.234 514.713 273.106 514.762 272.987C514.811 272.867 514.883 272.759 514.974 272.667C515.065 272.576 515.174 272.503 515.293 272.454C515.412 272.404 515.54 272.379 515.669 272.378L546.846 272.324C546.975 272.324 547.103 272.349 547.222 272.398C547.342 272.447 547.45 272.519 547.541 272.61C547.633 272.701 547.705 272.81 547.755 272.929C547.805 273.048 547.83 273.176 547.831 273.305V273.885Z" fill="white"/>
<path d="M547.653 282.953C547.653 283.067 547.631 283.181 547.587 283.286C547.544 283.392 547.48 283.488 547.399 283.569C547.318 283.65 547.222 283.715 547.117 283.759C547.011 283.803 546.898 283.825 546.784 283.825L515.606 283.88C515.492 283.88 515.379 283.858 515.273 283.814C515.167 283.771 515.071 283.707 514.99 283.626C514.909 283.545 514.844 283.449 514.801 283.344C514.757 283.238 514.734 283.125 514.734 283.011L514.732 282.251C514.732 282.137 514.754 282.023 514.798 281.918C514.842 281.812 514.906 281.716 514.986 281.635C515.067 281.554 515.163 281.489 515.269 281.446C515.374 281.402 515.487 281.379 515.602 281.379L546.779 281.324C546.893 281.324 547.007 281.346 547.112 281.39C547.218 281.433 547.314 281.497 547.395 281.578C547.476 281.659 547.541 281.755 547.585 281.86C547.629 281.966 547.651 282.079 547.652 282.194L547.653 282.953Z" fill="white"/>
<path d="M459.634 321.626C459.633 321.934 459.572 322.239 459.454 322.523C459.335 322.808 459.162 323.066 458.944 323.283C458.726 323.5 458.467 323.673 458.182 323.79C457.898 323.907 457.592 323.967 457.285 323.967L453.041 323.96C452.419 323.958 451.823 323.71 451.384 323.27C450.945 322.829 450.699 322.232 450.7 321.611L450.751 292.622C450.751 292.314 450.813 292.009 450.931 291.725C451.049 291.441 451.223 291.182 451.441 290.965C451.659 290.748 451.918 290.575 452.202 290.458C452.487 290.341 452.792 290.281 453.1 290.281L457.343 290.288C457.965 290.29 458.561 290.538 459 290.978C459.439 291.419 459.685 292.016 459.684 292.637L459.634 321.626ZM457.358 294.576C457.359 294.321 457.309 294.068 457.212 293.832C457.115 293.597 456.972 293.382 456.792 293.201C456.612 293.021 456.398 292.877 456.162 292.779C455.927 292.681 455.674 292.63 455.419 292.63H455.285C454.77 292.629 454.275 292.833 453.91 293.196C453.545 293.56 453.339 294.054 453.338 294.569L453.294 319.984C453.294 320.24 453.344 320.492 453.441 320.728C453.538 320.964 453.681 321.179 453.861 321.359C454.041 321.54 454.255 321.684 454.491 321.782C454.726 321.88 454.979 321.93 455.234 321.931H455.368C455.883 321.932 456.378 321.728 456.743 321.364C457.108 321.001 457.313 320.507 457.314 319.992L457.358 294.576Z" fill="white"/>
<path d="M547.765 291.909C547.765 292.02 547.743 292.13 547.701 292.233C547.658 292.336 547.596 292.43 547.517 292.509C547.439 292.588 547.345 292.651 547.242 292.694C547.139 292.736 547.029 292.759 546.918 292.759L515.651 292.813C515.539 292.813 515.429 292.792 515.326 292.749C515.223 292.707 515.129 292.645 515.05 292.566C514.971 292.487 514.909 292.394 514.866 292.291C514.823 292.188 514.801 292.078 514.801 291.966L514.799 291.118C514.799 291.006 514.821 290.896 514.863 290.793C514.906 290.69 514.968 290.596 515.047 290.517C515.125 290.438 515.219 290.375 515.322 290.332C515.425 290.29 515.535 290.267 515.646 290.267L546.913 290.213C547.025 290.213 547.135 290.234 547.238 290.277C547.341 290.319 547.435 290.382 547.514 290.46C547.593 290.539 547.655 290.632 547.698 290.735C547.741 290.838 547.763 290.948 547.763 291.06L547.765 291.909Z" fill="white"/>
<path d="M547.653 300.864C547.653 301.078 547.569 301.282 547.419 301.433C547.268 301.584 547.064 301.669 546.851 301.67L515.673 301.724C515.568 301.724 515.463 301.704 515.365 301.664C515.268 301.623 515.179 301.564 515.104 301.49C515.03 301.415 514.97 301.327 514.93 301.229C514.889 301.132 514.868 301.027 514.868 300.922L514.866 300.028C514.866 299.815 514.95 299.611 515.101 299.459C515.251 299.308 515.456 299.223 515.669 299.223L546.846 299.168C546.952 299.168 547.056 299.189 547.154 299.229C547.252 299.269 547.34 299.328 547.415 299.403C547.49 299.478 547.549 299.566 547.59 299.664C547.63 299.761 547.651 299.866 547.651 299.971L547.653 300.864Z" fill="white"/>
<path d="M297.251 304.779C296.73 307.265 297.303 308.062 298.971 307.169L288.787 328.966C288.17 330.283 287.844 331.719 287.833 333.176C287.821 334.632 288.124 336.076 288.72 337.408L298.055 358.267C298.131 358.439 298.256 358.584 298.414 358.686C298.572 358.787 298.757 358.84 298.945 358.837C299.132 358.835 299.315 358.777 299.471 358.672C299.626 358.567 299.747 358.418 299.819 358.245L305.202 345.671C305.351 347.503 305.849 348.761 306.698 349.446L302.879 358.133C302.811 358.284 302.783 358.45 302.796 358.615C302.81 358.78 302.865 358.939 302.956 359.078C303.047 359.216 303.172 359.329 303.319 359.406C303.465 359.483 303.629 359.521 303.795 359.518L311.656 359.339C311.939 361.602 311.098 364.737 309.132 368.742L212.273 368.831C211.588 367.253 211.312 366.121 211.446 365.436C211.595 364.722 211.417 364.186 210.91 363.828C210.568 363.59 211.23 363.106 212.898 362.377C213.241 362.23 213.611 362.16 213.982 362.171C214.352 362.183 214.714 362.276 215.042 362.444C216.59 363.233 217.975 363.114 219.196 362.086C220.342 361.119 220.164 360.553 218.66 360.389L209.637 359.429L225.896 359.071C226.7 359.056 227.139 358.655 227.214 357.865L228.353 345.158C229.082 345.128 229.588 345.724 229.871 346.944C230.154 348.121 231.144 348.061 232.842 346.766L232.373 357.932C232.354 358.342 232.495 358.743 232.765 359.051C233.036 359.36 233.416 359.551 233.824 359.585C241.715 360.3 244.343 359.228 241.708 356.369L243.696 354.27C243.919 355.118 244.202 355.751 244.544 356.168C245.14 356.898 245.631 356.823 246.018 355.945L250.574 345.314C250.753 346.073 251.594 346.282 253.098 345.939L248.095 358.089C248.028 358.258 248.004 358.441 248.023 358.622C248.043 358.803 248.107 358.975 248.209 359.124C248.311 359.272 248.448 359.392 248.608 359.473C248.767 359.553 248.944 359.592 249.123 359.585L256.85 359.384C257.669 359.354 258.063 358.922 258.034 358.089L257.408 345.627C259.269 346.669 260.81 346.915 262.031 346.364L262.791 356.458C262.94 358.468 264.026 359.473 266.051 359.473L278.692 359.429C280.24 359.414 281.089 358.647 281.238 357.128C281.968 349.416 282.451 342.113 282.69 335.219C282.809 331.78 282.578 327.083 281.997 321.127C281.551 316.66 281.484 312.008 281.796 307.169L283.27 324.611C283.345 325.43 283.754 325.676 284.499 325.348C285.213 325.05 285.921 324.351 286.62 323.249C286.739 323.934 287.112 324.112 287.737 323.785C287.99 323.651 288.199 323.405 288.362 323.048C290.998 317.509 293.961 311.419 297.251 304.779ZM286.017 358.602C286.011 358.712 286.028 358.821 286.065 358.924C286.103 359.027 286.161 359.121 286.236 359.2C286.312 359.279 286.402 359.343 286.503 359.386C286.604 359.429 286.712 359.451 286.821 359.451L294.392 359.54C294.525 359.54 294.655 359.507 294.771 359.444C294.888 359.381 294.987 359.29 295.06 359.179C295.133 359.069 295.177 358.942 295.189 358.81C295.201 358.678 295.181 358.546 295.129 358.424L288.407 342.79C288.336 342.624 288.21 342.487 288.051 342.401C287.892 342.315 287.709 342.285 287.531 342.316C287.353 342.347 287.19 342.437 287.069 342.572C286.949 342.707 286.877 342.878 286.866 343.058L286.017 358.602Z" fill="white"/>
<path d="M520.718 310.541C519.274 310.764 517.733 310.906 516.095 310.965C515.902 310.972 515.709 310.931 515.534 310.846C515.359 310.76 515.207 310.632 515.09 310.474C514.763 309.998 514.681 309.521 514.845 309.045C515.068 308.449 515.492 308.151 516.118 308.151L546.692 308.084C546.829 308.084 546.964 308.112 547.09 308.167C547.215 308.222 547.328 308.302 547.42 308.403C547.513 308.504 547.583 308.623 547.627 308.753C547.671 308.883 547.687 309.02 547.675 309.156L547.63 309.893C547.57 310.638 547.168 310.98 546.424 310.921L541.667 310.541C540.818 310.482 540.327 310.876 540.193 311.725L539.97 313.132C539.791 314.219 539.151 314.762 538.049 314.762L524.448 314.784C523.644 314.784 523.078 314.42 522.751 313.69C522.512 313.184 522.416 312.67 522.46 312.149C522.55 310.898 521.969 310.362 520.718 310.541Z" fill="white"/>
<path d="M547.653 318.642C547.653 318.782 547.626 318.922 547.572 319.052C547.518 319.182 547.44 319.3 547.34 319.4C547.241 319.5 547.123 319.579 546.993 319.633C546.863 319.687 546.723 319.715 546.582 319.716L515.807 319.769C515.523 319.77 515.25 319.657 515.049 319.456C514.847 319.256 514.734 318.983 514.733 318.699L514.732 318.208C514.732 318.067 514.76 317.928 514.813 317.797C514.867 317.667 514.946 317.549 515.045 317.449C515.145 317.349 515.263 317.27 515.393 317.216C515.523 317.162 515.662 317.134 515.803 317.134L546.578 317.08C546.862 317.08 547.135 317.192 547.337 317.393C547.538 317.593 547.651 317.866 547.652 318.15L547.653 318.642Z" fill="white"/>
<path d="M547.675 327.559C547.675 327.802 547.578 328.035 547.406 328.206C547.235 328.378 547.002 328.475 546.759 328.475H515.76C515.64 328.475 515.521 328.451 515.41 328.405C515.299 328.359 515.198 328.292 515.113 328.206C515.028 328.121 514.96 328.021 514.914 327.909C514.868 327.798 514.845 327.679 514.845 327.559V326.889C514.845 326.769 514.868 326.65 514.914 326.539C514.96 326.428 515.028 326.327 515.113 326.242C515.198 326.157 515.299 326.089 515.41 326.043C515.521 325.997 515.64 325.973 515.76 325.973H546.759C547.002 325.973 547.235 326.07 547.406 326.242C547.578 326.413 547.675 326.646 547.675 326.889V327.559Z" fill="white"/>
<path d="M547.719 336.314C547.719 336.604 547.604 336.882 547.399 337.087C547.194 337.293 546.915 337.408 546.625 337.408H515.76C515.47 337.408 515.192 337.293 514.987 337.087C514.781 336.882 514.666 336.604 514.666 336.314V336.046C514.666 335.755 514.781 335.477 514.987 335.272C515.192 335.067 515.47 334.951 515.76 334.951H546.625C546.915 334.951 547.194 335.067 547.399 335.272C547.604 335.477 547.719 335.755 547.719 336.046V336.314Z" fill="white"/>
<path d="M439.47 339.507C440.497 338.837 441.375 338.882 442.105 339.641C442.252 339.793 442.362 339.977 442.427 340.178C442.492 340.379 442.51 340.592 442.48 340.801C442.449 341.01 442.372 341.21 442.253 341.384C442.134 341.559 441.976 341.704 441.792 341.808C441.063 342.225 440.363 342.292 439.693 342.009C439.457 341.906 439.253 341.743 439.103 341.534C438.952 341.326 438.861 341.081 438.838 340.824C438.815 340.568 438.862 340.311 438.973 340.079C439.084 339.847 439.256 339.65 439.47 339.507Z" fill="white"/>
<path d="M471.601 340.132C471.643 340.303 471.638 340.483 471.588 340.662C471.538 340.842 471.443 341.017 471.309 341.177C471.175 341.338 471.005 341.48 470.807 341.598C470.61 341.715 470.389 341.804 470.158 341.859C469.927 341.915 469.69 341.937 469.461 341.923C469.232 341.909 469.015 341.86 468.822 341.779C468.63 341.697 468.466 341.585 468.339 341.448C468.213 341.312 468.126 341.153 468.085 340.982C468.043 340.811 468.048 340.631 468.098 340.452C468.148 340.272 468.243 340.097 468.377 339.937C468.511 339.776 468.681 339.634 468.879 339.516C469.076 339.399 469.297 339.31 469.528 339.254C469.759 339.199 469.996 339.177 470.225 339.191C470.454 339.205 470.671 339.254 470.863 339.335C471.056 339.417 471.22 339.529 471.347 339.665C471.473 339.802 471.56 339.96 471.601 340.132Z" fill="white"/>
<path d="M545.754 345.177C545.754 345.318 545.727 345.457 545.673 345.587C545.62 345.718 545.541 345.836 545.441 345.936C545.342 346.035 545.224 346.114 545.094 346.169C544.964 346.223 544.825 346.251 544.684 346.251L517.929 346.298C517.788 346.298 517.648 346.271 517.518 346.217C517.388 346.163 517.27 346.084 517.17 345.985C517.07 345.886 516.991 345.768 516.937 345.638C516.883 345.508 516.855 345.368 516.855 345.228L516.854 345.004C516.854 344.863 516.882 344.724 516.935 344.594C516.989 344.464 517.068 344.345 517.167 344.246C517.267 344.146 517.385 344.067 517.515 344.013C517.645 343.959 517.784 343.931 517.925 343.93L544.68 343.884C544.821 343.883 544.96 343.911 545.09 343.964C545.22 344.018 545.339 344.097 545.439 344.196C545.538 344.296 545.617 344.414 545.672 344.544C545.726 344.674 545.754 344.813 545.754 344.954V345.177Z" fill="white"/>
<path d="M62.55 354.337C62.535 354.426 62.52 354.515 62.505 354.605C63.458 354.069 64.389 353.637 65.297 353.309C66.89 352.744 68.185 352.937 69.183 353.89C69.808 354.486 69.726 354.962 68.937 355.319C66.883 356.242 64.754 355.915 62.55 354.337Z" fill="white"/>
<path d="M83.27 354.283C83.29 354.626 82.966 354.975 82.369 355.252C81.773 355.53 80.953 355.714 80.089 355.764C79.662 355.788 79.237 355.779 78.838 355.737C78.439 355.695 78.075 355.62 77.766 355.518C77.456 355.415 77.208 355.286 77.036 355.139C76.863 354.991 76.769 354.828 76.759 354.658C76.74 354.315 77.064 353.967 77.66 353.689C78.257 353.411 79.077 353.227 79.94 353.178C80.368 353.153 80.793 353.162 81.192 353.204C81.59 353.246 81.955 353.321 82.264 353.424C82.573 353.526 82.821 353.655 82.994 353.803C83.166 353.95 83.26 354.113 83.27 354.283Z" fill="white"/>
<path d="M95.869 354.562C95.854 354.912 95.553 355.234 95.033 355.46C94.512 355.685 93.813 355.795 93.091 355.765C92.734 355.75 92.381 355.701 92.054 355.621C91.726 355.541 91.43 355.431 91.183 355.299C90.935 355.166 90.741 355.012 90.61 354.847C90.48 354.681 90.417 354.507 90.424 354.334C90.439 353.985 90.74 353.662 91.261 353.437C91.782 353.211 92.48 353.102 93.202 353.132C93.559 353.147 93.912 353.196 94.239 353.276C94.567 353.356 94.863 353.465 95.111 353.598C95.358 353.731 95.553 353.884 95.683 354.05C95.813 354.215 95.876 354.39 95.869 354.562Z" fill="white"/>
<path d="M721.907 362.857C720.929 346.047 720.216 327.447 719.926 308.012M719.926 308.012C719.889 305.554 719.859 303.083 719.836 300.6M719.926 308.012C727.934 306.134 748.89 303.506 768.652 308.012M766.969 362.857C767.8 348.131 768.463 329.17 768.652 308.012M768.652 308.012C768.674 305.57 768.689 303.098 768.698 300.6M727.64 164.822C733.769 162.549 748.982 159.367 760.797 164.822M727.64 164.822C725.134 181.295 723.319 199.036 722.068 217.295M727.64 164.822C729.128 155.032 730.861 145.691 732.863 136.954M760.797 164.822C763.222 181.386 764.981 199.192 766.216 217.295M760.797 164.822C759.364 155.034 757.699 145.68 755.772 136.954M722.068 217.295C728.924 214.825 747.351 211.366 766.216 217.295M722.068 217.295C721.893 219.855 721.729 222.425 721.575 225.003M732.863 136.954C735.782 124.221 739.273 112.773 743.419 103.099C743.815 102.176 745.095 102.16 745.505 103.077C749.717 112.485 752.934 124.102 755.772 136.954M732.863 136.954C736.206 135.077 745.468 132.448 755.772 136.954M766.216 217.295C766.39 219.859 766.555 222.429 766.709 225.003M721.575 225.003C720.083 250.068 719.609 275.9 719.836 300.6M721.575 225.003C728.43 222.829 747.053 219.785 766.709 225.003M766.709 225.003C768.253 250.769 768.781 276.865 768.698 300.6M719.836 300.6C728.399 298.723 750.159 296.094 768.698 300.6" stroke="white" stroke-width="4.15044"/>
</svg>
