<svg width="164" height="40" viewBox="0 0 164 40" xmlns="http://www.w3.org/2000/svg">
    <mask id="logo-design-mask">
        <g fill="white">
            <circle cx="74" cy="37" r="1" />
            <circle cx="108" cy="27" r="1" />
        </g>
        <g stroke="white" stroke-linecap="round" stroke-linejoin="round" stroke-width="2">
            <path d="M80 37a5 5 0 0 0 0-10h-3v10h3Zm15 0h-4c-1 0-2-1-2-2v-6c0-1 1-2 2-2h4m-4 5h3m10-2.5a2.5 2.5 0 1 0-2.5 2.5M99 34.5a2.5 2.5 0 1 0 2.5-2.5m6.5 5v-7" />
            <path d="M120.999 29c-.151-.18-.29-.361-.463-.535a5.001 5.001 0 1 0 .463 6.537V33H120m5 4V27l7 10V27" />
        </g>
    </mask>
    <mask id="logo-smile-mask">
        <path d="M31.7331 30C36.8448 30 41.4909 25.2412 40.9582 24.1898C40.423 23.1334 37.8672 26.8308 31.7331 26.8308C25.5991 26.8308 23.5544 23.1334 23.0432 24.1898C22.5321 25.2462 26.6214 30 31.7331 30Z" fill="white" />
    </mask>
    <mask id="logo-vector-mask">
        <g stroke-linecap="round" stroke-linejoin="round" stroke-width="2" stroke="white" fill="none">
            <path d="M24 12v0h0" stroke-dasharray="2 3">
                <animate attributeName="d" values="M24 12v0h0;M24 12v16h0;M24 12v16h16" dur="0.5s" begin="logoVectorReset.end" fill="freeze" />
                <set attributeName="d" to="M24 12v0h0" begin="logoVectorReset.begin" fill="freeze" />
            </path>
            <path d="M24 12s1 1 1 1" stroke-dasharray="2 3">
                <animate attributeName="d" values="M24 12s1 1 1 1;M24 12s8 8 16 16;M24 12s16 0 16 16" dur="3s" begin="logoVectorReset.end+0.5s" fill="freeze" />
                <set attributeName="d" to="M24 12s1 1 1 1" begin="logoVectorReset.begin" fill="freeze" />
                <set attributeName="opacity" to="0" begin="logoVectorReset.begin" fill="freeze" />
                <set attributeName="opacity" to="1" begin="logoVectorReset.end+0.5s" fill="freeze" />
            </path>
            <path d="M24 12l8 8">
                <animate attributeName="d" values="M24 12l8 8;M24 12l14 0" dur="1.5s" begin="logoVectorReset.end+2s" fill="freeze" />
                <set attributeName="d" to="M24 12l8 8" begin="logoVectorReset.begin" fill="freeze" />
                <set attributeName="opacity" to="0" begin="logoVectorReset.begin" fill="freeze" />
                <set attributeName="opacity" to="1" begin="logoVectorReset.end+2s" fill="freeze" />
            </path>
        </g>
        <circle cx="25" cy="13" r="2" fill="black" stroke="white" stroke-width="2" opacity="0">
            <animateMotion path="M0 0l15 15" dur="1.5s" begin="logoVectorReset.end+0.5s" fill="freeze" />
            <set attributeName="opacity" to="1" begin="logoVectorReset.end+0.5s" fill="freeze" />
            <set attributeName="opacity" to="0" begin="logoVectorReset.end+2s" fill="freeze" />
        </circle>
        <circle cx="32" cy="20" r="2" fill="black" stroke="white" stroke-width="2">
            <animateMotion path="M0 0l6-8" dur="1.5s" begin="logoVectorReset.end+2s" fill="freeze" />
            <set attributeName="opacity" to="0" begin="logoVectorReset.begin" fill="freeze" />
            <set attributeName="opacity" to="1" begin="logoVectorReset.end+2s" fill="freeze" />
        </circle>
    </mask>
    <mask id="logo-cloud-mask">
        <g fill="white">
            <circle data-part="left" cx="27" cy="21" r="6">
                <animate attributeName="cx" values="26;28;26" dur="3s" repeatCount="indefinite" />
            </circle>
            <circle data-part="right" cx="37" cy="21" r="6">
                <animate attributeName="cx" values="36;38;36" dur="3.5s" repeatCount="indefinite" />
            </circle>
            <circle data-part="top" cx="32" cy="16" r="6">
                <animate attributeName="cy" values="15;17;15" dur="3.5s" repeatCount="indefinite" />
            </circle>
            <ellipse data-part="bottom" cx="32.5" cy="20.5" rx="9.5" ry="6.5">
                <animate attributeName="ry" values="6;8;6;7;6" dur="3s" repeatCount="indefinite" />
            </ellipse>
            <g fill="black">
                <circle data-part="left" cx="27" cy="21" r="4">
                    <animate attributeName="cx" values="26;28;26" dur="3s" repeatCount="indefinite" />
                </circle>
                <circle data-part="right" cx="37" cy="21" r="4">
                    <animate attributeName="cx" values="36;38;36" dur="3.5s" repeatCount="indefinite" />
                </circle>
                <circle data-part="top" cx="32" cy="16" r="4">
                    <animate attributeName="cy" values="15;17;15" dur="3.5s" repeatCount="indefinite" />
                </circle>
                <ellipse data-part="bottom" cx="32.5" cy="20.5" rx="7.5" ry="4.5">
                    <animate attributeName="ry" values="4;6;4;5;4" dur="3s" repeatCount="indefinite" />
                </ellipse>
            </g>
            <animateTransform attributeName="transform" type="translate" from="-24" to="24" begin="logoCloudReset.begin" dur="8.2s" fill="freeze" />
        </g>
    </mask>
    <mask id="logo-code-mask">
        <path d="M40 -4l-4 12" stroke="white" stroke-linecap="round" stroke-width="2">
            <animateMotion path="M0 0l-12 36" dur="1.5s" begin="logoCodeReset.begin" fill="freeze" />
        </path>
    </mask>
    <g data-part="code" fill="none" stroke="#979797" stroke-width="2" stroke-linecap="round" stroke-linejoin="round" stroke-dasharray="22">
        <path data-part="left" d="M8 13l-7 7l7 7" stroke-dashoffset="22">
            <animateMotion path="M0 0h2z" dur="1.5s" repeatCount="indefinite" />
            <animate attributeName="stroke-dashoffset" values="22;0" dur="0.3s" begin="1.2s" fill="freeze" />
        </path>
        <path data-part="right" d="M56 13l7 7l-7 7" stroke-dashoffset="22">
            <animateMotion path="M0 0h-2z" dur="1.5s" repeatCount="indefinite" />
            <animate attributeName="stroke-dashoffset" values="22;0" dur="0.3s" begin="1.5s" fill="freeze" />
        </path>
    </g>
    <g data-part="icon" fill="none" stroke-linecap="round" stroke-linejoin="round">
        <circle cx="32" cy="20" r="15" stroke="#307594" stroke-width="2" stroke-dasharray="100" stroke-dashoffset="100" transform="rotate(-90 32 20)">
            <animate attributeName="stroke-dashoffset" values="100;0" id="logoCircle" begin="0s" dur="0.7s" fill="freeze" />
        </circle>

        <g data-part="smile" opacity="0">
            <g stroke="#307594" stroke-width="3" stroke-dasharray="5" stroke-dashoffset="5">
                <path d="M26.5 15.5v2">
                    <animate attributeName="stroke-dashoffset" values="5;0" dur="0.3s" begin="logoSmileReset.end" fill="freeze" />
                    <set attributeName="stroke-dashoffset" to="5" begin="logoSmileReset.begin" fill="freeze" />
                </path>
                <path d="M37.5 15.5v2">
                    <animate attributeName="stroke-dashoffset" values="5;0" dur="0.3s" begin="logoSmileReset.end+0.2s" fill="freeze" />
                    <set attributeName="stroke-dashoffset" to="5" begin="logoSmileReset.begin" fill="freeze" />
                </path>
            </g>
            <circle mask="url(#logo-smile-mask)" cx="32" cy="24" r="0" fill="#307594">
                <animate attributeName="r" values="0;19" dur="0.3s" begin="logoSmileReset.end+0.4s" fill="freeze" />
                <set attributeName="r" to="0" begin="logoSmileReset.begin" fill="freeze" />
            </circle>
            <animate id="logoSmileHide" attributeName="opacity" values="1;0" dur="0.3s" begin="logoSmileReset.begin+10s" fill="freeze" />
            <animate id="logoSmileReset" attributeName="opacity" values="0;1" dur="0.1s" calcMode="discrete" begin="logoCircle.end;logoCodeHide.end" fill="freeze" />
        </g>

        <g data-part="vector" opacity="0">
            <rect mask="url(#logo-vector-mask)" fill="#307594" x="16" y="4" width="32" height="32" />
            <animate id="logoVectorHide" attributeName="opacity" values="1;0" dur="0.3s" begin="logoVectorReset.begin+4s" fill="freeze" />
            <animate id="logoVectorReset" attributeName="opacity" values="0;1" dur="0.1s" calcMode="discrete" begin="logoSmileHide.end" fill="freeze" />
        </g>

        <g data-part="cloud" opacity="0">
            <circle mask="url(#logo-cloud-mask)" cx="32" cy="20" r="15" fill="#307594" />
            <animate id="logoCloudHide" attributeName="opacity" values="1;0" dur="0.3s" begin="logoCloudReset.begin+8s" fill="freeze" />
            <animate id="logoCloudReset" attributeName="opacity" values="0;1" dur="0.1s" calcMode="discrete" begin="logoVectorHide.end" fill="freeze" />
        </g>

        <g data-part="code-icon" opacity="0">
            <g stroke="#307594" stroke-width="2" stroke-dasharray="12" stroke-dashoffset="12">
                <path d="M27 17l-3 3l3 3">
                    <animate attributeName="stroke-dashoffset" values="12;0" dur="0.3s" begin="logoCodeReset.end+0.3s" fill="freeze" />
                    <set attributeName="stroke-dashoffset" to="12" begin="logoCodeReset.begin" fill="freeze" />
                </path>
                <path d="M37 17l3 3l-3 3">
                    <animate attributeName="stroke-dashoffset" values="12;0" dur="0.3s" begin="logoCodeReset.end+0.5s" fill="freeze" />
                    <set attributeName="stroke-dashoffset" to="12" begin="logoCodeReset.begin" fill="freeze" />
                </path>
            </g>
            <circle mask="url(#logo-code-mask)" cx="32" cy="20" r="14" fill="#307594" />
            <animate id="logoCodeHide" attributeName="opacity" values="1;0" dur="0.3s" begin="logoCodeReset.begin+1.5s" fill="freeze" />
            <animate id="logoCodeReset" attributeName="opacity" values="0;1" dur="0.1s" calcMode="discrete" begin="logoCloudHide.end" fill="freeze" />
        </g>
    </g>
    <g data-part="iconify" fill="none" stroke-linecap="round" stroke-width="3">
        <g data-part="i">
            <circle cx="77.5" cy="2.5" r="1.5" fill="#E13E31" opacity="0">
                <set attributeName="opacity" to="1" begin="0.2s" />
            </circle>
            <path d="M77.5 7.5V19.5" stroke="#E13E31" stroke-dasharray="22" stroke-dashoffset="22">
                <animate attributeName="stroke-dashoffset" values="22;0" dur="0.2s" fill="freeze" />
            </path>
        </g>
        <path data-part="c" d="M94.5962 8.4038C92.0578 5.86539 87.9422 5.86539 85.4038 8.4038C82.8654 10.9422 82.8654 15.0578 85.4038 17.5962C87.9422 20.1346 92.0578 20.1346 94.5962 17.5962" stroke="#E13E31" stroke-dasharray="42" stroke-dashoffset="42">
            <animate attributeName="stroke-dashoffset" values="42;0" dur="0.3s" begin="0.2s" fill="freeze" />
        </path>
        <circle data-part="o" cx="106" cy="13" r="6.5" stroke="#E13E31" stroke-dasharray="52" transform="rotate(-180 106 13)" stroke-dashoffset="52">
            <animate attributeName="stroke-dashoffset" values="52;0" dur="0.3s" begin="0.5s" fill="freeze" />
        </circle>
        <path data-part="n" d="M129.5 19.5C129.5 16.525 129.5 14.025 129.5 12C129.5 8.96243 127.038 6.5 124 6.5C120.962 6.5 118.5 8.96243 118.5 12C118.5 14.025 118.5 16.525 118.5 19.5" stroke="#E13E31" stroke-dasharray="34" stroke-dashoffset="34">
            <animate attributeName="stroke-dashoffset" values="34;68" dur="0.3s" begin="0.7s" fill="freeze" />
        </path>
        <g data-part="i2">
            <circle cx="135.5" cy="2.5" r="1.5" fill="#AEAEAE" opacity="0">
                <set attributeName="opacity" to="1" begin="1.2s" />
            </circle>
            <path d="M135.5 7.5V19.5" stroke="#AEAEAE" stroke-dasharray="22" stroke-dashoffset="22">
                <animate attributeName="stroke-dashoffset" values="22;0" dur="0.2s" begin="1.0s" fill="freeze" />
            </path>
        </g>
        <g data-part="f">
            <path d="M149.5 2.5C147.962 2.5 146.795 2.5 146 2.5C143.5 2.5 141.5 4.5 141.5 7C141.5 8.66667 141.5 12.8333 141.5 19.5" stroke="#AEAEAE" stroke-dasharray="26" stroke-dashoffset="26">
                <animate attributeName="stroke-dashoffset" values="26;0" dur="0.2s" begin="1.2s" fill="freeze" />
            </path>
            <path d="M145 11.5h2.5" stroke="#AEAEAE" stroke-dasharray="5" stroke-dashoffset="5">
                <animate attributeName="stroke-dashoffset" values="5;0" dur="0.1s" begin="1.4s" fill="freeze" />
            </path>
        </g>
        <g data-part="y">
            <path d="M153.5 6.5C153.5 8.16667 153.5 9.83333 153.5 11.5C153.5 14 155 15.5 157.5 15.5C157.73 15.5 158.23 15.5 159 15.5" stroke="#AEAEAE" stroke-dasharray="24" stroke-dashoffset="24">
                <animate attributeName="stroke-dashoffset" values="24;0" dur="0.2s" begin="1.5s" fill="freeze" />
            </path>
            <path d="M154.5 22.5C156.371 22.5 157.704 22.5 158.5 22.5C160.5 22.5 162.5 20.5 162.5 18.5C162.5 17.1667 162.5 13.1667 162.5 6.5" stroke="#AEAEAE" stroke-dasharray="24" stroke-dashoffset="24">
                <animate attributeName="stroke-dashoffset" values="24;48" dur="0.2s" begin="1.7s" fill="freeze" />
            </path>
        </g>
    </g>
    <rect mask="url(#logo-design-mask)" x="72" y="25" width="62" height="0" opacity="0" fill="#307594">
        <animate attributeName="height" values="0;14" dur="0.2s" begin="2.0s" fill="freeze" />
        <animate attributeName="opacity" values="0;1" dur="0.3s" begin="2.0s" fill="freeze" />
    </rect>
</svg>