<svg xmlns="http://www.w3.org/2000/svg" width="1538" height="503" fill="none" viewBox="0 0 1538 503"><rect width="375" height="140" x="47" y="69" fill="#029788" rx="10"/><path fill="#fff" d="M132.925 145.748C132.925 145.174 132.836 144.661 132.658 144.21C132.494 143.745 132.187 143.328 131.735 142.959C131.298 142.576 130.676 142.207 129.869 141.852C129.076 141.482 128.051 141.1 126.793 140.703C125.398 140.266 124.1 139.773 122.896 139.227C121.693 138.68 120.634 138.044 119.718 137.319C118.815 136.595 118.111 135.761 117.605 134.817C117.1 133.86 116.847 132.753 116.847 131.495C116.847 130.265 117.106 129.144 117.626 128.132C118.159 127.12 118.911 126.252 119.882 125.527C120.853 124.789 121.994 124.222 123.307 123.825C124.633 123.429 126.096 123.23 127.695 123.23C129.91 123.23 131.824 123.634 133.438 124.44C135.064 125.247 136.322 126.341 137.211 127.722C138.1 129.103 138.544 130.654 138.544 132.377H132.925C132.925 131.447 132.727 130.627 132.33 129.916C131.947 129.205 131.359 128.645 130.566 128.234C129.787 127.824 128.803 127.619 127.613 127.619C126.465 127.619 125.508 127.79 124.742 128.132C123.99 128.474 123.423 128.938 123.04 129.526C122.671 130.114 122.486 130.771 122.486 131.495C122.486 132.042 122.616 132.534 122.876 132.972C123.136 133.396 123.525 133.799 124.045 134.182C124.564 134.551 125.207 134.899 125.973 135.228C126.752 135.542 127.654 135.856 128.68 136.171C130.32 136.663 131.756 137.21 132.986 137.812C134.23 138.413 135.263 139.097 136.083 139.862C136.917 140.628 137.539 141.489 137.949 142.446C138.373 143.403 138.585 144.49 138.585 145.707C138.585 146.992 138.332 148.141 137.826 149.152C137.32 150.164 136.596 151.025 135.652 151.736C134.709 152.447 133.574 152.987 132.248 153.356C130.936 153.726 129.466 153.91 127.839 153.91C126.39 153.91 124.954 153.719 123.532 153.336C122.124 152.939 120.846 152.352 119.697 151.572C118.549 150.779 117.633 149.781 116.949 148.578C116.266 147.361 115.924 145.939 115.924 144.312H121.584C121.584 145.256 121.734 146.062 122.035 146.732C122.35 147.389 122.787 147.929 123.348 148.353C123.922 148.763 124.592 149.063 125.357 149.255C126.123 149.446 126.95 149.542 127.839 149.542C128.987 149.542 129.931 149.385 130.669 149.07C131.421 148.742 131.981 148.291 132.351 147.717C132.733 147.143 132.925 146.486 132.925 145.748ZM141.559 142.631V142.2C141.559 140.573 141.791 139.076 142.256 137.709C142.721 136.328 143.397 135.132 144.286 134.12C145.175 133.108 146.262 132.322 147.547 131.762C148.832 131.188 150.295 130.9 151.936 130.9C153.604 130.9 155.08 131.188 156.365 131.762C157.664 132.322 158.758 133.108 159.646 134.12C160.535 135.132 161.212 136.328 161.677 137.709C162.142 139.076 162.374 140.573 162.374 142.2V142.631C162.374 144.244 162.142 145.741 161.677 147.122C161.212 148.489 160.535 149.686 159.646 150.711C158.758 151.723 157.671 152.509 156.386 153.069C155.101 153.63 153.631 153.91 151.977 153.91C150.336 153.91 148.866 153.63 147.567 153.069C146.269 152.509 145.175 151.723 144.286 150.711C143.397 149.686 142.721 148.489 142.256 147.122C141.791 145.741 141.559 144.244 141.559 142.631ZM146.973 142.2V142.631C146.973 143.602 147.068 144.511 147.26 145.358C147.451 146.206 147.745 146.951 148.142 147.594C148.538 148.236 149.051 148.742 149.68 149.111C150.322 149.467 151.088 149.645 151.977 149.645C152.852 149.645 153.604 149.467 154.232 149.111C154.861 148.742 155.374 148.236 155.771 147.594C156.181 146.951 156.481 146.206 156.673 145.358C156.864 144.511 156.96 143.602 156.96 142.631V142.2C156.96 141.243 156.864 140.348 156.673 139.514C156.481 138.666 156.181 137.921 155.771 137.278C155.374 136.622 154.854 136.109 154.212 135.74C153.583 135.357 152.824 135.166 151.936 135.166C151.061 135.166 150.309 135.357 149.68 135.74C149.051 136.109 148.538 136.622 148.142 137.278C147.745 137.921 147.451 138.666 147.26 139.514C147.068 140.348 146.973 141.243 146.973 142.2ZM179.519 148.229V131.311H184.974V153.5H179.847L179.519 148.229ZM180.216 143.636L181.897 143.595C181.897 145.085 181.733 146.459 181.405 147.717C181.077 148.975 180.564 150.068 179.867 150.998C179.184 151.914 178.315 152.632 177.263 153.151C176.21 153.657 174.966 153.91 173.53 153.91C172.437 153.91 171.438 153.76 170.536 153.459C169.634 153.145 168.854 152.659 168.198 152.003C167.556 151.333 167.057 150.479 166.701 149.439C166.346 148.387 166.168 147.122 166.168 145.646V131.311H171.582V145.687C171.582 146.425 171.664 147.04 171.828 147.532C172.006 148.024 172.245 148.428 172.546 148.742C172.86 149.043 173.223 149.262 173.633 149.398C174.057 149.521 174.508 149.583 174.986 149.583C176.299 149.583 177.331 149.323 178.083 148.804C178.849 148.271 179.396 147.56 179.724 146.671C180.052 145.769 180.216 144.757 180.216 143.636ZM195.187 135.843V153.5H189.772V131.311H194.899L195.187 135.843ZM201.934 131.167L201.852 136.212C201.551 136.157 201.209 136.116 200.826 136.089C200.457 136.062 200.108 136.048 199.78 136.048C198.946 136.048 198.215 136.164 197.586 136.396C196.957 136.615 196.431 136.937 196.007 137.36C195.597 137.784 195.282 138.304 195.063 138.919C194.845 139.521 194.722 140.204 194.694 140.97L193.525 140.826C193.525 139.418 193.669 138.112 193.956 136.909C194.243 135.706 194.66 134.653 195.207 133.751C195.754 132.849 196.438 132.151 197.258 131.659C198.092 131.153 199.049 130.9 200.129 130.9C200.43 130.9 200.751 130.928 201.093 130.982C201.448 131.023 201.729 131.085 201.934 131.167ZM213.603 149.645C214.368 149.645 215.052 149.494 215.653 149.193C216.255 148.893 216.733 148.469 217.089 147.922C217.458 147.375 217.656 146.739 217.684 146.015H222.79C222.763 147.519 222.339 148.865 221.519 150.055C220.698 151.244 219.604 152.188 218.237 152.885C216.884 153.568 215.366 153.91 213.685 153.91C211.976 153.91 210.485 153.623 209.214 153.049C207.942 152.475 206.883 151.675 206.035 150.649C205.201 149.624 204.572 148.435 204.148 147.081C203.738 145.728 203.533 144.278 203.533 142.733V142.077C203.533 140.532 203.738 139.083 204.148 137.729C204.572 136.376 205.201 135.187 206.035 134.161C206.883 133.136 207.942 132.336 209.214 131.762C210.485 131.188 211.969 130.9 213.664 130.9C215.455 130.9 217.027 131.249 218.381 131.946C219.748 132.644 220.814 133.628 221.58 134.899C222.359 136.171 222.763 137.668 222.79 139.391H217.684C217.656 138.598 217.479 137.887 217.15 137.258C216.822 136.629 216.357 136.123 215.756 135.74C215.154 135.357 214.423 135.166 213.562 135.166C212.646 135.166 211.88 135.357 211.265 135.74C210.663 136.123 210.191 136.649 209.85 137.319C209.521 137.976 209.289 138.714 209.152 139.534C209.029 140.341 208.968 141.188 208.968 142.077V142.733C208.968 143.636 209.029 144.497 209.152 145.317C209.289 146.138 209.521 146.876 209.85 147.532C210.191 148.175 210.663 148.688 211.265 149.07C211.88 149.453 212.659 149.645 213.603 149.645ZM236.366 153.91C234.685 153.91 233.174 153.637 231.834 153.09C230.494 152.543 229.353 151.784 228.409 150.813C227.479 149.829 226.762 148.688 226.256 147.389C225.764 146.076 225.518 144.668 225.518 143.164V142.344C225.518 140.635 225.764 139.083 226.256 137.688C226.748 136.28 227.445 135.07 228.348 134.059C229.25 133.047 230.33 132.268 231.588 131.721C232.846 131.174 234.233 130.9 235.751 130.9C237.323 130.9 238.711 131.167 239.914 131.7C241.117 132.22 242.122 132.958 242.929 133.915C243.735 134.872 244.344 136.021 244.754 137.36C245.164 138.687 245.369 140.156 245.369 141.77V144.046H227.979V140.313H240.037V139.903C240.01 139.042 239.846 138.256 239.545 137.545C239.244 136.82 238.779 136.246 238.15 135.822C237.521 135.385 236.708 135.166 235.71 135.166C234.903 135.166 234.199 135.344 233.598 135.699C233.01 136.041 232.518 136.533 232.121 137.176C231.738 137.805 231.451 138.557 231.26 139.432C231.068 140.307 230.973 141.277 230.973 142.344V143.164C230.973 144.094 231.096 144.955 231.342 145.748C231.602 146.541 231.978 147.231 232.47 147.819C232.976 148.394 233.577 148.845 234.274 149.173C234.985 149.487 235.792 149.645 236.694 149.645C237.829 149.645 238.854 149.426 239.771 148.988C240.7 148.537 241.507 147.874 242.19 146.999L244.918 149.829C244.453 150.513 243.824 151.169 243.031 151.798C242.252 152.427 241.309 152.939 240.201 153.336C239.094 153.719 237.815 153.91 236.366 153.91ZM277.341 143.677H282.98C282.83 145.673 282.276 147.443 281.319 148.988C280.362 150.52 279.029 151.723 277.32 152.598C275.611 153.473 273.54 153.91 271.106 153.91C269.233 153.91 267.545 153.582 266.041 152.926C264.551 152.256 263.272 151.306 262.206 150.075C261.153 148.831 260.347 147.341 259.786 145.604C259.226 143.854 258.945 141.893 258.945 139.719V137.442C258.945 135.269 259.232 133.307 259.807 131.557C260.381 129.807 261.201 128.316 262.268 127.086C263.348 125.842 264.64 124.885 266.144 124.215C267.661 123.545 269.356 123.21 271.229 123.21C273.663 123.21 275.721 123.661 277.402 124.563C279.084 125.452 280.39 126.676 281.319 128.234C282.249 129.793 282.81 131.584 283.001 133.607H277.361C277.252 132.35 276.979 131.283 276.541 130.408C276.117 129.533 275.475 128.87 274.613 128.419C273.766 127.954 272.638 127.722 271.229 127.722C270.136 127.722 269.172 127.927 268.338 128.337C267.518 128.747 266.834 129.362 266.287 130.183C265.74 130.989 265.33 132.001 265.057 133.218C264.783 134.421 264.646 135.815 264.646 137.401V139.719C264.646 141.236 264.77 142.597 265.016 143.8C265.262 145.003 265.645 146.021 266.164 146.855C266.684 147.689 267.354 148.325 268.174 148.763C268.994 149.2 269.972 149.419 271.106 149.419C272.487 149.419 273.608 149.2 274.47 148.763C275.345 148.325 276.008 147.683 276.459 146.835C276.924 145.987 277.218 144.935 277.341 143.677ZM285.975 142.631V142.2C285.975 140.573 286.207 139.076 286.672 137.709C287.137 136.328 287.813 135.132 288.702 134.12C289.591 133.108 290.678 132.322 291.963 131.762C293.248 131.188 294.711 130.9 296.352 130.9C298.02 130.9 299.496 131.188 300.781 131.762C302.08 132.322 303.174 133.108 304.062 134.12C304.951 135.132 305.628 136.328 306.093 137.709C306.558 139.076 306.79 140.573 306.79 142.2V142.631C306.79 144.244 306.558 145.741 306.093 147.122C305.628 148.489 304.951 149.686 304.062 150.711C303.174 151.723 302.087 152.509 300.802 153.069C299.517 153.63 298.047 153.91 296.393 153.91C294.752 153.91 293.282 153.63 291.983 153.069C290.685 152.509 289.591 151.723 288.702 150.711C287.813 149.686 287.137 148.489 286.672 147.122C286.207 145.741 285.975 144.244 285.975 142.631ZM291.389 142.2V142.631C291.389 143.602 291.484 144.511 291.676 145.358C291.867 146.206 292.161 146.951 292.558 147.594C292.954 148.236 293.467 148.742 294.096 149.111C294.738 149.467 295.504 149.645 296.393 149.645C297.268 149.645 298.02 149.467 298.648 149.111C299.277 148.742 299.79 148.236 300.187 147.594C300.597 146.951 300.897 146.206 301.089 145.358C301.28 144.511 301.376 143.602 301.376 142.631V142.2C301.376 141.243 301.28 140.348 301.089 139.514C300.897 138.666 300.597 137.921 300.187 137.278C299.79 136.622 299.271 136.109 298.628 135.74C297.999 135.357 297.24 135.166 296.352 135.166C295.477 135.166 294.725 135.357 294.096 135.74C293.467 136.109 292.954 136.622 292.558 137.278C292.161 137.921 291.867 138.666 291.676 139.514C291.484 140.348 291.389 141.243 291.389 142.2ZM324.037 148.783V122H329.492V153.5H324.57L324.037 148.783ZM309.784 142.672V142.241C309.784 140.546 309.976 139.008 310.358 137.627C310.755 136.232 311.329 135.036 312.081 134.038C312.833 133.04 313.742 132.268 314.809 131.721C315.889 131.174 317.112 130.9 318.479 130.9C319.806 130.9 320.961 131.167 321.945 131.7C322.943 132.233 323.791 132.992 324.488 133.977C325.199 134.961 325.767 136.13 326.19 137.483C326.614 138.823 326.922 140.3 327.113 141.913V143.082C326.922 144.654 326.614 146.097 326.19 147.409C325.767 148.722 325.199 149.87 324.488 150.854C323.791 151.825 322.943 152.577 321.945 153.11C320.947 153.644 319.778 153.91 318.438 153.91C317.085 153.91 315.868 153.63 314.788 153.069C313.722 152.509 312.812 151.723 312.061 150.711C311.322 149.699 310.755 148.51 310.358 147.143C309.976 145.775 309.784 144.285 309.784 142.672ZM315.219 142.241V142.672C315.219 143.629 315.301 144.524 315.465 145.358C315.629 146.192 315.896 146.931 316.265 147.573C316.634 148.202 317.105 148.694 317.68 149.05C318.268 149.405 318.979 149.583 319.812 149.583C320.879 149.583 321.754 149.351 322.438 148.886C323.135 148.407 323.675 147.758 324.058 146.938C324.44 146.104 324.687 145.167 324.796 144.128V140.908C324.741 140.088 324.598 139.329 324.365 138.632C324.146 137.935 323.832 137.333 323.422 136.827C323.025 136.321 322.533 135.925 321.945 135.638C321.357 135.351 320.66 135.207 319.854 135.207C319.02 135.207 318.309 135.392 317.721 135.761C317.133 136.116 316.654 136.615 316.285 137.258C315.916 137.9 315.643 138.646 315.465 139.493C315.301 140.341 315.219 141.257 315.219 142.241ZM344.36 153.91C342.679 153.91 341.168 153.637 339.828 153.09C338.488 152.543 337.347 151.784 336.403 150.813C335.474 149.829 334.756 148.688 334.25 147.389C333.758 146.076 333.512 144.668 333.512 143.164V142.344C333.512 140.635 333.758 139.083 334.25 137.688C334.742 136.28 335.439 135.07 336.342 134.059C337.244 133.047 338.324 132.268 339.582 131.721C340.84 131.174 342.228 130.9 343.745 130.9C345.317 130.9 346.705 131.167 347.908 131.7C349.111 132.22 350.116 132.958 350.923 133.915C351.729 134.872 352.338 136.021 352.748 137.36C353.158 138.687 353.363 140.156 353.363 141.77V144.046H335.973V140.313H348.031V139.903C348.004 139.042 347.84 138.256 347.539 137.545C347.238 136.82 346.773 136.246 346.145 135.822C345.516 135.385 344.702 135.166 343.704 135.166C342.897 135.166 342.193 135.344 341.592 135.699C341.004 136.041 340.512 136.533 340.115 137.176C339.732 137.805 339.445 138.557 339.254 139.432C339.062 140.307 338.967 141.277 338.967 142.344V143.164C338.967 144.094 339.09 144.955 339.336 145.748C339.596 146.541 339.972 147.231 340.464 147.819C340.97 148.394 341.571 148.845 342.269 149.173C342.979 149.487 343.786 149.645 344.688 149.645C345.823 149.645 346.849 149.426 347.765 148.988C348.694 148.537 349.501 147.874 350.185 146.999L352.912 149.829C352.447 150.513 351.818 151.169 351.025 151.798C350.246 152.427 349.303 152.939 348.195 153.336C347.088 153.719 345.81 153.91 344.36 153.91Z"/><rect width="322" height="140" x="820" y="69" fill="#E3D16F" rx="10"/><path fill="#5C2615" d="M909.323 146.212L916.059 124.484H921.718L912.181 151.5H908.414L909.323 146.212ZM903.107 124.484L909.806 146.212L910.771 151.5H906.967L897.467 124.484H903.107ZM929.325 131.424V151.5H924.408V131.424H929.325ZM924.074 126.173C924.074 125.443 924.322 124.837 924.816 124.354C925.324 123.872 926.004 123.631 926.857 123.631C927.711 123.631 928.385 123.872 928.88 124.354C929.387 124.837 929.641 125.443 929.641 126.173C929.641 126.89 929.387 127.49 928.88 127.973C928.385 128.455 927.711 128.696 926.857 128.696C926.004 128.696 925.324 128.455 924.816 127.973C924.322 127.49 924.074 126.89 924.074 126.173ZM943.501 131.424V134.949H931.997V131.424H943.501ZM935.077 126.488H939.994V145.711C939.994 146.305 940.075 146.762 940.235 147.084C940.396 147.406 940.637 147.622 940.959 147.733C941.281 147.845 941.664 147.9 942.109 147.9C942.431 147.9 942.728 147.882 943 147.845C943.272 147.808 943.501 147.771 943.687 147.733L943.705 151.407C943.297 151.543 942.833 151.655 942.313 151.741C941.806 151.828 941.231 151.871 940.588 151.871C939.487 151.871 938.522 151.686 937.693 151.314C936.865 150.931 936.221 150.319 935.764 149.478C935.306 148.624 935.077 147.498 935.077 146.101V126.488ZM955.784 151.871C954.263 151.871 952.896 151.624 951.684 151.129C950.471 150.634 949.438 149.948 948.585 149.069C947.744 148.179 947.094 147.146 946.637 145.971C946.191 144.783 945.969 143.509 945.969 142.148V141.406C945.969 139.86 946.191 138.456 946.637 137.194C947.082 135.92 947.713 134.826 948.529 133.91C949.346 132.995 950.323 132.29 951.461 131.795C952.599 131.3 953.854 131.053 955.228 131.053C956.65 131.053 957.906 131.294 958.994 131.776C960.083 132.246 960.992 132.914 961.722 133.78C962.451 134.646 963.002 135.685 963.373 136.897C963.744 138.097 963.93 139.427 963.93 140.887V142.946H948.195V139.569H959.105V139.198C959.081 138.419 958.932 137.708 958.66 137.064C958.388 136.409 957.967 135.889 957.398 135.506C956.829 135.11 956.093 134.912 955.19 134.912C954.461 134.912 953.824 135.073 953.279 135.395C952.747 135.704 952.302 136.149 951.943 136.73C951.597 137.299 951.337 137.98 951.164 138.771C950.991 139.563 950.904 140.441 950.904 141.406V142.148C950.904 142.99 951.016 143.769 951.238 144.486C951.473 145.204 951.813 145.828 952.259 146.36C952.716 146.88 953.261 147.288 953.892 147.585C954.535 147.869 955.265 148.012 956.081 148.012C957.108 148.012 958.035 147.814 958.864 147.418C959.705 147.01 960.435 146.41 961.054 145.618L963.521 148.179C963.101 148.797 962.532 149.391 961.814 149.96C961.109 150.529 960.256 150.993 959.254 151.352C958.252 151.698 957.095 151.871 955.784 151.871ZM998.757 124.484V151.5H993.636L982.15 132.76V151.5H977.048V124.484H982.15L993.673 143.243V124.484H998.757ZM1002.71 141.666V141.276C1002.71 139.804 1002.92 138.45 1003.34 137.213C1003.76 135.964 1004.37 134.881 1005.18 133.966C1005.98 133.05 1006.96 132.339 1008.13 131.832C1009.29 131.312 1010.61 131.053 1012.1 131.053C1013.61 131.053 1014.94 131.312 1016.11 131.832C1017.28 132.339 1018.27 133.05 1019.07 133.966C1019.88 134.881 1020.49 135.964 1020.91 137.213C1021.33 138.45 1021.54 139.804 1021.54 141.276V141.666C1021.54 143.126 1021.33 144.48 1020.91 145.729C1020.49 146.966 1019.88 148.049 1019.07 148.977C1018.27 149.892 1017.29 150.603 1016.12 151.11C1014.96 151.618 1013.63 151.871 1012.13 151.871C1010.65 151.871 1009.32 151.618 1008.15 151.11C1006.97 150.603 1005.98 149.892 1005.18 148.977C1004.37 148.049 1003.76 146.966 1003.34 145.729C1002.92 144.48 1002.71 143.126 1002.71 141.666ZM1007.61 141.276V141.666C1007.61 142.544 1007.69 143.367 1007.87 144.134C1008.04 144.901 1008.31 145.575 1008.67 146.156C1009.02 146.738 1009.49 147.195 1010.06 147.529C1010.64 147.851 1011.33 148.012 1012.13 148.012C1012.93 148.012 1013.61 147.851 1014.18 147.529C1014.74 147.195 1015.21 146.738 1015.57 146.156C1015.94 145.575 1016.21 144.901 1016.38 144.134C1016.56 143.367 1016.64 142.544 1016.64 141.666V141.276C1016.64 140.41 1016.56 139.6 1016.38 138.846C1016.21 138.079 1015.94 137.405 1015.57 136.823C1015.21 136.229 1014.74 135.766 1014.16 135.432C1013.59 135.085 1012.9 134.912 1012.1 134.912C1011.31 134.912 1010.63 135.085 1010.06 135.432C1009.49 135.766 1009.02 136.229 1008.67 136.823C1008.31 137.405 1008.04 138.079 1007.87 138.846C1007.69 139.6 1007.61 140.41 1007.61 141.276ZM1037.15 147.232V123H1042.08V151.5H1037.63L1037.15 147.232ZM1024.25 141.703V141.313C1024.25 139.78 1024.42 138.388 1024.77 137.139C1025.13 135.877 1025.65 134.795 1026.33 133.892C1027.01 132.989 1027.83 132.29 1028.8 131.795C1029.77 131.3 1030.88 131.053 1032.12 131.053C1033.32 131.053 1034.36 131.294 1035.25 131.776C1036.16 132.259 1036.92 132.945 1037.55 133.836C1038.2 134.727 1038.71 135.784 1039.09 137.009C1039.48 138.221 1039.76 139.557 1039.93 141.017V142.074C1039.76 143.497 1039.48 144.802 1039.09 145.989C1038.71 147.177 1038.2 148.216 1037.55 149.106C1036.92 149.985 1036.16 150.665 1035.25 151.147C1034.35 151.63 1033.29 151.871 1032.08 151.871C1030.86 151.871 1029.76 151.618 1028.78 151.11C1027.81 150.603 1026.99 149.892 1026.31 148.977C1025.64 148.061 1025.13 146.985 1024.77 145.748C1024.42 144.511 1024.25 143.163 1024.25 141.703ZM1029.17 141.313V141.703C1029.17 142.569 1029.24 143.379 1029.39 144.134C1029.54 144.888 1029.78 145.556 1030.11 146.138C1030.45 146.707 1030.88 147.152 1031.39 147.474C1031.93 147.795 1032.57 147.956 1033.32 147.956C1034.29 147.956 1035.08 147.746 1035.7 147.325C1036.33 146.892 1036.82 146.305 1037.17 145.562C1037.51 144.808 1037.73 143.961 1037.83 143.021V140.107C1037.78 139.365 1037.65 138.679 1037.44 138.048C1037.25 137.417 1036.96 136.873 1036.59 136.415C1036.23 135.957 1035.79 135.599 1035.25 135.339C1034.72 135.079 1034.09 134.949 1033.36 134.949C1032.61 134.949 1031.96 135.116 1031.43 135.45C1030.9 135.772 1030.47 136.223 1030.13 136.805C1029.8 137.386 1029.55 138.06 1029.39 138.827C1029.24 139.594 1029.17 140.423 1029.17 141.313ZM1055.53 151.871C1054.01 151.871 1052.65 151.624 1051.43 151.129C1050.22 150.634 1049.19 149.948 1048.33 149.069C1047.49 148.179 1046.84 147.146 1046.39 145.971C1045.94 144.783 1045.72 143.509 1045.72 142.148V141.406C1045.72 139.86 1045.94 138.456 1046.39 137.194C1046.83 135.92 1047.46 134.826 1048.28 133.91C1049.1 132.995 1050.07 132.29 1051.21 131.795C1052.35 131.3 1053.6 131.053 1054.98 131.053C1056.4 131.053 1057.66 131.294 1058.74 131.776C1059.83 132.246 1060.74 132.914 1061.47 133.78C1062.2 134.646 1062.75 135.685 1063.12 136.897C1063.49 138.097 1063.68 139.427 1063.68 140.887V142.946H1047.95V139.569H1058.86V139.198C1058.83 138.419 1058.68 137.708 1058.41 137.064C1058.14 136.409 1057.72 135.889 1057.15 135.506C1056.58 135.11 1055.84 134.912 1054.94 134.912C1054.21 134.912 1053.57 135.073 1053.03 135.395C1052.5 135.704 1052.05 136.149 1051.69 136.73C1051.35 137.299 1051.09 137.98 1050.91 138.771C1050.74 139.563 1050.65 140.441 1050.65 141.406V142.148C1050.65 142.99 1050.77 143.769 1050.99 144.486C1051.22 145.204 1051.56 145.828 1052.01 146.36C1052.47 146.88 1053.01 147.288 1053.64 147.585C1054.28 147.869 1055.01 148.012 1055.83 148.012C1056.86 148.012 1057.79 147.814 1058.61 147.418C1059.46 147.01 1060.19 146.41 1060.8 145.618L1063.27 148.179C1062.85 148.797 1062.28 149.391 1061.56 149.96C1060.86 150.529 1060.01 150.993 1059 151.352C1058 151.698 1056.85 151.871 1055.53 151.871Z"/><rect width="252" height="140" x="1250" y="69" fill="#9AD9FA" rx="10"/><path fill="#15505C" d="M1308.54 124.484H1318.35C1320.4 124.484 1322.17 124.794 1323.64 125.412C1325.11 126.031 1326.24 126.946 1327.03 128.158C1327.83 129.37 1328.22 130.861 1328.22 132.63C1328.22 134.028 1327.97 135.24 1327.48 136.267C1326.98 137.293 1326.29 138.153 1325.38 138.846C1324.49 139.538 1323.44 140.083 1322.23 140.479L1320.63 141.295H1311.97L1311.93 137.269H1318.41C1319.46 137.269 1320.33 137.083 1321.02 136.712C1321.72 136.341 1322.23 135.827 1322.58 135.172C1322.94 134.516 1323.12 133.768 1323.12 132.927C1323.12 132.024 1322.95 131.244 1322.6 130.589C1322.25 129.921 1321.73 129.408 1321.02 129.049C1320.32 128.69 1319.43 128.511 1318.35 128.511H1313.64V151.5H1308.54V124.484ZM1323.79 151.5L1317.53 139.402L1322.93 139.384L1329.26 151.24V151.5H1323.79ZM1341.34 151.871C1339.82 151.871 1338.45 151.624 1337.24 151.129C1336.03 150.634 1334.99 149.948 1334.14 149.069C1333.3 148.179 1332.65 147.146 1332.19 145.971C1331.75 144.783 1331.52 143.509 1331.52 142.148V141.406C1331.52 139.86 1331.75 138.456 1332.19 137.194C1332.64 135.92 1333.27 134.826 1334.08 133.91C1334.9 132.995 1335.88 132.29 1337.02 131.795C1338.15 131.3 1339.41 131.053 1340.78 131.053C1342.21 131.053 1343.46 131.294 1344.55 131.776C1345.64 132.246 1346.55 132.914 1347.28 133.78C1348.01 134.646 1348.56 135.685 1348.93 136.897C1349.3 138.097 1349.49 139.427 1349.49 140.887V142.946H1333.75V139.569H1344.66V139.198C1344.64 138.419 1344.49 137.708 1344.22 137.064C1343.94 136.409 1343.52 135.889 1342.95 135.506C1342.39 135.11 1341.65 134.912 1340.75 134.912C1340.02 134.912 1339.38 135.073 1338.83 135.395C1338.3 135.704 1337.86 136.149 1337.5 136.73C1337.15 137.299 1336.89 137.98 1336.72 138.771C1336.55 139.563 1336.46 140.441 1336.46 141.406V142.148C1336.46 142.99 1336.57 143.769 1336.79 144.486C1337.03 145.204 1337.37 145.828 1337.81 146.36C1338.27 146.88 1338.82 147.288 1339.45 147.585C1340.09 147.869 1340.82 148.012 1341.64 148.012C1342.66 148.012 1343.59 147.814 1344.42 147.418C1345.26 147.01 1345.99 146.41 1346.61 145.618L1349.08 148.179C1348.66 148.797 1348.09 149.391 1347.37 149.96C1346.67 150.529 1345.81 150.993 1344.81 151.352C1343.81 151.698 1342.65 151.871 1341.34 151.871ZM1364.79 159.219V135.469L1365.39 131.424H1369.73V159.219H1364.79ZM1351.92 141.666V141.276C1351.92 139.743 1352.09 138.351 1352.44 137.102C1352.78 135.84 1353.29 134.764 1353.96 133.873C1354.64 132.97 1355.47 132.277 1356.44 131.795C1357.42 131.3 1358.54 131.053 1359.8 131.053C1361.04 131.053 1362.11 131.294 1363.01 131.776C1363.91 132.259 1364.68 132.945 1365.31 133.836C1365.94 134.714 1366.44 135.759 1366.82 136.972C1367.2 138.184 1367.48 139.526 1367.67 140.998V142.056C1367.48 143.466 1367.2 144.771 1366.82 145.971C1366.44 147.158 1365.94 148.197 1365.31 149.088C1364.69 149.966 1363.93 150.653 1363.01 151.147C1362.1 151.63 1361.01 151.871 1359.76 151.871C1358.52 151.871 1357.4 151.618 1356.42 151.11C1355.46 150.591 1354.64 149.873 1353.96 148.958C1353.29 148.043 1352.78 146.966 1352.44 145.729C1352.09 144.48 1351.92 143.126 1351.92 141.666ZM1356.83 141.276V141.666C1356.83 142.544 1356.91 143.367 1357.06 144.134C1357.22 144.888 1357.46 145.556 1357.8 146.138C1358.13 146.719 1358.56 147.177 1359.08 147.511C1359.61 147.845 1360.25 148.012 1361.01 148.012C1362.02 148.012 1362.84 147.789 1363.48 147.344C1364.12 146.898 1364.6 146.299 1364.92 145.544C1365.26 144.777 1365.47 143.924 1365.57 142.983V140.089C1365.51 139.334 1365.38 138.642 1365.18 138.011C1364.98 137.38 1364.71 136.836 1364.35 136.378C1364 135.92 1363.56 135.562 1363.01 135.302C1362.47 135.042 1361.81 134.912 1361.04 134.912C1360.29 134.912 1359.65 135.079 1359.12 135.413C1358.58 135.735 1358.15 136.186 1357.82 136.768C1357.48 137.349 1357.24 138.023 1357.07 138.79C1356.91 139.557 1356.83 140.386 1356.83 141.276ZM1386.21 146.731V131.424H1391.14V151.5H1386.5L1386.21 146.731ZM1386.84 142.575L1388.36 142.538C1388.36 143.886 1388.21 145.13 1387.91 146.268C1387.62 147.406 1387.15 148.395 1386.52 149.236C1385.9 150.065 1385.12 150.715 1384.16 151.185C1383.21 151.642 1382.09 151.871 1380.79 151.871C1379.8 151.871 1378.89 151.735 1378.08 151.463C1377.26 151.178 1376.56 150.739 1375.96 150.146C1375.38 149.539 1374.93 148.766 1374.61 147.826C1374.29 146.874 1374.13 145.729 1374.13 144.394V131.424H1379.02V144.431C1379.02 145.099 1379.1 145.655 1379.25 146.101C1379.41 146.546 1379.62 146.911 1379.9 147.195C1380.18 147.467 1380.51 147.665 1380.88 147.789C1381.26 147.9 1381.67 147.956 1382.1 147.956C1383.29 147.956 1384.23 147.721 1384.91 147.251C1385.6 146.769 1386.09 146.125 1386.39 145.321C1386.69 144.505 1386.84 143.59 1386.84 142.575ZM1404.5 151.871C1402.98 151.871 1401.61 151.624 1400.4 151.129C1399.19 150.634 1398.15 149.948 1397.3 149.069C1396.46 148.179 1395.81 147.146 1395.35 145.971C1394.91 144.783 1394.68 143.509 1394.68 142.148V141.406C1394.68 139.86 1394.91 138.456 1395.35 137.194C1395.8 135.92 1396.43 134.826 1397.25 133.91C1398.06 132.995 1399.04 132.29 1400.18 131.795C1401.31 131.3 1402.57 131.053 1403.94 131.053C1405.37 131.053 1406.62 131.294 1407.71 131.776C1408.8 132.246 1409.71 132.914 1410.44 133.78C1411.17 134.646 1411.72 135.685 1412.09 136.897C1412.46 138.097 1412.65 139.427 1412.65 140.887V142.946H1396.91V139.569H1407.82V139.198C1407.8 138.419 1407.65 137.708 1407.38 137.064C1407.1 136.409 1406.68 135.889 1406.11 135.506C1405.55 135.11 1404.81 134.912 1403.91 134.912C1403.18 134.912 1402.54 135.073 1402 135.395C1401.46 135.704 1401.02 136.149 1400.66 136.73C1400.31 137.299 1400.05 137.98 1399.88 138.771C1399.71 139.563 1399.62 140.441 1399.62 141.406V142.148C1399.62 142.99 1399.73 143.769 1399.95 144.486C1400.19 145.204 1400.53 145.828 1400.97 146.36C1401.43 146.88 1401.98 147.288 1402.61 147.585C1403.25 147.869 1403.98 148.012 1404.8 148.012C1405.82 148.012 1406.75 147.814 1407.58 147.418C1408.42 147.01 1409.15 146.41 1409.77 145.618L1412.24 148.179C1411.82 148.797 1411.25 149.391 1410.53 149.96C1409.83 150.529 1408.97 150.993 1407.97 151.352C1406.97 151.698 1405.81 151.871 1404.5 151.871ZM1426.97 146.008C1426.97 145.587 1426.86 145.21 1426.64 144.876C1426.41 144.542 1425.99 144.239 1425.37 143.967C1424.77 143.682 1423.88 143.416 1422.7 143.169C1421.66 142.946 1420.7 142.668 1419.83 142.334C1418.95 142 1418.19 141.598 1417.56 141.128C1416.93 140.646 1416.44 140.083 1416.08 139.439C1415.73 138.784 1415.56 138.029 1415.56 137.176C1415.56 136.347 1415.74 135.568 1416.1 134.838C1416.46 134.096 1416.97 133.446 1417.66 132.89C1418.34 132.321 1419.16 131.875 1420.14 131.554C1421.12 131.22 1422.22 131.053 1423.44 131.053C1425.15 131.053 1426.62 131.331 1427.84 131.888C1429.08 132.444 1430.03 133.211 1430.68 134.188C1431.34 135.153 1431.66 136.242 1431.66 137.454H1426.77C1426.77 136.922 1426.64 136.44 1426.39 136.007C1426.16 135.574 1425.79 135.228 1425.3 134.968C1424.81 134.696 1424.18 134.56 1423.43 134.56C1422.75 134.56 1422.17 134.671 1421.7 134.894C1421.24 135.116 1420.9 135.407 1420.66 135.766C1420.43 136.124 1420.31 136.52 1420.31 136.953C1420.31 137.275 1420.37 137.565 1420.49 137.825C1420.63 138.073 1420.85 138.301 1421.14 138.512C1421.44 138.722 1421.84 138.914 1422.35 139.087C1422.87 139.26 1423.51 139.427 1424.26 139.588C1425.76 139.885 1427.06 140.281 1428.18 140.775C1429.3 141.258 1430.18 141.901 1430.81 142.705C1431.44 143.509 1431.76 144.536 1431.76 145.785C1431.76 146.676 1431.57 147.492 1431.18 148.234C1430.8 148.964 1430.24 149.601 1429.51 150.146C1428.78 150.69 1427.91 151.117 1426.9 151.426C1425.88 151.723 1424.74 151.871 1423.46 151.871C1421.62 151.871 1420.06 151.543 1418.79 150.888C1417.51 150.22 1416.55 149.379 1415.89 148.364C1415.24 147.338 1414.91 146.274 1414.91 145.173H1419.6C1419.64 145.952 1419.85 146.577 1420.23 147.047C1420.62 147.517 1421.1 147.857 1421.68 148.067C1422.28 148.265 1422.9 148.364 1423.56 148.364C1424.3 148.364 1424.92 148.265 1425.43 148.067C1425.94 147.857 1426.32 147.579 1426.58 147.232C1426.84 146.874 1426.97 146.465 1426.97 146.008ZM1444.99 131.424V134.949H1433.48V131.424H1444.99ZM1436.56 126.488H1441.48V145.711C1441.48 146.305 1441.56 146.762 1441.72 147.084C1441.88 147.406 1442.12 147.622 1442.44 147.733C1442.77 147.845 1443.15 147.9 1443.59 147.9C1443.92 147.9 1444.21 147.882 1444.49 147.845C1444.76 147.808 1444.99 147.771 1445.17 147.733L1445.19 151.407C1444.78 151.543 1444.32 151.655 1443.8 151.741C1443.29 151.828 1442.72 151.871 1442.07 151.871C1440.97 151.871 1440.01 151.686 1439.18 151.314C1438.35 150.931 1437.71 150.319 1437.25 149.478C1436.79 148.624 1436.56 147.498 1436.56 146.101V126.488Z"/><rect width="322" height="140" x="820" y="325" fill="#9AD9FA" rx="10"/><path fill="#15505C" d="M902.143 357.984H911.958C914.011 357.984 915.774 358.294 917.246 358.912C918.718 359.531 919.85 360.446 920.642 361.658C921.433 362.87 921.829 364.361 921.829 366.13C921.829 367.528 921.582 368.74 921.087 369.767C920.592 370.793 919.893 371.653 918.99 372.346C918.1 373.038 917.048 373.583 915.836 373.979L914.24 374.795H905.575L905.538 370.769H912.014C913.065 370.769 913.937 370.583 914.63 370.212C915.323 369.841 915.842 369.327 916.188 368.672C916.547 368.016 916.727 367.268 916.727 366.427C916.727 365.524 916.553 364.744 916.207 364.089C915.861 363.421 915.335 362.908 914.63 362.549C913.925 362.19 913.034 362.011 911.958 362.011H907.245V385H902.143V357.984ZM917.395 385L911.142 372.902L916.541 372.884L922.868 384.74V385H917.395ZM934.947 385.371C933.426 385.371 932.059 385.124 930.847 384.629C929.634 384.134 928.602 383.448 927.748 382.569C926.907 381.679 926.257 380.646 925.8 379.471C925.354 378.283 925.132 377.009 925.132 375.648V374.906C925.132 373.36 925.354 371.956 925.8 370.694C926.245 369.42 926.876 368.326 927.692 367.41C928.509 366.495 929.486 365.79 930.624 365.295C931.762 364.8 933.018 364.553 934.391 364.553C935.813 364.553 937.069 364.794 938.157 365.276C939.246 365.746 940.155 366.414 940.885 367.28C941.615 368.146 942.165 369.185 942.536 370.397C942.907 371.597 943.093 372.927 943.093 374.387V376.446H927.358V373.069H938.269V372.698C938.244 371.919 938.095 371.208 937.823 370.564C937.551 369.909 937.131 369.389 936.562 369.006C935.993 368.61 935.257 368.412 934.354 368.412C933.624 368.412 932.987 368.573 932.442 368.895C931.91 369.204 931.465 369.649 931.106 370.23C930.76 370.799 930.5 371.48 930.327 372.271C930.154 373.063 930.067 373.941 930.067 374.906V375.648C930.067 376.49 930.179 377.269 930.401 377.986C930.636 378.704 930.977 379.328 931.422 379.86C931.88 380.38 932.424 380.788 933.055 381.085C933.698 381.369 934.428 381.512 935.244 381.512C936.271 381.512 937.199 381.314 938.027 380.918C938.868 380.51 939.598 379.91 940.217 379.118L942.685 381.679C942.264 382.297 941.695 382.891 940.978 383.46C940.272 384.029 939.419 384.493 938.417 384.852C937.415 385.198 936.258 385.371 934.947 385.371ZM951.183 369.21V385H946.284V364.924H950.886L951.183 369.21ZM950.403 374.238H948.956C948.968 372.779 949.166 371.455 949.55 370.268C949.933 369.08 950.471 368.06 951.164 367.206C951.869 366.353 952.704 365.697 953.669 365.239C954.634 364.782 955.71 364.553 956.897 364.553C957.862 364.553 958.734 364.689 959.514 364.961C960.293 365.233 960.961 365.666 961.518 366.26C962.087 366.854 962.52 367.633 962.816 368.598C963.126 369.55 963.28 370.725 963.28 372.123V385H958.345V372.086C958.345 371.171 958.209 370.447 957.937 369.915C957.677 369.383 957.293 369.006 956.786 368.783C956.291 368.561 955.679 368.449 954.949 368.449C954.195 368.449 953.533 368.604 952.964 368.913C952.407 369.21 951.937 369.624 951.554 370.156C951.183 370.688 950.898 371.3 950.7 371.993C950.502 372.686 950.403 373.434 950.403 374.238ZM979.646 380.732V356.5H984.581V385H980.128L979.646 380.732ZM966.75 375.203V374.813C966.75 373.28 966.923 371.888 967.27 370.639C967.628 369.377 968.148 368.295 968.828 367.392C969.508 366.489 970.331 365.79 971.296 365.295C972.273 364.8 973.38 364.553 974.617 364.553C975.817 364.553 976.862 364.794 977.753 365.276C978.656 365.759 979.423 366.445 980.054 367.336C980.697 368.227 981.21 369.284 981.594 370.509C981.977 371.721 982.256 373.057 982.429 374.517V375.574C982.256 376.997 981.977 378.302 981.594 379.489C981.21 380.677 980.697 381.716 980.054 382.606C979.423 383.485 978.656 384.165 977.753 384.647C976.85 385.13 975.792 385.371 974.58 385.371C973.355 385.371 972.255 385.118 971.277 384.61C970.312 384.103 969.49 383.392 968.81 382.477C968.142 381.561 967.628 380.485 967.27 379.248C966.923 378.011 966.75 376.663 966.75 375.203ZM971.667 374.813V375.203C971.667 376.069 971.741 376.879 971.89 377.634C972.038 378.388 972.279 379.056 972.613 379.638C972.947 380.207 973.374 380.652 973.894 380.974C974.425 381.295 975.069 381.456 975.823 381.456C976.788 381.456 977.58 381.246 978.198 380.825C978.829 380.392 979.318 379.805 979.664 379.062C980.01 378.308 980.233 377.461 980.332 376.521V373.607C980.283 372.865 980.153 372.179 979.942 371.548C979.744 370.917 979.46 370.373 979.089 369.915C978.73 369.457 978.285 369.099 977.753 368.839C977.221 368.579 976.59 368.449 975.86 368.449C975.106 368.449 974.463 368.616 973.931 368.95C973.399 369.272 972.966 369.723 972.632 370.305C972.298 370.886 972.05 371.56 971.89 372.327C971.741 373.094 971.667 373.923 971.667 374.813ZM998.033 385.371C996.512 385.371 995.145 385.124 993.933 384.629C992.72 384.134 991.688 383.448 990.834 382.569C989.993 381.679 989.343 380.646 988.886 379.471C988.44 378.283 988.218 377.009 988.218 375.648V374.906C988.218 373.36 988.44 371.956 988.886 370.694C989.331 369.42 989.962 368.326 990.778 367.41C991.595 366.495 992.572 365.79 993.71 365.295C994.848 364.8 996.104 364.553 997.477 364.553C998.899 364.553 1000.15 364.794 1001.24 365.276C1002.33 365.746 1003.24 366.414 1003.97 367.28C1004.7 368.146 1005.25 369.185 1005.62 370.397C1005.99 371.597 1006.18 372.927 1006.18 374.387V376.446H990.444V373.069H1001.35V372.698C1001.33 371.919 1001.18 371.208 1000.91 370.564C1000.64 369.909 1000.22 369.389 999.647 369.006C999.078 368.61 998.342 368.412 997.439 368.412C996.71 368.412 996.073 368.573 995.528 368.895C994.996 369.204 994.551 369.649 994.192 370.23C993.846 370.799 993.586 371.48 993.413 372.271C993.24 373.063 993.153 373.941 993.153 374.906V375.648C993.153 376.49 993.265 377.269 993.487 377.986C993.722 378.704 994.062 379.328 994.508 379.86C994.965 380.38 995.51 380.788 996.141 381.085C996.784 381.369 997.514 381.512 998.33 381.512C999.357 381.512 1000.28 381.314 1001.11 380.918C1001.95 380.51 1002.68 379.91 1003.3 379.118L1005.77 381.679C1005.35 382.297 1004.78 382.891 1004.06 383.46C1003.36 384.029 1002.5 384.493 1001.5 384.852C1000.5 385.198 999.344 385.371 998.033 385.371ZM1014.36 369.024V385H1009.46V364.924H1014.1L1014.36 369.024ZM1020.47 364.794L1020.39 369.358C1020.12 369.309 1019.81 369.272 1019.46 369.247C1019.13 369.222 1018.81 369.21 1018.52 369.21C1017.76 369.21 1017.1 369.315 1016.53 369.525C1015.96 369.723 1015.49 370.014 1015.1 370.397C1014.73 370.781 1014.45 371.251 1014.25 371.808C1014.05 372.352 1013.94 372.97 1013.92 373.663L1012.86 373.533C1012.86 372.259 1012.99 371.078 1013.25 369.989C1013.51 368.901 1013.89 367.948 1014.38 367.132C1014.87 366.315 1015.49 365.685 1016.24 365.239C1016.99 364.782 1017.86 364.553 1018.83 364.553C1019.11 364.553 1019.4 364.577 1019.71 364.627C1020.03 364.664 1020.28 364.72 1020.47 364.794ZM1031.8 385.371C1030.28 385.371 1028.91 385.124 1027.7 384.629C1026.49 384.134 1025.46 383.448 1024.6 382.569C1023.76 381.679 1023.11 380.646 1022.66 379.471C1022.21 378.283 1021.99 377.009 1021.99 375.648V374.906C1021.99 373.36 1022.21 371.956 1022.66 370.694C1023.1 369.42 1023.73 368.326 1024.55 367.41C1025.36 366.495 1026.34 365.79 1027.48 365.295C1028.62 364.8 1029.87 364.553 1031.25 364.553C1032.67 364.553 1033.92 364.794 1035.01 365.276C1036.1 365.746 1037.01 366.414 1037.74 367.28C1038.47 368.146 1039.02 369.185 1039.39 370.397C1039.76 371.597 1039.95 372.927 1039.95 374.387V376.446H1024.21V373.069H1035.12V372.698C1035.1 371.919 1034.95 371.208 1034.68 370.564C1034.41 369.909 1033.99 369.389 1033.42 369.006C1032.85 368.61 1032.11 368.412 1031.21 368.412C1030.48 368.412 1029.84 368.573 1029.3 368.895C1028.77 369.204 1028.32 369.649 1027.96 370.23C1027.62 370.799 1027.36 371.48 1027.18 372.271C1027.01 373.063 1026.92 373.941 1026.92 374.906V375.648C1026.92 376.49 1027.03 377.269 1027.26 377.986C1027.49 378.704 1027.83 379.328 1028.28 379.86C1028.74 380.38 1029.28 380.788 1029.91 381.085C1030.55 381.369 1031.28 381.512 1032.1 381.512C1033.13 381.512 1034.05 381.314 1034.88 380.918C1035.72 380.51 1036.45 379.91 1037.07 379.118L1039.54 381.679C1039.12 382.297 1038.55 382.891 1037.83 383.46C1037.13 384.029 1036.27 384.493 1035.27 384.852C1034.27 385.198 1033.11 385.371 1031.8 385.371ZM1055.27 380.732V356.5H1060.21V385H1055.76L1055.27 380.732ZM1042.38 375.203V374.813C1042.38 373.28 1042.55 371.888 1042.9 370.639C1043.26 369.377 1043.78 368.295 1044.46 367.392C1045.14 366.489 1045.96 365.79 1046.92 365.295C1047.9 364.8 1049.01 364.553 1050.25 364.553C1051.45 364.553 1052.49 364.794 1053.38 365.276C1054.28 365.759 1055.05 366.445 1055.68 367.336C1056.33 368.227 1056.84 369.284 1057.22 370.509C1057.61 371.721 1057.88 373.057 1058.06 374.517V375.574C1057.88 376.997 1057.61 378.302 1057.22 379.489C1056.84 380.677 1056.33 381.716 1055.68 382.606C1055.05 383.485 1054.28 384.165 1053.38 384.647C1052.48 385.13 1051.42 385.371 1050.21 385.371C1048.98 385.371 1047.88 385.118 1046.91 384.61C1045.94 384.103 1045.12 383.392 1044.44 382.477C1043.77 381.561 1043.26 380.485 1042.9 379.248C1042.55 378.011 1042.38 376.663 1042.38 375.203ZM1047.3 374.813V375.203C1047.3 376.069 1047.37 376.879 1047.52 377.634C1047.67 378.388 1047.91 379.056 1048.24 379.638C1048.58 380.207 1049 380.652 1049.52 380.974C1050.05 381.295 1050.7 381.456 1051.45 381.456C1052.42 381.456 1053.21 381.246 1053.83 380.825C1054.46 380.392 1054.95 379.805 1055.29 379.062C1055.64 378.308 1055.86 377.461 1055.96 376.521V373.607C1055.91 372.865 1055.78 372.179 1055.57 371.548C1055.37 370.917 1055.09 370.373 1054.72 369.915C1054.36 369.457 1053.91 369.099 1053.38 368.839C1052.85 368.579 1052.22 368.449 1051.49 368.449C1050.73 368.449 1050.09 368.616 1049.56 368.95C1049.03 369.272 1048.59 369.723 1048.26 370.305C1047.93 370.886 1047.68 371.56 1047.52 372.327C1047.37 373.094 1047.3 373.923 1047.3 374.813ZM949.735 414.136V418.144H935.522V414.136H949.735ZM936.914 402.984V430H931.812V402.984H936.914ZM953.521 402.984V430H948.418V402.984H953.521ZM969.756 402.984V430H964.672V402.984H969.756ZM978.143 402.984V407.011H956.378V402.984H978.143ZM983.765 402.984H988.181L995.565 423.32L1002.93 402.984H1007.37L997.328 430H993.784L983.765 402.984ZM981.538 402.984H985.861L986.641 421.669V430H981.538V402.984ZM1005.25 402.984H1009.59V430H1004.49V421.669L1005.25 402.984ZM1031.93 425.992V430H1018.35V425.992H1031.93ZM1019.89 402.984V430H1014.79V402.984H1019.89Z"/><g clip-path="url(#clip0_21_88)"><path fill="#F7DF1E" d="M110 35H170V95H110V35Z"/><path fill="#000" d="M125.776 85.1401L130.368 82.3613C131.254 83.9319 132.059 85.2608 133.992 85.2608C135.845 85.2608 137.013 84.5361 137.013 81.7171V62.5456H142.652V81.7967C142.652 87.6367 139.228 90.2949 134.234 90.2949C129.723 90.2949 127.105 87.9589 125.776 85.1396M145.714 84.5359L150.305 81.8778C151.514 83.8515 153.085 85.3013 155.863 85.3013C158.2 85.3013 159.69 84.1332 159.69 82.5221C159.69 80.589 158.159 79.9042 155.581 78.7768L154.172 78.1721C150.104 76.4408 147.406 74.2658 147.406 69.6744C147.406 65.4453 150.628 62.2231 155.662 62.2231C159.247 62.2231 161.825 63.4719 163.677 66.7342L159.287 69.5537C158.32 67.8219 157.273 67.1373 155.662 67.1373C154.011 67.1373 152.964 68.1845 152.964 69.5537C152.964 71.2452 154.011 71.9303 156.427 72.9774L157.837 73.5814C162.63 75.6357 165.328 77.7299 165.328 82.4417C165.328 87.5169 161.341 90.2956 155.984 90.2956C150.748 90.2956 147.365 87.7986 145.714 84.5361"/></g><g clip-path="url(#clip1_21_88)"><path fill="#3178C6" d="M204.688 35H255.312C257.901 35 260 37.0986 260 39.6875V90.3125C260 92.9014 257.901 95 255.312 95H204.688C202.099 95 200 92.9014 200 90.3125V39.6875C200 37.0986 202.099 35 204.688 35Z"/><path fill="#fff" d="M235.278 81.9863V88.4598C236.33 88.9993 237.576 89.4038 239.013 89.6736C240.451 89.9434 241.966 90.0781 243.558 90.0781C245.11 90.0781 246.585 89.9298 247.982 89.633C249.379 89.3363 250.604 88.8474 251.656 88.1666C252.709 87.4855 253.543 86.5953 254.157 85.4961C254.771 84.3971 255.078 83.0384 255.078 81.4201C255.078 80.2468 254.903 79.2184 254.552 78.335C254.205 77.4576 253.689 76.6569 253.033 75.9784C252.372 75.2905 251.579 74.6736 250.655 74.1273C249.73 73.5812 248.687 73.0653 247.526 72.5799C246.676 72.2291 245.914 71.8887 245.239 71.5583C244.564 71.2278 243.99 70.8908 243.518 70.5467C243.045 70.2029 242.681 69.8387 242.424 69.4543C242.168 69.0699 242.04 68.6352 242.04 68.1495C242.04 67.7045 242.154 67.3034 242.384 66.946C242.613 66.5886 242.938 66.2818 243.356 66.0256C243.774 65.7692 244.287 65.5705 244.895 65.4287C245.502 65.2871 246.177 65.2163 246.919 65.2163C247.459 65.2163 248.029 65.2569 248.63 65.3377C249.23 65.4186 249.834 65.5433 250.442 65.712C251.048 65.8799 251.64 66.0929 252.213 66.3493C252.77 66.5958 253.302 66.8938 253.803 67.2392V61.1907C252.817 60.8131 251.741 60.5333 250.573 60.3512C249.406 60.1691 248.066 60.0781 246.555 60.0781C245.016 60.0781 243.558 60.2434 242.182 60.5738C240.805 60.9041 239.593 61.4199 238.547 62.1212C237.501 62.8227 236.675 63.7161 236.067 64.8017C235.46 65.8873 235.156 67.1853 235.156 68.6959C235.156 70.6243 235.713 72.2696 236.827 73.6318C237.94 74.9937 239.63 76.1469 241.898 77.0909C242.735 77.4318 243.565 77.7893 244.388 78.1632C245.158 78.5138 245.822 78.8778 246.383 79.2554C246.943 79.633 247.385 80.0443 247.709 80.4894C248.033 80.9345 248.195 81.4402 248.195 82.0067C248.197 82.4144 248.092 82.8156 247.891 83.1699C247.689 83.5271 247.381 83.8374 246.97 84.1004C246.558 84.3634 246.045 84.5689 245.431 84.7173C244.817 84.8656 244.098 84.9399 243.275 84.9399C241.871 84.9399 240.481 84.6938 239.104 84.2014C237.727 83.7092 236.452 82.9709 235.278 81.9863ZM224.488 65.877H232.812V60.5469H209.609V65.877H217.893V89.6094H224.488V65.877Z"/></g><g clip-path="url(#clip2_21_88)"><path fill="#41B883" d="M345.604 35H359.504L324.753 94.9457L290.002 35H316.586L324.753 48.9005L332.746 35H345.604Z"/><path fill="#41B883" d="M290.002 35L324.753 94.9457L359.504 35H345.604L324.753 70.9674L303.729 35H290.002Z"/><path fill="#35495E" d="M303.729 35L324.753 71.1412L345.604 35H332.746L324.753 48.9005L316.587 35H303.729Z"/></g><path fill="#C892E9" d="M820 115L789.913 97.8305L790.087 132.471L820 115ZM422.015 120L793.015 118.136L792.985 112.136L421.985 114L422.015 120Z"/><path fill="#DC4747" d="M422 164L452 181.321V146.679L422 164ZM449 167H820V161H449V167Z"/><path fill="#3178C6" d="M1142 144L1171.84 126.402L1172.16 161.042L1142 144ZM1250.03 146L1169.03 146.75L1168.97 140.75L1249.97 140L1250.03 146Z"/><path fill="#3178C6" d="M985 323L1002.84 293.308L968.208 292.701L985 323ZM984 208.947L982.474 295.952L988.473 296.057L990 209.053L984 208.947Z"/><path fill="#DC4747" d="M600.014 202.266V205.958H585.671V202.266H600.014ZM586.821 190.984V218H582.164V190.984H586.821ZM603.595 190.984V218H598.956V190.984H603.595ZM611.035 190.984H615.191L623.003 211.821L630.796 190.984H634.952L624.636 218H621.333L611.035 190.984ZM609.143 190.984H613.095L613.781 209.02V218H609.143V190.984ZM632.893 190.984H636.863V218H632.206V209.02L632.893 190.984ZM642.393 190.984H651.948C654.002 190.984 655.752 191.294 657.199 191.912C658.646 192.531 659.754 193.446 660.521 194.658C661.3 195.858 661.689 197.342 661.689 199.111C661.689 200.46 661.442 201.647 660.947 202.674C660.452 203.701 659.754 204.566 658.851 205.271C657.948 205.964 656.871 206.502 655.622 206.886L654.212 207.572H645.621L645.584 203.88H652.022C653.136 203.88 654.063 203.682 654.806 203.286C655.548 202.89 656.104 202.352 656.476 201.672C656.859 200.979 657.051 200.2 657.051 199.334C657.051 198.394 656.865 197.577 656.494 196.885C656.135 196.18 655.579 195.642 654.824 195.271C654.07 194.887 653.111 194.695 651.948 194.695H647.05V218H642.393V190.984ZM657.812 218L651.466 205.865L656.346 205.847L662.784 217.759V218H657.812Z"/><path fill="#C892E9" d="M546.688 82.75V84.2344C546.688 86.2754 546.422 88.1061 545.89 89.7266C545.358 91.347 544.597 92.7262 543.607 93.8643C542.63 95.0023 541.455 95.8743 540.082 96.4805C538.709 97.0742 537.188 97.3711 535.518 97.3711C533.86 97.3711 532.345 97.0742 530.972 96.4805C529.611 95.8743 528.43 95.0023 527.428 93.8643C526.426 92.7262 525.646 91.347 525.09 89.7266C524.546 88.1061 524.273 86.2754 524.273 84.2344V82.75C524.273 80.709 524.546 78.8844 525.09 77.2764C525.634 75.6559 526.401 74.2767 527.391 73.1387C528.393 71.9883 529.574 71.1162 530.935 70.5225C532.308 69.9163 533.823 69.6133 535.48 69.6133C537.15 69.6133 538.672 69.9163 540.045 70.5225C541.418 71.1162 542.599 71.9883 543.589 73.1387C544.578 74.2767 545.339 75.6559 545.871 77.2764C546.415 78.8844 546.688 80.709 546.688 82.75ZM542.03 84.2344V82.7129C542.03 81.2038 541.882 79.874 541.585 78.7236C541.3 77.5609 540.874 76.5898 540.305 75.8105C539.748 75.0189 539.062 74.4251 538.245 74.0293C537.429 73.6211 536.507 73.417 535.48 73.417C534.454 73.417 533.538 73.6211 532.734 74.0293C531.93 74.4251 531.244 75.0189 530.675 75.8105C530.118 76.5898 529.691 77.5609 529.395 78.7236C529.098 79.874 528.949 81.2038 528.949 82.7129V84.2344C528.949 85.7435 529.098 87.0794 529.395 88.2422C529.691 89.4049 530.124 90.3883 530.693 91.1924C531.275 91.984 531.967 92.584 532.771 92.9922C533.576 93.388 534.491 93.5859 535.518 93.5859C536.557 93.5859 537.478 93.388 538.282 92.9922C539.086 92.584 539.767 91.984 540.323 91.1924C540.88 90.3883 541.3 89.4049 541.585 88.2422C541.882 87.0794 542.03 85.7435 542.03 84.2344ZM555.334 81.21V97H550.862V76.9238H555.074L555.334 81.21ZM554.536 86.2197L553.089 86.2012C553.101 84.7786 553.299 83.4736 553.683 82.2861C554.078 81.0986 554.623 80.0781 555.315 79.2246C556.021 78.3711 556.862 77.7155 557.839 77.2578C558.816 76.7878 559.905 76.5527 561.104 76.5527C562.069 76.5527 562.941 76.6888 563.721 76.9609C564.512 77.2207 565.187 77.6475 565.743 78.2412C566.312 78.835 566.745 79.6081 567.042 80.5605C567.339 81.5007 567.487 82.6572 567.487 84.0303V97H562.997V84.0117C562.997 83.0469 562.855 82.2861 562.57 81.7295C562.298 81.1605 561.896 80.7585 561.364 80.5234C560.845 80.276 560.195 80.1523 559.416 80.1523C558.649 80.1523 557.963 80.3132 557.356 80.6348C556.75 80.9564 556.237 81.3955 555.816 81.9521C555.408 82.5088 555.093 83.152 554.87 83.8818C554.647 84.6117 554.536 85.391 554.536 86.2197ZM581.051 83.6777V87.2402H571.235V83.6777H581.051ZM597.212 92.8438V68.5H601.702V97H597.639L597.212 92.8438ZM584.149 87.1846V86.7949C584.149 85.2734 584.329 83.888 584.688 82.6387C585.046 81.377 585.566 80.2946 586.246 79.3916C586.926 78.4762 587.755 77.7773 588.732 77.2949C589.71 76.8001 590.811 76.5527 592.035 76.5527C593.247 76.5527 594.311 76.7878 595.227 77.2578C596.142 77.7279 596.921 78.402 597.564 79.2803C598.208 80.1462 598.721 81.1852 599.104 82.3975C599.488 83.5973 599.76 84.9333 599.921 86.4053V87.6484C599.76 89.0833 599.488 90.3945 599.104 91.582C598.721 92.7695 598.208 93.7962 597.564 94.6621C596.921 95.528 596.136 96.196 595.208 96.666C594.293 97.1361 593.223 97.3711 591.998 97.3711C590.786 97.3711 589.691 97.1175 588.714 96.6104C587.749 96.1032 586.926 95.3919 586.246 94.4766C585.566 93.5612 585.046 92.485 584.688 91.248C584.329 89.9987 584.149 88.6442 584.149 87.1846ZM588.621 86.7949V87.1846C588.621 88.0999 588.701 88.9535 588.862 89.7451C589.035 90.5368 589.301 91.2357 589.66 91.8418C590.019 92.4355 590.483 92.9056 591.052 93.252C591.633 93.5859 592.326 93.7529 593.13 93.7529C594.144 93.7529 594.979 93.5303 595.635 93.085C596.29 92.6396 596.804 92.0397 597.175 91.2852C597.558 90.5182 597.818 89.6647 597.954 88.7246V85.3662C597.88 84.6364 597.725 83.9561 597.49 83.3252C597.268 82.6943 596.965 82.1439 596.581 81.6738C596.198 81.1914 595.721 80.8203 595.152 80.5605C594.596 80.2884 593.934 80.1523 593.167 80.1523C592.351 80.1523 591.658 80.3255 591.089 80.6719C590.52 81.0182 590.05 81.4945 589.679 82.1006C589.32 82.7067 589.054 83.4118 588.881 84.2158C588.708 85.0199 588.621 85.8796 588.621 86.7949ZM615.229 97.3711C613.744 97.3711 612.402 97.1299 611.202 96.6475C610.015 96.1527 609 95.4661 608.159 94.5879C607.33 93.7096 606.693 92.6768 606.248 91.4893C605.803 90.3018 605.58 89.0215 605.58 87.6484V86.9062C605.58 85.3353 605.809 83.9128 606.267 82.6387C606.724 81.3646 607.361 80.276 608.178 79.373C608.994 78.4577 609.959 77.7588 611.072 77.2764C612.186 76.7939 613.392 76.5527 614.69 76.5527C616.125 76.5527 617.381 76.7939 618.457 77.2764C619.533 77.7588 620.424 78.4391 621.129 79.3174C621.846 80.1833 622.378 81.2161 622.725 82.416C623.083 83.6159 623.263 84.9395 623.263 86.3867V88.2979H607.751V85.0879H618.847V84.7354C618.822 83.9313 618.661 83.1768 618.364 82.4717C618.08 81.7666 617.641 81.1976 617.047 80.7646C616.453 80.3317 615.661 80.1152 614.672 80.1152C613.93 80.1152 613.268 80.276 612.687 80.5977C612.118 80.9069 611.641 81.3584 611.258 81.9521C610.874 82.5459 610.577 83.2633 610.367 84.1045C610.169 84.9333 610.07 85.8672 610.07 86.9062V87.6484C610.07 88.5267 610.188 89.3431 610.423 90.0977C610.67 90.8398 611.029 91.4893 611.499 92.0459C611.969 92.6025 612.538 93.0417 613.206 93.3633C613.874 93.6725 614.635 93.8271 615.488 93.8271C616.564 93.8271 617.523 93.6107 618.364 93.1777C619.205 92.7448 619.935 92.1325 620.554 91.3408L622.91 93.623C622.477 94.2539 621.914 94.86 621.222 95.4414C620.529 96.0104 619.682 96.4743 618.68 96.833C617.69 97.1917 616.54 97.3711 615.229 97.3711ZM631.223 81.0059V97H626.751V76.9238H630.963L631.223 81.0059ZM630.499 86.2197L628.978 86.2012C628.978 84.8158 629.151 83.5355 629.497 82.3604C629.843 81.1852 630.351 80.1647 631.019 79.2988C631.687 78.4206 632.515 77.7464 633.505 77.2764C634.507 76.7939 635.663 76.5527 636.975 76.5527C637.89 76.5527 638.725 76.6888 639.479 76.9609C640.246 77.2207 640.908 77.6351 641.465 78.2041C642.034 78.7731 642.467 79.5029 642.764 80.3936C643.073 81.2842 643.228 82.3604 643.228 83.6221V97H638.756V84.0117C638.756 83.0345 638.607 82.2676 638.311 81.7109C638.026 81.1543 637.612 80.7585 637.067 80.5234C636.535 80.276 635.898 80.1523 635.156 80.1523C634.315 80.1523 633.598 80.3132 633.004 80.6348C632.423 80.9564 631.946 81.3955 631.575 81.9521C631.204 82.5088 630.932 83.152 630.759 83.8818C630.586 84.6117 630.499 85.391 630.499 86.2197ZM642.949 85.0322L640.853 85.4961C640.853 84.2839 641.02 83.1396 641.354 82.0635C641.7 80.9749 642.201 80.0225 642.856 79.2061C643.524 78.3773 644.347 77.7279 645.324 77.2578C646.301 76.7878 647.421 76.5527 648.683 76.5527C649.709 76.5527 650.625 76.695 651.429 76.9795C652.245 77.2516 652.938 77.6846 653.507 78.2783C654.076 78.8721 654.509 79.6452 654.806 80.5977C655.103 81.5378 655.251 82.6758 655.251 84.0117V97H650.761V83.9932C650.761 82.9788 650.612 82.1934 650.315 81.6367C650.031 81.0801 649.623 80.6966 649.091 80.4863C648.559 80.2637 647.922 80.1523 647.18 80.1523C646.487 80.1523 645.875 80.2822 645.343 80.542C644.823 80.7894 644.384 81.1419 644.025 81.5996C643.667 82.0449 643.395 82.5583 643.209 83.1396C643.036 83.721 642.949 84.3519 642.949 85.0322ZM671.171 92.9736V83.3994C671.171 82.682 671.041 82.0635 670.781 81.5439C670.521 81.0244 670.126 80.6224 669.594 80.3379C669.074 80.0534 668.419 79.9111 667.627 79.9111C666.897 79.9111 666.266 80.0348 665.734 80.2822C665.202 80.5296 664.788 80.8636 664.491 81.2842C664.194 81.7048 664.046 82.181 664.046 82.7129H659.593C659.593 81.9212 659.785 81.1543 660.168 80.4121C660.551 79.6699 661.108 79.0081 661.838 78.4268C662.568 77.8454 663.44 77.3877 664.454 77.0537C665.468 76.7197 666.606 76.5527 667.868 76.5527C669.377 76.5527 670.713 76.8063 671.876 77.3135C673.051 77.8206 673.973 78.5876 674.641 79.6143C675.321 80.6286 675.661 81.9027 675.661 83.4365V92.3613C675.661 93.2767 675.723 94.0993 675.847 94.8291C675.983 95.5465 676.174 96.1712 676.422 96.7031V97H671.839C671.629 96.5176 671.462 95.9053 671.338 95.1631C671.227 94.4085 671.171 93.6787 671.171 92.9736ZM671.82 84.791L671.857 87.5557H668.647C667.819 87.5557 667.089 87.6361 666.458 87.7969C665.827 87.9453 665.301 88.168 664.881 88.4648C664.46 88.7617 664.145 89.1204 663.935 89.541C663.724 89.9616 663.619 90.4378 663.619 90.9697C663.619 91.5016 663.743 91.9902 663.99 92.4355C664.238 92.8685 664.596 93.2087 665.066 93.4561C665.549 93.7035 666.13 93.8271 666.811 93.8271C667.726 93.8271 668.524 93.6416 669.204 93.2705C669.897 92.887 670.441 92.4232 670.837 91.8789C671.233 91.3223 671.443 90.7965 671.468 90.3018L672.915 92.2871C672.767 92.7943 672.513 93.3385 672.154 93.9199C671.796 94.5013 671.326 95.0579 670.744 95.5898C670.175 96.1094 669.489 96.5361 668.685 96.8701C667.893 97.2041 666.978 97.3711 665.938 97.3711C664.627 97.3711 663.458 97.1113 662.432 96.5918C661.405 96.0599 660.601 95.3486 660.02 94.458C659.438 93.555 659.147 92.5345 659.147 91.3965C659.147 90.3327 659.345 89.3926 659.741 88.5762C660.149 87.7474 660.743 87.0547 661.522 86.498C662.314 85.9414 663.279 85.5208 664.417 85.2363C665.555 84.9395 666.854 84.791 668.313 84.791H671.82ZM684.771 81.21V97H680.3V76.9238H684.512L684.771 81.21ZM683.974 86.2197L682.526 86.2012C682.539 84.7786 682.737 83.4736 683.12 82.2861C683.516 81.0986 684.06 80.0781 684.753 79.2246C685.458 78.3711 686.299 77.7155 687.276 77.2578C688.254 76.7878 689.342 76.5527 690.542 76.5527C691.507 76.5527 692.379 76.6888 693.158 76.9609C693.95 77.2207 694.624 77.6475 695.181 78.2412C695.75 78.835 696.183 79.6081 696.479 80.5605C696.776 81.5007 696.925 82.6572 696.925 84.0303V97H692.435V84.0117C692.435 83.0469 692.292 82.2861 692.008 81.7295C691.736 81.1605 691.334 80.7585 690.802 80.5234C690.282 80.276 689.633 80.1523 688.854 80.1523C688.087 80.1523 687.4 80.3132 686.794 80.6348C686.188 80.9564 685.674 81.3955 685.254 81.9521C684.846 82.5088 684.53 83.152 684.308 83.8818C684.085 84.6117 683.974 85.391 683.974 86.2197ZM713.735 92.8438V68.5H718.226V97H714.162L713.735 92.8438ZM700.673 87.1846V86.7949C700.673 85.2734 700.852 83.888 701.211 82.6387C701.57 81.377 702.089 80.2946 702.77 79.3916C703.45 78.4762 704.279 77.7773 705.256 77.2949C706.233 76.8001 707.334 76.5527 708.559 76.5527C709.771 76.5527 710.835 76.7878 711.75 77.2578C712.665 77.7279 713.445 78.402 714.088 79.2803C714.731 80.1462 715.244 81.1852 715.628 82.3975C716.011 83.5973 716.284 84.9333 716.444 86.4053V87.6484C716.284 89.0833 716.011 90.3945 715.628 91.582C715.244 92.7695 714.731 93.7962 714.088 94.6621C713.445 95.528 712.659 96.196 711.731 96.666C710.816 97.1361 709.746 97.3711 708.521 97.3711C707.309 97.3711 706.215 97.1175 705.237 96.6104C704.272 96.1032 703.45 95.3919 702.77 94.4766C702.089 93.5612 701.57 92.485 701.211 91.248C700.852 89.9987 700.673 88.6442 700.673 87.1846ZM705.145 86.7949V87.1846C705.145 88.0999 705.225 88.9535 705.386 89.7451C705.559 90.5368 705.825 91.2357 706.184 91.8418C706.542 92.4355 707.006 92.9056 707.575 93.252C708.157 93.5859 708.849 93.7529 709.653 93.7529C710.668 93.7529 711.503 93.5303 712.158 93.085C712.814 92.6396 713.327 92.0397 713.698 91.2852C714.082 90.5182 714.341 89.6647 714.478 88.7246V85.3662C714.403 84.6364 714.249 83.9561 714.014 83.3252C713.791 82.6943 713.488 82.1439 713.104 81.6738C712.721 81.1914 712.245 80.8203 711.676 80.5605C711.119 80.2884 710.457 80.1523 709.69 80.1523C708.874 80.1523 708.181 80.3255 707.612 80.6719C707.043 81.0182 706.573 81.4945 706.202 82.1006C705.843 82.7067 705.577 83.4118 705.404 84.2158C705.231 85.0199 705.145 85.8796 705.145 86.7949Z"/><path fill="#333" d="M983.5 15.7321C985.356 14.6603 987.644 14.6603 989.5 15.7321L1023.77 35.518C1025.63 36.5897 1026.77 38.5705 1026.77 40.7141V80.2859C1026.77 82.4295 1025.63 84.4103 1023.77 85.4821L989.5 105.268C987.644 106.34 985.356 106.34 983.5 105.268L949.23 85.482C947.373 84.4103 946.23 82.4295 946.23 80.2859V40.7141C946.23 38.5705 947.373 36.5897 949.23 35.5179L983.5 15.7321Z"/><path fill="#99D253" fill-rule="evenodd" d="M985.634 24.0002C986.412 23.5514 987.37 23.5514 988.147 24.0002L1017.53 40.9616C1018.3 41.4105 1018.78 42.24 1018.78 43.1377V77.0605C1018.78 77.9582 1018.3 78.7878 1017.53 79.2366L988.147 96.198C987.37 96.6469 986.412 96.6469 985.634 96.198L956.256 79.2366C955.479 78.7878 955 77.9582 955 77.0605V43.1377C955 42.24 955.479 41.4105 956.256 40.9616L985.634 24.0002ZM960.026 44.5885V75.6097L986.891 91.1203L1013.76 75.6097V44.5885L986.891 29.0779L960.026 44.5885Z" clip-rule="evenodd"/><path fill="#FCC72B" fill-rule="evenodd" d="M987.008 23.5863C987.997 23.7567 988.746 24.5759 988.826 25.5768L990.898 51.3275L1005.92 50.119C1006.7 50.0567 1007.44 50.4077 1007.89 51.0423C1008.34 51.6768 1008.42 52.5008 1008.1 53.2098L989.217 95.3513C988.807 96.2676 987.827 96.7893 986.838 96.6189C985.848 96.4485 985.1 95.6293 985.019 94.6284L982.948 68.8777L967.925 70.0863C967.15 70.1485 966.401 69.7976 965.952 69.163C965.504 68.5284 965.424 67.7044 965.742 66.9954L984.628 24.8539C985.039 23.9376 986.018 23.4159 987.008 23.5863ZM971.273 65.4053L984.787 64.3182C985.997 64.2208 987.057 65.1231 987.155 66.3335L988.714 85.7212L1002.57 54.7999L989.059 55.887C987.848 55.9844 986.788 55.0821 986.691 53.8717L985.131 34.484L971.273 65.4053Z" clip-rule="evenodd"/><defs><clipPath id="clip0_21_88"><rect width="60" height="60" fill="#fff" transform="translate(110 35)"/></clipPath><clipPath id="clip1_21_88"><rect width="60" height="60" fill="#fff" transform="translate(200 35)"/></clipPath><clipPath id="clip2_21_88"><rect width="69.506" height="60" fill="#fff" transform="translate(290 35)"/></clipPath></defs></svg>