<svg width="1538" height="503" viewBox="0 0 1538 503" fill="none" xmlns="http://www.w3.org/2000/svg">
<rect x="47" y="69" width="375" height="140" rx="10" fill="#029788"/>
<path d="M132.925 145.748C132.925 145.174 132.836 144.661 132.658 144.21C132.494 143.745 132.187 143.328 131.735 142.959C131.298 142.576 130.676 142.207 129.869 141.852C129.076 141.482 128.051 141.1 126.793 140.703C125.398 140.266 124.1 139.773 122.896 139.227C121.693 138.68 120.634 138.044 119.718 137.319C118.815 136.595 118.111 135.761 117.605 134.817C117.1 133.86 116.847 132.753 116.847 131.495C116.847 130.265 117.106 129.144 117.626 128.132C118.159 127.12 118.911 126.252 119.882 125.527C120.853 124.789 121.994 124.222 123.307 123.825C124.633 123.429 126.096 123.23 127.695 123.23C129.91 123.23 131.824 123.634 133.438 124.44C135.064 125.247 136.322 126.341 137.211 127.722C138.1 129.103 138.544 130.654 138.544 132.377H132.925C132.925 131.447 132.727 130.627 132.33 129.916C131.947 129.205 131.359 128.645 130.566 128.234C129.787 127.824 128.803 127.619 127.613 127.619C126.465 127.619 125.508 127.79 124.742 128.132C123.99 128.474 123.423 128.938 123.04 129.526C122.671 130.114 122.486 130.771 122.486 131.495C122.486 132.042 122.616 132.534 122.876 132.972C123.136 133.396 123.525 133.799 124.045 134.182C124.564 134.551 125.207 134.899 125.973 135.228C126.752 135.542 127.654 135.856 128.68 136.171C130.32 136.663 131.756 137.21 132.986 137.812C134.23 138.413 135.263 139.097 136.083 139.862C136.917 140.628 137.539 141.489 137.949 142.446C138.373 143.403 138.585 144.49 138.585 145.707C138.585 146.992 138.332 148.141 137.826 149.152C137.32 150.164 136.596 151.025 135.652 151.736C134.709 152.447 133.574 152.987 132.248 153.356C130.936 153.726 129.466 153.91 127.839 153.91C126.39 153.91 124.954 153.719 123.532 153.336C122.124 152.939 120.846 152.352 119.697 151.572C118.549 150.779 117.633 149.781 116.949 148.578C116.266 147.361 115.924 145.939 115.924 144.312H121.584C121.584 145.256 121.734 146.062 122.035 146.732C122.35 147.389 122.787 147.929 123.348 148.353C123.922 148.763 124.592 149.063 125.357 149.255C126.123 149.446 126.95 149.542 127.839 149.542C128.987 149.542 129.931 149.385 130.669 149.07C131.421 148.742 131.981 148.291 132.351 147.717C132.733 147.143 132.925 146.486 132.925 145.748ZM141.559 142.631V142.2C141.559 140.573 141.791 139.076 142.256 137.709C142.721 136.328 143.397 135.132 144.286 134.12C145.175 133.108 146.262 132.322 147.547 131.762C148.832 131.188 150.295 130.9 151.936 130.9C153.604 130.9 155.08 131.188 156.365 131.762C157.664 132.322 158.758 133.108 159.646 134.12C160.535 135.132 161.212 136.328 161.677 137.709C162.142 139.076 162.374 140.573 162.374 142.2V142.631C162.374 144.244 162.142 145.741 161.677 147.122C161.212 148.489 160.535 149.686 159.646 150.711C158.758 151.723 157.671 152.509 156.386 153.069C155.101 153.63 153.631 153.91 151.977 153.91C150.336 153.91 148.866 153.63 147.567 153.069C146.269 152.509 145.175 151.723 144.286 150.711C143.397 149.686 142.721 148.489 142.256 147.122C141.791 145.741 141.559 144.244 141.559 142.631ZM146.973 142.2V142.631C146.973 143.602 147.068 144.511 147.26 145.358C147.451 146.206 147.745 146.951 148.142 147.594C148.538 148.236 149.051 148.742 149.68 149.111C150.322 149.467 151.088 149.645 151.977 149.645C152.852 149.645 153.604 149.467 154.232 149.111C154.861 148.742 155.374 148.236 155.771 147.594C156.181 146.951 156.481 146.206 156.673 145.358C156.864 144.511 156.96 143.602 156.96 142.631V142.2C156.96 141.243 156.864 140.348 156.673 139.514C156.481 138.666 156.181 137.921 155.771 137.278C155.374 136.622 154.854 136.109 154.212 135.74C153.583 135.357 152.824 135.166 151.936 135.166C151.061 135.166 150.309 135.357 149.68 135.74C149.051 136.109 148.538 136.622 148.142 137.278C147.745 137.921 147.451 138.666 147.26 139.514C147.068 140.348 146.973 141.243 146.973 142.2ZM179.519 148.229V131.311H184.974V153.5H179.847L179.519 148.229ZM180.216 143.636L181.897 143.595C181.897 145.085 181.733 146.459 181.405 147.717C181.077 148.975 180.564 150.068 179.867 150.998C179.184 151.914 178.315 152.632 177.263 153.151C176.21 153.657 174.966 153.91 173.53 153.91C172.437 153.91 171.438 153.76 170.536 153.459C169.634 153.145 168.854 152.659 168.198 152.003C167.556 151.333 167.057 150.479 166.701 149.439C166.346 148.387 166.168 147.122 166.168 145.646V131.311H171.582V145.687C171.582 146.425 171.664 147.04 171.828 147.532C172.006 148.024 172.245 148.428 172.546 148.742C172.86 149.043 173.223 149.262 173.633 149.398C174.057 149.521 174.508 149.583 174.986 149.583C176.299 149.583 177.331 149.323 178.083 148.804C178.849 148.271 179.396 147.56 179.724 146.671C180.052 145.769 180.216 144.757 180.216 143.636ZM195.187 135.843V153.5H189.772V131.311H194.899L195.187 135.843ZM201.934 131.167L201.852 136.212C201.551 136.157 201.209 136.116 200.826 136.089C200.457 136.062 200.108 136.048 199.78 136.048C198.946 136.048 198.215 136.164 197.586 136.396C196.957 136.615 196.431 136.937 196.007 137.36C195.597 137.784 195.282 138.304 195.063 138.919C194.845 139.521 194.722 140.204 194.694 140.97L193.525 140.826C193.525 139.418 193.669 138.112 193.956 136.909C194.243 135.706 194.66 134.653 195.207 133.751C195.754 132.849 196.438 132.151 197.258 131.659C198.092 131.153 199.049 130.9 200.129 130.9C200.43 130.9 200.751 130.928 201.093 130.982C201.448 131.023 201.729 131.085 201.934 131.167ZM213.603 149.645C214.368 149.645 215.052 149.494 215.653 149.193C216.255 148.893 216.733 148.469 217.089 147.922C217.458 147.375 217.656 146.739 217.684 146.015H222.79C222.763 147.519 222.339 148.865 221.519 150.055C220.698 151.244 219.604 152.188 218.237 152.885C216.884 153.568 215.366 153.91 213.685 153.91C211.976 153.91 210.485 153.623 209.214 153.049C207.942 152.475 206.883 151.675 206.035 150.649C205.201 149.624 204.572 148.435 204.148 147.081C203.738 145.728 203.533 144.278 203.533 142.733V142.077C203.533 140.532 203.738 139.083 204.148 137.729C204.572 136.376 205.201 135.187 206.035 134.161C206.883 133.136 207.942 132.336 209.214 131.762C210.485 131.188 211.969 130.9 213.664 130.9C215.455 130.9 217.027 131.249 218.381 131.946C219.748 132.644 220.814 133.628 221.58 134.899C222.359 136.171 222.763 137.668 222.79 139.391H217.684C217.656 138.598 217.479 137.887 217.15 137.258C216.822 136.629 216.357 136.123 215.756 135.74C215.154 135.357 214.423 135.166 213.562 135.166C212.646 135.166 211.88 135.357 211.265 135.74C210.663 136.123 210.191 136.649 209.85 137.319C209.521 137.976 209.289 138.714 209.152 139.534C209.029 140.341 208.968 141.188 208.968 142.077V142.733C208.968 143.636 209.029 144.497 209.152 145.317C209.289 146.138 209.521 146.876 209.85 147.532C210.191 148.175 210.663 148.688 211.265 149.07C211.88 149.453 212.659 149.645 213.603 149.645ZM236.366 153.91C234.685 153.91 233.174 153.637 231.834 153.09C230.494 152.543 229.353 151.784 228.409 150.813C227.479 149.829 226.762 148.688 226.256 147.389C225.764 146.076 225.518 144.668 225.518 143.164V142.344C225.518 140.635 225.764 139.083 226.256 137.688C226.748 136.28 227.445 135.07 228.348 134.059C229.25 133.047 230.33 132.268 231.588 131.721C232.846 131.174 234.233 130.9 235.751 130.9C237.323 130.9 238.711 131.167 239.914 131.7C241.117 132.22 242.122 132.958 242.929 133.915C243.735 134.872 244.344 136.021 244.754 137.36C245.164 138.687 245.369 140.156 245.369 141.77V144.046H227.979V140.313H240.037V139.903C240.01 139.042 239.846 138.256 239.545 137.545C239.244 136.82 238.779 136.246 238.15 135.822C237.521 135.385 236.708 135.166 235.71 135.166C234.903 135.166 234.199 135.344 233.598 135.699C233.01 136.041 232.518 136.533 232.121 137.176C231.738 137.805 231.451 138.557 231.26 139.432C231.068 140.307 230.973 141.277 230.973 142.344V143.164C230.973 144.094 231.096 144.955 231.342 145.748C231.602 146.541 231.978 147.231 232.47 147.819C232.976 148.394 233.577 148.845 234.274 149.173C234.985 149.487 235.792 149.645 236.694 149.645C237.829 149.645 238.854 149.426 239.771 148.988C240.7 148.537 241.507 147.874 242.19 146.999L244.918 149.829C244.453 150.513 243.824 151.169 243.031 151.798C242.252 152.427 241.309 152.939 240.201 153.336C239.094 153.719 237.815 153.91 236.366 153.91ZM277.341 143.677H282.98C282.83 145.673 282.276 147.443 281.319 148.988C280.362 150.52 279.029 151.723 277.32 152.598C275.611 153.473 273.54 153.91 271.106 153.91C269.233 153.91 267.545 153.582 266.041 152.926C264.551 152.256 263.272 151.306 262.206 150.075C261.153 148.831 260.347 147.341 259.786 145.604C259.226 143.854 258.945 141.893 258.945 139.719V137.442C258.945 135.269 259.232 133.307 259.807 131.557C260.381 129.807 261.201 128.316 262.268 127.086C263.348 125.842 264.64 124.885 266.144 124.215C267.661 123.545 269.356 123.21 271.229 123.21C273.663 123.21 275.721 123.661 277.402 124.563C279.084 125.452 280.39 126.676 281.319 128.234C282.249 129.793 282.81 131.584 283.001 133.607H277.361C277.252 132.35 276.979 131.283 276.541 130.408C276.117 129.533 275.475 128.87 274.613 128.419C273.766 127.954 272.638 127.722 271.229 127.722C270.136 127.722 269.172 127.927 268.338 128.337C267.518 128.747 266.834 129.362 266.287 130.183C265.74 130.989 265.33 132.001 265.057 133.218C264.783 134.421 264.646 135.815 264.646 137.401V139.719C264.646 141.236 264.77 142.597 265.016 143.8C265.262 145.003 265.645 146.021 266.164 146.855C266.684 147.689 267.354 148.325 268.174 148.763C268.994 149.2 269.972 149.419 271.106 149.419C272.487 149.419 273.608 149.2 274.47 148.763C275.345 148.325 276.008 147.683 276.459 146.835C276.924 145.987 277.218 144.935 277.341 143.677ZM285.975 142.631V142.2C285.975 140.573 286.207 139.076 286.672 137.709C287.137 136.328 287.813 135.132 288.702 134.12C289.591 133.108 290.678 132.322 291.963 131.762C293.248 131.188 294.711 130.9 296.352 130.9C298.02 130.9 299.496 131.188 300.781 131.762C302.08 132.322 303.174 133.108 304.062 134.12C304.951 135.132 305.628 136.328 306.093 137.709C306.558 139.076 306.79 140.573 306.79 142.2V142.631C306.79 144.244 306.558 145.741 306.093 147.122C305.628 148.489 304.951 149.686 304.062 150.711C303.174 151.723 302.087 152.509 300.802 153.069C299.517 153.63 298.047 153.91 296.393 153.91C294.752 153.91 293.282 153.63 291.983 153.069C290.685 152.509 289.591 151.723 288.702 150.711C287.813 149.686 287.137 148.489 286.672 147.122C286.207 145.741 285.975 144.244 285.975 142.631ZM291.389 142.2V142.631C291.389 143.602 291.484 144.511 291.676 145.358C291.867 146.206 292.161 146.951 292.558 147.594C292.954 148.236 293.467 148.742 294.096 149.111C294.738 149.467 295.504 149.645 296.393 149.645C297.268 149.645 298.02 149.467 298.648 149.111C299.277 148.742 299.79 148.236 300.187 147.594C300.597 146.951 300.897 146.206 301.089 145.358C301.28 144.511 301.376 143.602 301.376 142.631V142.2C301.376 141.243 301.28 140.348 301.089 139.514C300.897 138.666 300.597 137.921 300.187 137.278C299.79 136.622 299.271 136.109 298.628 135.74C297.999 135.357 297.24 135.166 296.352 135.166C295.477 135.166 294.725 135.357 294.096 135.74C293.467 136.109 292.954 136.622 292.558 137.278C292.161 137.921 291.867 138.666 291.676 139.514C291.484 140.348 291.389 141.243 291.389 142.2ZM324.037 148.783V122H329.492V153.5H324.57L324.037 148.783ZM309.784 142.672V142.241C309.784 140.546 309.976 139.008 310.358 137.627C310.755 136.232 311.329 135.036 312.081 134.038C312.833 133.04 313.742 132.268 314.809 131.721C315.889 131.174 317.112 130.9 318.479 130.9C319.806 130.9 320.961 131.167 321.945 131.7C322.943 132.233 323.791 132.992 324.488 133.977C325.199 134.961 325.767 136.13 326.19 137.483C326.614 138.823 326.922 140.3 327.113 141.913V143.082C326.922 144.654 326.614 146.097 326.19 147.409C325.767 148.722 325.199 149.87 324.488 150.854C323.791 151.825 322.943 152.577 321.945 153.11C320.947 153.644 319.778 153.91 318.438 153.91C317.085 153.91 315.868 153.63 314.788 153.069C313.722 152.509 312.812 151.723 312.061 150.711C311.322 149.699 310.755 148.51 310.358 147.143C309.976 145.775 309.784 144.285 309.784 142.672ZM315.219 142.241V142.672C315.219 143.629 315.301 144.524 315.465 145.358C315.629 146.192 315.896 146.931 316.265 147.573C316.634 148.202 317.105 148.694 317.68 149.05C318.268 149.405 318.979 149.583 319.812 149.583C320.879 149.583 321.754 149.351 322.438 148.886C323.135 148.407 323.675 147.758 324.058 146.938C324.44 146.104 324.687 145.167 324.796 144.128V140.908C324.741 140.088 324.598 139.329 324.365 138.632C324.146 137.935 323.832 137.333 323.422 136.827C323.025 136.321 322.533 135.925 321.945 135.638C321.357 135.351 320.66 135.207 319.854 135.207C319.02 135.207 318.309 135.392 317.721 135.761C317.133 136.116 316.654 136.615 316.285 137.258C315.916 137.9 315.643 138.646 315.465 139.493C315.301 140.341 315.219 141.257 315.219 142.241ZM344.36 153.91C342.679 153.91 341.168 153.637 339.828 153.09C338.488 152.543 337.347 151.784 336.403 150.813C335.474 149.829 334.756 148.688 334.25 147.389C333.758 146.076 333.512 144.668 333.512 143.164V142.344C333.512 140.635 333.758 139.083 334.25 137.688C334.742 136.28 335.439 135.07 336.342 134.059C337.244 133.047 338.324 132.268 339.582 131.721C340.84 131.174 342.228 130.9 343.745 130.9C345.317 130.9 346.705 131.167 347.908 131.7C349.111 132.22 350.116 132.958 350.923 133.915C351.729 134.872 352.338 136.021 352.748 137.36C353.158 138.687 353.363 140.156 353.363 141.77V144.046H335.973V140.313H348.031V139.903C348.004 139.042 347.84 138.256 347.539 137.545C347.238 136.82 346.773 136.246 346.145 135.822C345.516 135.385 344.702 135.166 343.704 135.166C342.897 135.166 342.193 135.344 341.592 135.699C341.004 136.041 340.512 136.533 340.115 137.176C339.732 137.805 339.445 138.557 339.254 139.432C339.062 140.307 338.967 141.277 338.967 142.344V143.164C338.967 144.094 339.09 144.955 339.336 145.748C339.596 146.541 339.972 147.231 340.464 147.819C340.97 148.394 341.571 148.845 342.269 149.173C342.979 149.487 343.786 149.645 344.688 149.645C345.823 149.645 346.849 149.426 347.765 148.988C348.694 148.537 349.501 147.874 350.185 146.999L352.912 149.829C352.447 150.513 351.818 151.169 351.025 151.798C350.246 152.427 349.303 152.939 348.195 153.336C347.088 153.719 345.81 153.91 344.36 153.91Z" fill="white"/>
<rect x="530" y="69" width="252" height="140" rx="10" fill="#C3E88C"/>
<path d="M609.78 139.458H602.878L602.841 135.858H608.76C609.774 135.858 610.621 135.716 611.302 135.432C611.982 135.147 612.495 134.733 612.842 134.188C613.201 133.644 613.38 132.982 613.38 132.203C613.38 131.337 613.213 130.632 612.879 130.088C612.557 129.544 612.05 129.148 611.357 128.9C610.665 128.641 609.786 128.511 608.723 128.511H604.529V151.5H599.427V124.484H608.723C610.257 124.484 611.623 124.633 612.823 124.93C614.035 125.214 615.062 125.66 615.903 126.266C616.744 126.872 617.382 127.632 617.814 128.548C618.26 129.463 618.482 130.552 618.482 131.813C618.482 132.927 618.223 133.953 617.703 134.894C617.196 135.821 616.41 136.576 615.347 137.157C614.295 137.739 612.959 138.073 611.339 138.159L609.78 139.458ZM609.558 151.5H601.375L603.509 147.492H609.558C610.572 147.492 611.407 147.325 612.062 146.991C612.73 146.657 613.225 146.2 613.547 145.618C613.881 145.024 614.048 144.344 614.048 143.577C614.048 142.736 613.899 142.006 613.603 141.388C613.318 140.769 612.86 140.293 612.229 139.959C611.611 139.625 610.795 139.458 609.78 139.458H604.474L604.511 135.858H611.265L612.434 137.25C613.992 137.262 615.26 137.572 616.237 138.178C617.227 138.784 617.957 139.563 618.427 140.516C618.897 141.468 619.132 142.495 619.132 143.596C619.132 145.327 618.755 146.781 618 147.956C617.258 149.131 616.169 150.016 614.734 150.609C613.312 151.203 611.586 151.5 609.558 151.5ZM635.126 146.731V131.424H640.062V151.5H635.423L635.126 146.731ZM635.757 142.575L637.278 142.538C637.278 143.886 637.13 145.13 636.833 146.268C636.536 147.406 636.072 148.395 635.441 149.236C634.823 150.065 634.037 150.715 633.085 151.185C632.132 151.642 631.007 151.871 629.708 151.871C628.718 151.871 627.815 151.735 626.999 151.463C626.183 151.178 625.478 150.739 624.884 150.146C624.302 149.539 623.851 148.766 623.529 147.826C623.208 146.874 623.047 145.729 623.047 144.394V131.424H627.945V144.431C627.945 145.099 628.02 145.655 628.168 146.101C628.329 146.546 628.545 146.911 628.817 147.195C629.102 147.467 629.43 147.665 629.801 147.789C630.184 147.9 630.592 147.956 631.025 147.956C632.213 147.956 633.147 147.721 633.827 147.251C634.52 146.769 635.015 146.125 635.312 145.321C635.608 144.505 635.757 143.59 635.757 142.575ZM649.209 135.71V151.5H644.311V131.424H648.912L649.209 135.71ZM648.43 140.738H646.982C646.995 139.279 647.193 137.955 647.576 136.768C647.96 135.58 648.498 134.56 649.19 133.706C649.896 132.853 650.73 132.197 651.695 131.739C652.66 131.282 653.736 131.053 654.924 131.053C655.889 131.053 656.761 131.189 657.54 131.461C658.319 131.733 658.987 132.166 659.544 132.76C660.113 133.354 660.546 134.133 660.843 135.098C661.152 136.05 661.307 137.225 661.307 138.623V151.5H656.371V138.586C656.371 137.671 656.235 136.947 655.963 136.415C655.703 135.883 655.32 135.506 654.812 135.283C654.318 135.061 653.705 134.949 652.976 134.949C652.221 134.949 651.559 135.104 650.99 135.413C650.434 135.71 649.964 136.124 649.58 136.656C649.209 137.188 648.924 137.8 648.727 138.493C648.529 139.186 648.43 139.934 648.43 140.738ZM677.672 147.232V123H682.607V151.5H678.154L677.672 147.232ZM664.776 141.703V141.313C664.776 139.78 664.95 138.388 665.296 137.139C665.655 135.877 666.174 134.795 666.854 133.892C667.535 132.989 668.357 132.29 669.322 131.795C670.299 131.3 671.407 131.053 672.644 131.053C673.843 131.053 674.889 131.294 675.779 131.776C676.682 132.259 677.449 132.945 678.08 133.836C678.723 134.727 679.237 135.784 679.62 137.009C680.004 138.221 680.282 139.557 680.455 141.017V142.074C680.282 143.497 680.004 144.802 679.62 145.989C679.237 147.177 678.723 148.216 678.08 149.106C677.449 149.985 676.682 150.665 675.779 151.147C674.876 151.63 673.819 151.871 672.606 151.871C671.382 151.871 670.281 151.618 669.304 151.11C668.339 150.603 667.516 149.892 666.836 148.977C666.168 148.061 665.655 146.985 665.296 145.748C664.95 144.511 664.776 143.163 664.776 141.703ZM669.693 141.313V141.703C669.693 142.569 669.768 143.379 669.916 144.134C670.064 144.888 670.306 145.556 670.64 146.138C670.974 146.707 671.4 147.152 671.92 147.474C672.452 147.795 673.095 147.956 673.85 147.956C674.814 147.956 675.606 147.746 676.225 147.325C676.855 146.892 677.344 146.305 677.69 145.562C678.037 144.808 678.259 143.961 678.358 143.021V140.107C678.309 139.365 678.179 138.679 677.969 138.048C677.771 137.417 677.486 136.873 677.115 136.415C676.757 135.957 676.311 135.599 675.779 135.339C675.247 135.079 674.617 134.949 673.887 134.949C673.132 134.949 672.489 135.116 671.957 135.45C671.425 135.772 670.992 136.223 670.658 136.805C670.324 137.386 670.077 138.06 669.916 138.827C669.768 139.594 669.693 140.423 669.693 141.313ZM692.237 123V151.5H687.32V123H692.237ZM705.931 151.871C704.409 151.871 703.042 151.624 701.83 151.129C700.618 150.634 699.585 149.948 698.731 149.069C697.89 148.179 697.241 147.146 696.783 145.971C696.338 144.783 696.115 143.509 696.115 142.148V141.406C696.115 139.86 696.338 138.456 696.783 137.194C697.229 135.92 697.859 134.826 698.676 133.91C699.492 132.995 700.469 132.29 701.607 131.795C702.745 131.3 704.001 131.053 705.374 131.053C706.797 131.053 708.052 131.294 709.141 131.776C710.229 132.246 711.138 132.914 711.868 133.78C712.598 134.646 713.148 135.685 713.52 136.897C713.891 138.097 714.076 139.427 714.076 140.887V142.946H698.342V139.569H709.252V139.198C709.227 138.419 709.079 137.708 708.807 137.064C708.535 136.409 708.114 135.889 707.545 135.506C706.976 135.11 706.24 134.912 705.337 134.912C704.607 134.912 703.97 135.073 703.426 135.395C702.894 135.704 702.449 136.149 702.09 136.73C701.743 137.299 701.484 137.98 701.311 138.771C701.137 139.563 701.051 140.441 701.051 141.406V142.148C701.051 142.99 701.162 143.769 701.385 144.486C701.62 145.204 701.96 145.828 702.405 146.36C702.863 146.88 703.407 147.288 704.038 147.585C704.681 147.869 705.411 148.012 706.228 148.012C707.254 148.012 708.182 147.814 709.011 147.418C709.852 147.01 710.582 146.41 711.2 145.618L713.668 148.179C713.247 148.797 712.678 149.391 711.961 149.96C711.256 150.529 710.402 150.993 709.4 151.352C708.398 151.698 707.242 151.871 705.931 151.871Z" fill="#15505C"/>
<rect x="890" y="71" width="252" height="140" rx="10" fill="#C3E88C"/>
<path d="M975.105 126.484V153.5H969.984L958.499 134.76V153.5H953.396V126.484H958.499L970.021 145.243V126.484H975.105ZM979.058 143.666V143.276C979.058 141.804 979.268 140.45 979.688 139.213C980.109 137.964 980.721 136.881 981.525 135.966C982.329 135.05 983.313 134.339 984.476 133.832C985.638 133.312 986.962 133.053 988.446 133.053C989.955 133.053 991.291 133.312 992.454 133.832C993.629 134.339 994.619 135.05 995.423 135.966C996.227 136.881 996.839 137.964 997.26 139.213C997.68 140.45 997.891 141.804 997.891 143.276V143.666C997.891 145.126 997.68 146.48 997.26 147.729C996.839 148.966 996.227 150.049 995.423 150.977C994.619 151.892 993.635 152.603 992.473 153.11C991.31 153.618 989.98 153.871 988.483 153.871C986.999 153.871 985.669 153.618 984.494 153.11C983.319 152.603 982.329 151.892 981.525 150.977C980.721 150.049 980.109 148.966 979.688 147.729C979.268 146.48 979.058 145.126 979.058 143.666ZM983.956 143.276V143.666C983.956 144.544 984.043 145.367 984.216 146.134C984.389 146.901 984.655 147.575 985.014 148.156C985.372 148.738 985.836 149.195 986.405 149.529C986.987 149.851 987.679 150.012 988.483 150.012C989.275 150.012 989.955 149.851 990.524 149.529C991.093 149.195 991.557 148.738 991.916 148.156C992.287 147.575 992.559 146.901 992.732 146.134C992.906 145.367 992.992 144.544 992.992 143.666V143.276C992.992 142.41 992.906 141.6 992.732 140.846C992.559 140.079 992.287 139.405 991.916 138.823C991.557 138.229 991.087 137.766 990.506 137.432C989.937 137.085 989.25 136.912 988.446 136.912C987.655 136.912 986.974 137.085 986.405 137.432C985.836 137.766 985.372 138.229 985.014 138.823C984.655 139.405 984.389 140.079 984.216 140.846C984.043 141.6 983.956 142.41 983.956 143.276ZM1013.5 149.232V125H1018.43V153.5H1013.98L1013.5 149.232ZM1000.6 143.703V143.313C1000.6 141.78 1000.77 140.388 1001.12 139.139C1001.48 137.877 1002 136.795 1002.68 135.892C1003.36 134.989 1004.18 134.29 1005.15 133.795C1006.12 133.3 1007.23 133.053 1008.47 133.053C1009.67 133.053 1010.71 133.294 1011.6 133.776C1012.51 134.259 1013.27 134.945 1013.9 135.836C1014.55 136.727 1015.06 137.784 1015.44 139.009C1015.83 140.221 1016.11 141.557 1016.28 143.017V144.074C1016.11 145.497 1015.83 146.802 1015.44 147.989C1015.06 149.177 1014.55 150.216 1013.9 151.106C1013.27 151.985 1012.51 152.665 1011.6 153.147C1010.7 153.63 1009.64 153.871 1008.43 153.871C1007.21 153.871 1006.1 153.618 1005.13 153.11C1004.16 152.603 1003.34 151.892 1002.66 150.977C1001.99 150.061 1001.48 148.985 1001.12 147.748C1000.77 146.511 1000.6 145.163 1000.6 143.703ZM1005.52 143.313V143.703C1005.52 144.569 1005.59 145.379 1005.74 146.134C1005.89 146.888 1006.13 147.556 1006.46 148.138C1006.8 148.707 1007.22 149.152 1007.74 149.474C1008.28 149.795 1008.92 149.956 1009.67 149.956C1010.64 149.956 1011.43 149.746 1012.05 149.325C1012.68 148.892 1013.17 148.305 1013.51 147.562C1013.86 146.808 1014.08 145.961 1014.18 145.021V142.107C1014.13 141.365 1014 140.679 1013.79 140.048C1013.59 139.417 1013.31 138.873 1012.94 138.415C1012.58 137.957 1012.13 137.599 1011.6 137.339C1011.07 137.079 1010.44 136.949 1009.71 136.949C1008.96 136.949 1008.31 137.116 1007.78 137.45C1007.25 137.772 1006.82 138.223 1006.48 138.805C1006.15 139.386 1005.9 140.06 1005.74 140.827C1005.59 141.594 1005.52 142.423 1005.52 143.313ZM1031.88 153.871C1030.36 153.871 1028.99 153.624 1027.78 153.129C1026.57 152.634 1025.54 151.948 1024.68 151.069C1023.84 150.179 1023.19 149.146 1022.74 147.971C1022.29 146.783 1022.07 145.509 1022.07 144.148V143.406C1022.07 141.86 1022.29 140.456 1022.74 139.194C1023.18 137.92 1023.81 136.826 1024.63 135.91C1025.44 134.995 1026.42 134.29 1027.56 133.795C1028.7 133.3 1029.95 133.053 1031.33 133.053C1032.75 133.053 1034 133.294 1035.09 133.776C1036.18 134.246 1037.09 134.914 1037.82 135.78C1038.55 136.646 1039.1 137.685 1039.47 138.897C1039.84 140.097 1040.03 141.427 1040.03 142.887V144.946H1024.29V141.569H1035.2V141.198C1035.18 140.419 1035.03 139.708 1034.76 139.064C1034.49 138.409 1034.07 137.889 1033.5 137.506C1032.93 137.11 1032.19 136.912 1031.29 136.912C1030.56 136.912 1029.92 137.073 1029.38 137.395C1028.85 137.704 1028.4 138.149 1028.04 138.73C1027.7 139.299 1027.44 139.98 1027.26 140.771C1027.09 141.563 1027 142.441 1027 143.406V144.148C1027 144.99 1027.11 145.769 1027.34 146.486C1027.57 147.204 1027.91 147.828 1028.36 148.36C1028.82 148.88 1029.36 149.288 1029.99 149.585C1030.63 149.869 1031.36 150.012 1032.18 150.012C1033.21 150.012 1034.13 149.814 1034.96 149.418C1035.8 149.01 1036.53 148.41 1037.15 147.618L1039.62 150.179C1039.2 150.797 1038.63 151.391 1037.91 151.96C1037.21 152.529 1036.35 152.993 1035.35 153.352C1034.35 153.698 1033.19 153.871 1031.88 153.871ZM1043.52 151.106C1043.52 150.364 1043.77 149.74 1044.28 149.232C1044.78 148.725 1045.47 148.472 1046.34 148.472C1047.2 148.472 1047.89 148.725 1048.4 149.232C1048.9 149.74 1049.16 150.364 1049.16 151.106C1049.16 151.836 1048.9 152.455 1048.4 152.962C1047.89 153.457 1047.2 153.704 1046.34 153.704C1045.47 153.704 1044.78 153.457 1044.28 152.962C1043.77 152.455 1043.52 151.836 1043.52 151.106ZM1054.35 133.424H1059.29V154.984C1059.29 156.407 1059.03 157.613 1058.51 158.603C1058 159.592 1057.27 160.34 1056.3 160.848C1055.34 161.355 1054.15 161.608 1052.76 161.608C1052.32 161.608 1051.89 161.584 1051.46 161.534C1051.03 161.485 1050.6 161.404 1050.18 161.293L1050.2 157.508C1050.47 157.557 1050.75 157.594 1051.03 157.619C1051.32 157.656 1051.6 157.675 1051.88 157.675C1052.42 157.675 1052.86 157.582 1053.22 157.396C1053.59 157.211 1053.87 156.92 1054.06 156.524C1054.25 156.129 1054.35 155.615 1054.35 154.984V133.424ZM1053.94 128.173C1053.94 127.443 1054.19 126.837 1054.69 126.354C1055.19 125.872 1055.87 125.631 1056.73 125.631C1057.58 125.631 1058.26 125.872 1058.75 126.354C1059.26 126.837 1059.51 127.443 1059.51 128.173C1059.51 128.89 1059.26 129.49 1058.75 129.973C1058.26 130.455 1057.58 130.696 1056.73 130.696C1055.87 130.696 1055.19 130.455 1054.69 129.973C1054.19 129.49 1053.94 128.89 1053.94 128.173ZM1074.87 148.008C1074.87 147.587 1074.76 147.21 1074.54 146.876C1074.32 146.542 1073.9 146.239 1073.28 145.967C1072.67 145.682 1071.78 145.416 1070.61 145.169C1069.57 144.946 1068.61 144.668 1067.73 144.334C1066.85 144 1066.1 143.598 1065.47 143.128C1064.84 142.646 1064.34 142.083 1063.98 141.439C1063.64 140.784 1063.46 140.029 1063.46 139.176C1063.46 138.347 1063.64 137.568 1064 136.838C1064.36 136.096 1064.88 135.446 1065.56 134.89C1066.24 134.321 1067.07 133.875 1068.05 133.554C1069.02 133.22 1070.12 133.053 1071.35 133.053C1073.06 133.053 1074.52 133.331 1075.75 133.888C1076.98 134.444 1077.93 135.211 1078.58 136.188C1079.24 137.153 1079.57 138.242 1079.57 139.454H1074.67C1074.67 138.922 1074.55 138.44 1074.3 138.007C1074.06 137.574 1073.7 137.228 1073.2 136.968C1072.71 136.696 1072.08 136.56 1071.33 136.56C1070.65 136.56 1070.07 136.671 1069.6 136.894C1069.15 137.116 1068.8 137.407 1068.57 137.766C1068.33 138.124 1068.21 138.52 1068.21 138.953C1068.21 139.275 1068.27 139.565 1068.4 139.825C1068.53 140.073 1068.75 140.301 1069.05 140.512C1069.34 140.722 1069.75 140.914 1070.25 141.087C1070.77 141.26 1071.41 141.427 1072.17 141.588C1073.66 141.885 1074.97 142.281 1076.08 142.775C1077.21 143.258 1078.08 143.901 1078.71 144.705C1079.35 145.509 1079.66 146.536 1079.66 147.785C1079.66 148.676 1079.47 149.492 1079.09 150.234C1078.7 150.964 1078.15 151.601 1077.42 152.146C1076.69 152.69 1075.81 153.117 1074.8 153.426C1073.79 153.723 1072.64 153.871 1071.37 153.871C1069.52 153.871 1067.97 153.543 1066.69 152.888C1065.42 152.22 1064.45 151.379 1063.8 150.364C1063.14 149.338 1062.81 148.274 1062.81 147.173H1067.51C1067.54 147.952 1067.76 148.577 1068.14 149.047C1068.52 149.517 1069 149.857 1069.59 150.067C1070.18 150.265 1070.8 150.364 1071.46 150.364C1072.2 150.364 1072.83 150.265 1073.33 150.067C1073.84 149.857 1074.22 149.579 1074.48 149.232C1074.74 148.874 1074.87 148.465 1074.87 148.008Z" fill="#15505C"/>
<g clip-path="url(#clip0_16_2)">
<path d="M988.5 84.5V67.5L1038.5 61.5V84.5L1014 100L988.5 84.5Z" fill="#222222"/>
<path d="M1013.58 100.889C1012.75 100.889 1011.98 100.669 1011.27 100.283L1003.95 95.9369C1002.85 95.3317 1003.4 95.1116 1003.73 95.0016C1005.22 94.5064 1005.49 94.3964 1007.03 93.5159C1007.2 93.4058 1007.42 93.4609 1007.58 93.5709L1013.19 96.9272C1013.41 97.0372 1013.69 97.0372 1013.85 96.9272L1035.81 84.2178C1036.03 84.1077 1036.14 83.8876 1036.14 83.6126V58.2483C1036.14 57.9733 1036.03 57.7532 1035.81 57.6431L1013.85 44.9885C1013.63 44.8785 1013.36 44.8785 1013.19 44.9885L991.24 57.6434C991.02 57.7534 990.91 58.0285 990.91 58.2485V83.6126C990.91 83.8326 991.02 84.1077 991.24 84.2178L997.237 87.6838C1000.48 89.3344 1002.52 87.4088 1002.52 85.4832V60.449C1002.52 60.1189 1002.79 59.7888 1003.18 59.7888H1005.99C1006.32 59.7888 1006.65 60.0639 1006.65 60.449V85.4829C1006.65 89.8295 1004.28 92.3603 1000.15 92.3603C998.888 92.3603 997.898 92.3603 995.092 90.9849L989.314 87.6838C987.884 86.8584 987.004 85.3179 987.004 83.6674V58.3036C987.004 56.653 987.884 55.1126 989.314 54.2871L1011.27 41.5777C1012.64 40.8074 1014.51 40.8074 1015.89 41.5777L1037.84 54.2871C1039.27 55.1124 1040.15 56.6528 1040.15 58.3036V83.6676C1040.15 85.3181 1039.27 86.8586 1037.84 87.6838L1015.89 100.394C1015.17 100.724 1014.35 100.889 1013.58 100.889V100.889ZM1020.35 83.4473C1010.72 83.4473 1008.74 79.0459 1008.74 75.3045C1008.74 74.9744 1009.01 74.6443 1009.4 74.6443H1012.26C1012.59 74.6443 1012.86 74.8644 1012.86 75.1945C1013.3 78.1104 1014.57 79.5411 1020.4 79.5411C1025.02 79.5411 1027 78.4957 1027 76.02C1027 74.5893 1026.45 73.544 1019.25 72.8285C1013.25 72.2234 1009.51 70.9029 1009.51 66.1164C1009.51 61.6596 1013.25 59.0188 1019.52 59.0188C1026.56 59.0188 1030.03 61.4396 1030.47 66.7214C1030.47 66.8865 1030.41 67.0515 1030.3 67.2166C1030.19 67.3266 1030.03 67.4366 1029.86 67.4366H1027C1026.73 67.4366 1026.45 67.2166 1026.4 66.9415C1025.74 63.9155 1024.03 62.9252 1019.52 62.9252C1014.46 62.9252 1013.85 64.6858 1013.85 66.0062C1013.85 67.6019 1014.57 68.0969 1021.39 68.9771C1028.16 69.8574 1031.35 71.123 1031.35 75.8547C1031.29 80.6964 1027.33 83.4473 1020.35 83.4473Z" fill="#539E43"/>
</g>
<rect x="1250" y="69" width="252" height="140" rx="10" fill="#9AD9FA"/>
<path d="M1308.54 124.484H1318.35C1320.4 124.484 1322.17 124.794 1323.64 125.412C1325.11 126.031 1326.24 126.946 1327.03 128.158C1327.83 129.37 1328.22 130.861 1328.22 132.63C1328.22 134.028 1327.97 135.24 1327.48 136.267C1326.98 137.293 1326.29 138.153 1325.38 138.846C1324.49 139.538 1323.44 140.083 1322.23 140.479L1320.63 141.295H1311.97L1311.93 137.269H1318.41C1319.46 137.269 1320.33 137.083 1321.02 136.712C1321.72 136.341 1322.23 135.827 1322.58 135.172C1322.94 134.516 1323.12 133.768 1323.12 132.927C1323.12 132.024 1322.95 131.244 1322.6 130.589C1322.25 129.921 1321.73 129.408 1321.02 129.049C1320.32 128.69 1319.43 128.511 1318.35 128.511H1313.64V151.5H1308.54V124.484ZM1323.79 151.5L1317.53 139.402L1322.93 139.384L1329.26 151.24V151.5H1323.79ZM1341.34 151.871C1339.82 151.871 1338.45 151.624 1337.24 151.129C1336.03 150.634 1334.99 149.948 1334.14 149.069C1333.3 148.179 1332.65 147.146 1332.19 145.971C1331.75 144.783 1331.52 143.509 1331.52 142.148V141.406C1331.52 139.86 1331.75 138.456 1332.19 137.194C1332.64 135.92 1333.27 134.826 1334.08 133.91C1334.9 132.995 1335.88 132.29 1337.02 131.795C1338.15 131.3 1339.41 131.053 1340.78 131.053C1342.21 131.053 1343.46 131.294 1344.55 131.776C1345.64 132.246 1346.55 132.914 1347.28 133.78C1348.01 134.646 1348.56 135.685 1348.93 136.897C1349.3 138.097 1349.49 139.427 1349.49 140.887V142.946H1333.75V139.569H1344.66V139.198C1344.64 138.419 1344.49 137.708 1344.22 137.064C1343.94 136.409 1343.52 135.889 1342.95 135.506C1342.39 135.11 1341.65 134.912 1340.75 134.912C1340.02 134.912 1339.38 135.073 1338.83 135.395C1338.3 135.704 1337.86 136.149 1337.5 136.73C1337.15 137.299 1336.89 137.98 1336.72 138.771C1336.55 139.563 1336.46 140.441 1336.46 141.406V142.148C1336.46 142.99 1336.57 143.769 1336.79 144.486C1337.03 145.204 1337.37 145.828 1337.81 146.36C1338.27 146.88 1338.82 147.288 1339.45 147.585C1340.09 147.869 1340.82 148.012 1341.64 148.012C1342.66 148.012 1343.59 147.814 1344.42 147.418C1345.26 147.01 1345.99 146.41 1346.61 145.618L1349.08 148.179C1348.66 148.797 1348.09 149.391 1347.37 149.96C1346.67 150.529 1345.81 150.993 1344.81 151.352C1343.81 151.698 1342.65 151.871 1341.34 151.871ZM1364.79 159.219V135.469L1365.39 131.424H1369.73V159.219H1364.79ZM1351.92 141.666V141.276C1351.92 139.743 1352.09 138.351 1352.44 137.102C1352.78 135.84 1353.29 134.764 1353.96 133.873C1354.64 132.97 1355.47 132.277 1356.44 131.795C1357.42 131.3 1358.54 131.053 1359.8 131.053C1361.04 131.053 1362.11 131.294 1363.01 131.776C1363.91 132.259 1364.68 132.945 1365.31 133.836C1365.94 134.714 1366.44 135.759 1366.82 136.972C1367.2 138.184 1367.48 139.526 1367.67 140.998V142.056C1367.48 143.466 1367.2 144.771 1366.82 145.971C1366.44 147.158 1365.94 148.197 1365.31 149.088C1364.69 149.966 1363.93 150.653 1363.01 151.147C1362.1 151.63 1361.01 151.871 1359.76 151.871C1358.52 151.871 1357.4 151.618 1356.42 151.11C1355.46 150.591 1354.64 149.873 1353.96 148.958C1353.29 148.043 1352.78 146.966 1352.44 145.729C1352.09 144.48 1351.92 143.126 1351.92 141.666ZM1356.83 141.276V141.666C1356.83 142.544 1356.91 143.367 1357.06 144.134C1357.22 144.888 1357.46 145.556 1357.8 146.138C1358.13 146.719 1358.56 147.177 1359.08 147.511C1359.61 147.845 1360.25 148.012 1361.01 148.012C1362.02 148.012 1362.84 147.789 1363.48 147.344C1364.12 146.898 1364.6 146.299 1364.92 145.544C1365.26 144.777 1365.47 143.924 1365.57 142.983V140.089C1365.51 139.334 1365.38 138.642 1365.18 138.011C1364.98 137.38 1364.71 136.836 1364.35 136.378C1364 135.92 1363.56 135.562 1363.01 135.302C1362.47 135.042 1361.81 134.912 1361.04 134.912C1360.29 134.912 1359.65 135.079 1359.12 135.413C1358.58 135.735 1358.15 136.186 1357.82 136.768C1357.48 137.349 1357.24 138.023 1357.07 138.79C1356.91 139.557 1356.83 140.386 1356.83 141.276ZM1386.21 146.731V131.424H1391.14V151.5H1386.5L1386.21 146.731ZM1386.84 142.575L1388.36 142.538C1388.36 143.886 1388.21 145.13 1387.91 146.268C1387.62 147.406 1387.15 148.395 1386.52 149.236C1385.9 150.065 1385.12 150.715 1384.16 151.185C1383.21 151.642 1382.09 151.871 1380.79 151.871C1379.8 151.871 1378.89 151.735 1378.08 151.463C1377.26 151.178 1376.56 150.739 1375.96 150.146C1375.38 149.539 1374.93 148.766 1374.61 147.826C1374.29 146.874 1374.13 145.729 1374.13 144.394V131.424H1379.02V144.431C1379.02 145.099 1379.1 145.655 1379.25 146.101C1379.41 146.546 1379.62 146.911 1379.9 147.195C1380.18 147.467 1380.51 147.665 1380.88 147.789C1381.26 147.9 1381.67 147.956 1382.1 147.956C1383.29 147.956 1384.23 147.721 1384.91 147.251C1385.6 146.769 1386.09 146.125 1386.39 145.321C1386.69 144.505 1386.84 143.59 1386.84 142.575ZM1404.5 151.871C1402.98 151.871 1401.61 151.624 1400.4 151.129C1399.19 150.634 1398.15 149.948 1397.3 149.069C1396.46 148.179 1395.81 147.146 1395.35 145.971C1394.91 144.783 1394.68 143.509 1394.68 142.148V141.406C1394.68 139.86 1394.91 138.456 1395.35 137.194C1395.8 135.92 1396.43 134.826 1397.25 133.91C1398.06 132.995 1399.04 132.29 1400.18 131.795C1401.31 131.3 1402.57 131.053 1403.94 131.053C1405.37 131.053 1406.62 131.294 1407.71 131.776C1408.8 132.246 1409.71 132.914 1410.44 133.78C1411.17 134.646 1411.72 135.685 1412.09 136.897C1412.46 138.097 1412.65 139.427 1412.65 140.887V142.946H1396.91V139.569H1407.82V139.198C1407.8 138.419 1407.65 137.708 1407.38 137.064C1407.1 136.409 1406.68 135.889 1406.11 135.506C1405.55 135.11 1404.81 134.912 1403.91 134.912C1403.18 134.912 1402.54 135.073 1402 135.395C1401.46 135.704 1401.02 136.149 1400.66 136.73C1400.31 137.299 1400.05 137.98 1399.88 138.771C1399.71 139.563 1399.62 140.441 1399.62 141.406V142.148C1399.62 142.99 1399.73 143.769 1399.95 144.486C1400.19 145.204 1400.53 145.828 1400.97 146.36C1401.43 146.88 1401.98 147.288 1402.61 147.585C1403.25 147.869 1403.98 148.012 1404.8 148.012C1405.82 148.012 1406.75 147.814 1407.58 147.418C1408.42 147.01 1409.15 146.41 1409.77 145.618L1412.24 148.179C1411.82 148.797 1411.25 149.391 1410.53 149.96C1409.83 150.529 1408.97 150.993 1407.97 151.352C1406.97 151.698 1405.81 151.871 1404.5 151.871ZM1426.97 146.008C1426.97 145.587 1426.86 145.21 1426.64 144.876C1426.41 144.542 1425.99 144.239 1425.37 143.967C1424.77 143.682 1423.88 143.416 1422.7 143.169C1421.66 142.946 1420.7 142.668 1419.83 142.334C1418.95 142 1418.19 141.598 1417.56 141.128C1416.93 140.646 1416.44 140.083 1416.08 139.439C1415.73 138.784 1415.56 138.029 1415.56 137.176C1415.56 136.347 1415.74 135.568 1416.1 134.838C1416.46 134.096 1416.97 133.446 1417.66 132.89C1418.34 132.321 1419.16 131.875 1420.14 131.554C1421.12 131.22 1422.22 131.053 1423.44 131.053C1425.15 131.053 1426.62 131.331 1427.84 131.888C1429.08 132.444 1430.03 133.211 1430.68 134.188C1431.34 135.153 1431.66 136.242 1431.66 137.454H1426.77C1426.77 136.922 1426.64 136.44 1426.39 136.007C1426.16 135.574 1425.79 135.228 1425.3 134.968C1424.81 134.696 1424.18 134.56 1423.43 134.56C1422.75 134.56 1422.17 134.671 1421.7 134.894C1421.24 135.116 1420.9 135.407 1420.66 135.766C1420.43 136.124 1420.31 136.52 1420.31 136.953C1420.31 137.275 1420.37 137.565 1420.49 137.825C1420.63 138.073 1420.85 138.301 1421.14 138.512C1421.44 138.722 1421.84 138.914 1422.35 139.087C1422.87 139.26 1423.51 139.427 1424.26 139.588C1425.76 139.885 1427.06 140.281 1428.18 140.775C1429.3 141.258 1430.18 141.901 1430.81 142.705C1431.44 143.509 1431.76 144.536 1431.76 145.785C1431.76 146.676 1431.57 147.492 1431.18 148.234C1430.8 148.964 1430.24 149.601 1429.51 150.146C1428.78 150.69 1427.91 151.117 1426.9 151.426C1425.88 151.723 1424.74 151.871 1423.46 151.871C1421.62 151.871 1420.06 151.543 1418.79 150.888C1417.51 150.22 1416.55 149.379 1415.89 148.364C1415.24 147.338 1414.91 146.274 1414.91 145.173H1419.6C1419.64 145.952 1419.85 146.577 1420.23 147.047C1420.62 147.517 1421.1 147.857 1421.68 148.067C1422.28 148.265 1422.9 148.364 1423.56 148.364C1424.3 148.364 1424.92 148.265 1425.43 148.067C1425.94 147.857 1426.32 147.579 1426.58 147.232C1426.84 146.874 1426.97 146.465 1426.97 146.008ZM1444.99 131.424V134.949H1433.48V131.424H1444.99ZM1436.56 126.488H1441.48V145.711C1441.48 146.305 1441.56 146.762 1441.72 147.084C1441.88 147.406 1442.12 147.622 1442.44 147.733C1442.77 147.845 1443.15 147.9 1443.59 147.9C1443.92 147.9 1444.21 147.882 1444.49 147.845C1444.76 147.808 1444.99 147.771 1445.17 147.733L1445.19 151.407C1444.78 151.543 1444.32 151.655 1443.8 151.741C1443.29 151.828 1442.72 151.871 1442.07 151.871C1440.97 151.871 1440.01 151.686 1439.18 151.314C1438.35 150.931 1437.71 150.319 1437.25 149.478C1436.79 148.624 1436.56 147.498 1436.56 146.101V126.488Z" fill="#15505C"/>
<rect x="890" y="325" width="252" height="140" rx="10" fill="#9AD9FA"/>
<path d="M937.143 357.984H946.958C949.011 357.984 950.774 358.294 952.246 358.912C953.718 359.531 954.85 360.446 955.642 361.658C956.433 362.87 956.829 364.361 956.829 366.13C956.829 367.528 956.582 368.74 956.087 369.767C955.592 370.793 954.893 371.653 953.99 372.346C953.1 373.038 952.048 373.583 950.836 373.979L949.24 374.795H940.575L940.538 370.769H947.014C948.065 370.769 948.937 370.583 949.63 370.212C950.323 369.841 950.842 369.327 951.188 368.672C951.547 368.016 951.727 367.268 951.727 366.427C951.727 365.524 951.553 364.744 951.207 364.089C950.861 363.421 950.335 362.908 949.63 362.549C948.925 362.19 948.034 362.011 946.958 362.011H942.245V385H937.143V357.984ZM952.395 385L946.142 372.902L951.541 372.884L957.868 384.74V385H952.395ZM969.947 385.371C968.426 385.371 967.059 385.124 965.847 384.629C964.634 384.134 963.602 383.448 962.748 382.569C961.907 381.679 961.257 380.646 960.8 379.471C960.354 378.283 960.132 377.009 960.132 375.648V374.906C960.132 373.36 960.354 371.956 960.8 370.694C961.245 369.42 961.876 368.326 962.692 367.41C963.509 366.495 964.486 365.79 965.624 365.295C966.762 364.8 968.018 364.553 969.391 364.553C970.813 364.553 972.069 364.794 973.157 365.276C974.246 365.746 975.155 366.414 975.885 367.28C976.615 368.146 977.165 369.185 977.536 370.397C977.907 371.597 978.093 372.927 978.093 374.387V376.446H962.358V373.069H973.269V372.698C973.244 371.919 973.095 371.208 972.823 370.564C972.551 369.909 972.131 369.389 971.562 369.006C970.993 368.61 970.257 368.412 969.354 368.412C968.624 368.412 967.987 368.573 967.442 368.895C966.91 369.204 966.465 369.649 966.106 370.23C965.76 370.799 965.5 371.48 965.327 372.271C965.154 373.063 965.067 373.941 965.067 374.906V375.648C965.067 376.49 965.179 377.269 965.401 377.986C965.636 378.704 965.977 379.328 966.422 379.86C966.88 380.38 967.424 380.788 968.055 381.085C968.698 381.369 969.428 381.512 970.244 381.512C971.271 381.512 972.199 381.314 973.027 380.918C973.868 380.51 974.598 379.91 975.217 379.118L977.685 381.679C977.264 382.297 976.695 382.891 975.978 383.46C975.272 384.029 974.419 384.493 973.417 384.852C972.415 385.198 971.258 385.371 969.947 385.371ZM986.183 369.21V385H981.284V364.924H985.886L986.183 369.21ZM985.403 374.238H983.956C983.968 372.779 984.166 371.455 984.55 370.268C984.933 369.08 985.471 368.06 986.164 367.206C986.869 366.353 987.704 365.697 988.669 365.239C989.634 364.782 990.71 364.553 991.897 364.553C992.862 364.553 993.734 364.689 994.514 364.961C995.293 365.233 995.961 365.666 996.518 366.26C997.087 366.854 997.52 367.633 997.816 368.598C998.126 369.55 998.28 370.725 998.28 372.123V385H993.345V372.086C993.345 371.171 993.209 370.447 992.937 369.915C992.677 369.383 992.293 369.006 991.786 368.783C991.291 368.561 990.679 368.449 989.949 368.449C989.195 368.449 988.533 368.604 987.964 368.913C987.407 369.21 986.937 369.624 986.554 370.156C986.183 370.688 985.898 371.3 985.7 371.993C985.502 372.686 985.403 373.434 985.403 374.238ZM1014.65 380.732V356.5H1019.58V385H1015.13L1014.65 380.732ZM1001.75 375.203V374.813C1001.75 373.28 1001.92 371.888 1002.27 370.639C1002.63 369.377 1003.15 368.295 1003.83 367.392C1004.51 366.489 1005.33 365.79 1006.3 365.295C1007.27 364.8 1008.38 364.553 1009.62 364.553C1010.82 364.553 1011.86 364.794 1012.75 365.276C1013.66 365.759 1014.42 366.445 1015.05 367.336C1015.7 368.227 1016.21 369.284 1016.59 370.509C1016.98 371.721 1017.26 373.057 1017.43 374.517V375.574C1017.26 376.997 1016.98 378.302 1016.59 379.489C1016.21 380.677 1015.7 381.716 1015.05 382.606C1014.42 383.485 1013.66 384.165 1012.75 384.647C1011.85 385.13 1010.79 385.371 1009.58 385.371C1008.36 385.371 1007.25 385.118 1006.28 384.61C1005.31 384.103 1004.49 383.392 1003.81 382.477C1003.14 381.561 1002.63 380.485 1002.27 379.248C1001.92 378.011 1001.75 376.663 1001.75 375.203ZM1006.67 374.813V375.203C1006.67 376.069 1006.74 376.879 1006.89 377.634C1007.04 378.388 1007.28 379.056 1007.61 379.638C1007.95 380.207 1008.37 380.652 1008.89 380.974C1009.43 381.295 1010.07 381.456 1010.82 381.456C1011.79 381.456 1012.58 381.246 1013.2 380.825C1013.83 380.392 1014.32 379.805 1014.66 379.062C1015.01 378.308 1015.23 377.461 1015.33 376.521V373.607C1015.28 372.865 1015.15 372.179 1014.94 371.548C1014.74 370.917 1014.46 370.373 1014.09 369.915C1013.73 369.457 1013.28 369.099 1012.75 368.839C1012.22 368.579 1011.59 368.449 1010.86 368.449C1010.11 368.449 1009.46 368.616 1008.93 368.95C1008.4 369.272 1007.97 369.723 1007.63 370.305C1007.3 370.886 1007.05 371.56 1006.89 372.327C1006.74 373.094 1006.67 373.923 1006.67 374.813ZM1033.03 385.371C1031.51 385.371 1030.14 385.124 1028.93 384.629C1027.72 384.134 1026.69 383.448 1025.83 382.569C1024.99 381.679 1024.34 380.646 1023.89 379.471C1023.44 378.283 1023.22 377.009 1023.22 375.648V374.906C1023.22 373.36 1023.44 371.956 1023.89 370.694C1024.33 369.42 1024.96 368.326 1025.78 367.41C1026.59 366.495 1027.57 365.79 1028.71 365.295C1029.85 364.8 1031.1 364.553 1032.48 364.553C1033.9 364.553 1035.15 364.794 1036.24 365.276C1037.33 365.746 1038.24 366.414 1038.97 367.28C1039.7 368.146 1040.25 369.185 1040.62 370.397C1040.99 371.597 1041.18 372.927 1041.18 374.387V376.446H1025.44V373.069H1036.35V372.698C1036.33 371.919 1036.18 371.208 1035.91 370.564C1035.64 369.909 1035.22 369.389 1034.65 369.006C1034.08 368.61 1033.34 368.412 1032.44 368.412C1031.71 368.412 1031.07 368.573 1030.53 368.895C1030 369.204 1029.55 369.649 1029.19 370.23C1028.85 370.799 1028.59 371.48 1028.41 372.271C1028.24 373.063 1028.15 373.941 1028.15 374.906V375.648C1028.15 376.49 1028.26 377.269 1028.49 377.986C1028.72 378.704 1029.06 379.328 1029.51 379.86C1029.97 380.38 1030.51 380.788 1031.14 381.085C1031.78 381.369 1032.51 381.512 1033.33 381.512C1034.36 381.512 1035.28 381.314 1036.11 380.918C1036.95 380.51 1037.68 379.91 1038.3 379.118L1040.77 381.679C1040.35 382.297 1039.78 382.891 1039.06 383.46C1038.36 384.029 1037.5 384.493 1036.5 384.852C1035.5 385.198 1034.34 385.371 1033.03 385.371ZM1049.36 369.024V385H1044.46V364.924H1049.1L1049.36 369.024ZM1055.47 364.794L1055.39 369.358C1055.12 369.309 1054.81 369.272 1054.46 369.247C1054.13 369.222 1053.81 369.21 1053.52 369.21C1052.76 369.21 1052.1 369.315 1051.53 369.525C1050.96 369.723 1050.49 370.014 1050.1 370.397C1049.73 370.781 1049.45 371.251 1049.25 371.808C1049.05 372.352 1048.94 372.97 1048.92 373.663L1047.86 373.533C1047.86 372.259 1047.99 371.078 1048.25 369.989C1048.51 368.901 1048.89 367.948 1049.38 367.132C1049.87 366.315 1050.49 365.685 1051.24 365.239C1051.99 364.782 1052.86 364.553 1053.83 364.553C1054.11 364.553 1054.4 364.577 1054.71 364.627C1055.03 364.664 1055.28 364.72 1055.47 364.794ZM1066.8 385.371C1065.28 385.371 1063.91 385.124 1062.7 384.629C1061.49 384.134 1060.46 383.448 1059.6 382.569C1058.76 381.679 1058.11 380.646 1057.66 379.471C1057.21 378.283 1056.99 377.009 1056.99 375.648V374.906C1056.99 373.36 1057.21 371.956 1057.66 370.694C1058.1 369.42 1058.73 368.326 1059.55 367.41C1060.36 366.495 1061.34 365.79 1062.48 365.295C1063.62 364.8 1064.87 364.553 1066.25 364.553C1067.67 364.553 1068.92 364.794 1070.01 365.276C1071.1 365.746 1072.01 366.414 1072.74 367.28C1073.47 368.146 1074.02 369.185 1074.39 370.397C1074.76 371.597 1074.95 372.927 1074.95 374.387V376.446H1059.21V373.069H1070.12V372.698C1070.1 371.919 1069.95 371.208 1069.68 370.564C1069.41 369.909 1068.99 369.389 1068.42 369.006C1067.85 368.61 1067.11 368.412 1066.21 368.412C1065.48 368.412 1064.84 368.573 1064.3 368.895C1063.77 369.204 1063.32 369.649 1062.96 370.23C1062.62 370.799 1062.36 371.48 1062.18 372.271C1062.01 373.063 1061.92 373.941 1061.92 374.906V375.648C1061.92 376.49 1062.03 377.269 1062.26 377.986C1062.49 378.704 1062.83 379.328 1063.28 379.86C1063.74 380.38 1064.28 380.788 1064.91 381.085C1065.55 381.369 1066.28 381.512 1067.1 381.512C1068.13 381.512 1069.05 381.314 1069.88 380.918C1070.72 380.51 1071.45 379.91 1072.07 379.118L1074.54 381.679C1074.12 382.297 1073.55 382.891 1072.83 383.46C1072.13 384.029 1071.27 384.493 1070.27 384.852C1069.27 385.198 1068.11 385.371 1066.8 385.371ZM1090.27 380.732V356.5H1095.21V385H1090.76L1090.27 380.732ZM1077.38 375.203V374.813C1077.38 373.28 1077.55 371.888 1077.9 370.639C1078.26 369.377 1078.78 368.295 1079.46 367.392C1080.14 366.489 1080.96 365.79 1081.92 365.295C1082.9 364.8 1084.01 364.553 1085.25 364.553C1086.45 364.553 1087.49 364.794 1088.38 365.276C1089.28 365.759 1090.05 366.445 1090.68 367.336C1091.33 368.227 1091.84 369.284 1092.22 370.509C1092.61 371.721 1092.88 373.057 1093.06 374.517V375.574C1092.88 376.997 1092.61 378.302 1092.22 379.489C1091.84 380.677 1091.33 381.716 1090.68 382.606C1090.05 383.485 1089.28 384.165 1088.38 384.647C1087.48 385.13 1086.42 385.371 1085.21 385.371C1083.98 385.371 1082.88 385.118 1081.91 384.61C1080.94 384.103 1080.12 383.392 1079.44 382.477C1078.77 381.561 1078.26 380.485 1077.9 379.248C1077.55 378.011 1077.38 376.663 1077.38 375.203ZM1082.3 374.813V375.203C1082.3 376.069 1082.37 376.879 1082.52 377.634C1082.67 378.388 1082.91 379.056 1083.24 379.638C1083.58 380.207 1084 380.652 1084.52 380.974C1085.05 381.295 1085.7 381.456 1086.45 381.456C1087.42 381.456 1088.21 381.246 1088.83 380.825C1089.46 380.392 1089.95 379.805 1090.29 379.062C1090.64 378.308 1090.86 377.461 1090.96 376.521V373.607C1090.91 372.865 1090.78 372.179 1090.57 371.548C1090.37 370.917 1090.09 370.373 1089.72 369.915C1089.36 369.457 1088.91 369.099 1088.38 368.839C1087.85 368.579 1087.22 368.449 1086.49 368.449C1085.73 368.449 1085.09 368.616 1084.56 368.95C1084.03 369.272 1083.59 369.723 1083.26 370.305C1082.93 370.886 1082.68 371.56 1082.52 372.327C1082.37 373.094 1082.3 373.923 1082.3 374.813ZM984.735 414.136V418.144H970.522V414.136H984.735ZM971.914 402.984V430H966.812V402.984H971.914ZM988.521 402.984V430H983.418V402.984H988.521ZM1004.76 402.984V430H999.672V402.984H1004.76ZM1013.14 402.984V407.011H991.378V402.984H1013.14ZM1018.76 402.984H1023.18L1030.57 423.32L1037.93 402.984H1042.37L1032.33 430H1028.78L1018.76 402.984ZM1016.54 402.984H1020.86L1021.64 421.669V430H1016.54V402.984ZM1040.25 402.984H1044.59V430H1039.49V421.669L1040.25 402.984ZM1066.93 425.992V430H1053.35V425.992H1066.93ZM1054.89 402.984V430H1049.79V402.984H1054.89Z" fill="#15505C"/>
<g clip-path="url(#clip1_16_2)">
<path d="M630.857 58.7253C630.857 55.1998 629.933 51.8948 628.307 49.0304C623.995 44.5922 614.615 43.5641 612.285 49.0094C609.893 54.5914 616.304 60.8028 619.105 60.3095C622.673 59.6801 618.476 51.4961 618.476 51.4961C623.932 61.7785 622.673 58.6308 612.81 68.0739C602.947 77.5168 592.875 97.4413 591.406 98.2807C591.343 98.3227 591.28 98.3542 591.207 98.3857H629.891C630.573 98.3857 631.014 97.6618 630.71 97.0532L620.595 77.0341C620.375 76.6039 620.532 76.0687 620.952 75.8275C626.87 72.4281 630.857 66.0487 630.857 58.7253Z" fill="url(#paint0_linear_16_2)"/>
<path d="M630.857 58.7253C630.857 55.1998 629.933 51.8948 628.307 49.0304C623.995 44.5922 614.615 43.5641 612.285 49.0094C609.893 54.5914 616.304 60.8028 619.105 60.3095C622.673 59.6801 618.476 51.4961 618.476 51.4961C623.932 61.7785 622.673 58.6308 612.81 68.0739C602.947 77.5168 592.875 97.4413 591.406 98.2807C591.343 98.3227 591.28 98.3542 591.207 98.3857H629.891C630.573 98.3857 631.014 97.6618 630.71 97.0532L620.595 77.0341C620.375 76.6039 620.532 76.0687 620.952 75.8275C626.87 72.4281 630.857 66.0487 630.857 58.7253Z" fill="url(#paint1_linear_16_2)"/>
<path d="M591.406 98.2808C592.875 97.4414 602.947 77.5065 612.81 68.0634C622.673 58.6205 623.932 61.768 618.476 51.4858C618.476 51.4858 597.596 80.7589 590.042 95.238" fill="url(#paint2_linear_16_2)"/>
<path d="M594.344 72.0501C608.445 46.1243 610.292 43.5116 617.636 43.5116C621.498 43.5116 625.39 45.2532 627.908 48.3485C624.478 42.8192 618.402 39.1153 611.446 39.0105H587.493C587.251 39.0106 587.018 39.1068 586.847 39.278C586.676 39.4491 586.58 39.6812 586.58 39.9232V88.2082C588.007 84.5254 590.43 79.2583 594.344 72.0503V72.0501Z" fill="url(#paint3_linear_16_2)"/>
<path d="M612.81 68.0634C602.948 77.5063 592.875 97.4413 591.406 98.2808C589.937 99.1201 587.472 99.225 586.16 97.756C584.765 96.1928 582.593 93.6642 594.344 72.0504C608.445 46.1243 610.292 43.5117 617.636 43.5117C621.498 43.5117 625.39 45.2533 627.908 48.3486C628.045 48.5689 628.181 48.7998 628.317 49.0306C624.005 44.5924 614.625 43.5642 612.296 49.0095C609.904 54.5915 616.314 60.8028 619.116 60.3096C622.683 59.6802 618.486 51.4962 618.486 51.4962C623.932 61.768 622.673 58.6204 612.81 68.0634Z" fill="url(#paint4_linear_16_2)"/>
<path opacity="0.3" d="M595.498 73.2046C609.599 47.2783 611.446 44.6659 618.791 44.6659C621.97 44.6659 625.17 45.8515 627.604 47.9918C625.086 45.117 621.351 43.5117 617.637 43.5117C610.292 43.5117 608.445 46.1243 594.344 72.0502C582.593 93.6644 584.765 96.193 586.16 97.7564C586.359 97.9767 586.59 98.1656 586.832 98.3229C585.604 96.5392 585.058 92.3947 595.498 73.2046H595.498Z" fill="url(#paint5_linear_16_2)"/>
</g>
<g clip-path="url(#clip2_16_2)">
<path d="M110 35H170V95H110V35Z" fill="#F7DF1E"/>
<path d="M125.776 85.1403L130.368 82.3616C131.254 83.9321 132.059 85.261 133.992 85.261C135.845 85.261 137.013 84.5364 137.013 81.7173V62.5459H142.652V81.797C142.652 87.6369 139.228 90.2952 134.234 90.2952C129.723 90.2952 127.105 87.9592 125.776 85.1399M145.714 84.5361L150.305 81.8781C151.514 83.8517 153.085 85.3016 155.863 85.3016C158.2 85.3016 159.69 84.1335 159.69 82.5224C159.69 80.5892 158.159 79.9044 155.581 78.7771L154.172 78.1724C150.104 76.441 147.406 74.266 147.406 69.6746C147.406 65.4456 150.628 62.2234 155.662 62.2234C159.247 62.2234 161.825 63.4721 163.677 66.7344L159.287 69.5539C158.32 67.8221 157.273 67.1375 155.662 67.1375C154.011 67.1375 152.964 68.1847 152.964 69.5539C152.964 71.2454 154.011 71.9305 156.427 72.9777L157.837 73.5817C162.63 75.636 165.328 77.7301 165.328 82.442C165.328 87.5171 161.341 90.2959 155.984 90.2959C150.748 90.2959 147.365 87.7989 145.714 84.5364" fill="black"/>
</g>
<g clip-path="url(#clip3_16_2)">
<path d="M204.688 35H255.312C257.901 35 260 37.0986 260 39.6875V90.3125C260 92.9014 257.901 95 255.312 95H204.688C202.099 95 200 92.9014 200 90.3125V39.6875C200 37.0986 202.099 35 204.688 35Z" fill="#3178C6"/>
<path d="M235.278 81.9863V88.4598C236.33 88.9993 237.576 89.4038 239.013 89.6736C240.451 89.9434 241.966 90.0781 243.558 90.0781C245.11 90.0781 246.585 89.9298 247.982 89.633C249.379 89.3363 250.604 88.8474 251.656 88.1666C252.709 87.4855 253.543 86.5953 254.157 85.4961C254.771 84.3971 255.078 83.0384 255.078 81.4201C255.078 80.2468 254.903 79.2184 254.552 78.335C254.205 77.4576 253.689 76.6569 253.033 75.9784C252.372 75.2905 251.579 74.6736 250.655 74.1273C249.73 73.5812 248.687 73.0653 247.526 72.5799C246.676 72.2291 245.914 71.8887 245.239 71.5583C244.564 71.2278 243.99 70.8908 243.518 70.5467C243.045 70.2029 242.681 69.8387 242.424 69.4543C242.168 69.0699 242.04 68.6352 242.04 68.1495C242.04 67.7045 242.154 67.3034 242.384 66.946C242.613 66.5886 242.938 66.2818 243.356 66.0256C243.774 65.7692 244.287 65.5705 244.895 65.4287C245.502 65.2871 246.177 65.2163 246.919 65.2163C247.459 65.2163 248.029 65.2569 248.63 65.3377C249.23 65.4186 249.834 65.5433 250.442 65.712C251.048 65.8799 251.64 66.0929 252.213 66.3493C252.77 66.5958 253.302 66.8938 253.803 67.2392V61.1907C252.817 60.8131 251.741 60.5333 250.573 60.3512C249.406 60.1691 248.066 60.0781 246.555 60.0781C245.016 60.0781 243.558 60.2434 242.182 60.5738C240.805 60.9041 239.593 61.4199 238.547 62.1212C237.501 62.8227 236.675 63.7161 236.067 64.8017C235.46 65.8873 235.156 67.1853 235.156 68.6959C235.156 70.6243 235.713 72.2696 236.827 73.6318C237.94 74.9937 239.63 76.1469 241.898 77.0909C242.735 77.4318 243.565 77.7893 244.388 78.1632C245.158 78.5138 245.822 78.8778 246.383 79.2554C246.943 79.633 247.385 80.0443 247.709 80.4894C248.033 80.9345 248.195 81.4402 248.195 82.0067C248.197 82.4144 248.092 82.8156 247.891 83.1699C247.689 83.5271 247.381 83.8374 246.97 84.1004C246.558 84.3634 246.045 84.5689 245.431 84.7173C244.817 84.8656 244.098 84.9399 243.275 84.9399C241.871 84.9399 240.481 84.6938 239.104 84.2014C237.727 83.7092 236.452 82.9709 235.278 81.9863ZM224.488 65.877H232.812V60.5469H209.609V65.877H217.893V89.6094H224.488V65.877Z" fill="white"/>
</g>
<g clip-path="url(#clip4_16_2)">
<path d="M345.604 35H359.504L324.753 94.9457L290.002 35H316.586L324.753 48.9005L332.746 35H345.604Z" fill="#41B883"/>
<path d="M290.002 35L324.753 94.9457L359.504 35H345.604L324.753 70.9674L303.729 35H290.002Z" fill="#41B883"/>
<path d="M303.729 35L324.753 71.1412L345.604 35H332.746L324.753 48.9005L316.587 35H303.729Z" fill="#35495E"/>
</g>
<g clip-path="url(#clip5_16_2)">
<path d="M700.484 39.01L726.967 53.9904V83.9608L700.484 98.9411L674.002 83.9608V53.9904L700.484 39.01Z" fill="white"/>
<path d="M722.24 82.9215L701.364 94.7436V85.5497L714.375 78.3845L722.24 82.9215ZM723.669 81.6323V56.9285L716.034 61.3354V77.225L723.669 81.6323ZM678.649 82.9213L699.525 94.7339V85.5398L686.513 78.3845L678.649 82.9215V82.9213ZM677.219 81.6323V56.9285L684.855 61.3354V77.225L677.219 81.6323ZM678.109 55.3296L699.525 43.2172V52.1117L685.804 59.6566L685.694 59.7166L678.109 55.3294V55.3296ZM722.77 55.3296L701.364 43.217V52.1115L715.075 59.6664L715.185 59.7264L722.77 55.3292V55.3296Z" fill="#8ED6FB"/>
<path d="M699.525 83.4511L686.693 76.3856V62.4048L699.525 69.81V83.4511ZM701.364 83.4511L714.196 76.3957V62.4048L701.364 69.81V83.4511ZM687.553 60.7858L700.444 53.7004L713.326 60.7858L700.444 68.2211L687.553 60.7858Z" fill="#1C78C0"/>
</g>
<path d="M530 142L500.162 124.402L499.841 159.042L530 142ZM421.972 144L502.973 144.75L503.029 138.75L422.028 138L421.972 144Z" fill="#C892E9"/>
<path d="M890 143L860.162 125.402L859.841 160.042L890 143ZM781.972 145L862.973 145.75L863.029 139.75L782.028 139L781.972 145Z" fill="#C892E9"/>
<path d="M1142 144L1171.84 126.402L1172.16 161.042L1142 144ZM1250.03 146L1169.03 146.75L1168.97 140.75L1249.97 140L1250.03 146Z" fill="#3178C6"/>
<path d="M1014 325L1031.84 295.308L997.208 294.701L1014 325ZM1013 210.947L1011.47 297.952L1017.47 298.057L1019 211.053L1013 210.947Z" fill="#3178C6"/>
<defs>
<linearGradient id="paint0_linear_16_2" x1="601.842" y1="70.9017" x2="618.215" y2="73.0368" gradientUnits="userSpaceOnUse">
<stop stop-color="#FF6533"/>
<stop offset="0.157" stop-color="#FF5633"/>
<stop offset="0.434" stop-color="#FF4333"/>
<stop offset="0.714" stop-color="#FF3733"/>
<stop offset="1" stop-color="#FF3333"/>
</linearGradient>
<linearGradient id="paint1_linear_16_2" x1="599.315" y1="65.5452" x2="631.891" y2="79.6373" gradientUnits="userSpaceOnUse">
<stop stop-color="#BF3338"/>
<stop offset="1" stop-color="#FF3333"/>
</linearGradient>
<linearGradient id="paint2_linear_16_2" x1="600.26" y1="69.9685" x2="605.39" y2="72.4313" gradientUnits="userSpaceOnUse">
<stop stop-color="#FF6533"/>
<stop offset="0.157" stop-color="#FF5633"/>
<stop offset="0.434" stop-color="#FF4333"/>
<stop offset="0.714" stop-color="#FF3733"/>
<stop offset="1" stop-color="#FF3333"/>
</linearGradient>
<linearGradient id="paint3_linear_16_2" x1="607.89" y1="77.5539" x2="606.112" y2="59.5591" gradientUnits="userSpaceOnUse">
<stop stop-color="#FF6533"/>
<stop offset="0.157" stop-color="#FF5633"/>
<stop offset="0.434" stop-color="#FF4333"/>
<stop offset="0.714" stop-color="#FF3733"/>
<stop offset="1" stop-color="#FF3333"/>
</linearGradient>
<linearGradient id="paint4_linear_16_2" x1="602.436" y1="69.6592" x2="608.956" y2="72.3673" gradientUnits="userSpaceOnUse">
<stop stop-color="#FBB040"/>
<stop offset="1" stop-color="#FB8840"/>
</linearGradient>
<linearGradient id="paint5_linear_16_2" x1="608.543" y1="46.739" x2="598.543" y2="113.089" gradientUnits="userSpaceOnUse">
<stop stop-color="white"/>
<stop offset="1" stop-color="white" stop-opacity="0"/>
</linearGradient>
<clipPath id="clip0_16_2">
<rect width="53.1562" height="60" fill="white" transform="translate(987 41)"/>
</clipPath>
<clipPath id="clip1_16_2">
<rect width="45.8625" height="60" fill="white" transform="translate(585 39)"/>
</clipPath>
<clipPath id="clip2_16_2">
<rect width="60" height="60" fill="white" transform="translate(110 35)"/>
</clipPath>
<clipPath id="clip3_16_2">
<rect width="60" height="60" fill="white" transform="translate(200 35)"/>
</clipPath>
<clipPath id="clip4_16_2">
<rect width="69.5062" height="60" fill="white" transform="translate(290 35)"/>
</clipPath>
<clipPath id="clip5_16_2">
<rect width="52.9688" height="60" fill="white" transform="translate(674 39)"/>
</clipPath>
</defs>
</svg>
