<svg width="520" height="159" viewBox="0 0 520 159" fill="none" xmlns="http://www.w3.org/2000/svg">
<path fill-rule="evenodd" clip-rule="evenodd" d="M430.19 104.765V119.998C430.19 121.271 431.217 122.312 432.472 122.312H435.832C437.088 122.312 438.114 121.272 438.114 119.999V104.765H445.034V122.379C445.034 126.571 441.648 130 437.512 130H430.794C426.655 130 423.272 126.571 423.272 122.379V104.765H430.19ZM470.156 104.765V119.998C470.156 121.271 471.184 122.312 472.439 122.312H475.798C477.055 122.312 478.083 121.272 478.083 119.999V104.765H485V122.379C485 126.571 481.615 130 477.477 130H470.76C466.624 130 463.237 126.571 463.237 122.379V104.765H470.156ZM457.595 93V129.997H450.676V93H457.595ZM402.919 93V105.268C403.472 104.944 404.194 104.765 405.135 104.765H410.442C414.579 104.765 417.964 108.194 417.964 112.383V129.997H411.046V115.036C411.046 113.763 410.018 112.724 408.762 112.724H405.202C403.946 112.724 402.919 113.763 402.919 115.036V129.997H396V93H402.919Z" fill="#1DE783"/>
<path d="M45.3487 29.6328C45.183 28.0821 44.4846 26.8748 43.2536 26.0107C42.0343 25.1465 40.4482 24.7145 38.495 24.7145C37.1219 24.7145 35.9441 24.9216 34.9616 25.3359C33.9792 25.7502 33.2275 26.3125 32.7067 27.0227C32.1858 27.733 31.9195 28.5438 31.9077 29.4553C31.9077 30.2128 32.0793 30.8698 32.4226 31.4261C32.7777 31.9825 33.2571 32.456 33.8608 32.8466C34.4645 33.2254 35.1333 33.545 35.8672 33.8054C36.6011 34.0658 37.3409 34.2848 38.0866 34.4624L41.4957 35.3146C42.8688 35.6342 44.1887 36.0663 45.4553 36.6108C46.7337 37.1553 47.8759 37.8419 48.8821 38.6705C49.9001 39.4991 50.705 40.4993 51.2969 41.6712C51.8887 42.843 52.1847 44.2161 52.1847 45.7905C52.1847 47.9212 51.6402 49.7973 50.5511 51.419C49.4621 53.0289 47.8878 54.2895 45.8281 55.201C43.7803 56.1006 41.3004 56.5504 38.3885 56.5504C35.5594 56.5504 33.1032 56.1125 31.0199 55.2365C28.9484 54.3606 27.3267 53.0821 26.1548 51.4013C24.9948 49.7204 24.3674 47.6726 24.2727 45.2578H30.7536C30.8482 46.5244 31.2389 47.5779 31.9254 48.4183C32.612 49.2588 33.5057 49.8861 34.6065 50.3004C35.7192 50.7147 36.9621 50.9219 38.3352 50.9219C39.7675 50.9219 41.0223 50.7088 42.0994 50.2827C43.1884 49.8447 44.0407 49.241 44.6562 48.4716C45.2718 47.6903 45.5855 46.7789 45.5973 45.7372C45.5855 44.7902 45.3073 44.009 44.7628 43.3935C44.2183 42.7661 43.4548 42.2453 42.4723 41.831C41.5017 41.4048 40.3653 41.026 39.0632 40.6946L34.9261 39.6293C31.9313 38.8598 29.5639 37.6939 27.8239 36.1314C26.0956 34.5571 25.2315 32.4678 25.2315 29.8636C25.2315 27.7211 25.8116 25.8449 26.9716 24.2351C28.1435 22.6252 29.7356 21.3764 31.7479 20.4886C33.7602 19.589 36.0388 19.1392 38.5838 19.1392C41.1643 19.1392 43.4252 19.589 45.3665 20.4886C47.3196 21.3764 48.8525 22.6134 49.9652 24.1996C51.0779 25.7739 51.652 27.585 51.6875 29.6328H45.3487ZM71.3919 28.7273V33.6989H55.7136V28.7273H71.3919ZM59.5843 22.1932H66.0119V47.7969C66.0119 48.661 66.1421 49.3239 66.4025 49.7855C66.6748 50.2353 67.0299 50.5431 67.4679 50.7088C67.9058 50.8745 68.3912 50.9574 68.9238 50.9574C69.3263 50.9574 69.6932 50.9278 70.0247 50.8686C70.368 50.8094 70.6284 50.7562 70.8059 50.7088L71.889 55.7337C71.5458 55.852 71.0545 55.9822 70.4153 56.1243C69.7879 56.2663 69.0185 56.3492 68.1071 56.3729C66.4972 56.4202 65.0472 56.1776 63.7569 55.6449C62.4667 55.1004 61.4428 54.2599 60.6852 53.1236C59.9395 51.9872 59.5725 50.5668 59.5843 48.8622V22.1932ZM76.7674 56V28.7273H82.9996V33.2727H83.2837C83.7809 31.6984 84.6332 30.4851 85.8406 29.6328C87.0598 28.7687 88.4506 28.3366 90.0131 28.3366C90.3683 28.3366 90.7648 28.3544 91.2028 28.3899C91.6526 28.4136 92.0254 28.455 92.3214 28.5142V34.4268C92.0491 34.3321 91.6171 34.2493 91.0252 34.1783C90.4452 34.0954 89.8829 34.054 89.3384 34.054C88.1665 34.054 87.113 34.3085 86.1779 34.8175C85.2546 35.3146 84.5266 36.0071 83.994 36.8949C83.4613 37.7827 83.195 38.8066 83.195 39.9666V56H76.7674ZM107.542 56.5327C104.808 56.5327 102.447 55.9645 100.458 54.8281C98.4811 53.6799 96.96 52.0582 95.8947 49.9631C94.8294 47.8561 94.2967 45.3762 94.2967 42.5234C94.2967 39.718 94.8294 37.2559 95.8947 35.1371C96.9719 33.0064 98.4752 31.3492 100.405 30.1655C102.334 28.9699 104.601 28.3722 107.205 28.3722C108.886 28.3722 110.472 28.6444 111.964 29.1889C113.467 29.7216 114.793 30.5502 115.941 31.6747C117.101 32.7992 118.012 34.2315 118.675 35.9716C119.338 37.6998 119.67 39.7595 119.67 42.1506V44.1214H97.3152V39.7891H113.508C113.497 38.558 113.23 37.4631 112.709 36.5043C112.189 35.5336 111.461 34.7701 110.525 34.2138C109.602 33.6574 108.525 33.3793 107.294 33.3793C105.98 33.3793 104.826 33.6989 103.831 34.3381C102.837 34.9654 102.062 35.794 101.506 36.8239C100.961 37.8419 100.683 38.9605 100.671 40.1797V43.9616C100.671 45.5478 100.961 46.9091 101.541 48.0455C102.121 49.17 102.932 50.0341 103.974 50.6378C105.015 51.2296 106.234 51.5256 107.631 51.5256C108.566 51.5256 109.413 51.3954 110.17 51.1349C110.928 50.8627 111.585 50.4661 112.141 49.9453C112.698 49.4245 113.118 48.7794 113.402 48.0099L119.403 48.6847C119.024 50.2708 118.302 51.6558 117.237 52.8395C116.184 54.0114 114.834 54.9228 113.189 55.5739C111.543 56.2131 109.661 56.5327 107.542 56.5327ZM132.955 56.5504C131.227 56.5504 129.67 56.2427 128.286 55.6271C126.912 54.9998 125.823 54.0765 125.018 52.8572C124.225 51.638 123.829 50.1347 123.829 48.3473C123.829 46.8085 124.113 45.536 124.681 44.5298C125.249 43.5237 126.025 42.7188 127.007 42.1151C127.99 41.5114 129.096 41.0556 130.327 40.7479C131.57 40.4283 132.855 40.1974 134.18 40.0554C135.778 39.8897 137.075 39.7417 138.069 39.6115C139.063 39.4695 139.785 39.2564 140.235 38.9723C140.697 38.6764 140.928 38.2206 140.928 37.6051V37.4986C140.928 36.161 140.531 35.1252 139.738 34.3913C138.945 33.6574 137.803 33.2905 136.311 33.2905C134.737 33.2905 133.488 33.6338 132.565 34.3203C131.653 35.0069 131.038 35.8177 130.718 36.7528L124.717 35.9006C125.19 34.2434 125.971 32.8584 127.06 31.7457C128.149 30.6212 129.481 29.7808 131.055 29.2244C132.63 28.6562 134.37 28.3722 136.276 28.3722C137.589 28.3722 138.897 28.526 140.2 28.8338C141.502 29.1416 142.691 29.6506 143.768 30.3608C144.846 31.0592 145.71 32.0121 146.361 33.2195C147.024 34.4268 147.355 35.9361 147.355 37.7472V56H141.176V52.2536H140.963C140.572 53.0111 140.022 53.7214 139.312 54.3842C138.613 55.0353 137.732 55.562 136.666 55.9645C135.613 56.3551 134.376 56.5504 132.955 56.5504ZM134.624 51.8274C135.915 51.8274 137.033 51.5729 137.98 51.0639C138.927 50.5431 139.655 49.8565 140.164 49.0043C140.685 48.152 140.945 47.2228 140.945 46.2166V43.0028C140.744 43.1686 140.401 43.3224 139.915 43.4645C139.442 43.6065 138.909 43.7308 138.317 43.8374C137.726 43.9439 137.14 44.0386 136.56 44.1214C135.98 44.2043 135.477 44.2753 135.05 44.3345C134.092 44.4647 133.233 44.6778 132.476 44.9737C131.718 45.2696 131.121 45.6839 130.683 46.2166C130.245 46.7375 130.026 47.4122 130.026 48.2408C130.026 49.4245 130.458 50.3182 131.322 50.9219C132.186 51.5256 133.287 51.8274 134.624 51.8274ZM153.818 56V28.7273H159.962V33.3615H160.281C160.849 31.799 161.79 30.5798 163.104 29.7038C164.418 28.8161 165.987 28.3722 167.81 28.3722C169.656 28.3722 171.213 28.822 172.479 29.7216C173.758 30.6094 174.657 31.8227 175.178 33.3615H175.462C176.066 31.8464 177.084 30.639 178.516 29.7393C179.96 28.8279 181.671 28.3722 183.648 28.3722C186.157 28.3722 188.205 29.1652 189.791 30.7514C191.377 32.3376 192.17 34.6518 192.17 37.6939V56H185.725V38.6882C185.725 36.9955 185.275 35.7585 184.376 34.9773C183.476 34.1842 182.375 33.7876 181.073 33.7876C179.522 33.7876 178.309 34.273 177.433 35.2436C176.569 36.2024 176.137 37.4512 176.137 38.9901V56H169.834V38.4219C169.834 37.0133 169.408 35.8887 168.555 35.0483C167.715 34.2079 166.614 33.7876 165.253 33.7876C164.33 33.7876 163.489 34.0244 162.732 34.4979C161.974 34.9595 161.37 35.6165 160.92 36.4688C160.471 37.3092 160.246 38.2917 160.246 39.4162V56H153.818ZM198.691 56V28.7273H205.119V56H198.691ZM201.923 24.8565C200.905 24.8565 200.029 24.5192 199.295 23.8445C198.561 23.1579 198.194 22.3352 198.194 21.3764C198.194 20.4058 198.561 19.5831 199.295 18.9084C200.029 18.2218 200.905 17.8786 201.923 17.8786C202.953 17.8786 203.829 18.2218 204.551 18.9084C205.285 19.5831 205.651 20.4058 205.651 21.3764C205.651 22.3352 205.285 23.1579 204.551 23.8445C203.829 24.5192 202.953 24.8565 201.923 24.8565ZM218.156 40.0199V56H211.728V28.7273H217.872V33.3615H218.191C218.819 31.8345 219.819 30.6212 221.192 29.7216C222.577 28.822 224.288 28.3722 226.324 28.3722C228.206 28.3722 229.845 28.7746 231.242 29.5795C232.65 30.3845 233.739 31.5504 234.509 33.0774C235.29 34.6044 235.675 36.4569 235.663 38.6349V56H229.235V39.6293C229.235 37.8063 228.762 36.38 227.815 35.3501C226.88 34.3203 225.584 33.8054 223.926 33.8054C222.802 33.8054 221.802 34.054 220.926 34.5511C220.062 35.0365 219.381 35.7408 218.884 36.6641C218.399 37.5874 218.156 38.706 218.156 40.0199ZM254.058 66.7955C251.75 66.7955 249.767 66.4818 248.11 65.8544C246.453 65.2389 245.121 64.4103 244.115 63.3686C243.109 62.3269 242.41 61.1728 242.02 59.9062L247.808 58.5036C248.068 59.0362 248.447 59.563 248.944 60.0838C249.441 60.6165 250.11 61.0545 250.951 61.3977C251.803 61.7528 252.874 61.9304 254.164 61.9304C255.987 61.9304 257.497 61.4865 258.692 60.5987C259.888 59.7228 260.485 58.2786 260.485 56.2663V51.0994H260.166C259.834 51.7623 259.349 52.4429 258.71 53.1413C258.083 53.8397 257.248 54.4257 256.206 54.8991C255.176 55.3726 253.88 55.6094 252.318 55.6094C250.223 55.6094 248.323 55.1181 246.618 54.1357C244.926 53.1413 243.576 51.6617 242.57 49.6967C241.576 47.7199 241.078 45.246 241.078 42.2749C241.078 39.2801 241.576 36.7528 242.57 34.6932C243.576 32.6217 244.931 31.0533 246.636 29.9879C248.341 28.9107 250.24 28.3722 252.336 28.3722C253.934 28.3722 255.248 28.6444 256.277 29.1889C257.319 29.7216 258.148 30.3667 258.763 31.1243C259.379 31.87 259.846 32.5743 260.166 33.2372H260.521V28.7273H266.86V56.4439C266.86 58.7758 266.303 60.7053 265.191 62.2322C264.078 63.7592 262.557 64.9015 260.627 65.6591C258.698 66.4167 256.508 66.7955 254.058 66.7955ZM254.111 50.5668C255.472 50.5668 256.632 50.2353 257.591 49.5724C258.55 48.9096 259.278 47.9567 259.775 46.7138C260.272 45.4709 260.521 43.9794 260.521 42.2393C260.521 40.523 260.272 39.0196 259.775 37.7294C259.29 36.4392 258.568 35.4389 257.609 34.7287C256.662 34.0066 255.496 33.6456 254.111 33.6456C252.679 33.6456 251.483 34.0185 250.525 34.7642C249.566 35.5099 248.844 36.5339 248.358 37.8359C247.873 39.1262 247.63 40.594 247.63 42.2393C247.63 43.9084 247.873 45.3703 248.358 46.625C248.855 47.8679 249.583 48.8385 250.542 49.5369C251.513 50.2235 252.703 50.5668 254.111 50.5668ZM305.896 29.6328C305.73 28.0821 305.031 26.8748 303.8 26.0107C302.581 25.1465 300.995 24.7145 299.042 24.7145C297.669 24.7145 296.491 24.9216 295.509 25.3359C294.526 25.7502 293.774 26.3125 293.254 27.0227C292.733 27.733 292.466 28.5438 292.455 29.4553C292.455 30.2128 292.626 30.8698 292.969 31.4261C293.325 31.9825 293.804 32.456 294.408 32.8466C295.011 33.2254 295.68 33.545 296.414 33.8054C297.148 34.0658 297.888 34.2848 298.634 34.4624L302.043 35.3146C303.416 35.6342 304.736 36.0663 306.002 36.6108C307.281 37.1553 308.423 37.8419 309.429 38.6705C310.447 39.4991 311.252 40.4993 311.844 41.6712C312.436 42.843 312.732 44.2161 312.732 45.7905C312.732 47.9212 312.187 49.7973 311.098 51.419C310.009 53.0289 308.435 54.2895 306.375 55.201C304.327 56.1006 301.847 56.5504 298.935 56.5504C296.106 56.5504 293.65 56.1125 291.567 55.2365C289.495 54.3606 287.874 53.0821 286.702 51.4013C285.542 49.7204 284.914 47.6726 284.82 45.2578H291.3C291.395 46.5244 291.786 47.5779 292.472 48.4183C293.159 49.2588 294.053 49.8861 295.153 50.3004C296.266 50.7147 297.509 50.9219 298.882 50.9219C300.314 50.9219 301.569 50.7088 302.646 50.2827C303.735 49.8447 304.588 49.241 305.203 48.4716C305.819 47.6903 306.132 46.7789 306.144 45.7372C306.132 44.7902 305.854 44.009 305.31 43.3935C304.765 42.7661 304.002 42.2453 303.019 41.831C302.049 41.4048 300.912 41.026 299.61 40.6946L295.473 39.6293C292.478 38.8598 290.111 37.6939 288.371 36.1314C286.643 34.5571 285.778 32.4678 285.778 29.8636C285.778 27.7211 286.358 25.8449 287.518 24.2351C288.69 22.6252 290.282 21.3764 292.295 20.4886C294.307 19.589 296.586 19.1392 299.131 19.1392C301.711 19.1392 303.972 19.589 305.913 20.4886C307.866 21.3764 309.399 22.6134 310.512 24.1996C311.625 25.7739 312.199 27.585 312.234 29.6328H305.896ZM330.394 56.5327C327.66 56.5327 325.298 55.9645 323.309 54.8281C321.333 53.6799 319.812 52.0582 318.746 49.9631C317.681 47.8561 317.148 45.3762 317.148 42.5234C317.148 39.718 317.681 37.2559 318.746 35.1371C319.823 33.0064 321.327 31.3492 323.256 30.1655C325.186 28.9699 327.452 28.3722 330.057 28.3722C331.738 28.3722 333.324 28.6444 334.815 29.1889C336.318 29.7216 337.644 30.5502 338.792 31.6747C339.952 32.7992 340.864 34.2315 341.527 35.9716C342.19 37.6998 342.521 39.7595 342.521 42.1506V44.1214H320.167V39.7891H336.36C336.348 38.558 336.082 37.4631 335.561 36.5043C335.04 35.5336 334.312 34.7701 333.377 34.2138C332.454 33.6574 331.376 33.3793 330.145 33.3793C328.831 33.3793 327.677 33.6989 326.683 34.3381C325.689 34.9654 324.913 35.794 324.357 36.8239C323.813 37.8419 323.534 38.9605 323.523 40.1797V43.9616C323.523 45.5478 323.813 46.9091 324.393 48.0455C324.973 49.17 325.783 50.0341 326.825 50.6378C327.867 51.2296 329.086 51.5256 330.483 51.5256C331.418 51.5256 332.264 51.3954 333.022 51.1349C333.779 50.8627 334.436 50.4661 334.993 49.9453C335.549 49.4245 335.969 48.7794 336.253 48.0099L342.255 48.6847C341.876 50.2708 341.154 51.6558 340.089 52.8395C339.035 54.0114 337.686 54.9228 336.04 55.5739C334.395 56.2131 332.513 56.5327 330.394 56.5327ZM347.959 56V28.7273H354.191V33.2727H354.475C354.972 31.6984 355.825 30.4851 357.032 29.6328C358.251 28.7687 359.642 28.3366 361.205 28.3366C361.56 28.3366 361.956 28.3544 362.394 28.3899C362.844 28.4136 363.217 28.455 363.513 28.5142V34.4268C363.241 34.3321 362.808 34.2493 362.217 34.1783C361.637 34.0954 361.074 34.054 360.53 34.054C359.358 34.054 358.304 34.3085 357.369 34.8175C356.446 35.3146 355.718 36.0071 355.185 36.8949C354.653 37.7827 354.386 38.8066 354.386 39.9666V56H347.959ZM392.974 28.7273L383.262 56H376.159L366.447 28.7273H373.301L379.568 48.9865H379.852L386.138 28.7273H392.974ZM397.422 56V28.7273H403.849V56H397.422ZM400.653 24.8565C399.635 24.8565 398.759 24.5192 398.025 23.8445C397.291 23.1579 396.925 22.3352 396.925 21.3764C396.925 20.4058 397.291 19.5831 398.025 18.9084C398.759 18.2218 399.635 17.8786 400.653 17.8786C401.683 17.8786 402.559 18.2218 403.281 18.9084C404.015 19.5831 404.382 20.4058 404.382 21.3764C404.382 22.3352 404.015 23.1579 403.281 23.8445C402.559 24.5192 401.683 24.8565 400.653 24.8565ZM422.355 56.5327C419.633 56.5327 417.295 55.9349 415.342 54.7393C413.4 53.5438 411.903 51.8925 410.849 49.7855C409.808 47.6667 409.287 45.2282 409.287 42.4702C409.287 39.7003 409.82 37.2559 410.885 35.1371C411.95 33.0064 413.454 31.3492 415.395 30.1655C417.348 28.9699 419.656 28.3722 422.32 28.3722C424.533 28.3722 426.492 28.7805 428.197 29.5973C429.913 30.4022 431.28 31.5445 432.298 33.0241C433.316 34.492 433.896 36.2083 434.038 38.1733H427.895C427.646 36.8594 427.054 35.7644 426.119 34.8885C425.196 34.0007 423.959 33.5568 422.408 33.5568C421.094 33.5568 419.94 33.9119 418.946 34.6222C417.952 35.3205 417.176 36.3267 416.62 37.6406C416.076 38.9545 415.803 40.5289 415.803 42.3636C415.803 44.2221 416.076 45.8201 416.62 47.1577C417.165 48.4834 417.928 49.5073 418.911 50.2294C419.905 50.9396 421.071 51.2947 422.408 51.2947C423.355 51.2947 424.202 51.1172 424.947 50.7621C425.705 50.3951 426.338 49.8684 426.847 49.1818C427.356 48.4953 427.705 47.6607 427.895 46.6783H434.038C433.884 48.6077 433.316 50.3182 432.334 51.8097C431.351 53.2893 430.014 54.4493 428.321 55.2898C426.628 56.1184 424.64 56.5327 422.355 56.5327ZM451.39 56.5327C448.656 56.5327 446.294 55.9645 444.306 54.8281C442.329 53.6799 440.808 52.0582 439.742 49.9631C438.677 47.8561 438.144 45.3762 438.144 42.5234C438.144 39.718 438.677 37.2559 439.742 35.1371C440.82 33.0064 442.323 31.3492 444.252 30.1655C446.182 28.9699 448.449 28.3722 451.053 28.3722C452.734 28.3722 454.32 28.6444 455.811 29.1889C457.315 29.7216 458.64 30.5502 459.789 31.6747C460.949 32.7992 461.86 34.2315 462.523 35.9716C463.186 37.6998 463.517 39.7595 463.517 42.1506V44.1214H441.163V39.7891H457.356C457.344 38.558 457.078 37.4631 456.557 36.5043C456.036 35.5336 455.308 34.7701 454.373 34.2138C453.45 33.6574 452.373 33.3793 451.142 33.3793C449.828 33.3793 448.673 33.6989 447.679 34.3381C446.685 34.9654 445.91 35.794 445.353 36.8239C444.809 37.8419 444.53 38.9605 444.519 40.1797V43.9616C444.519 45.5478 444.809 46.9091 445.389 48.0455C445.969 49.17 446.78 50.0341 447.821 50.6378C448.863 51.2296 450.082 51.5256 451.479 51.5256C452.414 51.5256 453.26 51.3954 454.018 51.1349C454.776 50.8627 455.432 50.4661 455.989 49.9453C456.545 49.4245 456.965 48.7794 457.249 48.0099L463.251 48.6847C462.872 50.2708 462.15 51.6558 461.085 52.8395C460.031 54.0114 458.682 54.9228 457.036 55.5739C455.391 56.2131 453.509 56.5327 451.39 56.5327ZM490.51 35.9361L484.651 36.5753C484.485 35.9834 484.195 35.4271 483.781 34.9062C483.378 34.3854 482.834 33.9652 482.147 33.6456C481.461 33.326 480.62 33.1662 479.626 33.1662C478.288 33.1662 477.164 33.4562 476.252 34.0362C475.353 34.6162 474.909 35.3679 474.921 36.2912C474.909 37.0843 475.199 37.7294 475.791 38.2266C476.395 38.7237 477.389 39.1321 478.774 39.4517L483.426 40.446C486.006 41.0024 487.924 41.8842 489.179 43.0916C490.445 44.299 491.084 45.8793 491.096 47.8324C491.084 49.5488 490.581 51.0639 489.587 52.3778C488.605 53.6799 487.237 54.6979 485.485 55.4318C483.734 56.1657 481.721 56.5327 479.449 56.5327C476.11 56.5327 473.423 55.8343 471.387 54.4375C469.351 53.0289 468.138 51.0698 467.748 48.5604L474.015 47.9567C474.299 49.1877 474.903 50.117 475.826 50.7443C476.75 51.3717 477.951 51.6854 479.431 51.6854C480.958 51.6854 482.183 51.3717 483.106 50.7443C484.041 50.117 484.509 49.3416 484.509 48.4183C484.509 47.6371 484.207 46.992 483.603 46.483C483.011 45.974 482.088 45.5833 480.833 45.3111L476.181 44.3345C473.565 43.79 471.63 42.8726 470.375 41.5824C469.121 40.2803 468.499 38.6349 468.511 36.6463C468.499 34.9654 468.955 33.5095 469.878 32.2784C470.813 31.0355 472.109 30.0767 473.767 29.402C475.436 28.7154 477.359 28.3722 479.537 28.3722C482.733 28.3722 485.249 29.0528 487.083 30.4141C488.93 31.7753 490.072 33.616 490.51 35.9361Z" fill="white"/>
<path fill-rule="evenodd" clip-rule="evenodd" d="M369.806 103C377.081 103 383 109.057 383 116.5C383 123.944 377.081 130 369.806 130C364.214 130 359.423 126.422 357.505 121.387C357.515 121.561 357.521 121.743 357.521 121.931C357.521 129.897 350.871 129.696 350.7 129.69H339.322V103.28H350.242C352.213 103.28 357.826 104.382 357.826 110.031C357.826 110.339 357.815 110.631 357.796 110.91C359.878 106.248 364.478 103.001 369.806 103.001V103ZM326.127 103.28V113.242H330.678V103.28H337.805V129.69H330.677V119.913H326.127V129.69H319V103.28H326.127ZM349.502 119.449H345.691V123.484H349.483C349.483 123.484 351 123.327 351 121.311C351 119.572 349.678 119.456 349.502 119.449ZM369.806 109.828C366.21 109.828 363.284 112.822 363.284 116.5C363.284 120.178 366.209 123.172 369.806 123.172C373.402 123.172 376.326 120.178 376.326 116.5C376.326 112.822 373.402 109.828 369.806 109.828H369.806ZM369.789 111.618C372.393 111.618 374.506 113.846 374.506 116.593C374.506 119.339 372.394 121.567 369.788 121.567C367.184 121.567 365.071 119.339 365.071 116.593C365.071 113.846 367.184 111.618 369.789 111.618ZM356.766 114.425L356.734 114.474C355.974 115.595 354.937 116.068 354.033 116.236C353.131 116.41 355.499 116.325 356.773 118.612C356.559 117.225 356.556 115.813 356.766 114.425ZM349.488 109.72H345.691V113.708H349.483C349.483 113.708 351 113.522 351 111.612C351 109.768 349.583 109.721 349.488 109.72Z" fill="white" stroke="white" stroke-width="0.933"/>
<path fill-rule="evenodd" clip-rule="evenodd" d="M306 98L298.661 116.073L306 136C303.83 135.702 301.661 135.294 299.491 134.923L295.333 123.939L291.103 134.033C289.006 133.661 286.981 133.549 284.884 133.253L292.333 115.85L285.606 98H291.826L295.622 107.982L299.674 98H306ZM274.976 132.511C276.822 132.624 278.774 132.733 280.653 132.956V98H274.976V132.511ZM260.261 125.72C263.551 125.794 266.877 126.056 270.094 126.239V132.104C264.925 131.77 259.753 131.434 254.475 131.324V98H260.261V125.72ZM240.375 111.507H248.292V117.445H240.375V130.916H234.698V98H250.86V103.938H240.375V111.507ZM230.974 103.938H224.972V131.25C223.018 131.25 221.065 131.25 219.186 131.324V103.938H213.184V98H230.974V103.938ZM199.227 111.917C201.468 111.917 204.903 111.805 206.965 111.805V117.741C204.398 117.741 201.397 117.741 199.227 117.853V126.686C202.626 126.464 206.025 126.164 209.46 126.054V131.768L193.441 133.067V98H209.46V103.938H199.228V111.917H199.227ZM187.837 133.549C185.776 133.921 183.679 134.033 181.511 134.329L174.892 114.44V135.184C172.831 135.406 170.952 135.702 169 136V98H174.496L182.016 119.561V98H187.837V133.55V133.549Z" fill="#E50914"/>
<g clip-path="url(#clip0_0_3)">
<path d="M66 96C54.9544 96 46 104.955 46 116C46 127.046 54.9545 136 66 136C77.0464 136 86 127.046 86 116C86 104.955 77.0464 96.0011 65.9997 96.0011L65.9998 96.0002L66 96ZM75.1717 124.846C74.8134 125.433 74.0444 125.62 73.4569 125.259C68.7611 122.391 62.8498 121.741 55.8881 123.332C55.5657 123.405 55.2274 123.347 54.9476 123.171C54.6677 122.995 54.4692 122.715 54.3956 122.393C54.359 122.234 54.3542 122.068 54.3815 121.907C54.4088 121.745 54.4677 121.591 54.5548 121.452C54.6418 121.314 54.7554 121.194 54.889 121.099C55.0225 121.004 55.1735 120.937 55.3331 120.9C62.9519 119.16 69.4867 119.909 74.7586 123.131C75.3461 123.492 75.5323 124.258 75.1717 124.846ZM77.6197 119.4C77.1681 120.134 76.2081 120.365 75.475 119.914C70.0991 116.61 61.9042 115.653 55.5456 117.583C54.7209 117.832 53.85 117.367 53.5997 116.544C53.3513 115.719 53.8162 114.85 54.6395 114.599C61.9028 112.395 70.9325 113.463 77.1063 117.257C77.8394 117.708 78.0711 118.668 77.6197 119.4V119.4ZM77.8298 113.729C71.3839 109.901 60.7491 109.548 54.5948 111.417C53.6066 111.716 52.5614 111.158 52.262 110.17C51.9625 109.181 52.5198 108.137 53.5089 107.836C60.5734 105.692 72.3178 106.106 79.7389 110.512C80.6298 111.039 80.9211 112.187 80.3933 113.075C79.868 113.964 78.7167 114.257 77.8308 113.729H77.8298V113.729Z" fill="#1ED760"/>
</g>
<g clip-path="url(#clip1_0_3)">
<path d="M148.891 104.482C148.604 103.423 148.045 102.457 147.269 101.68C146.493 100.904 145.527 100.345 144.467 100.058C140.588 99 124.975 99 124.975 99C124.975 99 109.361 99.032 105.482 100.09C104.422 100.377 103.456 100.936 102.68 101.712C101.903 102.489 101.344 103.455 101.057 104.515C99.884 111.407 99.4288 121.91 101.09 128.527C101.376 129.587 101.936 130.553 102.712 131.329C103.488 132.106 104.454 132.665 105.514 132.952C109.393 134.01 125.006 134.01 125.006 134.01C125.006 134.01 140.62 134.01 144.499 132.952C145.558 132.665 146.524 132.106 147.301 131.329C148.077 130.553 148.636 129.587 148.923 128.527C150.161 121.625 150.542 111.128 148.891 104.483V104.482Z" fill="#FF0000"/>
<path d="M120.005 124.007L132.957 116.505L120.005 109.003V124.007Z" fill="white"/>
</g>
<defs>
<clipPath id="clip0_0_3">
<rect width="40" height="40" fill="white" transform="translate(46 96)"/>
</clipPath>
<clipPath id="clip1_0_3">
<rect width="50" height="35.1494" fill="white" transform="translate(100 99)"/>
</clipPath>
</defs>
</svg>
