<svg width="120" height="120" viewBox="0 0 120 120" fill="none" xmlns="http://www.w3.org/2000/svg">
<g clip-path="url(#clip0_4_2)">
<path fill-rule="evenodd" clip-rule="evenodd" d="M58 2.53552C59.2376 1.82099 60.7624 1.82099 62 2.53552L108.765 29.5355C110.003 30.25 110.765 31.5706 110.765 32.9996V86.9996C110.765 88.4287 110.003 89.7492 108.765 90.4637L62 117.464C60.7624 118.178 59.2376 118.178 58 117.464L11.2346 90.4637C9.99701 89.7492 9.23462 88.4287 9.23462 86.9996V32.9996C9.23462 31.5706 9.99701 30.25 11.2346 29.5355L58 2.53552ZM17.2346 35.309V84.6902L60 109.381L102.765 84.6902V35.309L60 10.6184L17.2346 35.309Z" fill="#99D253"/>
<path fill-rule="evenodd" clip-rule="evenodd" d="M60.1865 1.87616C61.7618 2.14741 62.9531 3.45144 63.0813 5.04474L66.3788 46.036L90.2931 44.1122C91.5258 44.013 92.7194 44.5718 93.4328 45.5819C94.1461 46.5921 94.2735 47.9038 93.7677 49.0323L63.7036 116.115C63.0498 117.574 61.4909 118.404 59.9157 118.133C58.3404 117.862 57.1491 116.558 57.0209 114.965L53.7234 73.9734L29.809 75.8972C28.5763 75.9963 27.3828 75.4376 26.6694 74.4274C25.956 73.4172 25.8287 72.1056 26.3345 70.9771L56.3986 3.89399C57.0523 2.43533 58.6112 1.6049 60.1865 1.87616ZM35.1397 68.4457L56.6509 66.7153C58.5776 66.5603 60.2652 67.9966 60.4202 69.9234L62.9029 100.786L84.9624 51.5636L63.4513 53.2941C61.5246 53.4491 59.837 52.0128 59.682 50.086L57.1993 19.2237L35.1397 68.4457Z" fill="#FCC72B"/>
</g>
<defs>
<clipPath id="clip0_4_2">
<rect width="120" height="120" fill="white"/>
</clipPath>
</defs>
</svg>
