<svg xmlns="http://www.w3.org/2000/svg" xmlns:xlink="http://www.w3.org/1999/xlink" viewBox="495 168 360 654"><path class="outer" stroke-width="30px" stroke="#f9bb03" d="M594.41 805c-.71 0-1.43-.15-2.11-.47a5.015 5.015 0 0 1-2.72-5.83l67.98-253.71H517.11a5.03 5.03 0 0 1-4.44-2.69c-.86-1.65-.73-3.65.34-5.18l26.85-38.35q25.56-36.51 104.91-149.83l106.31-151.82a4.991 4.991 0 0 1 6.21-1.66 5.015 5.015 0 0 1 2.72 5.83L692.03 455h140.45c1.86 0 3.57 1.04 4.43 2.69.86 1.65.73 3.65-.34 5.18l-238.07 340a5.006 5.006 0 0 1-4.1 2.13Zm-67.69-270h137.37c1.55 0 3.02.72 3.97 1.96.95 1.23 1.27 2.84.86 4.34l-62.33 232.61 216.29-308.9H685.52c-1.55 0-3.02-.72-3.97-1.96a4.966 4.966 0 0 1-.86-4.34l62.33-232.61-90.04 128.59q-79.35 113.32-104.91 149.83L526.73 535Z"></path><path class="inner" d="M594.41 805c-.71 0-1.43-.15-2.11-.47a5.015 5.015 0 0 1-2.72-5.83l67.98-253.71H517.11a5.03 5.03 0 0 1-4.44-2.69c-.86-1.65-.73-3.65.34-5.18l26.85-38.35q25.56-36.51 104.91-149.83l106.31-151.82a4.991 4.991 0 0 1 6.21-1.66 5.015 5.015 0 0 1 2.72 5.83L692.03 455h140.45c1.86 0 3.57 1.04 4.43 2.69.86 1.65.73 3.65-.34 5.18l-238.07 340a5.006 5.006 0 0 1-4.1 2.13Zm-67.69-270h137.37c1.55 0 3.02.72 3.97 1.96.95 1.23 1.27 2.84.86 4.34l-62.33 232.61 216.29-308.9H685.52c-1.55 0-3.02-.72-3.97-1.96a4.966 4.966 0 0 1-.86-4.34l62.33-232.61-90.04 128.59q-79.35 113.32-104.91 149.83L526.73 535Z" fill="#fffddd"></path></svg>