<svg xmlns="http://www.w3.org/2000/svg" xmlns:xlink="http://www.w3.org/1999/xlink" aria-hidden="true" role="img" class="iconify iconify--logos" width="38.29" height="32" preserveAspectRatio="xMidYMid meet" viewBox="0 -35 256 214"><defs><linearGradient x1="49.911%" y1="99.908%" x2="49.911%" y2="-.09%" id="IconifyId-17d62329736-215d01-1658"><stop stop-color="#8AC23E" offset="0%"></stop><stop stop-color="#8AC23E" stop-opacity="0" offset="100%"></stop></linearGradient><linearGradient x1="49.984%" y1=".064%" x2="49.984%" y2="100.062%" id="IconifyId-17d62329736-215d01-1659"><stop stop-color="#698932" offset="0%"></stop><stop stop-color="#698932" stop-opacity="0" offset="100%"></stop></linearGradient><linearGradient x1="50.06%" y1=".064%" x2="50.06%" y2="100.062%" id="IconifyId-17d62329736-215d01-1660"><stop stop-color="#FFED01" offset="0%"></stop><stop stop-color="#FFED01" stop-opacity="0" offset="100%"></stop></linearGradient><linearGradient x1="50.017%" y1=".064%" x2="50.017%" y2="100.093%" id="IconifyId-17d62329736-215d01-1661"><stop stop-color="#E02A89" offset="0%"></stop><stop stop-color="#E02A89" stop-opacity="0" offset="100%"></stop></linearGradient><linearGradient x1="49.963%" y1="-.092%" x2="49.963%" y2="99.907%" id="IconifyId-17d62329736-215d01-1662"><stop stop-color="#7F1E4F" offset="0%"></stop><stop stop-color="#7F1E4F" stop-opacity="0" offset="100%"></stop></linearGradient><linearGradient x1="49.965%" y1="-.092%" x2="49.965%" y2="99.907%" id="IconifyId-17d62329736-215d01-1663"><stop stop-color="#E95506" offset="0%"></stop><stop stop-color="#E95506" stop-opacity="0" offset="100%"></stop></linearGradient><linearGradient x1="49.977%" y1="99.908%" x2="49.977%" y2="-.027%" id="IconifyId-17d62329736-215d01-1664"><stop stop-color="#88D0F1" offset="0%"></stop><stop stop-color="#88D0F1" stop-opacity="0" offset="100%"></stop></linearGradient><linearGradient x1="50.021%" y1=".064%" x2="50.021%" y2="99.999%" id="IconifyId-17d62329736-215d01-1665"><stop stop-color="#00828B" offset="0%"></stop><stop stop-color="#00828B" stop-opacity="0" offset="83.25%"></stop></linearGradient><linearGradient x1="50.078%" y1="99.975%" x2="50.078%" y2=".071%" id="IconifyId-17d62329736-215d01-1666"><stop stop-color="#2073BA" offset="0%"></stop><stop stop-color="#2073BA" stop-opacity="0" offset="100%"></stop></linearGradient><linearGradient x1="50.018%" y1=".064%" x2="50.018%" y2="99.999%" id="IconifyId-17d62329736-215d01-1667"><stop stop-color="#8ED0E1" offset="0%"></stop><stop stop-color="#88D0F1" stop-opacity="0" offset="100%"></stop></linearGradient></defs><path d="M128.1 0h36.1c-13.3 21.8-28 45.8-42.7 69.7H85.4c14.7-23.9 29.4-47.9 42.7-69.7z" fill="#8DC220"></path><path d="M42.7 0h36.1c-7.1 11.6-14.3 23.3-21.4 34.9L36.1 69.7c7.1 11.6 14.2 23.3 21.3 34.9c7.1 11.6 14.2 23.2 21.4 34.8H42.7c-7.1-11.6-14.3-23.2-21.4-34.8C14.2 93.1 7.1 81.4 0 69.8L21.3 35c7.1-11.7 14.3-23.3 21.4-35z" fill="#44BFEF"></path><path d="M42.7 0c14.7 24 29.4 48 42.7 69.7h36.1C108.2 48 93.5 24 78.8 0H42.7z" fill="#00AC71"></path><path d="M164.2 0h-36.1c7.1 11.6 14.2 23.3 21.4 34.9c7.1 11.6 14.2 23.2 21.4 34.8c-7.1 11.6-14.3 23.3-21.4 34.9c-7.1 11.6-14.2 23.2-21.4 34.8h36.1c7.1-11.6 14.2-23.2 21.4-34.8c7.1-11.6 14.2-23.2 21.4-34.9c-7.2-11.6-14.3-23.2-21.4-34.8c-7.1-11.6-14.3-23.2-21.4-34.9z" fill="#F9BC00"></path><path d="M149.3 24.6h-36.1c-4.6 7.5-9.2 15.1-13.8 22.6c-4.6 7.5-9.2 15.1-13.9 22.6h36.1c4.6-7.5 9.3-15.1 13.9-22.6c4.5-7.6 9.1-15.1 13.8-22.6z" fill="url(#IconifyId-17d62329736-215d01-1658)"></path><path d="M100.5 45.2h36.1c4.6-7.5 9.2-15.1 13.8-22.6c4.6-7.5 9.2-15.1 13.8-22.6h-36.1c-4.6 7.5-9.2 15.1-13.8 22.6c-4.6 7.6-9.2 15.1-13.8 22.6z" fill="url(#IconifyId-17d62329736-215d01-1659)"></path><path d="M191.9 45.2h-36.1c-4.6-7.5-9.3-15.1-13.9-22.6c-4.6-7.5-9.2-15.1-13.8-22.6h36.1c4.6 7.5 9.2 15.1 13.8 22.6c4.7 7.6 9.3 15.1 13.9 22.6z" fill="url(#IconifyId-17d62329736-215d01-1660)"></path><path d="M213.2 0h-36.1c7.1 11.7 14.2 23.3 21.3 34.9c7.1 11.6 14.3 23.2 21.4 34.8c-7.1 11.6-14.3 23.3-21.4 34.9c-7.1 11.6-14.2 23.2-21.4 34.8h36.1c7.1-11.6 14.2-23.2 21.4-34.8c7.1-11.6 14.2-23.2 21.4-34.9c-7.1-11.6-14.2-23.2-21.4-34.8c-7-11.6-14.2-23.2-21.3-34.9z" fill="#DF1B1C"></path><path d="M240.9 45.2h-36.1c-4.7-7.5-9.3-15.1-13.9-22.6c-4.6-7.5-9.2-15.1-13.8-22.6h36.1c4.6 7.5 9.2 15.1 13.8 22.6c4.6 7.6 9.3 15.1 13.9 22.6z" fill="url(#IconifyId-17d62329736-215d01-1661)"></path><path d="M192.2 115h36.1c4.6-7.5 9.2-15 13.8-22.6c4.6-7.5 9.2-15.1 13.9-22.6h-36.2c-4.6 7.5-9.2 15.1-13.8 22.6c-4.6 7.5-9.2 15-13.8 22.6z" fill="url(#IconifyId-17d62329736-215d01-1662)"></path><path d="M143.2 115h36.1c4.6-7.5 9.2-15.1 13.8-22.6c4.6-7.5 9.2-15.1 13.9-22.6h-36.1c-4.6 7.5-9.2 15.1-13.8 22.6c-4.7 7.5-9.3 15-13.9 22.6z" fill="url(#IconifyId-17d62329736-215d01-1663)"></path><path d="M63.8 24.6H27.7c-4.6 7.5-9.2 15.1-13.8 22.6C9.2 54.7 4.6 62.3 0 69.8h36.1c4.6-7.5 9.2-15 13.8-22.6c4.6-7.5 9.2-15.1 13.9-22.6z" fill="url(#IconifyId-17d62329736-215d01-1664)"></path><path d="M15 45.2h36.1c4.6-7.5 9.2-15.1 13.8-22.6C69.6 15.1 74.2 7.5 78.8 0H42.7c-4.6 7.5-9.2 15-13.8 22.6c-4.6 7.5-9.2 15.1-13.9 22.6z" fill="url(#IconifyId-17d62329736-215d01-1665)"></path><path d="M15 94.3h36.1c4.6 7.5 9.2 15.1 13.8 22.6c4.6 7.5 9.2 15.1 13.8 22.6H42.6c-4.6-7.5-9.3-15-13.9-22.6c-4.5-7.5-9.1-15-13.7-22.6z" fill="url(#IconifyId-17d62329736-215d01-1666)"></path><path d="M106.5 45.2H70.4c-4.6-7.5-9.2-15.1-13.8-22.6C51.9 15.1 47.3 7.5 42.7 0h36.1c4.6 7.5 9.2 15 13.8 22.6c4.7 7.5 9.3 15.1 13.9 22.6z" fill="url(#IconifyId-17d62329736-215d01-1667)"></path></svg>