<svg width="50" height="50" viewBox="0 0 50 50" fill="none" xmlns="http://www.w3.org/2000/svg">
<path fill-rule="evenodd" clip-rule="evenodd" d="M40.9774 11.3712C33.4501 2.54767 20.1953 1.49683 11.3718 9.02404C2.54828 16.5513 1.49744 29.8061 9.02465 38.6296C16.5519 47.453 29.8067 48.5039 38.6302 40.9768C47.4537 33.4495 48.5046 20.1947 40.9774 11.3712ZM30.5151 22.3934C31.3244 22.3934 31.8412 23.2703 31.4351 23.9703L31.3183 24.1716L23.393 37.2108C23.2457 37.4532 22.9827 37.601 22.6992 37.601H21.9427C21.4243 37.601 21.0452 37.1116 21.1751 36.6097L23.3256 28.2953C23.4975 27.6305 22.9957 26.9824 22.3091 26.9824H19.0059C18.3193 26.9824 17.8175 26.3343 17.9893 25.6696L21.2343 13.117C21.3524 12.6946 21.7349 12.3972 22.1735 12.4022C22.2266 12.4028 22.2748 12.4037 22.3148 12.4049L25.6414 12.4049C26.2778 12.4046 26.7681 12.9659 26.6824 13.5965L26.6619 13.7466L25.3933 21.1664C25.2837 21.8078 25.7776 22.3934 26.4283 22.3934H30.5151Z" fill="url(#paint0_radial_1_3)"/>
<mask id="mask0_1_3" style="mask-type:alpha" maskUnits="userSpaceOnUse" x="4" y="4" width="42" height="43">
<path d="M25 46.0009C36.5979 46.0009 46 36.5989 46 25.001C46 13.403 36.5979 4.001 25 4.001C13.402 4.001 4 13.403 4 25.001C4 36.5989 13.402 46.0009 25 46.0009Z" fill="url(#paint1_radial_1_3)"/>
</mask>
<g mask="url(#mask0_1_3)">
<g filter="url(#filter0_f_1_3)">
<path d="M5.16702 18.098C4.07383 21.2388 3.7422 24.5943 4.19941 27.8882C4.65663 31.1823 5.88963 34.3206 7.79691 37.0448C9.70418 39.7692 12.2312 42.0015 15.17 43.5583C18.1087 45.115 21.3752 45.9514 24.7004 45.9989C28.0256 46.0464 31.3146 45.3034 34.2966 43.8312C37.2786 42.359 39.8682 40.1995 41.8525 37.5308C43.8366 34.862 45.1587 31.7602 45.7097 28.4805C46.2607 25.2009 46.0249 21.8373 45.0218 18.6666L38.9158 20.5984C39.613 22.8021 39.7768 25.1399 39.3939 27.4194C39.0109 29.6988 38.0921 31.8547 36.7129 33.7096C35.3338 35.5645 33.5339 37.0653 31.4613 38.0885C29.3889 39.1119 27.1029 39.6281 24.7918 39.5952C22.4806 39.5622 20.2103 38.9808 18.1678 37.8989C16.1253 36.817 14.3689 35.2654 13.0433 33.3719C11.7177 31.4784 10.8607 29.2972 10.5429 27.0078C10.2252 24.7183 10.4557 22.3861 11.2155 20.2032L5.16702 18.098Z" fill="white"/>
</g>
</g>
<defs>
<filter id="filter0_f_1_3" x="-6.00001" y="8.09801" width="61.9999" height="47.903" filterUnits="userSpaceOnUse" color-interpolation-filters="sRGB">
<feFlood flood-opacity="0" result="BackgroundImageFix"/>
<feBlend mode="normal" in="SourceGraphic" in2="BackgroundImageFix" result="shape"/>
<feGaussianBlur stdDeviation="5" result="effect1_foregroundBlur_1_3"/>
</filter>
<radialGradient id="paint0_radial_1_3" cx="0" cy="0" r="1" gradientUnits="userSpaceOnUse" gradientTransform="translate(8.20069 25.0004) scale(40.9507 417.595)">
<stop stop-color="#31B2F3"/>
<stop offset="0.473958" stop-color="#F27CEC"/>
<stop offset="1" stop-color="#FD6641"/>
</radialGradient>
<radialGradient id="paint1_radial_1_3" cx="0" cy="0" r="1" gradientUnits="userSpaceOnUse" gradientTransform="translate(8.19999 25.0011) scale(40.9499 417.588)">
<stop stop-color="#F27CEC"/>
<stop offset="0.484375" stop-color="#31B2F3"/>
<stop offset="1" stop-color="#7D7573"/>
</radialGradient>
</defs>
</svg>
