<svg width="184" height="38" viewBox="0 0 184 38" fill="none" xmlns="http://www.w3.org/2000/svg">
<g clip-path="url(#clip0_642_433)">
<path d="M68.0889 15.296H72.1847V9.40258H78.0508V6.10078H72.1847V3.50711H78.6982V0.20741H68.0889V15.296Z" fill="white"/>
<path d="M91.9703 8.06803C92.4501 7.32639 92.6889 6.41504 92.6889 5.33399C92.6889 4.25295 92.4564 3.3437 91.9892 2.57901C91.522 1.81222 90.8683 1.2256 90.0282 0.819164C89.1881 0.41063 88.2076 0.20741 87.0889 0.20741H80.5754V15.298H84.6712V10.3181H86.0895L88.7398 15.298H93.1896L90.1246 9.67075C90.906 9.29573 91.522 8.76359 91.9703 8.07013V8.06803ZM84.6712 3.47778H86.1147C86.5965 3.47778 87.0072 3.54273 87.3486 3.67262C87.6901 3.80251 87.952 4.00364 88.1364 4.27599C88.3208 4.54835 88.4129 4.90241 88.4129 5.33399C88.4129 5.76557 88.3208 6.10707 88.1364 6.37314C87.952 6.63921 87.688 6.83195 87.3486 6.95137C87.0072 7.07289 86.5965 7.13155 86.1147 7.13155H84.6712V3.47778Z" fill="white"/>
<path d="M105.793 0.888301C104.683 0.295402 103.445 0 102.081 0C100.717 0 99.4643 0.295402 98.356 0.888301C97.2478 1.4812 96.3699 2.35274 95.7184 3.50292C95.0668 4.6552 94.7421 6.07145 94.7421 7.74959C94.7421 9.42772 95.0668 10.8314 95.7184 11.9837C96.3699 13.136 97.2478 14.0096 98.356 14.6067C99.4643 15.2038 100.705 15.5013 102.081 15.5013C103.457 15.5013 104.685 15.2059 105.793 14.613C106.904 14.0201 107.786 13.1485 108.437 11.9983C109.091 10.8461 109.418 9.42982 109.418 7.74959C109.418 6.06936 109.091 4.6552 108.437 3.50292C107.784 2.35065 106.902 1.4791 105.793 0.888301ZM104.846 10.0395C104.608 10.6617 104.256 11.1331 103.793 11.4536C103.33 11.7763 102.758 11.9355 102.081 11.9355C101.404 11.9355 100.832 11.7742 100.367 11.4536C99.9043 11.1331 99.5523 10.6596 99.3135 10.0395C99.0746 9.41725 98.9552 8.65674 98.9552 7.75168C98.9552 6.84662 99.0746 6.08612 99.3135 5.46389C99.5523 4.84166 99.9043 4.37027 100.367 4.04973C100.832 3.72919 101.402 3.56787 102.081 3.56787C102.76 3.56787 103.33 3.72919 103.793 4.04973C104.256 4.37027 104.608 4.84375 104.846 5.46389C105.085 6.08612 105.205 6.84872 105.205 7.75168C105.205 8.65465 105.085 9.41934 104.846 10.0395Z" fill="white"/>
<path d="M120.639 8.10575H120.522L115.156 0.20741H111.678V15.296H115.774V7.36829H115.864L121.316 15.296H124.735V0.20741H120.639V8.10575Z" fill="white"/>
<path d="M126.641 3.50711H131.181V15.296H135.218V3.50711H139.756V0.20741H126.641V3.50711Z" fill="white"/>
<path d="M141.663 15.296H152.509V11.9963H145.759V9.40258H151.979V6.10078H145.759V3.50711H152.538V0.20741H141.663V15.296Z" fill="white"/>
<path d="M163.904 8.10575H163.787L158.423 0.20741H154.945V15.296H159.041V7.36829H159.129L164.583 15.296H168.002V0.20741H163.904V8.10575Z" fill="white"/>
<path d="M182.717 3.70195C182.101 2.57481 181.226 1.70956 180.094 1.10828C178.961 0.507002 177.62 0.205315 176.068 0.205315H170.321V15.296H176.126C177.658 15.296 178.988 14.9943 180.113 14.393C181.238 13.7917 182.108 12.9265 182.722 11.7993C183.335 10.6722 183.643 9.32297 183.643 7.74959C183.643 6.1762 183.335 4.82909 182.717 3.69986V3.70195ZM179.099 10.2134C178.823 10.8021 178.418 11.219 177.89 11.4578C177.362 11.6988 176.726 11.8182 175.978 11.8182H174.415V3.68519H175.858C176.644 3.68519 177.308 3.8067 177.851 4.04554C178.393 4.28647 178.806 4.70129 179.089 5.29C179.372 5.87871 179.512 6.69997 179.512 7.75168C179.512 8.8034 179.374 9.62256 179.095 10.2134H179.099Z" fill="white"/>
<path d="M76.9848 30.6022H76.8675L71.5041 22.7039H68.0264V37.7945H72.1222V29.8668H72.2102L77.6636 37.7945H81.0827V22.7039H76.9848V30.6022Z" fill="#FFEE04"/>
<path d="M87.8811 22.7039L82.9012 37.7945H87.3218L88.1933 34.9075H93.169L94.0406 37.7945H98.4611L93.4812 22.7039H87.8811ZM89.1193 31.8404L90.6236 26.8604H90.7409L92.2451 31.8404H89.1193Z" fill="#FFEE04"/>
<path d="M97.9499 26.0056H102.49V37.7945H106.527V26.0056H111.067V22.7039H97.9499V26.0056Z" fill="#FFEE04"/>
<path d="M117.069 22.7039H112.971V37.7945H117.069V22.7039Z" fill="#FFEE04"/>
<path d="M130.381 23.3868C129.271 22.7939 128.033 22.4985 126.669 22.4985C125.305 22.4985 124.052 22.7939 122.944 23.3868C121.836 23.9797 120.956 24.8513 120.306 26.0015C119.655 27.1537 119.33 28.57 119.33 30.2481C119.33 31.9263 119.655 33.3299 120.306 34.4822C120.958 35.6345 121.836 36.5081 122.944 37.1052C124.052 37.7023 125.292 37.9998 126.669 37.9998C128.045 37.9998 129.273 37.7044 130.381 37.1115C131.49 36.5186 132.374 35.6471 133.027 34.4969C133.681 33.3446 134.008 31.9284 134.008 30.2481C134.008 28.5679 133.681 27.1537 133.027 26.0015C132.374 24.8492 131.492 23.9776 130.381 23.3868ZM129.434 32.538C129.196 33.1602 128.846 33.6316 128.381 33.9522C127.918 34.2748 127.346 34.434 126.667 34.434C125.988 34.434 125.418 34.2727 124.953 33.9522C124.488 33.6316 124.138 33.1581 123.899 32.538C123.66 31.9158 123.541 31.1553 123.541 30.2502C123.541 29.3452 123.66 28.5847 123.899 27.9624C124.138 27.3402 124.488 26.8688 124.953 26.5483C125.418 26.2277 125.988 26.0664 126.667 26.0664C127.346 26.0664 127.915 26.2277 128.381 26.5483C128.846 26.8688 129.196 27.3423 129.434 27.9624C129.673 28.5847 129.793 29.3472 129.793 30.2502C129.793 31.1532 129.673 31.9179 129.434 32.538Z" fill="#FFEE04"/>
<path d="M145.225 22.7039V30.6022H145.107L139.744 22.7039H136.266V37.7945H140.362V29.8668H140.45L145.904 37.7945H149.323V22.7039H145.225Z" fill="#FFEE04"/>
<path d="M60.0444 37.7821V0L-0.00174713 0V37.7821L60.0444 37.7821Z" fill="#FFEE04"/>
<path fill-rule="evenodd" clip-rule="evenodd" d="M13.4942 16.1928V11.3343H23.6133V5.39697H6.74609V32.3854H13.4942V21.5896H23.6133V16.1928H13.4942Z" fill="black"/>
<path fill-rule="evenodd" clip-rule="evenodd" d="M47.9012 5.39697V20.2383L37.7801 5.39697H31.034V11.3343H23.6133V16.1928H31.034V21.5896H23.6133V26.448H31.034V32.3854H37.7801V17.5462L47.9012 32.3854H54.6473V5.39697H47.9012Z" fill="black"/>
</g>
<defs>
<clipPath id="clip0_642_433">
<rect width="183.579" height="38" fill="white"/>
</clipPath>
</defs>
</svg>
