<?xml version="1.0" encoding="UTF-8"?>
<svg xmlns="http://www.w3.org/2000/svg" xmlns:xlink="http://www.w3.org/1999/xlink" width="172px" height="33px" viewBox="0 0 172 33" version="1.1">
<g id="surface1">
<path style=" stroke:none;fill-rule:nonzero;fill:rgb(2.352941%,72.941176%,54.117647%);fill-opacity:1;" d="M 1.015625 0 L 5.183594 0 C 6.070312 0 6.925781 0.347656 7.566406 0.964844 L 20.351562 13.285156 L 20.351562 22.484375 L 7.753906 10.453125 L 7.753906 32.445312 L 1.128906 25.769531 C 0.40625 25.046875 0 24.058594 0 23.03125 L 0.0234375 0.996094 C 0.0234375 0.449219 0.46875 0 1.015625 0 Z M 1.015625 0 "/>
<path style=" stroke:none;fill-rule:nonzero;fill:rgb(100%,100%,100%);fill-opacity:1;" d="M 27.089844 32.9375 L 22.925781 32.9375 C 22.035156 32.9375 21.179688 32.59375 20.539062 31.976562 L 7.753906 19.65625 L 7.753906 10.453125 L 20.351562 22.484375 L 20.351562 0.488281 L 26.980469 7.167969 C 27.703125 7.894531 28.105469 8.882812 28.105469 9.914062 L 28.082031 31.941406 C 28.082031 32.492188 27.636719 32.9375 27.089844 32.9375 Z M 27.089844 32.9375 "/>
<path style=" stroke:none;fill-rule:nonzero;fill:rgb(100%,100%,100%);fill-opacity:1;" d="M 43.039062 25.867188 L 43.039062 13.753906 L 50.382812 25.867188 L 54.160156 25.867188 L 54.160156 7.453125 L 50.398438 7.453125 L 50.398438 19.59375 L 43.039062 7.453125 L 39.261719 7.453125 L 39.261719 25.867188 Z M 61.648438 26.121094 C 63.234375 26.121094 64.472656 25.570312 65.371094 24.476562 L 65.472656 25.867188 L 68.894531 25.867188 L 68.894531 12.183594 L 65.246094 12.183594 L 65.246094 21.871094 C 64.785156 22.730469 63.9375 23.164062 62.703125 23.164062 C 61.414062 23.164062 60.765625 22.445312 60.765625 21.023438 L 60.765625 12.183594 L 57.128906 12.183594 L 57.128906 21.152344 C 57.148438 22.777344 57.539062 24.015625 58.308594 24.855469 C 59.074219 25.699219 60.1875 26.121094 61.648438 26.121094 Z M 74.417969 25.867188 L 76.835938 21.566406 L 79.265625 25.867188 L 83.167969 25.867188 L 79.125 18.886719 L 83 12.183594 L 79.113281 12.183594 L 76.824219 16.269531 L 74.585938 12.183594 L 70.683594 12.183594 L 74.542969 18.886719 L 70.507812 25.867188 Z M 89.371094 26.121094 C 90.125 26.121094 90.859375 26.011719 91.570312 25.792969 L 91.570312 23.019531 C 91.261719 23.082031 90.90625 23.113281 90.5 23.113281 C 89.957031 23.113281 89.589844 23 89.398438 22.78125 C 89.199219 22.5625 89.105469 22.199219 89.105469 21.695312 L 89.105469 14.863281 L 91.433594 14.863281 L 91.433594 12.183594 L 89.105469 12.183594 L 89.105469 8.820312 L 85.46875 8.820312 L 85.46875 12.183594 L 83.480469 12.183594 L 83.480469 14.863281 L 85.46875 14.863281 L 85.46875 22.238281 C 85.519531 24.824219 86.820312 26.121094 89.371094 26.121094 Z M 89.371094 26.121094 "/>
<path style=" stroke:none;fill-rule:nonzero;fill:rgb(2.352941%,72.941176%,54.117647%);fill-opacity:1;" d="M 101.882812 25.867188 L 101.882812 13.753906 L 109.230469 25.867188 L 113.007812 25.867188 L 113.007812 7.453125 L 109.242188 7.453125 L 109.242188 19.59375 L 101.882812 7.453125 L 98.105469 7.453125 L 98.105469 25.867188 Z M 120.152344 26.121094 C 121.5625 26.121094 122.707031 25.628906 123.585938 24.640625 C 123.664062 25.128906 123.785156 25.535156 123.953125 25.867188 L 127.628906 25.867188 L 127.628906 25.652344 C 127.273438 24.988281 127.097656 24.003906 127.085938 22.703125 L 127.085938 16.773438 C 127.085938 15.238281 126.59375 14.046875 125.605469 13.199219 C 124.621094 12.355469 123.289062 11.929688 121.613281 11.929688 C 120.503906 11.929688 119.507812 12.121094 118.617188 12.503906 C 117.730469 12.886719 117.042969 13.417969 116.554688 14.089844 C 116.070312 14.765625 115.824219 15.5 115.824219 16.292969 L 119.460938 16.292969 C 119.460938 15.777344 119.632812 15.375 119.980469 15.078125 C 120.328125 14.785156 120.8125 14.636719 121.421875 14.636719 C 122.121094 14.636719 122.628906 14.828125 122.953125 15.203125 C 123.277344 15.585938 123.4375 16.089844 123.4375 16.722656 L 123.4375 17.507812 L 121.765625 17.507812 C 119.742188 17.515625 118.195312 17.90625 117.125 18.683594 C 116.054688 19.457031 115.523438 20.570312 115.523438 22.023438 C 115.523438 23.203125 115.960938 24.179688 116.839844 24.957031 C 117.714844 25.734375 118.820312 26.121094 120.152344 26.121094 Z M 120.945312 23.324219 C 120.390625 23.324219 119.953125 23.175781 119.636719 22.878906 C 119.316406 22.585938 119.160156 22.210938 119.160156 21.757812 L 119.171875 21.539062 C 119.289062 20.277344 120.257812 19.644531 122.078125 19.644531 L 123.4375 19.644531 L 123.4375 22 C 123.21875 22.402344 122.882812 22.726562 122.429688 22.964844 C 121.976562 23.207031 121.484375 23.324219 120.945312 23.324219 Z M 134.5 26.121094 C 135.253906 26.121094 135.988281 26.011719 136.703125 25.792969 L 136.703125 23.019531 C 136.390625 23.082031 136.03125 23.113281 135.632812 23.113281 C 135.085938 23.113281 134.714844 23 134.523438 22.78125 C 134.332031 22.5625 134.234375 22.199219 134.234375 21.695312 L 134.234375 14.863281 L 136.5625 14.863281 L 136.5625 12.183594 L 134.234375 12.183594 L 134.234375 8.820312 L 130.597656 8.820312 L 130.597656 12.183594 L 128.609375 12.183594 L 128.609375 14.863281 L 130.597656 14.863281 L 130.597656 22.238281 C 130.648438 24.824219 131.949219 26.121094 134.5 26.121094 Z M 140.601562 10.539062 C 141.214844 10.539062 141.707031 10.359375 142.078125 10.007812 C 142.453125 9.65625 142.640625 9.195312 142.640625 8.640625 C 142.640625 8.09375 142.453125 7.644531 142.085938 7.285156 C 141.71875 6.933594 141.222656 6.757812 140.601562 6.757812 C 139.972656 6.757812 139.476562 6.933594 139.113281 7.285156 C 138.746094 7.644531 138.566406 8.09375 138.566406 8.640625 C 138.566406 9.195312 138.75 9.65625 139.121094 10.007812 C 139.496094 10.359375 139.988281 10.539062 140.601562 10.539062 Z M 142.425781 25.867188 L 142.425781 12.183594 L 138.777344 12.183594 L 138.777344 25.867188 Z M 151.308594 26.121094 C 153.273438 26.121094 154.839844 25.484375 156.003906 24.21875 C 157.171875 22.949219 157.753906 21.261719 157.753906 19.164062 L 157.730469 18.226562 C 157.59375 16.289062 156.945312 14.753906 155.785156 13.625 C 154.621094 12.492188 153.125 11.929688 151.285156 11.929688 C 149.992188 11.929688 148.859375 12.21875 147.878906 12.800781 C 146.902344 13.382812 146.15625 14.207031 145.636719 15.269531 C 145.113281 16.332031 144.855469 17.542969 144.855469 18.898438 L 144.855469 19.066406 C 144.855469 21.238281 145.4375 22.957031 146.609375 24.222656 C 147.78125 25.488281 149.347656 26.121094 151.308594 26.121094 Z M 151.308594 23.171875 C 150.40625 23.171875 149.710938 22.828125 149.21875 22.140625 C 148.734375 21.457031 148.492188 20.460938 148.492188 19.164062 C 148.492188 17.703125 148.734375 16.628906 149.21875 15.933594 C 149.710938 15.238281 150.394531 14.886719 151.285156 14.886719 C 152.183594 14.886719 152.878906 15.238281 153.375 15.941406 C 153.871094 16.640625 154.117188 17.625 154.117188 18.898438 C 154.117188 20.390625 153.871094 21.476562 153.375 22.15625 C 152.878906 22.832031 152.191406 23.171875 151.308594 23.171875 Z M 163.554688 25.867188 L 163.554688 16.21875 C 164.066406 15.339844 164.835938 14.902344 165.859375 14.902344 C 166.636719 14.902344 167.195312 15.074219 167.53125 15.429688 C 167.867188 15.777344 168.035156 16.339844 168.035156 17.113281 L 168.035156 25.867188 L 171.671875 25.867188 L 171.671875 17.027344 C 171.65625 15.332031 171.292969 14.058594 170.589844 13.207031 C 169.882812 12.355469 168.808594 11.929688 167.367188 11.929688 C 165.730469 11.929688 164.425781 12.542969 163.453125 13.761719 L 163.339844 12.183594 L 159.917969 12.183594 L 159.917969 25.867188 Z M 163.554688 25.867188 "/>
</g>
</svg>
