<svg width="123" height="28" viewBox="0 0 123 28" fill="none" xmlns="http://www.w3.org/2000/svg">
<path d="M19.025 0.987025L10.4603 2.71644C10.3779 2.71644 10.2956 2.79879 10.2956 2.79879C10.2132 2.88114 10.2132 2.9635 10.2132 2.9635L9.71912 12.3517C9.71912 12.4341 9.71912 12.4341 9.71912 12.5165C9.71912 12.5988 9.80147 12.5988 9.80147 12.5988C9.80147 12.5988 9.88382 12.6812 9.96617 12.6812C10.0485 12.6812 10.0485 12.6812 10.1309 12.6812L12.5191 12.1047C12.7662 12.0223 12.9309 12.2694 12.9309 12.5165L12.1897 16.2223C12.1074 16.4694 12.3544 16.7165 12.6015 16.6341L14.0838 16.14C14.3309 16.0576 14.4956 16.3047 14.4956 16.5517L13.3426 22.3165C13.2603 22.6459 13.7544 22.8929 13.9191 22.5635L14.0838 22.3165L21.0838 7.57526C21.0838 7.41055 20.8368 7.08114 20.5897 7.16349L18.1191 7.65761C17.8721 7.73996 17.7074 7.49291 17.7897 7.24585L19.3544 1.39879C19.4368 1.15173 19.2721 0.904672 19.025 0.987025Z" fill="url(#paint0_linear_4278_55521)"/>
<path d="M27.6727 3.54023C27.3433 3.04611 26.6845 2.79905 26.108 2.8814L19.6021 4.1167L19.355 5.10493L26.355 3.86964C26.6021 3.78729 26.8492 3.95199 27.0139 4.1167C27.1786 4.36376 27.1786 4.61082 27.0139 4.85788L14.7433 26.6814C14.6609 26.9285 14.4139 27.0108 14.1668 27.0108C13.9198 27.0108 13.6727 26.8461 13.5903 26.6814L1.07266 4.77552C0.907954 4.61082 0.907954 4.2814 1.07266 4.1167C1.23737 3.95199 1.40207 3.86964 1.64913 3.86964C1.64913 3.86964 1.73148 3.86964 1.81384 3.86964L9.22563 5.18729L9.30799 4.2814L1.89619 2.8814C1.23737 2.79905 0.660897 3.04611 0.331485 3.54023C0.00207302 4.03435 -0.0802796 4.69317 0.249132 5.26964L12.7668 27.1755C13.0139 27.6696 13.5903 27.999 14.1668 27.999C14.7433 27.999 15.2374 27.6696 15.5668 27.1755L27.8374 5.26964C28.0845 4.69317 28.0845 4.03435 27.6727 3.54023Z" fill="url(#paint1_linear_4278_55521)"/>
<path d="M42.5 21.5L38.1 7.1H40.9L44.5 18.94L48.16 7.1H50.96L46.56 21.5H42.5ZM51.8758 9.2V6.8H54.5958V9.2H51.8758ZM51.8758 21.5V10.7H54.5958V21.5H51.8758ZM63.6738 21.5C62.9271 21.64 62.1938 21.7 61.4738 21.68C60.7604 21.6667 60.1204 21.5433 59.5538 21.31C58.9938 21.07 58.5671 20.6867 58.2738 20.16C58.0071 19.6667 57.8671 19.1667 57.8538 18.66C57.8404 18.1467 57.8338 17.5667 57.8338 16.92V7.7H60.5538V16.76C60.5538 17.18 60.5571 17.56 60.5638 17.9C60.5771 18.2333 60.6471 18.5 60.7738 18.7C61.0138 19.08 61.3971 19.2867 61.9238 19.32C62.4504 19.3533 63.0338 19.3267 63.6738 19.24V21.5ZM55.9938 12.8V10.7H63.6738V12.8H55.9938ZM70.095 21.8C68.9883 21.8 68.0117 21.5633 67.165 21.09C66.325 20.61 65.665 19.9533 65.185 19.12C64.7117 18.28 64.475 17.32 64.475 16.24C64.475 15.06 64.7083 14.0333 65.175 13.16C65.6417 12.2867 66.285 11.61 67.105 11.13C67.925 10.6433 68.8683 10.4 69.935 10.4C71.0683 10.4 72.0317 10.6667 72.825 11.2C73.6183 11.7333 74.205 12.4833 74.585 13.45C74.965 14.4167 75.0983 15.5533 74.985 16.86H72.295V15.86C72.295 14.76 72.1183 13.97 71.765 13.49C71.4183 13.0033 70.8483 12.76 70.055 12.76C69.1283 12.76 68.445 13.0433 68.005 13.61C67.5717 14.17 67.355 15 67.355 16.1C67.355 17.1067 67.5717 17.8867 68.005 18.44C68.445 18.9867 69.0883 19.26 69.935 19.26C70.4683 19.26 70.925 19.1433 71.305 18.91C71.685 18.6767 71.975 18.34 72.175 17.9L74.895 18.68C74.4883 19.6667 73.845 20.4333 72.965 20.98C72.0917 21.5267 71.135 21.8 70.095 21.8ZM66.515 16.86V14.84H73.675V16.86H66.515Z" fill="#fff"/>
<path d="M83.023 21.8C81.583 21.8 80.3396 21.4867 79.293 20.86C78.253 20.2333 77.4496 19.3567 76.883 18.23C76.323 17.1033 76.043 15.7933 76.043 14.3C76.043 12.8067 76.323 11.4967 76.883 10.37C77.4496 9.24333 78.253 8.36667 79.293 7.74C80.3396 7.11333 81.583 6.8 83.023 6.8C84.6763 6.8 86.063 7.21 87.183 8.03C88.3096 8.85 89.103 9.96 89.563 11.36L86.823 12.12C86.5563 11.2467 86.1063 10.57 85.473 10.09C84.8396 9.60333 84.023 9.36 83.023 9.36C82.1096 9.36 81.3463 9.56333 80.733 9.97C80.1263 10.3767 79.6696 10.95 79.363 11.69C79.0563 12.43 78.903 13.3 78.903 14.3C78.903 15.3 79.0563 16.17 79.363 16.91C79.6696 17.65 80.1263 18.2233 80.733 18.63C81.3463 19.0367 82.1096 19.24 83.023 19.24C84.023 19.24 84.8396 18.9967 85.473 18.51C86.1063 18.0233 86.5563 17.3467 86.823 16.48L89.563 17.24C89.103 18.64 88.3096 19.75 87.183 20.57C86.063 21.39 84.6763 21.8 83.023 21.8ZM96.2248 21.8C95.1382 21.8 94.1848 21.5567 93.3648 21.07C92.5448 20.5833 91.9048 19.9133 91.4448 19.06C90.9915 18.2 90.7648 17.2133 90.7648 16.1C90.7648 14.9733 90.9982 13.9833 91.4648 13.13C91.9315 12.27 92.5748 11.6 93.3948 11.12C94.2148 10.64 95.1582 10.4 96.2248 10.4C97.3115 10.4 98.2648 10.6433 99.0848 11.13C99.9115 11.6167 100.555 12.29 101.015 13.15C101.475 14.0033 101.705 14.9867 101.705 16.1C101.705 17.22 101.472 18.21 101.005 19.07C100.545 19.9233 99.9015 20.5933 99.0748 21.08C98.2548 21.56 97.3048 21.8 96.2248 21.8ZM96.2248 19.26C97.0982 19.26 97.7482 18.9667 98.1748 18.38C98.6082 17.7867 98.8248 17.0267 98.8248 16.1C98.8248 15.14 98.6048 14.3733 98.1648 13.8C97.7315 13.2267 97.0848 12.94 96.2248 12.94C95.6315 12.94 95.1448 13.0733 94.7648 13.34C94.3848 13.6067 94.1015 13.9767 93.9148 14.45C93.7348 14.9233 93.6448 15.4733 93.6448 16.1C93.6448 17.0667 93.8615 17.8367 94.2948 18.41C94.7348 18.9767 95.3782 19.26 96.2248 19.26ZM110.864 21.5V16.4C110.864 16.1533 110.851 15.84 110.824 15.46C110.797 15.0733 110.714 14.6867 110.574 14.3C110.434 13.9133 110.204 13.59 109.884 13.33C109.571 13.07 109.124 12.94 108.544 12.94C108.311 12.94 108.061 12.9767 107.794 13.05C107.527 13.1233 107.277 13.2667 107.044 13.48C106.811 13.6867 106.617 13.9933 106.464 14.4C106.317 14.8067 106.244 15.3467 106.244 16.02L104.684 15.28C104.684 14.4267 104.857 13.6267 105.204 12.88C105.551 12.1333 106.071 11.53 106.764 11.07C107.464 10.61 108.344 10.38 109.404 10.38C110.251 10.38 110.941 10.5233 111.474 10.81C112.007 11.0967 112.421 11.46 112.714 11.9C113.014 12.34 113.227 12.8 113.354 13.28C113.481 13.7533 113.557 14.1867 113.584 14.58C113.611 14.9733 113.624 15.26 113.624 15.44V21.5H110.864ZM103.484 21.5V10.7H105.904V14.28H106.244V21.5H103.484ZM116.719 21.5V10.74C116.719 10.4667 116.725 10.1567 116.739 9.81C116.752 9.46333 116.805 9.11333 116.899 8.76C116.999 8.40667 117.179 8.08667 117.439 7.8C117.772 7.42667 118.132 7.17333 118.519 7.04C118.912 6.9 119.292 6.82667 119.659 6.82C120.025 6.80667 120.339 6.8 120.599 6.8H121.939V9H120.699C120.272 9 119.955 9.11 119.749 9.33C119.542 9.54333 119.439 9.8 119.439 10.1V21.5H116.719ZM115.019 12.8V10.7H121.939V12.8H115.019Z" fill="#fff"/>
<defs>
<linearGradient id="paint0_linear_4278_55521" x1="9.9166" y1="3.74667" x2="19.5674" y2="15.9408" gradientUnits="userSpaceOnUse">
<stop stop-color="#B047FF"/>
<stop offset="0.75" stop-color="#FFD0D0"/>
<stop offset="0.9167" stop-color="#FFF3E6"/>
</linearGradient>
<linearGradient id="paint1_linear_4278_55521" x1="7.5699" y1="1.27766" x2="21.5905" y2="16.9097" gradientUnits="userSpaceOnUse">
<stop stop-color="#57CCFF"/>
<stop offset="1" stop-color="#AF48FF"/>
</linearGradient>
</defs>
</svg>
