<svg width="1722" height="299" viewBox="0 0 1722 299" fill="none" xmlns="http://www.w3.org/2000/svg">
<path d="M414 237C416.16 237 418 235.209 418 233V140C418 140 423 149 432 164L471 231C472.785 234.74 476.744 237 480 237H507V87H480C478.202 87 476 88.4941 476 91V185L458 153L422 92C420.248 88.8912 416.479 87 413 87H387V237H414Z" fill="white"/>
<path d="M763 129H776C779.314 129 782 126.314 782 123V97H810V129H837V153H810V196C810 206.5 815.057 211 824 211H837V237H820C796.948 237 782 222.071 782 197V153H763V129Z" fill="white"/>
<path d="M628 129V191C628 205.004 622.742 216.809 615 225C607.258 233.191 596.566 237 582 237C567.434 237 555.742 233.191 548 225C540.389 216.809 535 205.004 535 191V129H551C554.412 129 557.769 129.622 560 132C562.231 134.246 563 135.565 563 139V191C563 199.059 563.457 204.037 567 208C570.543 211.831 574.914 213 582 213C589.217 213 592.457 211.831 596 208C599.543 204.037 600 199.059 600 191V139C600 135.565 600.769 133.378 603 131C604.96 128.911 607.028 128.96 610 129C610.411 129.006 611.586 129 612 129H628Z" fill="white"/>
<path d="M713 181L747 129H721C717.723 129 714.812 130.176 713 133L697 157L682 134C680.188 131.176 676.277 129 673 129H648L682 180L645 237H671C674.25 237 677.182 233.787 679 231L697 204L716 232C717.818 234.787 720.75 237 724 237H750L713 181Z" fill="white"/>
<path d="M205 237H316C319.542 237 322.932 235.756 326 234C329.068 232.244 332.23 230.041 334 227C335.77 223.959 337.002 220.51 337 216.999C336.998 213.488 335.773 210.04 334 207.001L259 78C257.23 74.96 255.067 72.7552 252 71C248.933 69.2448 244.542 68 241 68C237.458 68 234.067 69.2448 231 71C227.933 72.7552 225.77 74.96 224 78L205 111L167 46.9976C165.228 43.9578 163.068 40.7549 160 39C156.932 37.2451 153.542 37 150 37C146.458 37 143.068 37.2451 140 39C136.932 40.7549 133.772 43.9578 132 46.9976L39 207.001C37.227 210.04 37.0015 213.488 37 216.999C36.9985 220.51 37.2296 223.959 39 227C40.7704 230.04 43.9325 232.244 47 234C50.0675 235.756 53.4578 237 57 237H127C154.737 237 174.925 224.558 189 201L223 142L241 111L296 205H223L205 237ZM126 205H77L150 79L187 142L162.491 184.725C153.144 200.01 142.488 205 126 205Z" fill="#00DC82"/>
<path d="M886 237V97H934.6C950.867 97 964.333 99.9333 975 105.8C985.667 111.533 993.533 119.667 998.6 130.2C1003.8 140.6 1006.4 152.867 1006.4 167C1006.4 181.133 1003.8 193.467 998.6 204C993.533 214.4 985.667 222.533 975 228.4C964.467 234.133 951 237 934.6 237H886ZM913 213.8H933.2C944.667 213.8 953.733 211.933 960.4 208.2C967.067 204.467 971.8 199.133 974.6 192.2C977.4 185.133 978.8 176.733 978.8 167C978.8 157.133 977.4 148.733 974.6 141.8C971.8 134.733 967.067 129.333 960.4 125.6C953.733 121.867 944.667 120 933.2 120H913V213.8ZM1070.13 239.4C1059.99 239.4 1050.99 237.267 1043.13 233C1035.39 228.733 1029.33 222.733 1024.93 215C1020.53 207.267 1018.33 198.4 1018.33 188.4C1018.33 178 1020.46 168.867 1024.73 161C1029.13 153 1035.19 146.733 1042.93 142.2C1050.79 137.667 1059.86 135.4 1070.13 135.4C1080.13 135.4 1088.86 137.533 1096.33 141.8C1103.79 146.067 1109.66 151.933 1113.93 159.4C1118.19 166.733 1120.33 175.067 1120.33 184.4C1120.33 185.733 1120.26 187.267 1120.13 189C1120.13 190.6 1120.06 192.267 1119.93 194H1037.53V177.4H1092.93C1092.53 171.133 1090.19 166.133 1085.93 162.4C1081.79 158.667 1076.59 156.8 1070.33 156.8C1065.66 156.8 1061.39 157.867 1057.53 160C1053.66 162 1050.59 165.133 1048.33 169.4C1046.06 173.533 1044.93 178.8 1044.93 185.2V191C1044.93 196.467 1045.99 201.2 1048.13 205.2C1050.26 209.067 1053.19 212.067 1056.93 214.2C1060.79 216.333 1065.13 217.4 1069.93 217.4C1074.86 217.4 1078.99 216.333 1082.33 214.2C1085.66 211.933 1088.19 209.067 1089.93 205.6H1117.33C1115.46 211.867 1112.33 217.6 1107.93 222.8C1103.53 227.867 1098.13 231.933 1091.73 235C1085.33 237.933 1078.13 239.4 1070.13 239.4ZM1154.92 237L1122.92 137.8H1151.32L1174.72 219.2H1175.72L1199.32 137.8H1227.52L1195.52 237H1154.92ZM1270.56 237V118.8H1229.56V97H1338.36V118.8H1297.36V237H1270.56ZM1382.22 239.4C1372.62 239.4 1363.95 237.2 1356.22 232.8C1348.49 228.4 1342.35 222.267 1337.82 214.4C1333.42 206.533 1331.22 197.533 1331.22 187.4C1331.22 177.133 1333.49 168.133 1338.02 160.4C1342.55 152.533 1348.69 146.4 1356.42 142C1364.15 137.6 1372.75 135.4 1382.22 135.4C1391.82 135.4 1400.49 137.6 1408.22 142C1415.95 146.4 1422.02 152.533 1426.42 160.4C1430.95 168.133 1433.22 177.133 1433.22 187.4C1433.22 197.667 1430.95 206.733 1426.42 214.6C1421.89 222.333 1415.75 228.4 1408.02 232.8C1400.42 237.2 1391.82 239.4 1382.22 239.4ZM1382.02 216.6C1386.42 216.6 1390.35 215.533 1393.82 213.4C1397.42 211.267 1400.29 208.067 1402.42 203.8C1404.55 199.4 1405.62 193.933 1405.62 187.4C1405.62 180.867 1404.55 175.467 1402.42 171.2C1400.29 166.8 1397.42 163.533 1393.82 161.4C1390.35 159.267 1386.55 158.2 1382.42 158.2C1378.15 158.2 1374.22 159.267 1370.62 161.4C1367.02 163.533 1364.15 166.8 1362.02 171.2C1359.89 175.467 1358.82 180.867 1358.82 187.4C1358.82 193.933 1359.89 199.4 1362.02 203.8C1364.15 208.067 1366.95 211.267 1370.42 213.4C1374.02 215.533 1377.89 216.6 1382.02 216.6ZM1494.13 239.4C1484.53 239.4 1475.87 237.2 1468.13 232.8C1460.4 228.4 1454.27 222.267 1449.73 214.4C1445.33 206.533 1443.13 197.533 1443.13 187.4C1443.13 177.133 1445.4 168.133 1449.93 160.4C1454.47 152.533 1460.6 146.4 1468.33 142C1476.07 137.6 1484.67 135.4 1494.13 135.4C1503.73 135.4 1512.4 137.6 1520.13 142C1527.87 146.4 1533.93 152.533 1538.33 160.4C1542.87 168.133 1545.13 177.133 1545.13 187.4C1545.13 197.667 1542.87 206.733 1538.33 214.6C1533.8 222.333 1527.67 228.4 1519.93 232.8C1512.33 237.2 1503.73 239.4 1494.13 239.4ZM1493.93 216.6C1498.33 216.6 1502.27 215.533 1505.73 213.4C1509.33 211.267 1512.2 208.067 1514.33 203.8C1516.47 199.4 1517.53 193.933 1517.53 187.4C1517.53 180.867 1516.47 175.467 1514.33 171.2C1512.2 166.8 1509.33 163.533 1505.73 161.4C1502.27 159.267 1498.47 158.2 1494.33 158.2C1490.07 158.2 1486.13 159.267 1482.53 161.4C1478.93 163.533 1476.07 166.8 1473.93 171.2C1471.8 175.467 1470.73 180.867 1470.73 187.4C1470.73 193.933 1471.8 199.4 1473.93 203.8C1476.07 208.067 1478.87 211.267 1482.33 213.4C1485.93 215.533 1489.8 216.6 1493.93 216.6ZM1559.05 237V97H1586.05V237H1559.05ZM1644.57 239.4C1635.77 239.4 1627.97 237.933 1621.17 235C1614.5 232.067 1609.1 228.067 1604.97 223C1600.97 217.8 1598.64 211.933 1597.97 205.4H1624.97C1625.5 207.8 1626.57 210.067 1628.17 212.2C1629.77 214.333 1631.9 216.067 1634.57 217.4C1637.37 218.6 1640.57 219.2 1644.17 219.2C1647.9 219.2 1650.9 218.733 1653.17 217.8C1655.44 216.733 1657.1 215.4 1658.17 213.8C1659.37 212.2 1659.97 210.467 1659.97 208.6C1659.97 206.067 1659.1 204.133 1657.37 202.8C1655.77 201.333 1653.37 200.067 1650.17 199C1647.1 197.933 1643.44 196.8 1639.17 195.6C1634.77 194.4 1630.3 193.133 1625.77 191.8C1621.37 190.467 1617.3 188.8 1613.57 186.8C1609.84 184.667 1606.84 182 1604.57 178.8C1602.44 175.467 1601.37 171.333 1601.37 166.4C1601.37 160.667 1602.97 155.467 1606.17 150.8C1609.37 146.133 1613.97 142.4 1619.97 139.6C1626.1 136.8 1633.37 135.4 1641.77 135.4C1653.77 135.4 1663.3 138.133 1670.37 143.6C1677.57 149.067 1681.77 156.6 1682.97 166.2H1657.57C1656.9 162.867 1655.17 160.267 1652.37 158.4C1649.7 156.533 1646.17 155.6 1641.77 155.6C1637.1 155.6 1633.5 156.533 1630.97 158.4C1628.57 160.133 1627.37 162.267 1627.37 164.8C1627.37 166.667 1628.17 168.267 1629.77 169.6C1631.37 170.8 1633.7 171.933 1636.77 173C1639.97 173.933 1643.77 175 1648.17 176.2C1655.24 178.067 1661.7 180.067 1667.57 182.2C1673.44 184.333 1678.1 187.267 1681.57 191C1685.04 194.6 1686.77 199.733 1686.77 206.4C1686.9 212.8 1685.24 218.467 1681.77 223.4C1678.3 228.333 1673.44 232.267 1667.17 235.2C1660.9 238 1653.37 239.4 1644.57 239.4Z" fill="url(#paint0_linear_206_2)"/>
<defs>
<linearGradient id="paint0_linear_206_2" x1="894.903" y1="78.5" x2="1710.7" y2="187.222" gradientUnits="userSpaceOnUse">
<stop stop-color="#85EC89"/>
<stop offset="0.435391" stop-color="#00DC82"/>
</linearGradient>
</defs>
</svg>
