<svg width="249" height="82" viewBox="0 0 249 82" fill="none" xmlns="http://www.w3.org/2000/svg">
<g clip-path="url(#clip0_1_1030)">
<path d="M238.741 62.8108C238.741 63.8427 239.575 64.6802 240.607 64.6802H245.882C246.91 64.6802 247.748 63.8427 247.748 62.8108V26.5301C247.748 25.4982 246.914 24.6607 245.882 24.6607H240.607C239.575 24.6607 238.741 25.4982 238.741 26.5301V62.8108Z" fill="#144BDA"/>
<path d="M239.133 17.3627C240.281 18.5142 241.638 19.09 243.205 19.09C244.771 19.09 246.181 18.5142 247.276 17.3627C248.424 16.2112 249 14.8503 249 13.2837C249 11.7172 248.424 10.3526 247.276 9.20478C246.181 8.05324 244.824 7.47748 243.205 7.47748C241.586 7.47748 240.281 8.05324 239.133 9.20478C237.986 10.3563 237.41 11.7172 237.41 13.2837C237.41 14.8503 237.986 16.2149 239.133 17.3627Z" fill="#144BDA"/>
<path fill-rule="evenodd" clip-rule="evenodd" d="M212.267 33.3234H220.141C221.408 33.3234 222.436 34.3553 222.436 35.6264V41.5598C222.436 49.142 216.308 55.2885 208.749 55.2885C207.451 55.2885 206.401 54.2341 206.401 52.9368V39.2082C206.401 35.9592 209.029 33.3234 212.267 33.3234ZM197.405 39.2044C197.405 30.9755 204.057 24.3018 212.267 24.3018H220.141C226.377 24.3018 231.432 29.3715 231.432 35.6227C231.432 45.7883 231.413 55.954 231.413 66.1196C231.413 74.3486 224.758 81.0222 216.551 81.0222H199.641C198.609 81.0222 197.772 80.1847 197.772 79.1528V73.87C197.772 72.8381 198.609 72.0006 199.641 72.0006H216.551C219.793 72.0006 222.418 69.3686 222.418 66.1159V60.9377C222.384 60.2348 222.178 59.9432 221.262 60.5302C217.677 62.9155 213.374 64.3026 208.749 64.3026C202.486 64.3026 197.409 59.2104 197.409 52.9293V39.2007L197.405 39.2044Z" fill="#144BDA"/>
<path d="M180.876 62.8108C180.876 63.8427 181.766 64.6802 182.862 64.6802H188.477C189.573 64.6802 190.463 63.8427 190.463 62.8108V26.5301C190.463 25.4982 189.573 24.6607 188.477 24.6607H182.862C181.766 24.6607 180.876 25.4982 180.876 26.5301V62.8108Z" fill="#144BDA"/>
<path d="M181.295 17.3627C182.518 18.5142 183.965 19.09 185.632 19.09C187.3 19.09 188.799 18.5142 189.965 17.3627C191.188 16.2112 191.801 14.8503 191.801 13.2837C191.801 11.7172 191.188 10.3526 189.965 9.20478C188.799 8.05324 187.352 7.47748 185.632 7.47748C183.912 7.47748 182.521 8.05324 181.295 9.20478C180.073 10.3563 179.463 11.7172 179.463 13.2837C179.463 14.8503 180.076 16.2149 181.295 17.3627Z" fill="#144BDA"/>
<path fill-rule="evenodd" clip-rule="evenodd" d="M153.943 33.3234H161.816C163.084 33.3234 164.112 34.3553 164.112 35.6264V41.5598C164.112 49.142 157.984 55.2885 150.424 55.2885C149.127 55.2885 148.076 54.2341 148.076 52.9368V39.2082C148.076 35.9592 150.701 33.3234 153.943 33.3234ZM139.081 39.2044C139.081 30.9755 145.736 24.3018 153.943 24.3018H161.816C168.053 24.3018 173.107 29.3715 173.107 35.6227V62.9791C173.107 63.7118 172.311 64.3063 171.328 64.3063H166.288C165.305 64.3063 164.508 63.7118 164.508 62.9791V60.8629C164.501 60.018 164.344 59.6105 163.334 60.2647C159.67 62.8108 155.221 64.3063 150.424 64.3063C144.162 64.3063 139.085 59.2141 139.085 52.9331V39.2044H139.081Z" fill="#144BDA"/>
<path d="M96.2126 64.3063C94.9041 64.3063 93.8423 63.2445 93.8423 61.9359V12.465C93.8423 11.1564 94.9041 10.0946 96.2126 10.0946H100.684C101.993 10.0946 103.055 11.1564 103.055 12.465V31.1886C103.055 32.4971 104.116 33.5589 105.425 33.5589H110.293C112.256 33.5589 114.035 33.1963 115.635 32.4747C117.288 31.7008 118.578 30.5904 119.505 29.1435C120.485 27.6966 120.974 25.9693 120.974 23.9541V12.4612C120.974 11.1527 122.036 10.0909 123.345 10.0909H127.816C129.125 10.0909 130.187 11.1527 130.187 12.4612V23.8756C130.187 27.4386 129.308 30.5604 127.554 33.2449C126.212 35.3012 124.537 37.006 122.53 38.3669C121.483 39.0773 121.004 40.4232 121.528 41.5748L127.397 54.3912C127.655 55.0118 127.992 55.4492 128.403 55.7072C128.814 55.9652 129.357 56.0923 130.03 56.0923H132.228C133.536 56.0923 134.598 57.1541 134.598 58.4626V61.9285C134.598 63.237 133.536 64.2988 132.228 64.2988H128.639C126.212 64.2988 124.201 63.7829 122.601 62.751C121.053 61.7191 119.864 60.2984 119.041 58.4926L111.983 43.0927C111.575 42.2029 110.648 41.6645 109.676 41.7617H105.429C104.12 41.7617 103.058 42.8235 103.058 44.1321V61.9285C103.058 63.237 101.996 64.2988 100.688 64.2988H96.2164L96.2126 64.3063Z" fill="#144BDA"/>
<path fill-rule="evenodd" clip-rule="evenodd" d="M60.276 21.9202C62.2874 20.7537 64.5456 20.1892 67.0132 20.1892C68.8788 20.1892 70.8641 20.1518 72.6512 20.1518C74.2364 20.1518 75.5225 18.8657 75.5225 17.2842V12.6631C75.5225 11.2461 76.6928 10.0946 78.1397 10.0946H81.5045C82.9514 10.0946 84.1216 11.2424 84.1216 12.6631C84.1216 17.2804 84.1216 21.9015 84.1216 26.5189C84.1216 27.977 83.0337 29.1846 81.6204 29.364H67.66C66.9048 29.364 66.2617 29.551 65.6897 29.9062C65.084 30.2838 64.6204 30.7623 64.2764 31.3531C63.9661 31.955 63.8128 32.5906 63.8128 33.286C63.8128 34.0225 63.9698 34.6768 64.2689 35.2638C64.6092 35.8208 65.0541 36.2845 65.6224 36.6621C66.1907 36.9799 66.8412 37.1518 67.6002 37.1518H71.5931C74.2775 37.1518 76.6741 37.6715 78.7229 38.7782C80.7829 39.8699 82.3943 41.3953 83.516 43.3507C84.6787 45.3098 85.2395 47.5306 85.2395 49.9682C85.2395 52.7648 84.6712 55.3184 83.4786 57.4756C82.3383 59.5656 80.7456 61.2181 78.7154 62.4033H78.7117L78.708 62.407C76.7077 63.5548 74.4607 64.1156 72.0044 64.1156H53.0079C51.4077 64.1156 50.0991 62.8258 50.0991 61.2144V57.928C50.0991 56.3166 51.4077 55.0267 53.0079 55.0267H71.1295C71.8848 55.0267 72.6101 54.851 73.2531 54.4472C73.9074 54.0322 74.386 53.52 74.7262 52.8994V52.8882L74.7374 52.877C75.1225 52.1965 75.302 51.5236 75.302 50.8281C75.302 50.0131 75.1225 49.3177 74.786 48.7008C74.0794 47.4109 72.6961 46.6894 71.2492 46.6894L67.4282 46.7267C64.9083 46.7267 62.5977 46.2108 60.5227 45.149L60.5078 45.1415L60.4891 45.134C58.4627 44.0274 56.8401 42.4908 55.6437 40.5391C54.4211 38.5389 53.8379 36.2209 53.8379 33.6337C53.8379 31.0465 54.3949 28.7359 55.5614 26.7095C56.7092 24.6794 58.2832 23.0718 60.2797 21.9165L60.276 21.9202Z" fill="url(#paint0_linear_1_1030)"/>
<path fill-rule="evenodd" clip-rule="evenodd" d="M61.1583 0H2.77414C1.13658 0 0 1.39829 0 2.87509V6.09788C0 7.57468 1.13658 8.97297 2.77414 8.97297C8.4832 8.97297 14.1923 8.97297 19.9013 8.97297C21.4865 8.97297 22.7689 10.2591 22.7689 11.8406C22.7689 25.0645 22.7914 38.2922 22.8063 51.5161C22.8063 53.8229 23.2961 55.9577 24.3018 57.8981L24.3093 57.9093L24.3168 57.9205C25.3599 59.8535 26.8142 61.4163 28.6612 62.5827L28.6724 62.5902L28.6836 62.5977C30.5717 63.7455 32.7439 64.2951 35.1441 64.3026H37.9632C39.2979 64.3026 40.3784 63.2557 40.3784 61.9621V57.67C40.3784 56.3764 39.2979 55.3034 37.9632 55.3034H35.2451C34.4039 55.3034 33.7945 55.0043 33.2897 54.4622C32.7476 53.879 32.4822 53.2097 32.4822 52.3685C32.4971 38.8717 32.5308 25.3748 32.5308 11.878C32.5308 10.2927 33.8169 9.01036 35.3984 9.01036C43.9302 9.01036 52.5816 8.97297 61.162 8.97297C62.7996 8.97297 63.9362 7.57468 63.9362 6.09788V2.87509C63.9362 1.39829 62.7996 0 61.162 0H61.1583Z" fill="url(#paint1_linear_1_1030)"/>
</g>
<defs>
<linearGradient id="paint0_linear_1_1030" x1="58.8926" y1="12.0686" x2="77.3994" y2="68.1497" gradientUnits="userSpaceOnUse">
<stop offset="0.07" stop-color="#96B8FD"/>
<stop offset="0.37" stop-color="#1249D8"/>
<stop offset="0.69" stop-color="#1249D8"/>
<stop offset="1" stop-color="#3DE8FF"/>
</linearGradient>
<linearGradient id="paint1_linear_1_1030" x1="-2.75919" y1="26.5338" x2="61.1732" y2="33.6374" gradientUnits="userSpaceOnUse">
<stop offset="0.06" stop-color="#63D0FF"/>
<stop offset="0.47" stop-color="#1249D8"/>
<stop offset="0.68" stop-color="#1249D8"/>
<stop offset="0.95" stop-color="#FF86B9"/>
</linearGradient>
<clipPath id="clip0_1_1030">
<rect width="249" height="81.0222" fill="white"/>
</clipPath>
</defs>
</svg>
