<svg width="126" height="41" viewBox="0 0 126 41" fill="none" xmlns="http://www.w3.org/2000/svg">
<g clip-path="url(#clip0_417_659)">
<path d="M120.809 31.7844C120.809 32.3066 121.23 32.7304 121.753 32.7304H124.422C124.942 32.7304 125.366 32.3066 125.366 31.7844V13.4251C125.366 12.903 124.944 12.4792 124.422 12.4792H121.753C121.23 12.4792 120.809 12.903 120.809 13.4251V31.7844Z" fill="white"/>
<path d="M121.007 8.78612C121.588 9.36883 122.275 9.66019 123.068 9.66019C123.86 9.66019 124.574 9.36883 125.128 8.78612C125.709 8.20341 126 7.51474 126 6.72203C126 5.92931 125.709 5.23875 125.128 4.65793C124.574 4.07522 123.887 3.78386 123.068 3.78386C122.248 3.78386 121.588 4.07522 121.007 4.65793C120.427 5.24065 120.135 5.92931 120.135 6.72203C120.135 7.51474 120.427 8.2053 121.007 8.78612Z" fill="white"/>
<path fill-rule="evenodd" clip-rule="evenodd" d="M107.412 16.8628H111.396C112.038 16.8628 112.558 17.3849 112.558 18.0282V21.0307C112.558 24.8675 109.457 27.9779 105.632 27.9779C104.975 27.9779 104.444 27.4443 104.444 26.7878V19.8407C104.444 18.1966 105.774 16.8628 107.412 16.8628ZM99.8918 19.8388C99.8918 15.6746 103.258 12.2975 107.412 12.2975H111.396C114.552 12.2975 117.11 14.863 117.11 18.0263C117.11 23.1705 117.1 28.3146 117.1 33.4588C117.1 37.6229 113.733 41 109.58 41H101.023C100.501 41 100.077 40.5762 100.077 40.054V37.3807C100.077 36.8586 100.501 36.4348 101.023 36.4348H109.58C111.22 36.4348 112.549 35.1029 112.549 33.4569V30.8366C112.532 30.4809 112.428 30.3333 111.964 30.6303C110.15 31.8374 107.972 32.5393 105.632 32.5393C102.463 32.5393 99.8937 29.9625 99.8937 26.7841V19.8369L99.8918 19.8388Z" fill="white"/>
<path d="M91.5278 31.7844C91.5278 32.3066 91.9781 32.7304 92.5324 32.7304H95.374C95.9284 32.7304 96.3786 32.3066 96.3786 31.7844V13.4251C96.3786 12.903 95.9284 12.4792 95.374 12.4792H92.5324C91.9781 12.4792 91.5278 12.903 91.5278 13.4251V31.7844Z" fill="white"/>
<path d="M91.7398 8.78612C92.3584 9.36883 93.0906 9.66019 93.9344 9.66019C94.7781 9.66019 95.5368 9.36883 96.1271 8.78612C96.7457 8.20341 97.056 7.51474 97.056 6.72203C97.056 5.92931 96.7457 5.23875 96.1271 4.65793C95.5368 4.07522 94.8046 3.78386 93.9344 3.78386C93.0641 3.78386 92.3603 4.07522 91.7398 4.65793C91.1211 5.24065 90.8127 5.92931 90.8127 6.72203C90.8127 7.51474 91.123 8.2053 91.7398 8.78612Z" fill="white"/>
<path fill-rule="evenodd" clip-rule="evenodd" d="M77.8987 16.8628H81.883C82.5244 16.8628 83.0446 17.3849 83.0446 18.0282V21.0307C83.0446 24.8675 79.9438 27.9779 76.1184 27.9779C75.4619 27.9779 74.9303 27.4443 74.9303 26.7878V19.8407C74.9303 18.1966 76.2584 16.8628 77.8987 16.8628ZM70.3784 19.8388C70.3784 15.6746 73.746 12.2975 77.8987 12.2975H81.883C85.0387 12.2975 87.5965 14.863 87.5965 18.0263V31.8696C87.5965 32.2404 87.1936 32.5412 86.696 32.5412H84.1457C83.6481 32.5412 83.2452 32.2404 83.2452 31.8696V30.7987C83.2414 30.3711 83.1619 30.1649 82.6511 30.496C80.7971 31.7844 78.5457 32.5412 76.1184 32.5412C72.9495 32.5412 70.3803 29.9644 70.3803 26.7859V19.8388H70.3784Z" fill="white"/>
<path d="M48.686 32.5412C48.0239 32.5412 47.4866 32.0039 47.4866 31.3417V6.3077C47.4866 5.64552 48.0239 5.10822 48.686 5.10822H50.9487C51.6109 5.10822 52.1482 5.64552 52.1482 6.3077V15.7825C52.1482 16.4447 52.6855 16.982 53.3477 16.982H55.8109C56.8041 16.982 57.7047 16.7984 58.5144 16.4333C59.3506 16.0417 60.0033 15.4798 60.4725 14.7476C60.9682 14.0154 61.216 13.1413 61.216 12.1216V6.30581C61.216 5.64363 61.7533 5.10632 62.4155 5.10632H64.6782C65.3404 5.10632 65.8777 5.64363 65.8777 6.30581V12.0819C65.8777 13.8849 65.4331 15.4646 64.5458 16.823C63.8666 17.8636 63.019 18.7263 62.0031 19.415C61.4733 19.7744 61.2312 20.4555 61.496 21.0383L64.4663 27.5238C64.5968 27.8378 64.7671 28.0592 64.9752 28.1897C65.1833 28.3203 65.4577 28.3846 65.7982 28.3846H66.9106C67.5728 28.3846 68.1101 28.9219 68.1101 29.5841V31.3379C68.1101 32.0001 67.5728 32.5374 66.9106 32.5374H65.0944C63.8666 32.5374 62.8487 32.2763 62.039 31.7541C61.2558 31.232 60.6541 30.513 60.2379 29.5992L56.666 21.8064C56.4598 21.3561 55.9906 21.0837 55.4987 21.1329H53.3495C52.6874 21.1329 52.1501 21.6702 52.1501 22.3323V31.3379C52.1501 32.0001 51.6128 32.5374 50.9506 32.5374H48.6879L48.686 32.5412Z" fill="white"/>
<path fill-rule="evenodd" clip-rule="evenodd" d="M30.501 11.0924C31.5189 10.5021 32.6616 10.2164 33.9102 10.2164C34.8543 10.2164 35.8589 10.1975 36.7632 10.1975C37.5654 10.1975 38.2162 9.54668 38.2162 8.7464V6.40797C38.2162 5.69093 38.8083 5.10822 39.5405 5.10822H41.2432C41.9754 5.10822 42.5675 5.68904 42.5675 6.40797C42.5675 8.7445 42.5675 11.0829 42.5675 13.4195C42.5675 14.1573 42.017 14.7684 41.3019 14.8592H34.2375C33.8554 14.8592 33.53 14.9538 33.2405 15.1335C32.934 15.3246 32.6994 15.5668 32.5254 15.8657C32.3683 16.1703 32.2908 16.492 32.2908 16.8439C32.2908 17.2166 32.3702 17.5476 32.5216 17.8447C32.6937 18.1266 32.9189 18.3612 33.2065 18.5523C33.494 18.7131 33.8232 18.8001 34.2073 18.8001H36.2278C37.5862 18.8001 38.7989 19.0631 39.8356 19.6231C40.8781 20.1755 41.6935 20.9474 42.261 21.9369C42.8494 22.9283 43.1332 24.0521 43.1332 25.2856C43.1332 26.7008 42.8456 27.993 42.2421 29.0846C41.6651 30.1422 40.8592 30.9785 39.8319 31.5782H39.83L39.8281 31.5801C38.8159 32.1609 37.6789 32.4447 36.4359 32.4447H26.8232C26.0135 32.4447 25.3513 31.792 25.3513 30.9766V29.3136C25.3513 28.4981 26.0135 27.8454 26.8232 27.8454H35.9932C36.3754 27.8454 36.7424 27.7565 37.0678 27.5522C37.3989 27.3422 37.641 27.083 37.8132 26.7689V26.7632L37.8189 26.7576C38.0137 26.4132 38.1046 26.0727 38.1046 25.7208C38.1046 25.3083 38.0137 24.9564 37.8435 24.6443C37.4859 23.9916 36.7859 23.6264 36.0538 23.6264L34.1202 23.6453C32.8451 23.6453 31.6759 23.3843 30.6259 22.8469L30.6183 22.8432L30.6089 22.8394C29.5835 22.2794 28.7624 21.5018 28.157 20.5142C27.5383 19.502 27.2432 18.329 27.2432 17.0198C27.2432 15.7106 27.5251 14.5414 28.1154 13.5159C28.6962 12.4886 29.4927 11.6751 30.5029 11.0905L30.501 11.0924Z" fill="white"/>
<path fill-rule="evenodd" clip-rule="evenodd" d="M30.9476 0H1.40378C0.575135 0 0 0.707582 0 1.45489V3.08574C0 3.83305 0.575135 4.54063 1.40378 4.54063C4.2927 4.54063 7.18162 4.54063 10.0705 4.54063C10.8727 4.54063 11.5216 5.19145 11.5216 5.99174C11.5216 12.6835 11.533 19.3771 11.5405 26.0689C11.5405 27.2362 11.7884 28.3165 12.2973 29.2984L12.3011 29.3041L12.3049 29.3098C12.8327 30.2879 13.5686 31.0787 14.5032 31.669L14.5089 31.6728L14.5146 31.6766C15.47 32.2574 16.5692 32.5355 17.7838 32.5393H19.2103C19.8857 32.5393 20.4324 32.0095 20.4324 31.3549V29.183C20.4324 28.5284 19.8857 27.9854 19.2103 27.9854H17.8349C17.4092 27.9854 17.1008 27.8341 16.8454 27.5597C16.5711 27.2646 16.4368 26.9259 16.4368 26.5003C16.4443 19.6704 16.4613 12.8405 16.4613 6.01066C16.4613 5.20848 17.1122 4.55955 17.9124 4.55955C22.2297 4.55955 26.6076 4.54063 30.9495 4.54063C31.7781 4.54063 32.3532 3.83305 32.3532 3.08574V1.45489C32.3532 0.707582 31.7781 0 30.9495 0H30.9476Z" fill="white"/>
</g>
<defs>
<clipPath id="clip0_417_659">
<rect width="126" height="41" fill="white"/>
</clipPath>
</defs>
</svg>
