<svg xmlns="http://www.w3.org/2000/svg" xmlns:xlink="http://www.w3.org/1999/xlink" width="512" height="512" version="1.1" viewBox="0 0 512 512"><title>logo</title><defs><path id="path-1" d="M240.5,251 C280.540644,251 313,218.540644 313,178.5 C313,138.459356 280.540644,106 240.5,106 C200.459356,106 168,138.459356 168,178.5 C168,218.540644 200.459356,251 240.5,251 Z M179,312 L179,436 L105,436 L105,43 L240,43 C314.052758,43.2708341 374,103.384703 374,177.5 C374,251.782299 313.782299,312 239.5,312 L241,311.987 L241,312 L179,312 Z"/><filter id="filter-2" width="137.2%" height="122.9%" x="-9.3%" y="-10.2%" filterUnits="objectBoundingBox"><feOffset dx="30" dy="5" in="SourceAlpha" result="shadowOffsetOuter1"/><feGaussianBlur in="shadowOffsetOuter1" result="shadowBlurOuter1" stdDeviation="10"/><feColorMatrix in="shadowBlurOuter1" type="matrix" values="0 0 0 0 0 0 0 0 0 0 0 0 0 0 0 0 0 0 0.253425045 0"/></filter></defs><g id="logo" fill="none" fill-rule="evenodd" stroke="none" stroke-width="1"><g id="Group" transform="translate(17.000000, 17.000000)"><rect id="Rectangle" width="470" height="470" x="4" y="4" fill="#3B83F6" rx="69"/><g id="Oval"><use fill="#000" fill-opacity="1" filter="url(#filter-2)" xlink:href="#path-1"/><use fill="#FFF" fill-rule="evenodd" xlink:href="#path-1"/></g></g></g></svg>