<svg width="512" height="512" viewBox="0 0 512 512" fill="none" xmlns="http://www.w3.org/2000/svg">
<g clip-path="url(#clip0_301_115)">
<path d="M266.392 430C261.773 438 250.227 438 245.608 430L44.6898 82C40.071 74 45.8445 64 55.0821 64L456.918 64C466.156 64 471.929 74 467.31 82L266.392 430Z" fill="url(#paint0_linear_301_115)"/>
<g style="mix-blend-mode:overlay">
<mask id="mask0_301_115" style="mask-type:alpha" maskUnits="userSpaceOnUse" x="73" y="139" width="354" height="336">
<path d="M274 161C189.5 102 73.5 183.5 73.5 183.5L252.5 475L426.5 183.5C426.5 183.5 358.5 220 274 161Z" fill="url(#paint1_linear_301_115)"/>
</mask>
<g mask="url(#mask0_301_115)">
<path d="M266.392 430C261.773 438 250.227 438 245.608 430L44.6898 82C40.071 74 45.8445 64 55.0821 64L456.918 64C466.156 64 471.929 74 467.31 82L266.392 430Z" fill="#001AFF"/>
</g>
</g>
</g>
<defs>
<linearGradient id="paint0_linear_301_115" x1="494" y1="87" x2="41" y2="309" gradientUnits="userSpaceOnUse">
<stop stop-color="#7A85EC"/>
<stop offset="1" stop-color="#3DDCFF"/>
</linearGradient>
<linearGradient id="paint1_linear_301_115" x1="250" y1="139.563" x2="250" y2="475" gradientUnits="userSpaceOnUse">
<stop stop-color="#7696AD"/>
<stop offset="1" stop-color="#008FF6" stop-opacity="0"/>
</linearGradient>
<clipPath id="clip0_301_115">
<rect width="512" height="512" fill="white"/>
</clipPath>
</defs>
</svg>
