<svg width="47" height="40" viewBox="0 0 47 40" fill="none" xmlns="http://www.w3.org/2000/svg">
<path d="M36.1 20.172C37.9302 20.1715 39.7258 19.673 41.2943 18.7299C42.8628 17.7868 44.1451 16.4346 45.0037 14.8183C45.8624 13.202 46.265 11.3825 46.1684 9.5548C46.0718 7.72713 45.4797 5.9602 44.4555 4.44339C43.4313 2.92658 42.0136 1.71707 40.3545 0.944514C38.6953 0.171954 36.8571 -0.134534 35.0371 0.0578998C33.217 0.250334 31.4836 0.934434 30.0227 2.03688C28.5617 3.13932 27.4284 4.61855 26.744 6.316L23.093 0L16.165 12.009L23.093 24.018L32.4 8.025H41.637L23.093 40L11.547 20L0 40H46.187L34.682 20.07C35.1524 20.1365 35.6269 20.1699 36.102 20.17L36.1 20.172Z" fill="#34495E"/>
</svg>
